M48
;DRILL file {KiCad (5.0.1)-4} date 12/7/2018 10:44:26 PM
;FORMAT={-:-/ absolute / inch / decimal}
FMAT,2
INCH,TZ
T1C0.0100
T2C0.0157
T3C0.0394
T4C0.0236
T5C0.0295
%
G90
G05
M72
T1
X5.602Y-1.705
X5.6194Y-1.8926
X5.681Y-2.094
X5.702Y-2.12
X5.702Y-2.2
X5.707Y-1.922
X5.779Y-2.035
X5.794Y-2.199
X5.799Y-1.768
X5.81Y-2.076
X5.843Y-1.724
X5.881Y-2.176
X5.928Y-1.93
X5.954Y-1.6836
X5.954Y-1.806
X5.994Y-2.04
X6.0185Y-1.8385
X6.0833Y-1.8778
X6.0907Y-1.9433
X6.099Y-2.262
X6.1Y-2.303
X6.126Y-2.095
X6.1796Y-2.0146
X6.212Y-1.841
X6.342Y-1.622
X6.387Y-1.789
T2
X5.4989Y-2.4645
X5.4989Y-2.496
X5.4989Y-2.5275
X5.4989Y-2.5905
X5.4989Y-2.622
X5.4989Y-2.6535
X5.5264Y-2.4488
X5.5264Y-2.5118
X5.5264Y-2.5433
X5.5264Y-2.5747
X5.5264Y-2.6062
X5.5264Y-2.6692
T3
X5.56Y-1.229
X5.56Y-1.329
X5.56Y-1.429
X5.66Y-1.229
X5.66Y-1.329
X5.66Y-1.429
X5.373Y-1.573
X5.373Y-1.673
X5.373Y-1.773
X5.373Y-1.873
X5.373Y-1.973
X5.373Y-2.073
X5.373Y-2.173
X5.373Y-2.273
T4
X5.3788Y-2.3779
X5.3788Y-2.7401
X5.4969Y-2.3779
X5.4969Y-2.7401
T5
X5.552Y-2.4173
X5.552Y-2.7007
T0
M30
