G04 #@! TF.GenerationSoftware,KiCad,Pcbnew,(5.0.1)-4*
G04 #@! TF.CreationDate,2018-12-07T22:44:18-08:00*
G04 #@! TF.ProjectId,control_board,636F6E74726F6C5F626F6172642E6B69,rev?*
G04 #@! TF.SameCoordinates,Original*
G04 #@! TF.FileFunction,Soldermask,Top*
G04 #@! TF.FilePolarity,Negative*
%FSLAX46Y46*%
G04 Gerber Fmt 4.6, Leading zero omitted, Abs format (unit mm)*
G04 Created by KiCad (PCBNEW (5.0.1)-4) date 12/7/2018 10:44:18 PM*
%MOMM*%
%LPD*%
G01*
G04 APERTURE LIST*
%ADD10C,0.350000*%
%ADD11C,0.100000*%
G04 APERTURE END LIST*
D10*
G04 #@! TO.C,J1*
G36*
X139120800Y-70023600D02*
X140120800Y-70023600D01*
X140131926Y-70023600D01*
X140154154Y-70022440D01*
X140176290Y-70020110D01*
X140198274Y-70016630D01*
X140220046Y-70012000D01*
X140241545Y-70006240D01*
X140262714Y-69999360D01*
X140283494Y-69991380D01*
X140303828Y-69982330D01*
X140323660Y-69972230D01*
X140342936Y-69961100D01*
X140361603Y-69948980D01*
X140379610Y-69935890D01*
X140396908Y-69921880D01*
X140413449Y-69906990D01*
X140429188Y-69891250D01*
X140444082Y-69874710D01*
X140458089Y-69857410D01*
X140471172Y-69839410D01*
X140483295Y-69820740D01*
X140494424Y-69801460D01*
X140504529Y-69781630D01*
X140513582Y-69761300D01*
X140521559Y-69740520D01*
X140528437Y-69719350D01*
X140534198Y-69697850D01*
X140538826Y-69676080D01*
X140542308Y-69654100D01*
X140544635Y-69631960D01*
X140545800Y-69609730D01*
X140545800Y-69598600D01*
X140545800Y-69587470D01*
X140544635Y-69565250D01*
X140542309Y-69543110D01*
X140538827Y-69521130D01*
X140534199Y-69499350D01*
X140528439Y-69477850D01*
X140521561Y-69456690D01*
X140513584Y-69435910D01*
X140504531Y-69415570D01*
X140494426Y-69395740D01*
X140483298Y-69376460D01*
X140471175Y-69357800D01*
X140458092Y-69339790D01*
X140444085Y-69322490D01*
X140429191Y-69305950D01*
X140413453Y-69290210D01*
X140396912Y-69275320D01*
X140379614Y-69261310D01*
X140361607Y-69248230D01*
X140342940Y-69236110D01*
X140323664Y-69224980D01*
X140303832Y-69214870D01*
X140283499Y-69205820D01*
X140262719Y-69197840D01*
X140241550Y-69190960D01*
X140220051Y-69185200D01*
X140198279Y-69180570D01*
X140176295Y-69177090D01*
X140154159Y-69174770D01*
X140131932Y-69173600D01*
X140120800Y-69173600D01*
X139120800Y-69173600D01*
X139109670Y-69173600D01*
X139087450Y-69174760D01*
X139065310Y-69177090D01*
X139043330Y-69180570D01*
X139021550Y-69185200D01*
X139000050Y-69190960D01*
X138978890Y-69197840D01*
X138958110Y-69205820D01*
X138937770Y-69214870D01*
X138917940Y-69224970D01*
X138898660Y-69236100D01*
X138880000Y-69248220D01*
X138861990Y-69261310D01*
X138844690Y-69275320D01*
X138828150Y-69290210D01*
X138812410Y-69305950D01*
X138797520Y-69322490D01*
X138783510Y-69339790D01*
X138770430Y-69357790D01*
X138758310Y-69376460D01*
X138747180Y-69395740D01*
X138737070Y-69415570D01*
X138728020Y-69435900D01*
X138720040Y-69456680D01*
X138713160Y-69477850D01*
X138707400Y-69499350D01*
X138702770Y-69521120D01*
X138699290Y-69543100D01*
X138696970Y-69565240D01*
X138695800Y-69587470D01*
X138695800Y-69598600D01*
X138695800Y-69609730D01*
X138696960Y-69631950D01*
X138699290Y-69654090D01*
X138702770Y-69676070D01*
X138707400Y-69697850D01*
X138713160Y-69719350D01*
X138720040Y-69740510D01*
X138728020Y-69761290D01*
X138737070Y-69781630D01*
X138747170Y-69801460D01*
X138758300Y-69820740D01*
X138770420Y-69839400D01*
X138783510Y-69857410D01*
X138797520Y-69874710D01*
X138812410Y-69891250D01*
X138828150Y-69906990D01*
X138844690Y-69921880D01*
X138861990Y-69935890D01*
X138879990Y-69948970D01*
X138898660Y-69961090D01*
X138917940Y-69972220D01*
X138937770Y-69982330D01*
X138958100Y-69991380D01*
X138978880Y-69999360D01*
X139000050Y-70006240D01*
X139021550Y-70012000D01*
X139043320Y-70016630D01*
X139065300Y-70020110D01*
X139087440Y-70022430D01*
X139109670Y-70023600D01*
X139120800Y-70023600D01*
G37*
X139120800Y-70023600D02*
X140120800Y-70023600D01*
X140131926Y-70023600D01*
X140154154Y-70022440D01*
X140176290Y-70020110D01*
X140198274Y-70016630D01*
X140220046Y-70012000D01*
X140241545Y-70006240D01*
X140262714Y-69999360D01*
X140283494Y-69991380D01*
X140303828Y-69982330D01*
X140323660Y-69972230D01*
X140342936Y-69961100D01*
X140361603Y-69948980D01*
X140379610Y-69935890D01*
X140396908Y-69921880D01*
X140413449Y-69906990D01*
X140429188Y-69891250D01*
X140444082Y-69874710D01*
X140458089Y-69857410D01*
X140471172Y-69839410D01*
X140483295Y-69820740D01*
X140494424Y-69801460D01*
X140504529Y-69781630D01*
X140513582Y-69761300D01*
X140521559Y-69740520D01*
X140528437Y-69719350D01*
X140534198Y-69697850D01*
X140538826Y-69676080D01*
X140542308Y-69654100D01*
X140544635Y-69631960D01*
X140545800Y-69609730D01*
X140545800Y-69598600D01*
X140545800Y-69587470D01*
X140544635Y-69565250D01*
X140542309Y-69543110D01*
X140538827Y-69521130D01*
X140534199Y-69499350D01*
X140528439Y-69477850D01*
X140521561Y-69456690D01*
X140513584Y-69435910D01*
X140504531Y-69415570D01*
X140494426Y-69395740D01*
X140483298Y-69376460D01*
X140471175Y-69357800D01*
X140458092Y-69339790D01*
X140444085Y-69322490D01*
X140429191Y-69305950D01*
X140413453Y-69290210D01*
X140396912Y-69275320D01*
X140379614Y-69261310D01*
X140361607Y-69248230D01*
X140342940Y-69236110D01*
X140323664Y-69224980D01*
X140303832Y-69214870D01*
X140283499Y-69205820D01*
X140262719Y-69197840D01*
X140241550Y-69190960D01*
X140220051Y-69185200D01*
X140198279Y-69180570D01*
X140176295Y-69177090D01*
X140154159Y-69174770D01*
X140131932Y-69173600D01*
X140120800Y-69173600D01*
X139120800Y-69173600D01*
X139109670Y-69173600D01*
X139087450Y-69174760D01*
X139065310Y-69177090D01*
X139043330Y-69180570D01*
X139021550Y-69185200D01*
X139000050Y-69190960D01*
X138978890Y-69197840D01*
X138958110Y-69205820D01*
X138937770Y-69214870D01*
X138917940Y-69224970D01*
X138898660Y-69236100D01*
X138880000Y-69248220D01*
X138861990Y-69261310D01*
X138844690Y-69275320D01*
X138828150Y-69290210D01*
X138812410Y-69305950D01*
X138797520Y-69322490D01*
X138783510Y-69339790D01*
X138770430Y-69357790D01*
X138758310Y-69376460D01*
X138747180Y-69395740D01*
X138737070Y-69415570D01*
X138728020Y-69435900D01*
X138720040Y-69456680D01*
X138713160Y-69477850D01*
X138707400Y-69499350D01*
X138702770Y-69521120D01*
X138699290Y-69543100D01*
X138696970Y-69565240D01*
X138695800Y-69587470D01*
X138695800Y-69598600D01*
X138695800Y-69609730D01*
X138696960Y-69631950D01*
X138699290Y-69654090D01*
X138702770Y-69676070D01*
X138707400Y-69697850D01*
X138713160Y-69719350D01*
X138720040Y-69740510D01*
X138728020Y-69761290D01*
X138737070Y-69781630D01*
X138747170Y-69801460D01*
X138758300Y-69820740D01*
X138770420Y-69839400D01*
X138783510Y-69857410D01*
X138797520Y-69874710D01*
X138812410Y-69891250D01*
X138828150Y-69906990D01*
X138844690Y-69921880D01*
X138861990Y-69935890D01*
X138879990Y-69948970D01*
X138898660Y-69961090D01*
X138917940Y-69972220D01*
X138937770Y-69982330D01*
X138958100Y-69991380D01*
X138978880Y-69999360D01*
X139000050Y-70006240D01*
X139021550Y-70012000D01*
X139043320Y-70016630D01*
X139065300Y-70020110D01*
X139087440Y-70022430D01*
X139109670Y-70023600D01*
X139120800Y-70023600D01*
G36*
X136120800Y-70023600D02*
X137120800Y-70023600D01*
X137131930Y-70023600D01*
X137154150Y-70022440D01*
X137176290Y-70020110D01*
X137198270Y-70016630D01*
X137220050Y-70012000D01*
X137241550Y-70006240D01*
X137262710Y-69999360D01*
X137283490Y-69991380D01*
X137303830Y-69982330D01*
X137323660Y-69972230D01*
X137342940Y-69961100D01*
X137361600Y-69948980D01*
X137379610Y-69935890D01*
X137396910Y-69921880D01*
X137413450Y-69906990D01*
X137429190Y-69891250D01*
X137444080Y-69874710D01*
X137458090Y-69857410D01*
X137471170Y-69839410D01*
X137483290Y-69820740D01*
X137494420Y-69801460D01*
X137504530Y-69781630D01*
X137513580Y-69761300D01*
X137521560Y-69740520D01*
X137528440Y-69719350D01*
X137534200Y-69697850D01*
X137538830Y-69676080D01*
X137542310Y-69654100D01*
X137544630Y-69631960D01*
X137545800Y-69609730D01*
X137545800Y-69598600D01*
X137545800Y-69587470D01*
X137544640Y-69565250D01*
X137542310Y-69543110D01*
X137538830Y-69521130D01*
X137534200Y-69499350D01*
X137528440Y-69477850D01*
X137521560Y-69456690D01*
X137513580Y-69435910D01*
X137504530Y-69415570D01*
X137494430Y-69395740D01*
X137483300Y-69376460D01*
X137471180Y-69357800D01*
X137458090Y-69339790D01*
X137444080Y-69322490D01*
X137429190Y-69305950D01*
X137413450Y-69290210D01*
X137396910Y-69275320D01*
X137379610Y-69261310D01*
X137361610Y-69248230D01*
X137342940Y-69236110D01*
X137323660Y-69224980D01*
X137303830Y-69214870D01*
X137283500Y-69205820D01*
X137262720Y-69197840D01*
X137241550Y-69190960D01*
X137220050Y-69185200D01*
X137198280Y-69180570D01*
X137176300Y-69177090D01*
X137154160Y-69174770D01*
X137131930Y-69173600D01*
X137120800Y-69173600D01*
X136120800Y-69173600D01*
X136109670Y-69173600D01*
X136087450Y-69174760D01*
X136065310Y-69177090D01*
X136043330Y-69180570D01*
X136021550Y-69185200D01*
X136000050Y-69190960D01*
X135978890Y-69197840D01*
X135958110Y-69205820D01*
X135937770Y-69214870D01*
X135917940Y-69224970D01*
X135898660Y-69236100D01*
X135880000Y-69248220D01*
X135861990Y-69261310D01*
X135844690Y-69275320D01*
X135828150Y-69290210D01*
X135812410Y-69305950D01*
X135797520Y-69322490D01*
X135783510Y-69339790D01*
X135770430Y-69357790D01*
X135758310Y-69376460D01*
X135747180Y-69395740D01*
X135737070Y-69415570D01*
X135728020Y-69435900D01*
X135720040Y-69456680D01*
X135713160Y-69477850D01*
X135707400Y-69499350D01*
X135702770Y-69521120D01*
X135699290Y-69543100D01*
X135696970Y-69565240D01*
X135695800Y-69587470D01*
X135695800Y-69598600D01*
X135695800Y-69609730D01*
X135696960Y-69631950D01*
X135699290Y-69654090D01*
X135702770Y-69676070D01*
X135707400Y-69697850D01*
X135713160Y-69719350D01*
X135720040Y-69740510D01*
X135728020Y-69761290D01*
X135737070Y-69781630D01*
X135747170Y-69801460D01*
X135758300Y-69820740D01*
X135770420Y-69839400D01*
X135783510Y-69857410D01*
X135797520Y-69874710D01*
X135812410Y-69891250D01*
X135828150Y-69906990D01*
X135844690Y-69921880D01*
X135861990Y-69935890D01*
X135879990Y-69948970D01*
X135898660Y-69961090D01*
X135917940Y-69972220D01*
X135937770Y-69982330D01*
X135958100Y-69991380D01*
X135978880Y-69999360D01*
X136000050Y-70006240D01*
X136021550Y-70012000D01*
X136043320Y-70016630D01*
X136065300Y-70020110D01*
X136087440Y-70022430D01*
X136109670Y-70023600D01*
X136120800Y-70023600D01*
G37*
X136120800Y-70023600D02*
X137120800Y-70023600D01*
X137131930Y-70023600D01*
X137154150Y-70022440D01*
X137176290Y-70020110D01*
X137198270Y-70016630D01*
X137220050Y-70012000D01*
X137241550Y-70006240D01*
X137262710Y-69999360D01*
X137283490Y-69991380D01*
X137303830Y-69982330D01*
X137323660Y-69972230D01*
X137342940Y-69961100D01*
X137361600Y-69948980D01*
X137379610Y-69935890D01*
X137396910Y-69921880D01*
X137413450Y-69906990D01*
X137429190Y-69891250D01*
X137444080Y-69874710D01*
X137458090Y-69857410D01*
X137471170Y-69839410D01*
X137483290Y-69820740D01*
X137494420Y-69801460D01*
X137504530Y-69781630D01*
X137513580Y-69761300D01*
X137521560Y-69740520D01*
X137528440Y-69719350D01*
X137534200Y-69697850D01*
X137538830Y-69676080D01*
X137542310Y-69654100D01*
X137544630Y-69631960D01*
X137545800Y-69609730D01*
X137545800Y-69598600D01*
X137545800Y-69587470D01*
X137544640Y-69565250D01*
X137542310Y-69543110D01*
X137538830Y-69521130D01*
X137534200Y-69499350D01*
X137528440Y-69477850D01*
X137521560Y-69456690D01*
X137513580Y-69435910D01*
X137504530Y-69415570D01*
X137494430Y-69395740D01*
X137483300Y-69376460D01*
X137471180Y-69357800D01*
X137458090Y-69339790D01*
X137444080Y-69322490D01*
X137429190Y-69305950D01*
X137413450Y-69290210D01*
X137396910Y-69275320D01*
X137379610Y-69261310D01*
X137361610Y-69248230D01*
X137342940Y-69236110D01*
X137323660Y-69224980D01*
X137303830Y-69214870D01*
X137283500Y-69205820D01*
X137262720Y-69197840D01*
X137241550Y-69190960D01*
X137220050Y-69185200D01*
X137198280Y-69180570D01*
X137176300Y-69177090D01*
X137154160Y-69174770D01*
X137131930Y-69173600D01*
X137120800Y-69173600D01*
X136120800Y-69173600D01*
X136109670Y-69173600D01*
X136087450Y-69174760D01*
X136065310Y-69177090D01*
X136043330Y-69180570D01*
X136021550Y-69185200D01*
X136000050Y-69190960D01*
X135978890Y-69197840D01*
X135958110Y-69205820D01*
X135937770Y-69214870D01*
X135917940Y-69224970D01*
X135898660Y-69236100D01*
X135880000Y-69248220D01*
X135861990Y-69261310D01*
X135844690Y-69275320D01*
X135828150Y-69290210D01*
X135812410Y-69305950D01*
X135797520Y-69322490D01*
X135783510Y-69339790D01*
X135770430Y-69357790D01*
X135758310Y-69376460D01*
X135747180Y-69395740D01*
X135737070Y-69415570D01*
X135728020Y-69435900D01*
X135720040Y-69456680D01*
X135713160Y-69477850D01*
X135707400Y-69499350D01*
X135702770Y-69521120D01*
X135699290Y-69543100D01*
X135696970Y-69565240D01*
X135695800Y-69587470D01*
X135695800Y-69598600D01*
X135695800Y-69609730D01*
X135696960Y-69631950D01*
X135699290Y-69654090D01*
X135702770Y-69676070D01*
X135707400Y-69697850D01*
X135713160Y-69719350D01*
X135720040Y-69740510D01*
X135728020Y-69761290D01*
X135737070Y-69781630D01*
X135747170Y-69801460D01*
X135758300Y-69820740D01*
X135770420Y-69839400D01*
X135783510Y-69857410D01*
X135797520Y-69874710D01*
X135812410Y-69891250D01*
X135828150Y-69906990D01*
X135844690Y-69921880D01*
X135861990Y-69935890D01*
X135879990Y-69948970D01*
X135898660Y-69961090D01*
X135917940Y-69972220D01*
X135937770Y-69982330D01*
X135958100Y-69991380D01*
X135978880Y-69999360D01*
X136000050Y-70006240D01*
X136021550Y-70012000D01*
X136043320Y-70016630D01*
X136065300Y-70020110D01*
X136087440Y-70022430D01*
X136109670Y-70023600D01*
X136120800Y-70023600D01*
G36*
X139120800Y-60823600D02*
X140120800Y-60823600D01*
X140131926Y-60823600D01*
X140154154Y-60822440D01*
X140176290Y-60820110D01*
X140198274Y-60816630D01*
X140220046Y-60812000D01*
X140241545Y-60806240D01*
X140262714Y-60799360D01*
X140283494Y-60791380D01*
X140303828Y-60782330D01*
X140323660Y-60772230D01*
X140342936Y-60761100D01*
X140361603Y-60748980D01*
X140379610Y-60735890D01*
X140396908Y-60721880D01*
X140413449Y-60706990D01*
X140429188Y-60691250D01*
X140444082Y-60674710D01*
X140458089Y-60657410D01*
X140471172Y-60639410D01*
X140483295Y-60620740D01*
X140494424Y-60601460D01*
X140504529Y-60581630D01*
X140513582Y-60561300D01*
X140521559Y-60540520D01*
X140528437Y-60519350D01*
X140534198Y-60497850D01*
X140538826Y-60476080D01*
X140542308Y-60454100D01*
X140544635Y-60431960D01*
X140545800Y-60409730D01*
X140545800Y-60398600D01*
X140545800Y-60387470D01*
X140544635Y-60365250D01*
X140542309Y-60343110D01*
X140538827Y-60321130D01*
X140534199Y-60299350D01*
X140528439Y-60277850D01*
X140521561Y-60256690D01*
X140513584Y-60235910D01*
X140504531Y-60215570D01*
X140494426Y-60195740D01*
X140483298Y-60176460D01*
X140471175Y-60157800D01*
X140458092Y-60139790D01*
X140444085Y-60122490D01*
X140429191Y-60105950D01*
X140413453Y-60090210D01*
X140396912Y-60075320D01*
X140379614Y-60061310D01*
X140361607Y-60048230D01*
X140342940Y-60036110D01*
X140323664Y-60024980D01*
X140303832Y-60014870D01*
X140283499Y-60005820D01*
X140262719Y-59997840D01*
X140241550Y-59990960D01*
X140220051Y-59985200D01*
X140198279Y-59980570D01*
X140176295Y-59977090D01*
X140154159Y-59974770D01*
X140131932Y-59973600D01*
X140120800Y-59973600D01*
X139120800Y-59973600D01*
X139109670Y-59973600D01*
X139087450Y-59974760D01*
X139065310Y-59977090D01*
X139043330Y-59980570D01*
X139021550Y-59985200D01*
X139000050Y-59990960D01*
X138978890Y-59997840D01*
X138958110Y-60005820D01*
X138937770Y-60014870D01*
X138917940Y-60024970D01*
X138898660Y-60036100D01*
X138880000Y-60048220D01*
X138861990Y-60061310D01*
X138844690Y-60075320D01*
X138828150Y-60090210D01*
X138812410Y-60105950D01*
X138797520Y-60122490D01*
X138783510Y-60139790D01*
X138770430Y-60157790D01*
X138758310Y-60176460D01*
X138747180Y-60195740D01*
X138737070Y-60215570D01*
X138728020Y-60235900D01*
X138720040Y-60256680D01*
X138713160Y-60277850D01*
X138707400Y-60299350D01*
X138702770Y-60321120D01*
X138699290Y-60343100D01*
X138696970Y-60365240D01*
X138695800Y-60387470D01*
X138695800Y-60398600D01*
X138695800Y-60409730D01*
X138696960Y-60431950D01*
X138699290Y-60454090D01*
X138702770Y-60476070D01*
X138707400Y-60497850D01*
X138713160Y-60519350D01*
X138720040Y-60540510D01*
X138728020Y-60561290D01*
X138737070Y-60581630D01*
X138747170Y-60601460D01*
X138758300Y-60620740D01*
X138770420Y-60639400D01*
X138783510Y-60657410D01*
X138797520Y-60674710D01*
X138812410Y-60691250D01*
X138828150Y-60706990D01*
X138844690Y-60721880D01*
X138861990Y-60735890D01*
X138879990Y-60748970D01*
X138898660Y-60761090D01*
X138917940Y-60772220D01*
X138937770Y-60782330D01*
X138958100Y-60791380D01*
X138978880Y-60799360D01*
X139000050Y-60806240D01*
X139021550Y-60812000D01*
X139043320Y-60816630D01*
X139065300Y-60820110D01*
X139087440Y-60822430D01*
X139109670Y-60823600D01*
X139120800Y-60823600D01*
G37*
X139120800Y-60823600D02*
X140120800Y-60823600D01*
X140131926Y-60823600D01*
X140154154Y-60822440D01*
X140176290Y-60820110D01*
X140198274Y-60816630D01*
X140220046Y-60812000D01*
X140241545Y-60806240D01*
X140262714Y-60799360D01*
X140283494Y-60791380D01*
X140303828Y-60782330D01*
X140323660Y-60772230D01*
X140342936Y-60761100D01*
X140361603Y-60748980D01*
X140379610Y-60735890D01*
X140396908Y-60721880D01*
X140413449Y-60706990D01*
X140429188Y-60691250D01*
X140444082Y-60674710D01*
X140458089Y-60657410D01*
X140471172Y-60639410D01*
X140483295Y-60620740D01*
X140494424Y-60601460D01*
X140504529Y-60581630D01*
X140513582Y-60561300D01*
X140521559Y-60540520D01*
X140528437Y-60519350D01*
X140534198Y-60497850D01*
X140538826Y-60476080D01*
X140542308Y-60454100D01*
X140544635Y-60431960D01*
X140545800Y-60409730D01*
X140545800Y-60398600D01*
X140545800Y-60387470D01*
X140544635Y-60365250D01*
X140542309Y-60343110D01*
X140538827Y-60321130D01*
X140534199Y-60299350D01*
X140528439Y-60277850D01*
X140521561Y-60256690D01*
X140513584Y-60235910D01*
X140504531Y-60215570D01*
X140494426Y-60195740D01*
X140483298Y-60176460D01*
X140471175Y-60157800D01*
X140458092Y-60139790D01*
X140444085Y-60122490D01*
X140429191Y-60105950D01*
X140413453Y-60090210D01*
X140396912Y-60075320D01*
X140379614Y-60061310D01*
X140361607Y-60048230D01*
X140342940Y-60036110D01*
X140323664Y-60024980D01*
X140303832Y-60014870D01*
X140283499Y-60005820D01*
X140262719Y-59997840D01*
X140241550Y-59990960D01*
X140220051Y-59985200D01*
X140198279Y-59980570D01*
X140176295Y-59977090D01*
X140154159Y-59974770D01*
X140131932Y-59973600D01*
X140120800Y-59973600D01*
X139120800Y-59973600D01*
X139109670Y-59973600D01*
X139087450Y-59974760D01*
X139065310Y-59977090D01*
X139043330Y-59980570D01*
X139021550Y-59985200D01*
X139000050Y-59990960D01*
X138978890Y-59997840D01*
X138958110Y-60005820D01*
X138937770Y-60014870D01*
X138917940Y-60024970D01*
X138898660Y-60036100D01*
X138880000Y-60048220D01*
X138861990Y-60061310D01*
X138844690Y-60075320D01*
X138828150Y-60090210D01*
X138812410Y-60105950D01*
X138797520Y-60122490D01*
X138783510Y-60139790D01*
X138770430Y-60157790D01*
X138758310Y-60176460D01*
X138747180Y-60195740D01*
X138737070Y-60215570D01*
X138728020Y-60235900D01*
X138720040Y-60256680D01*
X138713160Y-60277850D01*
X138707400Y-60299350D01*
X138702770Y-60321120D01*
X138699290Y-60343100D01*
X138696970Y-60365240D01*
X138695800Y-60387470D01*
X138695800Y-60398600D01*
X138695800Y-60409730D01*
X138696960Y-60431950D01*
X138699290Y-60454090D01*
X138702770Y-60476070D01*
X138707400Y-60497850D01*
X138713160Y-60519350D01*
X138720040Y-60540510D01*
X138728020Y-60561290D01*
X138737070Y-60581630D01*
X138747170Y-60601460D01*
X138758300Y-60620740D01*
X138770420Y-60639400D01*
X138783510Y-60657410D01*
X138797520Y-60674710D01*
X138812410Y-60691250D01*
X138828150Y-60706990D01*
X138844690Y-60721880D01*
X138861990Y-60735890D01*
X138879990Y-60748970D01*
X138898660Y-60761090D01*
X138917940Y-60772220D01*
X138937770Y-60782330D01*
X138958100Y-60791380D01*
X138978880Y-60799360D01*
X139000050Y-60806240D01*
X139021550Y-60812000D01*
X139043320Y-60816630D01*
X139065300Y-60820110D01*
X139087440Y-60822430D01*
X139109670Y-60823600D01*
X139120800Y-60823600D01*
G36*
X136120800Y-60823600D02*
X137120800Y-60823600D01*
X137131930Y-60823600D01*
X137154150Y-60822440D01*
X137176290Y-60820110D01*
X137198270Y-60816630D01*
X137220050Y-60812000D01*
X137241550Y-60806240D01*
X137262710Y-60799360D01*
X137283490Y-60791380D01*
X137303830Y-60782330D01*
X137323660Y-60772230D01*
X137342940Y-60761100D01*
X137361600Y-60748980D01*
X137379610Y-60735890D01*
X137396910Y-60721880D01*
X137413450Y-60706990D01*
X137429190Y-60691250D01*
X137444080Y-60674710D01*
X137458090Y-60657410D01*
X137471170Y-60639410D01*
X137483290Y-60620740D01*
X137494420Y-60601460D01*
X137504530Y-60581630D01*
X137513580Y-60561300D01*
X137521560Y-60540520D01*
X137528440Y-60519350D01*
X137534200Y-60497850D01*
X137538830Y-60476080D01*
X137542310Y-60454100D01*
X137544630Y-60431960D01*
X137545800Y-60409730D01*
X137545800Y-60398600D01*
X137545800Y-60387470D01*
X137544640Y-60365250D01*
X137542310Y-60343110D01*
X137538830Y-60321130D01*
X137534200Y-60299350D01*
X137528440Y-60277850D01*
X137521560Y-60256690D01*
X137513580Y-60235910D01*
X137504530Y-60215570D01*
X137494430Y-60195740D01*
X137483300Y-60176460D01*
X137471180Y-60157800D01*
X137458090Y-60139790D01*
X137444080Y-60122490D01*
X137429190Y-60105950D01*
X137413450Y-60090210D01*
X137396910Y-60075320D01*
X137379610Y-60061310D01*
X137361610Y-60048230D01*
X137342940Y-60036110D01*
X137323660Y-60024980D01*
X137303830Y-60014870D01*
X137283500Y-60005820D01*
X137262720Y-59997840D01*
X137241550Y-59990960D01*
X137220050Y-59985200D01*
X137198280Y-59980570D01*
X137176300Y-59977090D01*
X137154160Y-59974770D01*
X137131930Y-59973600D01*
X137120800Y-59973600D01*
X136120800Y-59973600D01*
X136109670Y-59973600D01*
X136087450Y-59974760D01*
X136065310Y-59977090D01*
X136043330Y-59980570D01*
X136021550Y-59985200D01*
X136000050Y-59990960D01*
X135978890Y-59997840D01*
X135958110Y-60005820D01*
X135937770Y-60014870D01*
X135917940Y-60024970D01*
X135898660Y-60036100D01*
X135880000Y-60048220D01*
X135861990Y-60061310D01*
X135844690Y-60075320D01*
X135828150Y-60090210D01*
X135812410Y-60105950D01*
X135797520Y-60122490D01*
X135783510Y-60139790D01*
X135770430Y-60157790D01*
X135758310Y-60176460D01*
X135747180Y-60195740D01*
X135737070Y-60215570D01*
X135728020Y-60235900D01*
X135720040Y-60256680D01*
X135713160Y-60277850D01*
X135707400Y-60299350D01*
X135702770Y-60321120D01*
X135699290Y-60343100D01*
X135696970Y-60365240D01*
X135695800Y-60387470D01*
X135695800Y-60398600D01*
X135695800Y-60409730D01*
X135696960Y-60431950D01*
X135699290Y-60454090D01*
X135702770Y-60476070D01*
X135707400Y-60497850D01*
X135713160Y-60519350D01*
X135720040Y-60540510D01*
X135728020Y-60561290D01*
X135737070Y-60581630D01*
X135747170Y-60601460D01*
X135758300Y-60620740D01*
X135770420Y-60639400D01*
X135783510Y-60657410D01*
X135797520Y-60674710D01*
X135812410Y-60691250D01*
X135828150Y-60706990D01*
X135844690Y-60721880D01*
X135861990Y-60735890D01*
X135879990Y-60748970D01*
X135898660Y-60761090D01*
X135917940Y-60772220D01*
X135937770Y-60782330D01*
X135958100Y-60791380D01*
X135978880Y-60799360D01*
X136000050Y-60806240D01*
X136021550Y-60812000D01*
X136043320Y-60816630D01*
X136065300Y-60820110D01*
X136087440Y-60822430D01*
X136109670Y-60823600D01*
X136120800Y-60823600D01*
G37*
X136120800Y-60823600D02*
X137120800Y-60823600D01*
X137131930Y-60823600D01*
X137154150Y-60822440D01*
X137176290Y-60820110D01*
X137198270Y-60816630D01*
X137220050Y-60812000D01*
X137241550Y-60806240D01*
X137262710Y-60799360D01*
X137283490Y-60791380D01*
X137303830Y-60782330D01*
X137323660Y-60772230D01*
X137342940Y-60761100D01*
X137361600Y-60748980D01*
X137379610Y-60735890D01*
X137396910Y-60721880D01*
X137413450Y-60706990D01*
X137429190Y-60691250D01*
X137444080Y-60674710D01*
X137458090Y-60657410D01*
X137471170Y-60639410D01*
X137483290Y-60620740D01*
X137494420Y-60601460D01*
X137504530Y-60581630D01*
X137513580Y-60561300D01*
X137521560Y-60540520D01*
X137528440Y-60519350D01*
X137534200Y-60497850D01*
X137538830Y-60476080D01*
X137542310Y-60454100D01*
X137544630Y-60431960D01*
X137545800Y-60409730D01*
X137545800Y-60398600D01*
X137545800Y-60387470D01*
X137544640Y-60365250D01*
X137542310Y-60343110D01*
X137538830Y-60321130D01*
X137534200Y-60299350D01*
X137528440Y-60277850D01*
X137521560Y-60256690D01*
X137513580Y-60235910D01*
X137504530Y-60215570D01*
X137494430Y-60195740D01*
X137483300Y-60176460D01*
X137471180Y-60157800D01*
X137458090Y-60139790D01*
X137444080Y-60122490D01*
X137429190Y-60105950D01*
X137413450Y-60090210D01*
X137396910Y-60075320D01*
X137379610Y-60061310D01*
X137361610Y-60048230D01*
X137342940Y-60036110D01*
X137323660Y-60024980D01*
X137303830Y-60014870D01*
X137283500Y-60005820D01*
X137262720Y-59997840D01*
X137241550Y-59990960D01*
X137220050Y-59985200D01*
X137198280Y-59980570D01*
X137176300Y-59977090D01*
X137154160Y-59974770D01*
X137131930Y-59973600D01*
X137120800Y-59973600D01*
X136120800Y-59973600D01*
X136109670Y-59973600D01*
X136087450Y-59974760D01*
X136065310Y-59977090D01*
X136043330Y-59980570D01*
X136021550Y-59985200D01*
X136000050Y-59990960D01*
X135978890Y-59997840D01*
X135958110Y-60005820D01*
X135937770Y-60014870D01*
X135917940Y-60024970D01*
X135898660Y-60036100D01*
X135880000Y-60048220D01*
X135861990Y-60061310D01*
X135844690Y-60075320D01*
X135828150Y-60090210D01*
X135812410Y-60105950D01*
X135797520Y-60122490D01*
X135783510Y-60139790D01*
X135770430Y-60157790D01*
X135758310Y-60176460D01*
X135747180Y-60195740D01*
X135737070Y-60215570D01*
X135728020Y-60235900D01*
X135720040Y-60256680D01*
X135713160Y-60277850D01*
X135707400Y-60299350D01*
X135702770Y-60321120D01*
X135699290Y-60343100D01*
X135696970Y-60365240D01*
X135695800Y-60387470D01*
X135695800Y-60398600D01*
X135695800Y-60409730D01*
X135696960Y-60431950D01*
X135699290Y-60454090D01*
X135702770Y-60476070D01*
X135707400Y-60497850D01*
X135713160Y-60519350D01*
X135720040Y-60540510D01*
X135728020Y-60561290D01*
X135737070Y-60581630D01*
X135747170Y-60601460D01*
X135758300Y-60620740D01*
X135770420Y-60639400D01*
X135783510Y-60657410D01*
X135797520Y-60674710D01*
X135812410Y-60691250D01*
X135828150Y-60706990D01*
X135844690Y-60721880D01*
X135861990Y-60735890D01*
X135879990Y-60748970D01*
X135898660Y-60761090D01*
X135917940Y-60772220D01*
X135937770Y-60782330D01*
X135958100Y-60791380D01*
X135978880Y-60799360D01*
X136000050Y-60806240D01*
X136021550Y-60812000D01*
X136043320Y-60816630D01*
X136065300Y-60820110D01*
X136087440Y-60822430D01*
X136109670Y-60823600D01*
X136120800Y-60823600D01*
D11*
G36*
X139708307Y-69310128D02*
X139762903Y-69332743D01*
X139812039Y-69365574D01*
X139853826Y-69407361D01*
X139886657Y-69456497D01*
X139909272Y-69511093D01*
X139920800Y-69569053D01*
X139920800Y-69628147D01*
X139909272Y-69686107D01*
X139886657Y-69740703D01*
X139853826Y-69789839D01*
X139812039Y-69831626D01*
X139762903Y-69864457D01*
X139708307Y-69887072D01*
X139650347Y-69898600D01*
X139591253Y-69898600D01*
X139533293Y-69887072D01*
X139478697Y-69864457D01*
X139429561Y-69831626D01*
X139387774Y-69789839D01*
X139354943Y-69740703D01*
X139332328Y-69686107D01*
X139320800Y-69628147D01*
X139320800Y-69569053D01*
X139332328Y-69511093D01*
X139354943Y-69456497D01*
X139387774Y-69407361D01*
X139429561Y-69365574D01*
X139478697Y-69332743D01*
X139533293Y-69310128D01*
X139591253Y-69298600D01*
X139650347Y-69298600D01*
X139708307Y-69310128D01*
X139708307Y-69310128D01*
G37*
G36*
X136708307Y-69310128D02*
X136762903Y-69332743D01*
X136812039Y-69365574D01*
X136853826Y-69407361D01*
X136886657Y-69456497D01*
X136909272Y-69511093D01*
X136920800Y-69569053D01*
X136920800Y-69628147D01*
X136909272Y-69686107D01*
X136886657Y-69740703D01*
X136853826Y-69789839D01*
X136812039Y-69831626D01*
X136762903Y-69864457D01*
X136708307Y-69887072D01*
X136650347Y-69898600D01*
X136591253Y-69898600D01*
X136533293Y-69887072D01*
X136478697Y-69864457D01*
X136429561Y-69831626D01*
X136387774Y-69789839D01*
X136354943Y-69740703D01*
X136332328Y-69686107D01*
X136320800Y-69628147D01*
X136320800Y-69569053D01*
X136332328Y-69511093D01*
X136354943Y-69456497D01*
X136387774Y-69407361D01*
X136429561Y-69365574D01*
X136478697Y-69332743D01*
X136533293Y-69310128D01*
X136591253Y-69298600D01*
X136650347Y-69298600D01*
X136708307Y-69310128D01*
X136708307Y-69310128D01*
G37*
G36*
X141130184Y-68238011D02*
X141198429Y-68266279D01*
X141259849Y-68307319D01*
X141312081Y-68359551D01*
X141353121Y-68420971D01*
X141381389Y-68489216D01*
X141395800Y-68561665D01*
X141395800Y-68635535D01*
X141381389Y-68707984D01*
X141353121Y-68776229D01*
X141312081Y-68837649D01*
X141259849Y-68889881D01*
X141198429Y-68930921D01*
X141130184Y-68959189D01*
X141057735Y-68973600D01*
X140983865Y-68973600D01*
X140911416Y-68959189D01*
X140843171Y-68930921D01*
X140781751Y-68889881D01*
X140729519Y-68837649D01*
X140688479Y-68776229D01*
X140660211Y-68707984D01*
X140645800Y-68635535D01*
X140645800Y-68561665D01*
X140660211Y-68489216D01*
X140688479Y-68420971D01*
X140729519Y-68359551D01*
X140781751Y-68307319D01*
X140843171Y-68266279D01*
X140911416Y-68238011D01*
X140983865Y-68223600D01*
X141057735Y-68223600D01*
X141130184Y-68238011D01*
X141130184Y-68238011D01*
G37*
G36*
X140465599Y-61886089D02*
X140511343Y-61905037D01*
X140524741Y-61910586D01*
X140524742Y-61910587D01*
X140524745Y-61910588D01*
X140577976Y-61946156D01*
X140623244Y-61991424D01*
X140658812Y-62044655D01*
X140683311Y-62103801D01*
X140695800Y-62166590D01*
X140695800Y-62230610D01*
X140683311Y-62293399D01*
X140668826Y-62328368D01*
X140661459Y-62346156D01*
X140658812Y-62352545D01*
X140623244Y-62405776D01*
X140577976Y-62451044D01*
X140524745Y-62486612D01*
X140524742Y-62486613D01*
X140524741Y-62486614D01*
X140511343Y-62492163D01*
X140465599Y-62511111D01*
X140402810Y-62523600D01*
X140338790Y-62523600D01*
X140276001Y-62511111D01*
X140224412Y-62489742D01*
X140216857Y-62486613D01*
X140216856Y-62486613D01*
X140216855Y-62486612D01*
X140190243Y-62468831D01*
X140168635Y-62457281D01*
X140145186Y-62450168D01*
X140120800Y-62447766D01*
X140096414Y-62450168D01*
X140072964Y-62457281D01*
X140051354Y-62468832D01*
X140032412Y-62484378D01*
X140016866Y-62503320D01*
X140005315Y-62524931D01*
X139998202Y-62548380D01*
X139995800Y-62572766D01*
X139995800Y-62630610D01*
X139983311Y-62693399D01*
X139958812Y-62752545D01*
X139923244Y-62805776D01*
X139877976Y-62851044D01*
X139824745Y-62886612D01*
X139824742Y-62886613D01*
X139817138Y-62891694D01*
X139811572Y-62894669D01*
X139792631Y-62910215D01*
X139777086Y-62929157D01*
X139765536Y-62950768D01*
X139758423Y-62974218D01*
X139756022Y-62998604D01*
X139758425Y-63022990D01*
X139765539Y-63046439D01*
X139777091Y-63068050D01*
X139792637Y-63086991D01*
X139811579Y-63102536D01*
X139817145Y-63105511D01*
X139824740Y-63110586D01*
X139824745Y-63110588D01*
X139877976Y-63146156D01*
X139923244Y-63191424D01*
X139958812Y-63244655D01*
X139983311Y-63303801D01*
X139995800Y-63366590D01*
X139995800Y-63424434D01*
X139998202Y-63448820D01*
X140005315Y-63472269D01*
X140016866Y-63493880D01*
X140032412Y-63512822D01*
X140051354Y-63528368D01*
X140072965Y-63539919D01*
X140096414Y-63547032D01*
X140120800Y-63549434D01*
X140145186Y-63547032D01*
X140168635Y-63539919D01*
X140190243Y-63528369D01*
X140216855Y-63510588D01*
X140216860Y-63510586D01*
X140224412Y-63507458D01*
X140276001Y-63486089D01*
X140338790Y-63473600D01*
X140402810Y-63473600D01*
X140465599Y-63486089D01*
X140511343Y-63505037D01*
X140524741Y-63510586D01*
X140524742Y-63510587D01*
X140524745Y-63510588D01*
X140577976Y-63546156D01*
X140623244Y-63591424D01*
X140658812Y-63644655D01*
X140658813Y-63644658D01*
X140658814Y-63644659D01*
X140664042Y-63657281D01*
X140683311Y-63703801D01*
X140695800Y-63766590D01*
X140695800Y-63830610D01*
X140683311Y-63893399D01*
X140668826Y-63928368D01*
X140661459Y-63946156D01*
X140658812Y-63952545D01*
X140623244Y-64005776D01*
X140577976Y-64051044D01*
X140524745Y-64086612D01*
X140524742Y-64086613D01*
X140517138Y-64091694D01*
X140511572Y-64094669D01*
X140492631Y-64110215D01*
X140477086Y-64129157D01*
X140465536Y-64150768D01*
X140458423Y-64174218D01*
X140456022Y-64198604D01*
X140458425Y-64222990D01*
X140465539Y-64246439D01*
X140477091Y-64268050D01*
X140492637Y-64286991D01*
X140511579Y-64302536D01*
X140517145Y-64305511D01*
X140524740Y-64310586D01*
X140524745Y-64310588D01*
X140577976Y-64346156D01*
X140623244Y-64391424D01*
X140658812Y-64444655D01*
X140658813Y-64444658D01*
X140658814Y-64444659D01*
X140664042Y-64457281D01*
X140683311Y-64503801D01*
X140695800Y-64566590D01*
X140695800Y-64630610D01*
X140683311Y-64693399D01*
X140658812Y-64752545D01*
X140623244Y-64805776D01*
X140577976Y-64851044D01*
X140524745Y-64886612D01*
X140524742Y-64886613D01*
X140517138Y-64891694D01*
X140511572Y-64894669D01*
X140492631Y-64910215D01*
X140477086Y-64929157D01*
X140465536Y-64950768D01*
X140458423Y-64974218D01*
X140456022Y-64998604D01*
X140458425Y-65022990D01*
X140465539Y-65046439D01*
X140477091Y-65068050D01*
X140492637Y-65086991D01*
X140511579Y-65102536D01*
X140517145Y-65105511D01*
X140524740Y-65110586D01*
X140524745Y-65110588D01*
X140577976Y-65146156D01*
X140623244Y-65191424D01*
X140658812Y-65244655D01*
X140683311Y-65303801D01*
X140695800Y-65366590D01*
X140695800Y-65430610D01*
X140683311Y-65493399D01*
X140668826Y-65528368D01*
X140661459Y-65546156D01*
X140658812Y-65552545D01*
X140623244Y-65605776D01*
X140577976Y-65651044D01*
X140524745Y-65686612D01*
X140524742Y-65686613D01*
X140517138Y-65691694D01*
X140511572Y-65694669D01*
X140492631Y-65710215D01*
X140477086Y-65729157D01*
X140465536Y-65750768D01*
X140458423Y-65774218D01*
X140456022Y-65798604D01*
X140458425Y-65822990D01*
X140465539Y-65846439D01*
X140477091Y-65868050D01*
X140492637Y-65886991D01*
X140511579Y-65902536D01*
X140517145Y-65905511D01*
X140524740Y-65910586D01*
X140524745Y-65910588D01*
X140577976Y-65946156D01*
X140623244Y-65991424D01*
X140658812Y-66044655D01*
X140658813Y-66044658D01*
X140658814Y-66044659D01*
X140664042Y-66057281D01*
X140683311Y-66103801D01*
X140695800Y-66166590D01*
X140695800Y-66230610D01*
X140683311Y-66293399D01*
X140668826Y-66328368D01*
X140661459Y-66346156D01*
X140658812Y-66352545D01*
X140623244Y-66405776D01*
X140577976Y-66451044D01*
X140524745Y-66486612D01*
X140524742Y-66486613D01*
X140524741Y-66486614D01*
X140511343Y-66492163D01*
X140465599Y-66511111D01*
X140402810Y-66523600D01*
X140338790Y-66523600D01*
X140276001Y-66511111D01*
X140224412Y-66489742D01*
X140216857Y-66486613D01*
X140216856Y-66486613D01*
X140216855Y-66486612D01*
X140190243Y-66468831D01*
X140168635Y-66457281D01*
X140145186Y-66450168D01*
X140120800Y-66447766D01*
X140096414Y-66450168D01*
X140072964Y-66457281D01*
X140051354Y-66468832D01*
X140032412Y-66484378D01*
X140016866Y-66503320D01*
X140005315Y-66524931D01*
X139998202Y-66548380D01*
X139995800Y-66572766D01*
X139995800Y-66630610D01*
X139983311Y-66693399D01*
X139958812Y-66752545D01*
X139923244Y-66805776D01*
X139877976Y-66851044D01*
X139824745Y-66886612D01*
X139824742Y-66886613D01*
X139817138Y-66891694D01*
X139811572Y-66894669D01*
X139792631Y-66910215D01*
X139777086Y-66929157D01*
X139765536Y-66950768D01*
X139758423Y-66974218D01*
X139756022Y-66998604D01*
X139758425Y-67022990D01*
X139765539Y-67046439D01*
X139777091Y-67068050D01*
X139792637Y-67086991D01*
X139811579Y-67102536D01*
X139817145Y-67105511D01*
X139824740Y-67110586D01*
X139824745Y-67110588D01*
X139877976Y-67146156D01*
X139923244Y-67191424D01*
X139958812Y-67244655D01*
X139983311Y-67303801D01*
X139995800Y-67366590D01*
X139995800Y-67424434D01*
X139998202Y-67448820D01*
X140005315Y-67472269D01*
X140016866Y-67493880D01*
X140032412Y-67512822D01*
X140051354Y-67528368D01*
X140072965Y-67539919D01*
X140096414Y-67547032D01*
X140120800Y-67549434D01*
X140145186Y-67547032D01*
X140168635Y-67539919D01*
X140190243Y-67528369D01*
X140216855Y-67510588D01*
X140216860Y-67510586D01*
X140224412Y-67507458D01*
X140276001Y-67486089D01*
X140338790Y-67473600D01*
X140402810Y-67473600D01*
X140465599Y-67486089D01*
X140511343Y-67505037D01*
X140524741Y-67510586D01*
X140524742Y-67510587D01*
X140524745Y-67510588D01*
X140577976Y-67546156D01*
X140623244Y-67591424D01*
X140658812Y-67644655D01*
X140658813Y-67644658D01*
X140658814Y-67644659D01*
X140664042Y-67657281D01*
X140683311Y-67703801D01*
X140695800Y-67766590D01*
X140695800Y-67830610D01*
X140683311Y-67893399D01*
X140658812Y-67952545D01*
X140623244Y-68005776D01*
X140577976Y-68051044D01*
X140524745Y-68086612D01*
X140524742Y-68086613D01*
X140524741Y-68086614D01*
X140511343Y-68092163D01*
X140465599Y-68111111D01*
X140402810Y-68123600D01*
X140338790Y-68123600D01*
X140276001Y-68111111D01*
X140230257Y-68092163D01*
X140216859Y-68086614D01*
X140216858Y-68086613D01*
X140216855Y-68086612D01*
X140163624Y-68051044D01*
X140118356Y-68005776D01*
X140082788Y-67952545D01*
X140058289Y-67893399D01*
X140045800Y-67830610D01*
X140045800Y-67772766D01*
X140043398Y-67748380D01*
X140036285Y-67724931D01*
X140024734Y-67703320D01*
X140009188Y-67684378D01*
X139990246Y-67668832D01*
X139968635Y-67657281D01*
X139945186Y-67650168D01*
X139920800Y-67647766D01*
X139896414Y-67650168D01*
X139872965Y-67657281D01*
X139851357Y-67668831D01*
X139824745Y-67686612D01*
X139824744Y-67686613D01*
X139824743Y-67686613D01*
X139817188Y-67689742D01*
X139765599Y-67711111D01*
X139702810Y-67723600D01*
X139638790Y-67723600D01*
X139576001Y-67711111D01*
X139530257Y-67692163D01*
X139516859Y-67686614D01*
X139516858Y-67686613D01*
X139516855Y-67686612D01*
X139463624Y-67651044D01*
X139418356Y-67605776D01*
X139382788Y-67552545D01*
X139380142Y-67546156D01*
X139372774Y-67528368D01*
X139358289Y-67493399D01*
X139345800Y-67430610D01*
X139345800Y-67366590D01*
X139358289Y-67303801D01*
X139382788Y-67244655D01*
X139418356Y-67191424D01*
X139463624Y-67146156D01*
X139516855Y-67110588D01*
X139516858Y-67110587D01*
X139524462Y-67105506D01*
X139530028Y-67102531D01*
X139548969Y-67086985D01*
X139564514Y-67068043D01*
X139576064Y-67046432D01*
X139583177Y-67022982D01*
X139585578Y-66998596D01*
X139583175Y-66974210D01*
X139576061Y-66950761D01*
X139564509Y-66929150D01*
X139548963Y-66910209D01*
X139530021Y-66894664D01*
X139524455Y-66891689D01*
X139516860Y-66886614D01*
X139516855Y-66886612D01*
X139463624Y-66851044D01*
X139418356Y-66805776D01*
X139382788Y-66752545D01*
X139358289Y-66693399D01*
X139345800Y-66630610D01*
X139345800Y-66566590D01*
X139358289Y-66503801D01*
X139377558Y-66457281D01*
X139382786Y-66444659D01*
X139382787Y-66444658D01*
X139382788Y-66444655D01*
X139418356Y-66391424D01*
X139463624Y-66346156D01*
X139516855Y-66310588D01*
X139516858Y-66310587D01*
X139524462Y-66305506D01*
X139530028Y-66302531D01*
X139548969Y-66286985D01*
X139564514Y-66268043D01*
X139576064Y-66246432D01*
X139583177Y-66222982D01*
X139585577Y-66198604D01*
X139756022Y-66198604D01*
X139758425Y-66222990D01*
X139765539Y-66246439D01*
X139777091Y-66268050D01*
X139792637Y-66286991D01*
X139811579Y-66302536D01*
X139817150Y-66305513D01*
X139824745Y-66310588D01*
X139851357Y-66328369D01*
X139872965Y-66339919D01*
X139896414Y-66347032D01*
X139920800Y-66349434D01*
X139945186Y-66347032D01*
X139968636Y-66339919D01*
X139990246Y-66328368D01*
X140009188Y-66312822D01*
X140024734Y-66293880D01*
X140036285Y-66272269D01*
X140043398Y-66248820D01*
X140045800Y-66224434D01*
X140045800Y-66172766D01*
X140043398Y-66148380D01*
X140036285Y-66124931D01*
X140024734Y-66103320D01*
X140009188Y-66084378D01*
X139990246Y-66068832D01*
X139968635Y-66057281D01*
X139945186Y-66050168D01*
X139920800Y-66047766D01*
X139896414Y-66050168D01*
X139872965Y-66057281D01*
X139851357Y-66068831D01*
X139824745Y-66086612D01*
X139824743Y-66086613D01*
X139817143Y-66091691D01*
X139811572Y-66094669D01*
X139792631Y-66110215D01*
X139777086Y-66129157D01*
X139765536Y-66150768D01*
X139758423Y-66174218D01*
X139756022Y-66198604D01*
X139585577Y-66198604D01*
X139585578Y-66198596D01*
X139583175Y-66174210D01*
X139576061Y-66150761D01*
X139564509Y-66129150D01*
X139548963Y-66110209D01*
X139530021Y-66094664D01*
X139524455Y-66091689D01*
X139516860Y-66086614D01*
X139516855Y-66086612D01*
X139463624Y-66051044D01*
X139418356Y-66005776D01*
X139382788Y-65952545D01*
X139380142Y-65946156D01*
X139372774Y-65928368D01*
X139358289Y-65893399D01*
X139345800Y-65830610D01*
X139345800Y-65772766D01*
X139995800Y-65772766D01*
X139995800Y-65824434D01*
X139998202Y-65848820D01*
X140005315Y-65872269D01*
X140016866Y-65893880D01*
X140032412Y-65912822D01*
X140051354Y-65928368D01*
X140072965Y-65939919D01*
X140096414Y-65947032D01*
X140120800Y-65949434D01*
X140145186Y-65947032D01*
X140168635Y-65939919D01*
X140190243Y-65928369D01*
X140216855Y-65910588D01*
X140216857Y-65910587D01*
X140224457Y-65905509D01*
X140230028Y-65902531D01*
X140248969Y-65886985D01*
X140264514Y-65868043D01*
X140276064Y-65846432D01*
X140283177Y-65822982D01*
X140285578Y-65798596D01*
X140283175Y-65774210D01*
X140276061Y-65750761D01*
X140264509Y-65729150D01*
X140248963Y-65710209D01*
X140230021Y-65694664D01*
X140224450Y-65691687D01*
X140213512Y-65684378D01*
X140190243Y-65668831D01*
X140168635Y-65657281D01*
X140145186Y-65650168D01*
X140120800Y-65647766D01*
X140096414Y-65650168D01*
X140072964Y-65657281D01*
X140051354Y-65668832D01*
X140032412Y-65684378D01*
X140016866Y-65703320D01*
X140005315Y-65724931D01*
X139998202Y-65748380D01*
X139995800Y-65772766D01*
X139345800Y-65772766D01*
X139345800Y-65766590D01*
X139358289Y-65703801D01*
X139377558Y-65657281D01*
X139382786Y-65644659D01*
X139382787Y-65644658D01*
X139382788Y-65644655D01*
X139418356Y-65591424D01*
X139463624Y-65546156D01*
X139516855Y-65510588D01*
X139516858Y-65510587D01*
X139516859Y-65510586D01*
X139530257Y-65505037D01*
X139576001Y-65486089D01*
X139638790Y-65473600D01*
X139702810Y-65473600D01*
X139765599Y-65486089D01*
X139817188Y-65507458D01*
X139824741Y-65510586D01*
X139824745Y-65510588D01*
X139851357Y-65528369D01*
X139872965Y-65539919D01*
X139896414Y-65547032D01*
X139920800Y-65549434D01*
X139945186Y-65547032D01*
X139968636Y-65539919D01*
X139990246Y-65528368D01*
X140009188Y-65512822D01*
X140024734Y-65493880D01*
X140036285Y-65472269D01*
X140043398Y-65448820D01*
X140045800Y-65424434D01*
X140045800Y-65366590D01*
X140058289Y-65303801D01*
X140082788Y-65244655D01*
X140118356Y-65191424D01*
X140163624Y-65146156D01*
X140216855Y-65110588D01*
X140216858Y-65110587D01*
X140224462Y-65105506D01*
X140230028Y-65102531D01*
X140248969Y-65086985D01*
X140264514Y-65068043D01*
X140276064Y-65046432D01*
X140283177Y-65022982D01*
X140285578Y-64998596D01*
X140283175Y-64974210D01*
X140276061Y-64950761D01*
X140264509Y-64929150D01*
X140248963Y-64910209D01*
X140230021Y-64894664D01*
X140224455Y-64891689D01*
X140216860Y-64886614D01*
X140216855Y-64886612D01*
X140163624Y-64851044D01*
X140118356Y-64805776D01*
X140082788Y-64752545D01*
X140058289Y-64693399D01*
X140045800Y-64630610D01*
X140045800Y-64572766D01*
X140043398Y-64548380D01*
X140036285Y-64524931D01*
X140024734Y-64503320D01*
X140009188Y-64484378D01*
X139990246Y-64468832D01*
X139968635Y-64457281D01*
X139945186Y-64450168D01*
X139920800Y-64447766D01*
X139896414Y-64450168D01*
X139872965Y-64457281D01*
X139851357Y-64468831D01*
X139824745Y-64486612D01*
X139824744Y-64486613D01*
X139824743Y-64486613D01*
X139817188Y-64489742D01*
X139765599Y-64511111D01*
X139702810Y-64523600D01*
X139638790Y-64523600D01*
X139576001Y-64511111D01*
X139530257Y-64492163D01*
X139516859Y-64486614D01*
X139516858Y-64486613D01*
X139516855Y-64486612D01*
X139463624Y-64451044D01*
X139418356Y-64405776D01*
X139382788Y-64352545D01*
X139380142Y-64346156D01*
X139372774Y-64328368D01*
X139358289Y-64293399D01*
X139345800Y-64230610D01*
X139345800Y-64172766D01*
X139995800Y-64172766D01*
X139995800Y-64224434D01*
X139998202Y-64248820D01*
X140005315Y-64272269D01*
X140016866Y-64293880D01*
X140032412Y-64312822D01*
X140051354Y-64328368D01*
X140072965Y-64339919D01*
X140096414Y-64347032D01*
X140120800Y-64349434D01*
X140145186Y-64347032D01*
X140168635Y-64339919D01*
X140190243Y-64328369D01*
X140216855Y-64310588D01*
X140216857Y-64310587D01*
X140224457Y-64305509D01*
X140230028Y-64302531D01*
X140248969Y-64286985D01*
X140264514Y-64268043D01*
X140276064Y-64246432D01*
X140283177Y-64222982D01*
X140285578Y-64198596D01*
X140283175Y-64174210D01*
X140276061Y-64150761D01*
X140264509Y-64129150D01*
X140248963Y-64110209D01*
X140230021Y-64094664D01*
X140224450Y-64091687D01*
X140213512Y-64084378D01*
X140190243Y-64068831D01*
X140168635Y-64057281D01*
X140145186Y-64050168D01*
X140120800Y-64047766D01*
X140096414Y-64050168D01*
X140072964Y-64057281D01*
X140051354Y-64068832D01*
X140032412Y-64084378D01*
X140016866Y-64103320D01*
X140005315Y-64124931D01*
X139998202Y-64148380D01*
X139995800Y-64172766D01*
X139345800Y-64172766D01*
X139345800Y-64166590D01*
X139358289Y-64103801D01*
X139377558Y-64057281D01*
X139382786Y-64044659D01*
X139382787Y-64044658D01*
X139382788Y-64044655D01*
X139418356Y-63991424D01*
X139463624Y-63946156D01*
X139516855Y-63910588D01*
X139516858Y-63910587D01*
X139524462Y-63905506D01*
X139530028Y-63902531D01*
X139548969Y-63886985D01*
X139564514Y-63868043D01*
X139576064Y-63846432D01*
X139583177Y-63822982D01*
X139585577Y-63798604D01*
X139756022Y-63798604D01*
X139758425Y-63822990D01*
X139765539Y-63846439D01*
X139777091Y-63868050D01*
X139792637Y-63886991D01*
X139811579Y-63902536D01*
X139817150Y-63905513D01*
X139824745Y-63910588D01*
X139851357Y-63928369D01*
X139872965Y-63939919D01*
X139896414Y-63947032D01*
X139920800Y-63949434D01*
X139945186Y-63947032D01*
X139968636Y-63939919D01*
X139990246Y-63928368D01*
X140009188Y-63912822D01*
X140024734Y-63893880D01*
X140036285Y-63872269D01*
X140043398Y-63848820D01*
X140045800Y-63824434D01*
X140045800Y-63772766D01*
X140043398Y-63748380D01*
X140036285Y-63724931D01*
X140024734Y-63703320D01*
X140009188Y-63684378D01*
X139990246Y-63668832D01*
X139968635Y-63657281D01*
X139945186Y-63650168D01*
X139920800Y-63647766D01*
X139896414Y-63650168D01*
X139872965Y-63657281D01*
X139851357Y-63668831D01*
X139824745Y-63686612D01*
X139824743Y-63686613D01*
X139817143Y-63691691D01*
X139811572Y-63694669D01*
X139792631Y-63710215D01*
X139777086Y-63729157D01*
X139765536Y-63750768D01*
X139758423Y-63774218D01*
X139756022Y-63798604D01*
X139585577Y-63798604D01*
X139585578Y-63798596D01*
X139583175Y-63774210D01*
X139576061Y-63750761D01*
X139564509Y-63729150D01*
X139548963Y-63710209D01*
X139530021Y-63694664D01*
X139524455Y-63691689D01*
X139516860Y-63686614D01*
X139516855Y-63686612D01*
X139463624Y-63651044D01*
X139418356Y-63605776D01*
X139382788Y-63552545D01*
X139380142Y-63546156D01*
X139372774Y-63528368D01*
X139358289Y-63493399D01*
X139345800Y-63430610D01*
X139345800Y-63366590D01*
X139358289Y-63303801D01*
X139382788Y-63244655D01*
X139418356Y-63191424D01*
X139463624Y-63146156D01*
X139516855Y-63110588D01*
X139516858Y-63110587D01*
X139524462Y-63105506D01*
X139530028Y-63102531D01*
X139548969Y-63086985D01*
X139564514Y-63068043D01*
X139576064Y-63046432D01*
X139583177Y-63022982D01*
X139585578Y-62998596D01*
X139583175Y-62974210D01*
X139576061Y-62950761D01*
X139564509Y-62929150D01*
X139548963Y-62910209D01*
X139530021Y-62894664D01*
X139524455Y-62891689D01*
X139516860Y-62886614D01*
X139516855Y-62886612D01*
X139463624Y-62851044D01*
X139418356Y-62805776D01*
X139382788Y-62752545D01*
X139358289Y-62693399D01*
X139345800Y-62630610D01*
X139345800Y-62566590D01*
X139358289Y-62503801D01*
X139377558Y-62457281D01*
X139382786Y-62444659D01*
X139382787Y-62444658D01*
X139382788Y-62444655D01*
X139418356Y-62391424D01*
X139463624Y-62346156D01*
X139516855Y-62310588D01*
X139516858Y-62310587D01*
X139516859Y-62310586D01*
X139530257Y-62305037D01*
X139576001Y-62286089D01*
X139638790Y-62273600D01*
X139702810Y-62273600D01*
X139765599Y-62286089D01*
X139817188Y-62307458D01*
X139824741Y-62310586D01*
X139824745Y-62310588D01*
X139851357Y-62328369D01*
X139872965Y-62339919D01*
X139896414Y-62347032D01*
X139920800Y-62349434D01*
X139945186Y-62347032D01*
X139968636Y-62339919D01*
X139990246Y-62328368D01*
X140009188Y-62312822D01*
X140024734Y-62293880D01*
X140036285Y-62272269D01*
X140043398Y-62248820D01*
X140045800Y-62224434D01*
X140045800Y-62166590D01*
X140058289Y-62103801D01*
X140082788Y-62044655D01*
X140118356Y-61991424D01*
X140163624Y-61946156D01*
X140216855Y-61910588D01*
X140216858Y-61910587D01*
X140216859Y-61910586D01*
X140230257Y-61905037D01*
X140276001Y-61886089D01*
X140338790Y-61873600D01*
X140402810Y-61873600D01*
X140465599Y-61886089D01*
X140465599Y-61886089D01*
G37*
G36*
X141130184Y-61038011D02*
X141198429Y-61066279D01*
X141259849Y-61107319D01*
X141312081Y-61159551D01*
X141353121Y-61220971D01*
X141381389Y-61289216D01*
X141395800Y-61361665D01*
X141395800Y-61435535D01*
X141381389Y-61507984D01*
X141353121Y-61576229D01*
X141312081Y-61637649D01*
X141259849Y-61689881D01*
X141198429Y-61730921D01*
X141130184Y-61759189D01*
X141057735Y-61773600D01*
X140983865Y-61773600D01*
X140911416Y-61759189D01*
X140843171Y-61730921D01*
X140781751Y-61689881D01*
X140729519Y-61637649D01*
X140688479Y-61576229D01*
X140660211Y-61507984D01*
X140645800Y-61435535D01*
X140645800Y-61361665D01*
X140660211Y-61289216D01*
X140688479Y-61220971D01*
X140729519Y-61159551D01*
X140781751Y-61107319D01*
X140843171Y-61066279D01*
X140911416Y-61038011D01*
X140983865Y-61023600D01*
X141057735Y-61023600D01*
X141130184Y-61038011D01*
X141130184Y-61038011D01*
G37*
G36*
X149725000Y-61578800D02*
X148725000Y-61578800D01*
X148725000Y-59678800D01*
X149725000Y-59678800D01*
X149725000Y-61578800D01*
X149725000Y-61578800D01*
G37*
G36*
X154805000Y-61578800D02*
X153805000Y-61578800D01*
X153805000Y-59678800D01*
X154805000Y-59678800D01*
X154805000Y-61578800D01*
X154805000Y-61578800D01*
G37*
G36*
X139708307Y-60110128D02*
X139762903Y-60132743D01*
X139812039Y-60165574D01*
X139853826Y-60207361D01*
X139886657Y-60256497D01*
X139909272Y-60311093D01*
X139920800Y-60369053D01*
X139920800Y-60428147D01*
X139909272Y-60486107D01*
X139886657Y-60540703D01*
X139853826Y-60589839D01*
X139812039Y-60631626D01*
X139762903Y-60664457D01*
X139708307Y-60687072D01*
X139650347Y-60698600D01*
X139591253Y-60698600D01*
X139533293Y-60687072D01*
X139478697Y-60664457D01*
X139429561Y-60631626D01*
X139387774Y-60589839D01*
X139354943Y-60540703D01*
X139332328Y-60486107D01*
X139320800Y-60428147D01*
X139320800Y-60369053D01*
X139332328Y-60311093D01*
X139354943Y-60256497D01*
X139387774Y-60207361D01*
X139429561Y-60165574D01*
X139478697Y-60132743D01*
X139533293Y-60110128D01*
X139591253Y-60098600D01*
X139650347Y-60098600D01*
X139708307Y-60110128D01*
X139708307Y-60110128D01*
G37*
G36*
X136708307Y-60110128D02*
X136762903Y-60132743D01*
X136812039Y-60165574D01*
X136853826Y-60207361D01*
X136886657Y-60256497D01*
X136909272Y-60311093D01*
X136920800Y-60369053D01*
X136920800Y-60428147D01*
X136909272Y-60486107D01*
X136886657Y-60540703D01*
X136853826Y-60589839D01*
X136812039Y-60631626D01*
X136762903Y-60664457D01*
X136708307Y-60687072D01*
X136650347Y-60698600D01*
X136591253Y-60698600D01*
X136533293Y-60687072D01*
X136478697Y-60664457D01*
X136429561Y-60631626D01*
X136387774Y-60589839D01*
X136354943Y-60540703D01*
X136332328Y-60486107D01*
X136320800Y-60428147D01*
X136320800Y-60369053D01*
X136332328Y-60311093D01*
X136354943Y-60256497D01*
X136387774Y-60207361D01*
X136429561Y-60165574D01*
X136478697Y-60132743D01*
X136533293Y-60110128D01*
X136591253Y-60098600D01*
X136650347Y-60098600D01*
X136708307Y-60110128D01*
X136708307Y-60110128D01*
G37*
G36*
X136640830Y-56896499D02*
X136801055Y-56945103D01*
X136948720Y-57024031D01*
X137078149Y-57130251D01*
X137184369Y-57259680D01*
X137263297Y-57407345D01*
X137311901Y-57567570D01*
X137328312Y-57734200D01*
X137311901Y-57900830D01*
X137263297Y-58061055D01*
X137184369Y-58208720D01*
X137078149Y-58338149D01*
X136948720Y-58444369D01*
X136801055Y-58523297D01*
X136640830Y-58571901D01*
X136515952Y-58584200D01*
X136432448Y-58584200D01*
X136307570Y-58571901D01*
X136147345Y-58523297D01*
X135999680Y-58444369D01*
X135870251Y-58338149D01*
X135764031Y-58208720D01*
X135685103Y-58061055D01*
X135636499Y-57900830D01*
X135620088Y-57734200D01*
X135636499Y-57567570D01*
X135685103Y-57407345D01*
X135764031Y-57259680D01*
X135870251Y-57130251D01*
X135999680Y-57024031D01*
X136147345Y-56945103D01*
X136307570Y-56896499D01*
X136432448Y-56884200D01*
X136515952Y-56884200D01*
X136640830Y-56896499D01*
X136640830Y-56896499D01*
G37*
G36*
X152265000Y-58278800D02*
X151265000Y-58278800D01*
X151265000Y-56378800D01*
X152265000Y-56378800D01*
X152265000Y-58278800D01*
X152265000Y-58278800D01*
G37*
G36*
X147185000Y-58278800D02*
X146185000Y-58278800D01*
X146185000Y-56378800D01*
X147185000Y-56378800D01*
X147185000Y-58278800D01*
X147185000Y-58278800D01*
G37*
G36*
X157345000Y-58278800D02*
X156345000Y-58278800D01*
X156345000Y-56378800D01*
X157345000Y-56378800D01*
X157345000Y-58278800D01*
X157345000Y-58278800D01*
G37*
G36*
X136640830Y-54356499D02*
X136801055Y-54405103D01*
X136948720Y-54484031D01*
X137078149Y-54590251D01*
X137184369Y-54719680D01*
X137263297Y-54867345D01*
X137311901Y-55027570D01*
X137328312Y-55194200D01*
X137311901Y-55360830D01*
X137263297Y-55521055D01*
X137184369Y-55668720D01*
X137078149Y-55798149D01*
X136948720Y-55904369D01*
X136801055Y-55983297D01*
X136640830Y-56031901D01*
X136515952Y-56044200D01*
X136432448Y-56044200D01*
X136307570Y-56031901D01*
X136147345Y-55983297D01*
X135999680Y-55904369D01*
X135870251Y-55798149D01*
X135764031Y-55668720D01*
X135685103Y-55521055D01*
X135636499Y-55360830D01*
X135620088Y-55194200D01*
X135636499Y-55027570D01*
X135685103Y-54867345D01*
X135764031Y-54719680D01*
X135870251Y-54590251D01*
X135999680Y-54484031D01*
X136147345Y-54405103D01*
X136307570Y-54356499D01*
X136432448Y-54344200D01*
X136515952Y-54344200D01*
X136640830Y-54356499D01*
X136640830Y-54356499D01*
G37*
G36*
X151499835Y-53432672D02*
X150368464Y-54564043D01*
X149979555Y-54175134D01*
X151110926Y-53043763D01*
X151499835Y-53432672D01*
X151499835Y-53432672D01*
G37*
G36*
X153550445Y-54175134D02*
X153161536Y-54564043D01*
X152030165Y-53432672D01*
X152419074Y-53043763D01*
X153550445Y-54175134D01*
X153550445Y-54175134D01*
G37*
G36*
X150934150Y-52866986D02*
X149802779Y-53998357D01*
X149413870Y-53609448D01*
X150545241Y-52478077D01*
X150934150Y-52866986D01*
X150934150Y-52866986D01*
G37*
G36*
X154116130Y-53609448D02*
X153727221Y-53998357D01*
X152595850Y-52866986D01*
X152984759Y-52478077D01*
X154116130Y-53609448D01*
X154116130Y-53609448D01*
G37*
G36*
X136640830Y-51816499D02*
X136801055Y-51865103D01*
X136948720Y-51944031D01*
X137078149Y-52050251D01*
X137184369Y-52179680D01*
X137263297Y-52327345D01*
X137311901Y-52487570D01*
X137328312Y-52654200D01*
X137311901Y-52820830D01*
X137263297Y-52981055D01*
X137184369Y-53128720D01*
X137078149Y-53258149D01*
X136948720Y-53364369D01*
X136801055Y-53443297D01*
X136640830Y-53491901D01*
X136515952Y-53504200D01*
X136432448Y-53504200D01*
X136307570Y-53491901D01*
X136147345Y-53443297D01*
X135999680Y-53364369D01*
X135870251Y-53258149D01*
X135764031Y-53128720D01*
X135685103Y-52981055D01*
X135636499Y-52820830D01*
X135620088Y-52654200D01*
X135636499Y-52487570D01*
X135685103Y-52327345D01*
X135764031Y-52179680D01*
X135870251Y-52050251D01*
X135999680Y-51944031D01*
X136147345Y-51865103D01*
X136307570Y-51816499D01*
X136432448Y-51804200D01*
X136515952Y-51804200D01*
X136640830Y-51816499D01*
X136640830Y-51816499D01*
G37*
G36*
X150368464Y-52301301D02*
X149237093Y-53432672D01*
X148282499Y-52478078D01*
X149413870Y-51346707D01*
X150368464Y-52301301D01*
X150368464Y-52301301D01*
G37*
G36*
X155247501Y-52478078D02*
X154292907Y-53432672D01*
X153161536Y-52301301D01*
X154116130Y-51346707D01*
X155247501Y-52478078D01*
X155247501Y-52478078D01*
G37*
G36*
X156378872Y-51346707D02*
X155424278Y-52301301D01*
X154292907Y-51169930D01*
X155247501Y-50215336D01*
X156378872Y-51346707D01*
X156378872Y-51346707D01*
G37*
G36*
X149237093Y-51169930D02*
X148105722Y-52301301D01*
X147151128Y-51346707D01*
X148282499Y-50215336D01*
X149237093Y-51169930D01*
X149237093Y-51169930D01*
G37*
G36*
X148105723Y-50038559D02*
X146974352Y-51169930D01*
X146585443Y-50781021D01*
X147716814Y-49649650D01*
X148105723Y-50038559D01*
X148105723Y-50038559D01*
G37*
G36*
X156944557Y-50781021D02*
X156555648Y-51169930D01*
X155424277Y-50038559D01*
X155813186Y-49649650D01*
X156944557Y-50781021D01*
X156944557Y-50781021D01*
G37*
G36*
X136640830Y-49276499D02*
X136801055Y-49325103D01*
X136948720Y-49404031D01*
X137078149Y-49510251D01*
X137184369Y-49639680D01*
X137263297Y-49787345D01*
X137311901Y-49947570D01*
X137328312Y-50114200D01*
X137311901Y-50280830D01*
X137263297Y-50441055D01*
X137184369Y-50588720D01*
X137078149Y-50718149D01*
X136948720Y-50824369D01*
X136801055Y-50903297D01*
X136640830Y-50951901D01*
X136515952Y-50964200D01*
X136432448Y-50964200D01*
X136307570Y-50951901D01*
X136147345Y-50903297D01*
X135999680Y-50824369D01*
X135870251Y-50718149D01*
X135764031Y-50588720D01*
X135685103Y-50441055D01*
X135636499Y-50280830D01*
X135620088Y-50114200D01*
X135636499Y-49947570D01*
X135685103Y-49787345D01*
X135764031Y-49639680D01*
X135870251Y-49510251D01*
X135999680Y-49404031D01*
X136147345Y-49325103D01*
X136307570Y-49276499D01*
X136432448Y-49264200D01*
X136515952Y-49264200D01*
X136640830Y-49276499D01*
X136640830Y-49276499D01*
G37*
G36*
X157510243Y-50215336D02*
X157121334Y-50604245D01*
X155989963Y-49472874D01*
X156378872Y-49083965D01*
X157510243Y-50215336D01*
X157510243Y-50215336D01*
G37*
G36*
X147540037Y-49472874D02*
X146408666Y-50604245D01*
X146019757Y-50215336D01*
X147151128Y-49083965D01*
X147540037Y-49472874D01*
X147540037Y-49472874D01*
G37*
G36*
X147540037Y-48164726D02*
X147151128Y-48553635D01*
X146019757Y-47422264D01*
X146408666Y-47033355D01*
X147540037Y-48164726D01*
X147540037Y-48164726D01*
G37*
G36*
X157510243Y-47422264D02*
X156378872Y-48553635D01*
X155989963Y-48164726D01*
X157121334Y-47033355D01*
X157510243Y-47422264D01*
X157510243Y-47422264D01*
G37*
G36*
X136640830Y-46736499D02*
X136801055Y-46785103D01*
X136948720Y-46864031D01*
X137078149Y-46970251D01*
X137184369Y-47099680D01*
X137263297Y-47247345D01*
X137311901Y-47407570D01*
X137328312Y-47574200D01*
X137311901Y-47740830D01*
X137263297Y-47901055D01*
X137184369Y-48048720D01*
X137078149Y-48178149D01*
X136948720Y-48284369D01*
X136801055Y-48363297D01*
X136640830Y-48411901D01*
X136515952Y-48424200D01*
X136432448Y-48424200D01*
X136307570Y-48411901D01*
X136147345Y-48363297D01*
X135999680Y-48284369D01*
X135870251Y-48178149D01*
X135764031Y-48048720D01*
X135685103Y-47901055D01*
X135636499Y-47740830D01*
X135620088Y-47574200D01*
X135636499Y-47407570D01*
X135685103Y-47247345D01*
X135764031Y-47099680D01*
X135870251Y-46970251D01*
X135999680Y-46864031D01*
X136147345Y-46785103D01*
X136307570Y-46736499D01*
X136432448Y-46724200D01*
X136515952Y-46724200D01*
X136640830Y-46736499D01*
X136640830Y-46736499D01*
G37*
G36*
X156944557Y-46856579D02*
X155813186Y-47987950D01*
X155424277Y-47599041D01*
X156555648Y-46467670D01*
X156944557Y-46856579D01*
X156944557Y-46856579D01*
G37*
G36*
X148105723Y-47599041D02*
X147716814Y-47987950D01*
X146585443Y-46856579D01*
X146974352Y-46467670D01*
X148105723Y-47599041D01*
X148105723Y-47599041D01*
G37*
G36*
X144812356Y-46031289D02*
X144846247Y-46041570D01*
X144877475Y-46058261D01*
X144909619Y-46084642D01*
X145634558Y-46809581D01*
X145660939Y-46841725D01*
X145677630Y-46872953D01*
X145687911Y-46906844D01*
X145691382Y-46942086D01*
X145687911Y-46977328D01*
X145677630Y-47011219D01*
X145660939Y-47042447D01*
X145634558Y-47074591D01*
X145210139Y-47499010D01*
X145177995Y-47525391D01*
X145146767Y-47542082D01*
X145112876Y-47552363D01*
X145077634Y-47555834D01*
X145042392Y-47552363D01*
X145008501Y-47542082D01*
X144977273Y-47525391D01*
X144945129Y-47499010D01*
X144220190Y-46774071D01*
X144193809Y-46741927D01*
X144177118Y-46710699D01*
X144166837Y-46676808D01*
X144163366Y-46641566D01*
X144166837Y-46606324D01*
X144177118Y-46572433D01*
X144193809Y-46541205D01*
X144220190Y-46509061D01*
X144644609Y-46084642D01*
X144676753Y-46058261D01*
X144707981Y-46041570D01*
X144741872Y-46031289D01*
X144777114Y-46027818D01*
X144812356Y-46031289D01*
X144812356Y-46031289D01*
G37*
G36*
X156378872Y-46290893D02*
X155247501Y-47422264D01*
X154292907Y-46467670D01*
X155424278Y-45336299D01*
X156378872Y-46290893D01*
X156378872Y-46290893D01*
G37*
G36*
X149237093Y-46467670D02*
X148282499Y-47422264D01*
X147151128Y-46290893D01*
X148105722Y-45336299D01*
X149237093Y-46467670D01*
X149237093Y-46467670D01*
G37*
G36*
X161957379Y-46280384D02*
X160932073Y-47305690D01*
X160366387Y-46740004D01*
X161391693Y-45714698D01*
X161957379Y-46280384D01*
X161957379Y-46280384D01*
G37*
G36*
X161059354Y-45382358D02*
X160034048Y-46407664D01*
X159468362Y-45841978D01*
X160493668Y-44816672D01*
X161059354Y-45382358D01*
X161059354Y-45382358D01*
G37*
G36*
X150368464Y-45336299D02*
X149413870Y-46290893D01*
X148282499Y-45159522D01*
X149237093Y-44204928D01*
X150368464Y-45336299D01*
X150368464Y-45336299D01*
G37*
G36*
X155247501Y-45159522D02*
X154116130Y-46290893D01*
X153161536Y-45336299D01*
X154292907Y-44204928D01*
X155247501Y-45159522D01*
X155247501Y-45159522D01*
G37*
G36*
X146138182Y-44705463D02*
X146172073Y-44715744D01*
X146203301Y-44732435D01*
X146235445Y-44758816D01*
X146960384Y-45483755D01*
X146986765Y-45515899D01*
X147003456Y-45547127D01*
X147013737Y-45581018D01*
X147017208Y-45616260D01*
X147013737Y-45651502D01*
X147003456Y-45685393D01*
X146986765Y-45716621D01*
X146960384Y-45748765D01*
X146535965Y-46173184D01*
X146503821Y-46199565D01*
X146472593Y-46216256D01*
X146438702Y-46226537D01*
X146403460Y-46230008D01*
X146368218Y-46226537D01*
X146334327Y-46216256D01*
X146303099Y-46199565D01*
X146270955Y-46173184D01*
X145546016Y-45448245D01*
X145519635Y-45416101D01*
X145502944Y-45384873D01*
X145492663Y-45350982D01*
X145489192Y-45315740D01*
X145492663Y-45280498D01*
X145502944Y-45246607D01*
X145519635Y-45215379D01*
X145546016Y-45183235D01*
X145970435Y-44758816D01*
X146002579Y-44732435D01*
X146033807Y-44715744D01*
X146067698Y-44705463D01*
X146102940Y-44701992D01*
X146138182Y-44705463D01*
X146138182Y-44705463D01*
G37*
G36*
X136640830Y-44196499D02*
X136801055Y-44245103D01*
X136948720Y-44324031D01*
X137078149Y-44430251D01*
X137184369Y-44559680D01*
X137263297Y-44707345D01*
X137311901Y-44867570D01*
X137328312Y-45034200D01*
X137311901Y-45200830D01*
X137263297Y-45361055D01*
X137184369Y-45508720D01*
X137078149Y-45638149D01*
X136948720Y-45744369D01*
X136801055Y-45823297D01*
X136640830Y-45871901D01*
X136515952Y-45884200D01*
X136432448Y-45884200D01*
X136307570Y-45871901D01*
X136147345Y-45823297D01*
X135999680Y-45744369D01*
X135870251Y-45638149D01*
X135764031Y-45508720D01*
X135685103Y-45361055D01*
X135636499Y-45200830D01*
X135620088Y-45034200D01*
X135636499Y-44867570D01*
X135685103Y-44707345D01*
X135764031Y-44559680D01*
X135870251Y-44430251D01*
X135999680Y-44324031D01*
X136147345Y-44245103D01*
X136307570Y-44196499D01*
X136432448Y-44184200D01*
X136515952Y-44184200D01*
X136640830Y-44196499D01*
X136640830Y-44196499D01*
G37*
G36*
X160161328Y-44484332D02*
X159136022Y-45509638D01*
X158570336Y-44943952D01*
X159595642Y-43918646D01*
X160161328Y-44484332D01*
X160161328Y-44484332D01*
G37*
G36*
X154116130Y-44028152D02*
X152984759Y-45159523D01*
X152595850Y-44770614D01*
X153727221Y-43639243D01*
X154116130Y-44028152D01*
X154116130Y-44028152D01*
G37*
G36*
X150934150Y-44770614D02*
X150545241Y-45159523D01*
X149413870Y-44028152D01*
X149802779Y-43639243D01*
X150934150Y-44770614D01*
X150934150Y-44770614D01*
G37*
G36*
X159263302Y-43586307D02*
X158237996Y-44611613D01*
X157672310Y-44045927D01*
X158697616Y-43020621D01*
X159263302Y-43586307D01*
X159263302Y-43586307D01*
G37*
G36*
X153550445Y-43462466D02*
X152419074Y-44593837D01*
X152030165Y-44204928D01*
X153161536Y-43073557D01*
X153550445Y-43462466D01*
X153550445Y-43462466D01*
G37*
G36*
X151499835Y-44204928D02*
X151110926Y-44593837D01*
X149979555Y-43462466D01*
X150368464Y-43073557D01*
X151499835Y-44204928D01*
X151499835Y-44204928D01*
G37*
G36*
X165669690Y-42568073D02*
X164644384Y-43593379D01*
X164078698Y-43027693D01*
X165104004Y-42002387D01*
X165669690Y-42568073D01*
X165669690Y-42568073D01*
G37*
G36*
X136640830Y-41656499D02*
X136801055Y-41705103D01*
X136948720Y-41784031D01*
X137078149Y-41890251D01*
X137184369Y-42019680D01*
X137263297Y-42167345D01*
X137311901Y-42327570D01*
X137328312Y-42494200D01*
X137311901Y-42660830D01*
X137263297Y-42821055D01*
X137184369Y-42968720D01*
X137078149Y-43098149D01*
X136948720Y-43204369D01*
X136801055Y-43283297D01*
X136640830Y-43331901D01*
X136515952Y-43344200D01*
X136432448Y-43344200D01*
X136307570Y-43331901D01*
X136147345Y-43283297D01*
X135999680Y-43204369D01*
X135870251Y-43098149D01*
X135764031Y-42968720D01*
X135685103Y-42821055D01*
X135636499Y-42660830D01*
X135620088Y-42494200D01*
X135636499Y-42327570D01*
X135685103Y-42167345D01*
X135764031Y-42019680D01*
X135870251Y-41890251D01*
X135999680Y-41784031D01*
X136147345Y-41705103D01*
X136307570Y-41656499D01*
X136432448Y-41644200D01*
X136515952Y-41644200D01*
X136640830Y-41656499D01*
X136640830Y-41656499D01*
G37*
G36*
X167700269Y-41329776D02*
X167734160Y-41340057D01*
X167765388Y-41356748D01*
X167797532Y-41383129D01*
X168522471Y-42108068D01*
X168548852Y-42140212D01*
X168565543Y-42171440D01*
X168575824Y-42205331D01*
X168579295Y-42240573D01*
X168575824Y-42275815D01*
X168565543Y-42309706D01*
X168548852Y-42340934D01*
X168522471Y-42373078D01*
X168098052Y-42797497D01*
X168065908Y-42823878D01*
X168034680Y-42840569D01*
X168000789Y-42850850D01*
X167965547Y-42854321D01*
X167930305Y-42850850D01*
X167896414Y-42840569D01*
X167865186Y-42823878D01*
X167833042Y-42797497D01*
X167108103Y-42072558D01*
X167081722Y-42040414D01*
X167065031Y-42009186D01*
X167054750Y-41975295D01*
X167051279Y-41940053D01*
X167054750Y-41904811D01*
X167065031Y-41870920D01*
X167081722Y-41839692D01*
X167108103Y-41807548D01*
X167532522Y-41383129D01*
X167564666Y-41356748D01*
X167595894Y-41340057D01*
X167629785Y-41329776D01*
X167665027Y-41326305D01*
X167700269Y-41329776D01*
X167700269Y-41329776D01*
G37*
G36*
X164771664Y-41670048D02*
X163746358Y-42695354D01*
X163180672Y-42129668D01*
X164205978Y-41104362D01*
X164771664Y-41670048D01*
X164771664Y-41670048D01*
G37*
G36*
X163873638Y-40772022D02*
X162848332Y-41797328D01*
X162282646Y-41231642D01*
X163307952Y-40206336D01*
X163873638Y-40772022D01*
X163873638Y-40772022D01*
G37*
G36*
X167510209Y-40306452D02*
X166025284Y-41791377D01*
X165601019Y-41367112D01*
X167085944Y-39882187D01*
X167510209Y-40306452D01*
X167510209Y-40306452D01*
G37*
G36*
X169026095Y-40003950D02*
X169059986Y-40014231D01*
X169091214Y-40030922D01*
X169123358Y-40057303D01*
X169848297Y-40782242D01*
X169874678Y-40814386D01*
X169891369Y-40845614D01*
X169901650Y-40879505D01*
X169905121Y-40914747D01*
X169901650Y-40949989D01*
X169891369Y-40983880D01*
X169874678Y-41015108D01*
X169848297Y-41047252D01*
X169423878Y-41471671D01*
X169391734Y-41498052D01*
X169360506Y-41514743D01*
X169326615Y-41525024D01*
X169291373Y-41528495D01*
X169256131Y-41525024D01*
X169222240Y-41514743D01*
X169191012Y-41498052D01*
X169158868Y-41471671D01*
X168433929Y-40746732D01*
X168407548Y-40714588D01*
X168390857Y-40683360D01*
X168380576Y-40649469D01*
X168377105Y-40614227D01*
X168380576Y-40578985D01*
X168390857Y-40545094D01*
X168407548Y-40513866D01*
X168433929Y-40481722D01*
X168858348Y-40057303D01*
X168890492Y-40030922D01*
X168921720Y-40014231D01*
X168955611Y-40003950D01*
X168990853Y-40000479D01*
X169026095Y-40003950D01*
X169026095Y-40003950D01*
G37*
G36*
X152265000Y-41258800D02*
X151265000Y-41258800D01*
X151265000Y-39358800D01*
X152265000Y-39358800D01*
X152265000Y-41258800D01*
X152265000Y-41258800D01*
G37*
G36*
X166873813Y-39670056D02*
X165388888Y-41154981D01*
X164964623Y-40730716D01*
X166449548Y-39245791D01*
X166873813Y-39670056D01*
X166873813Y-39670056D01*
G37*
G36*
X162975613Y-39873996D02*
X161950307Y-40899302D01*
X161384621Y-40333616D01*
X162409927Y-39308310D01*
X162975613Y-39873996D01*
X162975613Y-39873996D01*
G37*
G36*
X137324200Y-40804200D02*
X135624200Y-40804200D01*
X135624200Y-39104200D01*
X137324200Y-39104200D01*
X137324200Y-40804200D01*
X137324200Y-40804200D01*
G37*
G36*
X164451582Y-38101463D02*
X164485473Y-38111744D01*
X164516701Y-38128435D01*
X164548845Y-38154816D01*
X165273784Y-38879755D01*
X165300165Y-38911899D01*
X165316856Y-38943127D01*
X165327137Y-38977018D01*
X165330608Y-39012260D01*
X165327137Y-39047502D01*
X165316856Y-39081393D01*
X165300165Y-39112621D01*
X165273784Y-39144765D01*
X164849365Y-39569184D01*
X164817221Y-39595565D01*
X164785993Y-39612256D01*
X164752102Y-39622537D01*
X164716860Y-39626008D01*
X164681618Y-39622537D01*
X164647727Y-39612256D01*
X164616499Y-39595565D01*
X164584355Y-39569184D01*
X163859416Y-38844245D01*
X163833035Y-38812101D01*
X163816344Y-38780873D01*
X163806063Y-38746982D01*
X163802592Y-38711740D01*
X163806063Y-38676498D01*
X163816344Y-38642607D01*
X163833035Y-38611379D01*
X163859416Y-38579235D01*
X164283835Y-38154816D01*
X164315979Y-38128435D01*
X164347207Y-38111744D01*
X164381098Y-38101463D01*
X164416340Y-38097992D01*
X164451582Y-38101463D01*
X164451582Y-38101463D01*
G37*
G36*
X165777408Y-36775637D02*
X165811299Y-36785918D01*
X165842527Y-36802609D01*
X165874671Y-36828990D01*
X166599610Y-37553929D01*
X166625991Y-37586073D01*
X166642682Y-37617301D01*
X166652963Y-37651192D01*
X166656434Y-37686434D01*
X166652963Y-37721676D01*
X166642682Y-37755567D01*
X166625991Y-37786795D01*
X166599610Y-37818939D01*
X166175191Y-38243358D01*
X166143047Y-38269739D01*
X166111819Y-38286430D01*
X166077928Y-38296711D01*
X166042686Y-38300182D01*
X166007444Y-38296711D01*
X165973553Y-38286430D01*
X165942325Y-38269739D01*
X165910181Y-38243358D01*
X165185242Y-37518419D01*
X165158861Y-37486275D01*
X165142170Y-37455047D01*
X165131889Y-37421156D01*
X165128418Y-37385914D01*
X165131889Y-37350672D01*
X165142170Y-37316781D01*
X165158861Y-37285553D01*
X165185242Y-37253409D01*
X165609661Y-36828990D01*
X165641805Y-36802609D01*
X165673033Y-36785918D01*
X165706924Y-36775637D01*
X165742166Y-36772166D01*
X165777408Y-36775637D01*
X165777408Y-36775637D01*
G37*
G36*
X154805000Y-37958800D02*
X153805000Y-37958800D01*
X153805000Y-36058800D01*
X154805000Y-36058800D01*
X154805000Y-37958800D01*
X154805000Y-37958800D01*
G37*
G36*
X149725000Y-37958800D02*
X148725000Y-37958800D01*
X148725000Y-36058800D01*
X149725000Y-36058800D01*
X149725000Y-37958800D01*
X149725000Y-37958800D01*
G37*
G36*
X143930630Y-35458899D02*
X144090855Y-35507503D01*
X144238520Y-35586431D01*
X144367949Y-35692651D01*
X144474169Y-35822080D01*
X144553097Y-35969745D01*
X144601701Y-36129970D01*
X144618112Y-36296600D01*
X144601701Y-36463230D01*
X144553097Y-36623455D01*
X144474169Y-36771120D01*
X144367949Y-36900549D01*
X144238520Y-37006769D01*
X144090855Y-37085697D01*
X143930630Y-37134301D01*
X143805752Y-37146600D01*
X143722248Y-37146600D01*
X143597370Y-37134301D01*
X143437145Y-37085697D01*
X143289480Y-37006769D01*
X143160051Y-36900549D01*
X143053831Y-36771120D01*
X142974903Y-36623455D01*
X142926299Y-36463230D01*
X142909888Y-36296600D01*
X142926299Y-36129970D01*
X142974903Y-35969745D01*
X143053831Y-35822080D01*
X143160051Y-35692651D01*
X143289480Y-35586431D01*
X143437145Y-35507503D01*
X143597370Y-35458899D01*
X143722248Y-35446600D01*
X143805752Y-35446600D01*
X143930630Y-35458899D01*
X143930630Y-35458899D01*
G37*
G36*
X141390630Y-35458899D02*
X141550855Y-35507503D01*
X141698520Y-35586431D01*
X141827949Y-35692651D01*
X141934169Y-35822080D01*
X142013097Y-35969745D01*
X142061701Y-36129970D01*
X142078112Y-36296600D01*
X142061701Y-36463230D01*
X142013097Y-36623455D01*
X141934169Y-36771120D01*
X141827949Y-36900549D01*
X141698520Y-37006769D01*
X141550855Y-37085697D01*
X141390630Y-37134301D01*
X141265752Y-37146600D01*
X141182248Y-37146600D01*
X141057370Y-37134301D01*
X140897145Y-37085697D01*
X140749480Y-37006769D01*
X140620051Y-36900549D01*
X140513831Y-36771120D01*
X140434903Y-36623455D01*
X140386299Y-36463230D01*
X140369888Y-36296600D01*
X140386299Y-36129970D01*
X140434903Y-35969745D01*
X140513831Y-35822080D01*
X140620051Y-35692651D01*
X140749480Y-35586431D01*
X140897145Y-35507503D01*
X141057370Y-35458899D01*
X141182248Y-35446600D01*
X141265752Y-35446600D01*
X141390630Y-35458899D01*
X141390630Y-35458899D01*
G37*
G36*
X172601377Y-35215284D02*
X171116452Y-36700209D01*
X170692187Y-36275944D01*
X172177112Y-34791019D01*
X172601377Y-35215284D01*
X172601377Y-35215284D01*
G37*
G36*
X133929392Y-35152776D02*
X133963283Y-35163057D01*
X133994511Y-35179748D01*
X134021885Y-35202215D01*
X134044352Y-35229589D01*
X134061043Y-35260817D01*
X134071324Y-35294708D01*
X134075400Y-35336091D01*
X134075400Y-35936309D01*
X134071324Y-35977692D01*
X134061043Y-36011583D01*
X134044352Y-36042811D01*
X134021885Y-36070185D01*
X133994511Y-36092652D01*
X133963283Y-36109343D01*
X133929392Y-36119624D01*
X133888009Y-36123700D01*
X132862791Y-36123700D01*
X132821408Y-36119624D01*
X132787517Y-36109343D01*
X132756289Y-36092652D01*
X132728915Y-36070185D01*
X132706448Y-36042811D01*
X132689757Y-36011583D01*
X132679476Y-35977692D01*
X132675400Y-35936309D01*
X132675400Y-35336091D01*
X132679476Y-35294708D01*
X132689757Y-35260817D01*
X132706448Y-35229589D01*
X132728915Y-35202215D01*
X132756289Y-35179748D01*
X132787517Y-35163057D01*
X132821408Y-35152776D01*
X132862791Y-35148700D01*
X133888009Y-35148700D01*
X133929392Y-35152776D01*
X133929392Y-35152776D01*
G37*
G36*
X136189992Y-35148176D02*
X136223883Y-35158457D01*
X136255111Y-35175148D01*
X136282485Y-35197615D01*
X136304952Y-35224989D01*
X136321643Y-35256217D01*
X136331924Y-35290108D01*
X136336000Y-35331491D01*
X136336000Y-35931709D01*
X136331924Y-35973092D01*
X136321643Y-36006983D01*
X136304952Y-36038211D01*
X136282485Y-36065585D01*
X136255111Y-36088052D01*
X136223883Y-36104743D01*
X136189992Y-36115024D01*
X136148609Y-36119100D01*
X135123391Y-36119100D01*
X135082008Y-36115024D01*
X135048117Y-36104743D01*
X135016889Y-36088052D01*
X134989515Y-36065585D01*
X134967048Y-36038211D01*
X134950357Y-36006983D01*
X134940076Y-35973092D01*
X134936000Y-35931709D01*
X134936000Y-35331491D01*
X134940076Y-35290108D01*
X134950357Y-35256217D01*
X134967048Y-35224989D01*
X134989515Y-35197615D01*
X135016889Y-35175148D01*
X135048117Y-35158457D01*
X135082008Y-35148176D01*
X135123391Y-35144100D01*
X136148609Y-35144100D01*
X136189992Y-35148176D01*
X136189992Y-35148176D01*
G37*
G36*
X171964981Y-34578888D02*
X170480056Y-36063813D01*
X170055791Y-35639548D01*
X171540716Y-34154623D01*
X171964981Y-34578888D01*
X171964981Y-34578888D01*
G37*
G36*
X141390630Y-32918899D02*
X141550855Y-32967503D01*
X141698520Y-33046431D01*
X141827949Y-33152651D01*
X141934169Y-33282080D01*
X142013097Y-33429745D01*
X142061701Y-33589970D01*
X142078112Y-33756600D01*
X142061701Y-33923230D01*
X142013097Y-34083455D01*
X141934169Y-34231120D01*
X141827949Y-34360549D01*
X141698520Y-34466769D01*
X141550855Y-34545697D01*
X141390630Y-34594301D01*
X141265752Y-34606600D01*
X141182248Y-34606600D01*
X141057370Y-34594301D01*
X140897145Y-34545697D01*
X140749480Y-34466769D01*
X140620051Y-34360549D01*
X140513831Y-34231120D01*
X140434903Y-34083455D01*
X140386299Y-33923230D01*
X140369888Y-33756600D01*
X140386299Y-33589970D01*
X140434903Y-33429745D01*
X140513831Y-33282080D01*
X140620051Y-33152651D01*
X140749480Y-33046431D01*
X140897145Y-32967503D01*
X141057370Y-32918899D01*
X141182248Y-32906600D01*
X141265752Y-32906600D01*
X141390630Y-32918899D01*
X141390630Y-32918899D01*
G37*
G36*
X143930630Y-32918899D02*
X144090855Y-32967503D01*
X144238520Y-33046431D01*
X144367949Y-33152651D01*
X144474169Y-33282080D01*
X144553097Y-33429745D01*
X144601701Y-33589970D01*
X144618112Y-33756600D01*
X144601701Y-33923230D01*
X144553097Y-34083455D01*
X144474169Y-34231120D01*
X144367949Y-34360549D01*
X144238520Y-34466769D01*
X144090855Y-34545697D01*
X143930630Y-34594301D01*
X143805752Y-34606600D01*
X143722248Y-34606600D01*
X143597370Y-34594301D01*
X143437145Y-34545697D01*
X143289480Y-34466769D01*
X143160051Y-34360549D01*
X143053831Y-34231120D01*
X142974903Y-34083455D01*
X142926299Y-33923230D01*
X142909888Y-33756600D01*
X142926299Y-33589970D01*
X142974903Y-33429745D01*
X143053831Y-33282080D01*
X143160051Y-33152651D01*
X143289480Y-33046431D01*
X143437145Y-32967503D01*
X143597370Y-32918899D01*
X143722248Y-32906600D01*
X143805752Y-32906600D01*
X143930630Y-32918899D01*
X143930630Y-32918899D01*
G37*
G36*
X133929392Y-33277776D02*
X133963283Y-33288057D01*
X133994511Y-33304748D01*
X134021885Y-33327215D01*
X134044352Y-33354589D01*
X134061043Y-33385817D01*
X134071324Y-33419708D01*
X134075400Y-33461091D01*
X134075400Y-34061309D01*
X134071324Y-34102692D01*
X134061043Y-34136583D01*
X134044352Y-34167811D01*
X134021885Y-34195185D01*
X133994511Y-34217652D01*
X133963283Y-34234343D01*
X133929392Y-34244624D01*
X133888009Y-34248700D01*
X132862791Y-34248700D01*
X132821408Y-34244624D01*
X132787517Y-34234343D01*
X132756289Y-34217652D01*
X132728915Y-34195185D01*
X132706448Y-34167811D01*
X132689757Y-34136583D01*
X132679476Y-34102692D01*
X132675400Y-34061309D01*
X132675400Y-33461091D01*
X132679476Y-33419708D01*
X132689757Y-33385817D01*
X132706448Y-33354589D01*
X132728915Y-33327215D01*
X132756289Y-33304748D01*
X132787517Y-33288057D01*
X132821408Y-33277776D01*
X132862791Y-33273700D01*
X133888009Y-33273700D01*
X133929392Y-33277776D01*
X133929392Y-33277776D01*
G37*
G36*
X136189992Y-33273176D02*
X136223883Y-33283457D01*
X136255111Y-33300148D01*
X136282485Y-33322615D01*
X136304952Y-33349989D01*
X136321643Y-33381217D01*
X136331924Y-33415108D01*
X136336000Y-33456491D01*
X136336000Y-34056709D01*
X136331924Y-34098092D01*
X136321643Y-34131983D01*
X136304952Y-34163211D01*
X136282485Y-34190585D01*
X136255111Y-34213052D01*
X136223883Y-34229743D01*
X136189992Y-34240024D01*
X136148609Y-34244100D01*
X135123391Y-34244100D01*
X135082008Y-34240024D01*
X135048117Y-34229743D01*
X135016889Y-34213052D01*
X134989515Y-34190585D01*
X134967048Y-34163211D01*
X134950357Y-34131983D01*
X134940076Y-34098092D01*
X134936000Y-34056709D01*
X134936000Y-33456491D01*
X134940076Y-33415108D01*
X134950357Y-33381217D01*
X134967048Y-33349989D01*
X134989515Y-33322615D01*
X135016889Y-33300148D01*
X135048117Y-33283457D01*
X135082008Y-33273176D01*
X135123391Y-33269100D01*
X136148609Y-33269100D01*
X136189992Y-33273176D01*
X136189992Y-33273176D01*
G37*
G36*
X141390630Y-30378899D02*
X141550855Y-30427503D01*
X141698520Y-30506431D01*
X141827949Y-30612651D01*
X141934169Y-30742080D01*
X142013097Y-30889745D01*
X142061701Y-31049970D01*
X142078112Y-31216600D01*
X142061701Y-31383230D01*
X142013097Y-31543455D01*
X141934169Y-31691120D01*
X141827949Y-31820549D01*
X141698520Y-31926769D01*
X141550855Y-32005697D01*
X141390630Y-32054301D01*
X141265752Y-32066600D01*
X141182248Y-32066600D01*
X141057370Y-32054301D01*
X140897145Y-32005697D01*
X140749480Y-31926769D01*
X140620051Y-31820549D01*
X140513831Y-31691120D01*
X140434903Y-31543455D01*
X140386299Y-31383230D01*
X140369888Y-31216600D01*
X140386299Y-31049970D01*
X140434903Y-30889745D01*
X140513831Y-30742080D01*
X140620051Y-30612651D01*
X140749480Y-30506431D01*
X140897145Y-30427503D01*
X141057370Y-30378899D01*
X141182248Y-30366600D01*
X141265752Y-30366600D01*
X141390630Y-30378899D01*
X141390630Y-30378899D01*
G37*
G36*
X144614000Y-32066600D02*
X142914000Y-32066600D01*
X142914000Y-30366600D01*
X144614000Y-30366600D01*
X144614000Y-32066600D01*
X144614000Y-32066600D01*
G37*
M02*
