G04 #@! TF.GenerationSoftware,KiCad,Pcbnew,(5.0.1)-4*
G04 #@! TF.CreationDate,2018-12-07T22:44:18-08:00*
G04 #@! TF.ProjectId,control_board,636F6E74726F6C5F626F6172642E6B69,rev?*
G04 #@! TF.SameCoordinates,Original*
G04 #@! TF.FileFunction,Legend,Top*
G04 #@! TF.FilePolarity,Positive*
%FSLAX46Y46*%
G04 Gerber Fmt 4.6, Leading zero omitted, Abs format (unit mm)*
G04 Created by KiCad (PCBNEW (5.0.1)-4) date 12/7/2018 10:44:18 PM*
%MOMM*%
%LPD*%
G01*
G04 APERTURE LIST*
%ADD10C,0.120000*%
%ADD11C,0.150000*%
G04 APERTURE END LIST*
D10*
G04 #@! TO.C,S1*
X148465000Y-37328800D02*
X147955000Y-37328800D01*
X153545000Y-37328800D02*
X149985000Y-37328800D01*
X155575000Y-37328800D02*
X155065000Y-37328800D01*
X147955000Y-37388800D02*
X147955000Y-39928800D01*
X151005000Y-39988800D02*
X147955000Y-39988800D01*
X155575000Y-39988800D02*
X152525000Y-39988800D01*
X155575000Y-37388800D02*
X155575000Y-39928800D01*
X145925000Y-57648800D02*
X145925000Y-56438800D01*
X155065000Y-60308800D02*
X158275000Y-60308800D01*
X149985000Y-60308800D02*
X153545000Y-60308800D01*
X145255000Y-60308800D02*
X148465000Y-60308800D01*
X158275000Y-60308800D02*
X158275000Y-57648800D01*
X157605000Y-57648800D02*
X158275000Y-57648800D01*
X152525000Y-57648800D02*
X156085000Y-57648800D01*
X147445000Y-57648800D02*
X151005000Y-57648800D01*
X145255000Y-57648800D02*
X145925000Y-57648800D01*
X145255000Y-60308800D02*
X145255000Y-57648800D01*
G04 #@! TO.C,C1*
X144905399Y-45809709D02*
X145271083Y-45444025D01*
X145909491Y-46813801D02*
X146275175Y-46448117D01*
G04 #@! TO.C,C4*
X167793312Y-41108196D02*
X168158996Y-40742512D01*
X168797404Y-42112288D02*
X169163088Y-41746604D01*
G04 #@! TO.C,C5*
X164910309Y-37514199D02*
X164544625Y-37879883D01*
X165914401Y-38518291D02*
X165548717Y-38883975D01*
D11*
G04 #@! TO.C,IC1*
X151765000Y-43692276D02*
X151605901Y-43851375D01*
X156891524Y-48818800D02*
X156661714Y-49048610D01*
X151765000Y-53945324D02*
X151994810Y-53715514D01*
X146638476Y-48818800D02*
X146868286Y-48588990D01*
X151765000Y-43692276D02*
X151994810Y-43922086D01*
X146638476Y-48818800D02*
X146868286Y-49048610D01*
X151765000Y-53945324D02*
X151535190Y-53715514D01*
X156891524Y-48818800D02*
X156661714Y-48588990D01*
X151605901Y-43851375D02*
X150598274Y-42843748D01*
D10*
G04 #@! TO.C,P1*
X135144200Y-59064200D02*
X137804200Y-59064200D01*
X135144200Y-41224200D02*
X135144200Y-59064200D01*
X137804200Y-41224200D02*
X137804200Y-59064200D01*
X135144200Y-41224200D02*
X137804200Y-41224200D01*
X135144200Y-39954200D02*
X135144200Y-38624200D01*
X135144200Y-38624200D02*
X136474200Y-38624200D01*
G04 #@! TO.C,R2*
X132665400Y-34440122D02*
X132665400Y-34957278D01*
X134085400Y-34440122D02*
X134085400Y-34957278D01*
G04 #@! TO.C,R3*
X136346000Y-34435522D02*
X136346000Y-34952678D01*
X134926000Y-34435522D02*
X134926000Y-34952678D01*
G04 #@! TO.C,U1*
X162116477Y-46722326D02*
X165086326Y-43752477D01*
X158255674Y-42861523D02*
X161225523Y-39891674D01*
X158375882Y-42981731D02*
X158255674Y-42861523D01*
X161338660Y-40004811D02*
X161218452Y-39884603D01*
X162116477Y-46722326D02*
X161996269Y-46602118D01*
X165086326Y-43752477D02*
X164966118Y-43632269D01*
X164966118Y-43632269D02*
X165807575Y-42790812D01*
G04 #@! TO.C,Y1*
X164681781Y-40730716D02*
X166025284Y-42074219D01*
X166025284Y-42074219D02*
X172884219Y-35215284D01*
G04 #@! TO.C,S1*
D11*
X151079295Y-35151961D02*
X151222152Y-35199580D01*
X151460247Y-35199580D01*
X151555485Y-35151961D01*
X151603104Y-35104342D01*
X151650723Y-35009104D01*
X151650723Y-34913866D01*
X151603104Y-34818628D01*
X151555485Y-34771009D01*
X151460247Y-34723390D01*
X151269771Y-34675771D01*
X151174533Y-34628152D01*
X151126914Y-34580533D01*
X151079295Y-34485295D01*
X151079295Y-34390057D01*
X151126914Y-34294819D01*
X151174533Y-34247200D01*
X151269771Y-34199580D01*
X151507866Y-34199580D01*
X151650723Y-34247200D01*
X152603104Y-35199580D02*
X152031676Y-35199580D01*
X152317390Y-35199580D02*
X152317390Y-34199580D01*
X152222152Y-34342438D01*
X152126914Y-34437676D01*
X152031676Y-34485295D01*
G04 #@! TO.C,C1*
X144558248Y-45332576D02*
X144558248Y-45399919D01*
X144490904Y-45534606D01*
X144423560Y-45601950D01*
X144288873Y-45669293D01*
X144154186Y-45669293D01*
X144053171Y-45635622D01*
X143884812Y-45534606D01*
X143783797Y-45433591D01*
X143682782Y-45265232D01*
X143649110Y-45164217D01*
X143649110Y-45029530D01*
X143716454Y-44894843D01*
X143783797Y-44827499D01*
X143918484Y-44760156D01*
X143985828Y-44760156D01*
X145299026Y-44726484D02*
X144894965Y-45130545D01*
X145096996Y-44928515D02*
X144389889Y-44221408D01*
X144423560Y-44389767D01*
X144423560Y-44524454D01*
X144389889Y-44625469D01*
G04 #@! TO.C,C4*
X169854975Y-42968702D02*
X169854975Y-43036045D01*
X169787631Y-43170732D01*
X169720287Y-43238076D01*
X169585600Y-43305419D01*
X169450913Y-43305419D01*
X169349898Y-43271748D01*
X169181539Y-43170732D01*
X169080524Y-43069717D01*
X168979509Y-42901358D01*
X168945837Y-42800343D01*
X168945837Y-42665656D01*
X169013181Y-42530969D01*
X169080524Y-42463625D01*
X169215211Y-42396282D01*
X169282555Y-42396282D01*
X170057005Y-41958549D02*
X170528410Y-42429954D01*
X169619272Y-41857534D02*
X169955990Y-42530969D01*
X170393723Y-42093236D01*
G04 #@! TO.C,C5*
X164249112Y-37525563D02*
X164249112Y-37592906D01*
X164181768Y-37727593D01*
X164114424Y-37794937D01*
X163979737Y-37862280D01*
X163845050Y-37862280D01*
X163744035Y-37828609D01*
X163575676Y-37727593D01*
X163474661Y-37626578D01*
X163373646Y-37458219D01*
X163339974Y-37357204D01*
X163339974Y-37222517D01*
X163407318Y-37087830D01*
X163474661Y-37020486D01*
X163609348Y-36953143D01*
X163676692Y-36953143D01*
X164249112Y-36246036D02*
X163912394Y-36582754D01*
X164215440Y-36953143D01*
X164215440Y-36885799D01*
X164249112Y-36784784D01*
X164417470Y-36616425D01*
X164518486Y-36582754D01*
X164585829Y-36582754D01*
X164686844Y-36616425D01*
X164855203Y-36784784D01*
X164888875Y-36885799D01*
X164888875Y-36953143D01*
X164855203Y-37054158D01*
X164686844Y-37222517D01*
X164585829Y-37256189D01*
X164518486Y-37256189D01*
G04 #@! TO.C,IC1*
X155032843Y-44170414D02*
X155739950Y-43463307D01*
X155840965Y-44843849D02*
X155773621Y-44843849D01*
X155638934Y-44776506D01*
X155571591Y-44709162D01*
X155504247Y-44574475D01*
X155504247Y-44439788D01*
X155537919Y-44338773D01*
X155638934Y-44170414D01*
X155739950Y-44069399D01*
X155908308Y-43968384D01*
X156009324Y-43934712D01*
X156144011Y-43934712D01*
X156278698Y-44002055D01*
X156346041Y-44069399D01*
X156413385Y-44204086D01*
X156413385Y-44271429D01*
X156447057Y-45584628D02*
X156042996Y-45180567D01*
X156245026Y-45382597D02*
X156952133Y-44675491D01*
X156783774Y-44709162D01*
X156649087Y-44709162D01*
X156548072Y-44675491D01*
G04 #@! TO.C,P1*
X135736104Y-38076580D02*
X135736104Y-37076580D01*
X136117057Y-37076580D01*
X136212295Y-37124200D01*
X136259914Y-37171819D01*
X136307533Y-37267057D01*
X136307533Y-37409914D01*
X136259914Y-37505152D01*
X136212295Y-37552771D01*
X136117057Y-37600390D01*
X135736104Y-37600390D01*
X137259914Y-38076580D02*
X136688485Y-38076580D01*
X136974199Y-38076580D02*
X136974199Y-37076580D01*
X136878961Y-37219438D01*
X136783723Y-37314676D01*
X136688485Y-37362295D01*
G04 #@! TO.C,R2*
X133234133Y-33015180D02*
X132900799Y-32538990D01*
X132662704Y-33015180D02*
X132662704Y-32015180D01*
X133043657Y-32015180D01*
X133138895Y-32062800D01*
X133186514Y-32110419D01*
X133234133Y-32205657D01*
X133234133Y-32348514D01*
X133186514Y-32443752D01*
X133138895Y-32491371D01*
X133043657Y-32538990D01*
X132662704Y-32538990D01*
X133615085Y-32110419D02*
X133662704Y-32062800D01*
X133757942Y-32015180D01*
X133996038Y-32015180D01*
X134091276Y-32062800D01*
X134138895Y-32110419D01*
X134186514Y-32205657D01*
X134186514Y-32300895D01*
X134138895Y-32443752D01*
X133567466Y-33015180D01*
X134186514Y-33015180D01*
G04 #@! TO.C,R3*
X135494733Y-33015180D02*
X135161399Y-32538990D01*
X134923304Y-33015180D02*
X134923304Y-32015180D01*
X135304257Y-32015180D01*
X135399495Y-32062800D01*
X135447114Y-32110419D01*
X135494733Y-32205657D01*
X135494733Y-32348514D01*
X135447114Y-32443752D01*
X135399495Y-32491371D01*
X135304257Y-32538990D01*
X134923304Y-32538990D01*
X135828066Y-32015180D02*
X136447114Y-32015180D01*
X136113780Y-32396133D01*
X136256638Y-32396133D01*
X136351876Y-32443752D01*
X136399495Y-32491371D01*
X136447114Y-32586609D01*
X136447114Y-32824704D01*
X136399495Y-32919942D01*
X136351876Y-32967561D01*
X136256638Y-33015180D01*
X135970923Y-33015180D01*
X135875685Y-32967561D01*
X135828066Y-32919942D01*
G04 #@! TO.C,U1*
X163255255Y-45968751D02*
X163827675Y-46541171D01*
X163928690Y-46574843D01*
X163996034Y-46574843D01*
X164097049Y-46541171D01*
X164231736Y-46406484D01*
X164265408Y-46305469D01*
X164265408Y-46238125D01*
X164231736Y-46137110D01*
X163659316Y-45564690D01*
X165073530Y-45564690D02*
X164669469Y-45968751D01*
X164871499Y-45766721D02*
X164164393Y-45059614D01*
X164198064Y-45227973D01*
X164198064Y-45362660D01*
X164164393Y-45463675D01*
G04 #@! TO.C,Y1*
X168302446Y-36133881D02*
X168639164Y-36470599D01*
X167696355Y-35999194D02*
X168302446Y-36133881D01*
X168167759Y-35527790D01*
X169480957Y-35628805D02*
X169076896Y-36032866D01*
X169278927Y-35830835D02*
X168571820Y-35123729D01*
X168605492Y-35292087D01*
X168605492Y-35426774D01*
X168571820Y-35527790D01*
G04 #@! TD*
M02*
