G04 #@! TF.GenerationSoftware,KiCad,Pcbnew,(5.0.1)-4*
G04 #@! TF.CreationDate,2018-12-07T22:44:18-08:00*
G04 #@! TF.ProjectId,control_board,636F6E74726F6C5F626F6172642E6B69,rev?*
G04 #@! TF.SameCoordinates,Original*
G04 #@! TF.FileFunction,Profile,NP*
%FSLAX46Y46*%
G04 Gerber Fmt 4.6, Leading zero omitted, Abs format (unit mm)*
G04 Created by KiCad (PCBNEW (5.0.1)-4) date 12/7/2018 10:44:18 PM*
%MOMM*%
%LPD*%
G01*
G04 APERTURE LIST*
%ADD10C,0.100000*%
G04 #@! TA.AperFunction,NonConductor*
%ADD11C,0.100000*%
G04 #@! TD*
G04 APERTURE END LIST*
D10*
X173990000Y-72237600D02*
X173990000Y-25400000D01*
X129540000Y-72237600D02*
X173990000Y-72237600D01*
X129540000Y-25400000D02*
X129540000Y-72237600D01*
X173990000Y-25400000D02*
X129540000Y-25400000D01*
D11*
G04 #@! TO.C,J1*
X141395800Y-61298600D02*
G75*
G03X141020800Y-60923600I-375000J0D01*
G01*
X141020800Y-60923600D02*
G75*
G03X140645800Y-61298600I0J-375000D01*
G01*
X140645800Y-61298600D02*
X140645800Y-61498600D01*
X140645800Y-61498600D02*
G75*
G03X141020800Y-61873600I375000J0D01*
G01*
X141020800Y-61873600D02*
G75*
G03X141395800Y-61498600I0J375000D01*
G01*
X141395800Y-61498600D02*
X141395800Y-61298600D01*
X140120800Y-69898600D02*
G75*
G03X140420800Y-69598600I0J300000D01*
G01*
X140420800Y-69598600D02*
G75*
G03X140120800Y-69298600I-300000J0D01*
G01*
X140120800Y-69298600D02*
X139120800Y-69298600D01*
X139120800Y-69298600D02*
G75*
G03X138820800Y-69598600I0J-300000D01*
G01*
X138820800Y-69598600D02*
G75*
G03X139120800Y-69898600I300000J0D01*
G01*
X139120800Y-69898600D02*
X140120800Y-69898600D01*
X137120800Y-69898600D02*
G75*
G03X137420800Y-69598600I0J300000D01*
G01*
X137420800Y-69598600D02*
G75*
G03X137120800Y-69298600I-300000J0D01*
G01*
X137120800Y-69298600D02*
X136120800Y-69298600D01*
X136120800Y-69298600D02*
G75*
G03X135820800Y-69598600I0J-300000D01*
G01*
X135820800Y-69598600D02*
G75*
G03X136120800Y-69898600I300000J0D01*
G01*
X136120800Y-69898600D02*
X137120800Y-69898600D01*
X140120800Y-60698600D02*
G75*
G03X140420800Y-60398600I0J300000D01*
G01*
X140420800Y-60398600D02*
G75*
G03X140120800Y-60098600I-300000J0D01*
G01*
X140120800Y-60098600D02*
X139120800Y-60098600D01*
X139120800Y-60098600D02*
G75*
G03X138820800Y-60398600I0J-300000D01*
G01*
X138820800Y-60398600D02*
G75*
G03X139120800Y-60698600I300000J0D01*
G01*
X139120800Y-60698600D02*
X140120800Y-60698600D01*
X137120800Y-60698600D02*
G75*
G03X137420800Y-60398600I0J300000D01*
G01*
X137420800Y-60398600D02*
G75*
G03X137120800Y-60098600I-300000J0D01*
G01*
X137120800Y-60098600D02*
X136120800Y-60098600D01*
X136120800Y-60098600D02*
G75*
G03X135820800Y-60398600I0J-300000D01*
G01*
X135820800Y-60398600D02*
G75*
G03X136120800Y-60698600I300000J0D01*
G01*
X136120800Y-60698600D02*
X137120800Y-60698600D01*
G04 #@! TD*
M02*
