G04 #@! TF.GenerationSoftware,KiCad,Pcbnew,(5.0.1)-4*
G04 #@! TF.CreationDate,2018-12-07T22:44:18-08:00*
G04 #@! TF.ProjectId,control_board,636F6E74726F6C5F626F6172642E6B69,rev?*
G04 #@! TF.SameCoordinates,Original*
G04 #@! TF.FileFunction,Legend,Bot*
G04 #@! TF.FilePolarity,Positive*
%FSLAX46Y46*%
G04 Gerber Fmt 4.6, Leading zero omitted, Abs format (unit mm)*
G04 Created by KiCad (PCBNEW (5.0.1)-4) date 12/7/2018 10:44:18 PM*
%MOMM*%
%LPD*%
G01*
G04 APERTURE LIST*
%ADD10C,0.120000*%
%ADD11C,0.350000*%
%ADD12C,0.010000*%
%ADD13C,0.150000*%
%ADD14C,0.050000*%
G04 APERTURE END LIST*
D10*
G04 #@! TO.C,R5*
X145822600Y-33597322D02*
X145822600Y-34114478D01*
X147242600Y-33597322D02*
X147242600Y-34114478D01*
D11*
G04 #@! TO.C,J1*
X134970800Y-69698600D02*
X134970800Y-60298600D01*
D10*
G04 #@! TO.C,C2*
X150569599Y-45530309D02*
X150935283Y-45164625D01*
X151573691Y-46534401D02*
X151939375Y-46168717D01*
G04 #@! TO.C,C3*
X155053491Y-50014201D02*
X155419175Y-49648517D01*
X154049399Y-49010109D02*
X154415083Y-48644425D01*
G04 #@! TO.C,J2*
X145094000Y-37626600D02*
X139894000Y-37626600D01*
X145094000Y-32486600D02*
X145094000Y-37626600D01*
X139894000Y-29886600D02*
X139894000Y-37626600D01*
X145094000Y-32486600D02*
X142494000Y-32486600D01*
X142494000Y-32486600D02*
X142494000Y-29886600D01*
X142494000Y-29886600D02*
X139894000Y-29886600D01*
X145094000Y-31216600D02*
X145094000Y-29886600D01*
X145094000Y-29886600D02*
X143764000Y-29886600D01*
G04 #@! TO.C,R1*
X147490922Y-31926600D02*
X148008078Y-31926600D01*
X147490922Y-30506600D02*
X148008078Y-30506600D01*
G04 #@! TO.C,C6*
X162282201Y-43041109D02*
X161916517Y-42675425D01*
X161278109Y-44045201D02*
X160912425Y-43679517D01*
G04 #@! TO.C,C7*
X151590625Y-51468883D02*
X151956309Y-51103199D01*
X152594717Y-52472975D02*
X152960401Y-52107291D01*
D12*
G04 #@! TO.C,G\002A\002A\002A*
G36*
X163525200Y-62738000D02*
X163322000Y-62738000D01*
X163322000Y-61976000D01*
X163226572Y-61976000D01*
X163146406Y-61983392D01*
X163042962Y-62003376D01*
X162926526Y-62032662D01*
X162807381Y-62067961D01*
X162695812Y-62105984D01*
X162602104Y-62143441D01*
X162536540Y-62177043D01*
X162509406Y-62203499D01*
X162509200Y-62205445D01*
X162521777Y-62241145D01*
X162553372Y-62300485D01*
X162568697Y-62325754D01*
X162627299Y-62420353D01*
X162660533Y-62481798D01*
X162670144Y-62519892D01*
X162657874Y-62544444D01*
X162625467Y-62565257D01*
X162612488Y-62572027D01*
X162557964Y-62598580D01*
X162526420Y-62610894D01*
X162525348Y-62611000D01*
X162508233Y-62590510D01*
X162473777Y-62536355D01*
X162428893Y-62459502D01*
X162420968Y-62445407D01*
X162328364Y-62279815D01*
X162173534Y-62400957D01*
X162080751Y-62480866D01*
X161980822Y-62578703D01*
X161885114Y-62682139D01*
X161804991Y-62778843D01*
X161751820Y-62856485D01*
X161749197Y-62861268D01*
X161742670Y-62888637D01*
X161759589Y-62916793D01*
X161807361Y-62953274D01*
X161887918Y-63002419D01*
X162051095Y-63097874D01*
X162012795Y-63171937D01*
X161970387Y-63230712D01*
X161921866Y-63242045D01*
X161860802Y-63212458D01*
X161806715Y-63177714D01*
X161735169Y-63133453D01*
X161717104Y-63122508D01*
X161623507Y-63066100D01*
X161568995Y-63187800D01*
X161522133Y-63309198D01*
X161479161Y-63450272D01*
X161444483Y-63593393D01*
X161422503Y-63720934D01*
X161417000Y-63796163D01*
X161417000Y-63906400D01*
X162179000Y-63906400D01*
X162179000Y-64109600D01*
X161417000Y-64109600D01*
X161417000Y-64207136D01*
X161426050Y-64301422D01*
X161450305Y-64425575D01*
X161485427Y-64562575D01*
X161527076Y-64695399D01*
X161568662Y-64802047D01*
X161622841Y-64922994D01*
X161742171Y-64855017D01*
X161813757Y-64812924D01*
X161867891Y-64778721D01*
X161885631Y-64765819D01*
X161936544Y-64745640D01*
X161984955Y-64775690D01*
X162012791Y-64818654D01*
X162051086Y-64892708D01*
X161930893Y-64962300D01*
X161831744Y-65019511D01*
X161771524Y-65059623D01*
X161746705Y-65093432D01*
X161753759Y-65131732D01*
X161789160Y-65185318D01*
X161837270Y-65248775D01*
X161900215Y-65324293D01*
X161980391Y-65408863D01*
X162068801Y-65494354D01*
X162156445Y-65572638D01*
X162234326Y-65635585D01*
X162293446Y-65675067D01*
X162319462Y-65684400D01*
X162344960Y-65663813D01*
X162385329Y-65609780D01*
X162431937Y-65533887D01*
X162433000Y-65532000D01*
X162477639Y-65456117D01*
X162513379Y-65401713D01*
X162532715Y-65380182D01*
X162533011Y-65380164D01*
X162561005Y-65394650D01*
X162608931Y-65428875D01*
X162610800Y-65430331D01*
X162674300Y-65479932D01*
X162591750Y-65631168D01*
X162550251Y-65708749D01*
X162520608Y-65767125D01*
X162509201Y-65793732D01*
X162509200Y-65793774D01*
X162532283Y-65815739D01*
X162594659Y-65845546D01*
X162686022Y-65880068D01*
X162796064Y-65916174D01*
X162914479Y-65950735D01*
X163030959Y-65980621D01*
X163135197Y-66002703D01*
X163216887Y-66013852D01*
X163236502Y-66014600D01*
X163320677Y-66014600D01*
X163327689Y-65627250D01*
X163334700Y-65239900D01*
X163429950Y-65232016D01*
X163525200Y-65224133D01*
X163525200Y-66014600D01*
X163620450Y-66012760D01*
X163691987Y-66005681D01*
X163792232Y-65988717D01*
X163900890Y-65965362D01*
X163913252Y-65962365D01*
X164028677Y-65930870D01*
X164143954Y-65894332D01*
X164234755Y-65860479D01*
X164237211Y-65859429D01*
X164363619Y-65805050D01*
X164316250Y-65725675D01*
X164269187Y-65645615D01*
X164221641Y-65563057D01*
X164220891Y-65561735D01*
X164172900Y-65477170D01*
X164232864Y-65428385D01*
X164281548Y-65393684D01*
X164313012Y-65379600D01*
X164334647Y-65399961D01*
X164373271Y-65453753D01*
X164421134Y-65530036D01*
X164428865Y-65543142D01*
X164524533Y-65706685D01*
X164634817Y-65627485D01*
X164720012Y-65558104D01*
X164822335Y-65462804D01*
X164927781Y-65355807D01*
X165022348Y-65251336D01*
X165092031Y-65163614D01*
X165093239Y-65161893D01*
X165147789Y-65083887D01*
X164984195Y-64989796D01*
X164905438Y-64943150D01*
X164847448Y-64906230D01*
X164821140Y-64886041D01*
X164820600Y-64884848D01*
X164832613Y-64843811D01*
X164860049Y-64792925D01*
X164890007Y-64753683D01*
X164904787Y-64744600D01*
X164938145Y-64756260D01*
X165001988Y-64786915D01*
X165082856Y-64830077D01*
X165087519Y-64832679D01*
X165245019Y-64920758D01*
X165310697Y-64750129D01*
X165370516Y-64581793D01*
X165410992Y-64432587D01*
X165438570Y-64277870D01*
X165443165Y-64243623D01*
X165460182Y-64110947D01*
X165070541Y-64103923D01*
X164680900Y-64096900D01*
X164680900Y-64032248D01*
X163557562Y-64032248D01*
X163514521Y-64072065D01*
X163508349Y-64076150D01*
X163463369Y-64106203D01*
X163385607Y-64159024D01*
X163284050Y-64228474D01*
X163167688Y-64308411D01*
X163096828Y-64357250D01*
X162981408Y-64436205D01*
X162880591Y-64503858D01*
X162801746Y-64555369D01*
X162752245Y-64585896D01*
X162739156Y-64592200D01*
X162714459Y-64573699D01*
X162674625Y-64527775D01*
X162663394Y-64512992D01*
X162629817Y-64455918D01*
X162626761Y-64420981D01*
X162630103Y-64417742D01*
X162658842Y-64398451D01*
X162721646Y-64355690D01*
X162810725Y-64294783D01*
X162918292Y-64221052D01*
X162985708Y-64174766D01*
X163316042Y-63947833D01*
X163270534Y-63819166D01*
X163248779Y-63758979D01*
X163212345Y-63659670D01*
X163164356Y-63529695D01*
X163107938Y-63377508D01*
X163046219Y-63211565D01*
X163006968Y-63106300D01*
X162946683Y-62944177D01*
X162892775Y-62798031D01*
X162847667Y-62674522D01*
X162813779Y-62580311D01*
X162793532Y-62522059D01*
X162788755Y-62506012D01*
X162809331Y-62486475D01*
X162833050Y-62477144D01*
X162895966Y-62456147D01*
X162918036Y-62447566D01*
X162948859Y-62449214D01*
X162977439Y-62487688D01*
X162999489Y-62539934D01*
X163019097Y-62592504D01*
X163053584Y-62685245D01*
X163100180Y-62810692D01*
X163156113Y-62961382D01*
X163218612Y-63129850D01*
X163284906Y-63308633D01*
X163285227Y-63309500D01*
X163350132Y-63483306D01*
X163410353Y-63642153D01*
X163463376Y-63779600D01*
X163506686Y-63889204D01*
X163537769Y-63964522D01*
X163554109Y-63999112D01*
X163554723Y-63999950D01*
X163557562Y-64032248D01*
X164680900Y-64032248D01*
X164680900Y-63919100D01*
X165071093Y-63912073D01*
X165461285Y-63905046D01*
X165444041Y-63759673D01*
X165425014Y-63640545D01*
X165396458Y-63512343D01*
X165361515Y-63384615D01*
X165323328Y-63266909D01*
X165285040Y-63168773D01*
X165249793Y-63099754D01*
X165220730Y-63069401D01*
X165216638Y-63068773D01*
X165182075Y-63081798D01*
X165119268Y-63115218D01*
X165049200Y-63157243D01*
X164909500Y-63245138D01*
X164865050Y-63191955D01*
X164825724Y-63125973D01*
X164833557Y-63074979D01*
X164877750Y-63039690D01*
X164935820Y-63006767D01*
X165009921Y-62962161D01*
X165030691Y-62949236D01*
X165089001Y-62908539D01*
X165110078Y-62877681D01*
X165101994Y-62843515D01*
X165099064Y-62837851D01*
X165060726Y-62783638D01*
X164994481Y-62706354D01*
X164910572Y-62616476D01*
X164819242Y-62524477D01*
X164730733Y-62440833D01*
X164655288Y-62376021D01*
X164626453Y-62354490D01*
X164519478Y-62280889D01*
X164441887Y-62414194D01*
X164386020Y-62510181D01*
X164348730Y-62569215D01*
X164321952Y-62597597D01*
X164297622Y-62601628D01*
X164267675Y-62587607D01*
X164240672Y-62571382D01*
X164162936Y-62525462D01*
X164254675Y-62361417D01*
X164300919Y-62276930D01*
X164324328Y-62225045D01*
X164327398Y-62194330D01*
X164312629Y-62173354D01*
X164298221Y-62162131D01*
X164235917Y-62129528D01*
X164137795Y-62092465D01*
X164018105Y-62055085D01*
X163891095Y-62021533D01*
X163771015Y-61995956D01*
X163684144Y-61983496D01*
X163525200Y-61968654D01*
X163525200Y-62738000D01*
X163525200Y-62738000D01*
G37*
X163525200Y-62738000D02*
X163322000Y-62738000D01*
X163322000Y-61976000D01*
X163226572Y-61976000D01*
X163146406Y-61983392D01*
X163042962Y-62003376D01*
X162926526Y-62032662D01*
X162807381Y-62067961D01*
X162695812Y-62105984D01*
X162602104Y-62143441D01*
X162536540Y-62177043D01*
X162509406Y-62203499D01*
X162509200Y-62205445D01*
X162521777Y-62241145D01*
X162553372Y-62300485D01*
X162568697Y-62325754D01*
X162627299Y-62420353D01*
X162660533Y-62481798D01*
X162670144Y-62519892D01*
X162657874Y-62544444D01*
X162625467Y-62565257D01*
X162612488Y-62572027D01*
X162557964Y-62598580D01*
X162526420Y-62610894D01*
X162525348Y-62611000D01*
X162508233Y-62590510D01*
X162473777Y-62536355D01*
X162428893Y-62459502D01*
X162420968Y-62445407D01*
X162328364Y-62279815D01*
X162173534Y-62400957D01*
X162080751Y-62480866D01*
X161980822Y-62578703D01*
X161885114Y-62682139D01*
X161804991Y-62778843D01*
X161751820Y-62856485D01*
X161749197Y-62861268D01*
X161742670Y-62888637D01*
X161759589Y-62916793D01*
X161807361Y-62953274D01*
X161887918Y-63002419D01*
X162051095Y-63097874D01*
X162012795Y-63171937D01*
X161970387Y-63230712D01*
X161921866Y-63242045D01*
X161860802Y-63212458D01*
X161806715Y-63177714D01*
X161735169Y-63133453D01*
X161717104Y-63122508D01*
X161623507Y-63066100D01*
X161568995Y-63187800D01*
X161522133Y-63309198D01*
X161479161Y-63450272D01*
X161444483Y-63593393D01*
X161422503Y-63720934D01*
X161417000Y-63796163D01*
X161417000Y-63906400D01*
X162179000Y-63906400D01*
X162179000Y-64109600D01*
X161417000Y-64109600D01*
X161417000Y-64207136D01*
X161426050Y-64301422D01*
X161450305Y-64425575D01*
X161485427Y-64562575D01*
X161527076Y-64695399D01*
X161568662Y-64802047D01*
X161622841Y-64922994D01*
X161742171Y-64855017D01*
X161813757Y-64812924D01*
X161867891Y-64778721D01*
X161885631Y-64765819D01*
X161936544Y-64745640D01*
X161984955Y-64775690D01*
X162012791Y-64818654D01*
X162051086Y-64892708D01*
X161930893Y-64962300D01*
X161831744Y-65019511D01*
X161771524Y-65059623D01*
X161746705Y-65093432D01*
X161753759Y-65131732D01*
X161789160Y-65185318D01*
X161837270Y-65248775D01*
X161900215Y-65324293D01*
X161980391Y-65408863D01*
X162068801Y-65494354D01*
X162156445Y-65572638D01*
X162234326Y-65635585D01*
X162293446Y-65675067D01*
X162319462Y-65684400D01*
X162344960Y-65663813D01*
X162385329Y-65609780D01*
X162431937Y-65533887D01*
X162433000Y-65532000D01*
X162477639Y-65456117D01*
X162513379Y-65401713D01*
X162532715Y-65380182D01*
X162533011Y-65380164D01*
X162561005Y-65394650D01*
X162608931Y-65428875D01*
X162610800Y-65430331D01*
X162674300Y-65479932D01*
X162591750Y-65631168D01*
X162550251Y-65708749D01*
X162520608Y-65767125D01*
X162509201Y-65793732D01*
X162509200Y-65793774D01*
X162532283Y-65815739D01*
X162594659Y-65845546D01*
X162686022Y-65880068D01*
X162796064Y-65916174D01*
X162914479Y-65950735D01*
X163030959Y-65980621D01*
X163135197Y-66002703D01*
X163216887Y-66013852D01*
X163236502Y-66014600D01*
X163320677Y-66014600D01*
X163327689Y-65627250D01*
X163334700Y-65239900D01*
X163429950Y-65232016D01*
X163525200Y-65224133D01*
X163525200Y-66014600D01*
X163620450Y-66012760D01*
X163691987Y-66005681D01*
X163792232Y-65988717D01*
X163900890Y-65965362D01*
X163913252Y-65962365D01*
X164028677Y-65930870D01*
X164143954Y-65894332D01*
X164234755Y-65860479D01*
X164237211Y-65859429D01*
X164363619Y-65805050D01*
X164316250Y-65725675D01*
X164269187Y-65645615D01*
X164221641Y-65563057D01*
X164220891Y-65561735D01*
X164172900Y-65477170D01*
X164232864Y-65428385D01*
X164281548Y-65393684D01*
X164313012Y-65379600D01*
X164334647Y-65399961D01*
X164373271Y-65453753D01*
X164421134Y-65530036D01*
X164428865Y-65543142D01*
X164524533Y-65706685D01*
X164634817Y-65627485D01*
X164720012Y-65558104D01*
X164822335Y-65462804D01*
X164927781Y-65355807D01*
X165022348Y-65251336D01*
X165092031Y-65163614D01*
X165093239Y-65161893D01*
X165147789Y-65083887D01*
X164984195Y-64989796D01*
X164905438Y-64943150D01*
X164847448Y-64906230D01*
X164821140Y-64886041D01*
X164820600Y-64884848D01*
X164832613Y-64843811D01*
X164860049Y-64792925D01*
X164890007Y-64753683D01*
X164904787Y-64744600D01*
X164938145Y-64756260D01*
X165001988Y-64786915D01*
X165082856Y-64830077D01*
X165087519Y-64832679D01*
X165245019Y-64920758D01*
X165310697Y-64750129D01*
X165370516Y-64581793D01*
X165410992Y-64432587D01*
X165438570Y-64277870D01*
X165443165Y-64243623D01*
X165460182Y-64110947D01*
X165070541Y-64103923D01*
X164680900Y-64096900D01*
X164680900Y-64032248D01*
X163557562Y-64032248D01*
X163514521Y-64072065D01*
X163508349Y-64076150D01*
X163463369Y-64106203D01*
X163385607Y-64159024D01*
X163284050Y-64228474D01*
X163167688Y-64308411D01*
X163096828Y-64357250D01*
X162981408Y-64436205D01*
X162880591Y-64503858D01*
X162801746Y-64555369D01*
X162752245Y-64585896D01*
X162739156Y-64592200D01*
X162714459Y-64573699D01*
X162674625Y-64527775D01*
X162663394Y-64512992D01*
X162629817Y-64455918D01*
X162626761Y-64420981D01*
X162630103Y-64417742D01*
X162658842Y-64398451D01*
X162721646Y-64355690D01*
X162810725Y-64294783D01*
X162918292Y-64221052D01*
X162985708Y-64174766D01*
X163316042Y-63947833D01*
X163270534Y-63819166D01*
X163248779Y-63758979D01*
X163212345Y-63659670D01*
X163164356Y-63529695D01*
X163107938Y-63377508D01*
X163046219Y-63211565D01*
X163006968Y-63106300D01*
X162946683Y-62944177D01*
X162892775Y-62798031D01*
X162847667Y-62674522D01*
X162813779Y-62580311D01*
X162793532Y-62522059D01*
X162788755Y-62506012D01*
X162809331Y-62486475D01*
X162833050Y-62477144D01*
X162895966Y-62456147D01*
X162918036Y-62447566D01*
X162948859Y-62449214D01*
X162977439Y-62487688D01*
X162999489Y-62539934D01*
X163019097Y-62592504D01*
X163053584Y-62685245D01*
X163100180Y-62810692D01*
X163156113Y-62961382D01*
X163218612Y-63129850D01*
X163284906Y-63308633D01*
X163285227Y-63309500D01*
X163350132Y-63483306D01*
X163410353Y-63642153D01*
X163463376Y-63779600D01*
X163506686Y-63889204D01*
X163537769Y-63964522D01*
X163554109Y-63999112D01*
X163554723Y-63999950D01*
X163557562Y-64032248D01*
X164680900Y-64032248D01*
X164680900Y-63919100D01*
X165071093Y-63912073D01*
X165461285Y-63905046D01*
X165444041Y-63759673D01*
X165425014Y-63640545D01*
X165396458Y-63512343D01*
X165361515Y-63384615D01*
X165323328Y-63266909D01*
X165285040Y-63168773D01*
X165249793Y-63099754D01*
X165220730Y-63069401D01*
X165216638Y-63068773D01*
X165182075Y-63081798D01*
X165119268Y-63115218D01*
X165049200Y-63157243D01*
X164909500Y-63245138D01*
X164865050Y-63191955D01*
X164825724Y-63125973D01*
X164833557Y-63074979D01*
X164877750Y-63039690D01*
X164935820Y-63006767D01*
X165009921Y-62962161D01*
X165030691Y-62949236D01*
X165089001Y-62908539D01*
X165110078Y-62877681D01*
X165101994Y-62843515D01*
X165099064Y-62837851D01*
X165060726Y-62783638D01*
X164994481Y-62706354D01*
X164910572Y-62616476D01*
X164819242Y-62524477D01*
X164730733Y-62440833D01*
X164655288Y-62376021D01*
X164626453Y-62354490D01*
X164519478Y-62280889D01*
X164441887Y-62414194D01*
X164386020Y-62510181D01*
X164348730Y-62569215D01*
X164321952Y-62597597D01*
X164297622Y-62601628D01*
X164267675Y-62587607D01*
X164240672Y-62571382D01*
X164162936Y-62525462D01*
X164254675Y-62361417D01*
X164300919Y-62276930D01*
X164324328Y-62225045D01*
X164327398Y-62194330D01*
X164312629Y-62173354D01*
X164298221Y-62162131D01*
X164235917Y-62129528D01*
X164137795Y-62092465D01*
X164018105Y-62055085D01*
X163891095Y-62021533D01*
X163771015Y-61995956D01*
X163684144Y-61983496D01*
X163525200Y-61968654D01*
X163525200Y-62738000D01*
G36*
X168675112Y-63053697D02*
X168279092Y-63056074D01*
X167897338Y-63058444D01*
X167532907Y-63060787D01*
X167188858Y-63063077D01*
X166868247Y-63065293D01*
X166574133Y-63067410D01*
X166309571Y-63069407D01*
X166077621Y-63071260D01*
X165881339Y-63072946D01*
X165723782Y-63074442D01*
X165608008Y-63075725D01*
X165537075Y-63076772D01*
X165514008Y-63077526D01*
X165518804Y-63102136D01*
X165536794Y-63159303D01*
X165551846Y-63202471D01*
X165594900Y-63322200D01*
X168262100Y-63316474D01*
X168636781Y-63315606D01*
X169004546Y-63314631D01*
X169361285Y-63313567D01*
X169702891Y-63312430D01*
X170025255Y-63311240D01*
X170324268Y-63310012D01*
X170595821Y-63308765D01*
X170835805Y-63307516D01*
X171040111Y-63306283D01*
X171204632Y-63305082D01*
X171325258Y-63303933D01*
X171380150Y-63303188D01*
X171831000Y-63295627D01*
X171831000Y-63035084D01*
X168675112Y-63053697D01*
X168675112Y-63053697D01*
G37*
X168675112Y-63053697D02*
X168279092Y-63056074D01*
X167897338Y-63058444D01*
X167532907Y-63060787D01*
X167188858Y-63063077D01*
X166868247Y-63065293D01*
X166574133Y-63067410D01*
X166309571Y-63069407D01*
X166077621Y-63071260D01*
X165881339Y-63072946D01*
X165723782Y-63074442D01*
X165608008Y-63075725D01*
X165537075Y-63076772D01*
X165514008Y-63077526D01*
X165518804Y-63102136D01*
X165536794Y-63159303D01*
X165551846Y-63202471D01*
X165594900Y-63322200D01*
X168262100Y-63316474D01*
X168636781Y-63315606D01*
X169004546Y-63314631D01*
X169361285Y-63313567D01*
X169702891Y-63312430D01*
X170025255Y-63311240D01*
X170324268Y-63310012D01*
X170595821Y-63308765D01*
X170835805Y-63307516D01*
X171040111Y-63306283D01*
X171204632Y-63305082D01*
X171325258Y-63303933D01*
X171380150Y-63303188D01*
X171831000Y-63295627D01*
X171831000Y-63035084D01*
X168675112Y-63053697D01*
G36*
X154279600Y-63322200D02*
X161254518Y-63322200D01*
X161306470Y-63199234D01*
X161358421Y-63076269D01*
X160505061Y-63059575D01*
X160358233Y-63057225D01*
X160165468Y-63054972D01*
X159931630Y-63052840D01*
X159661582Y-63050852D01*
X159360187Y-63049031D01*
X159032307Y-63047399D01*
X158682807Y-63045980D01*
X158316550Y-63044796D01*
X157938399Y-63043871D01*
X157553217Y-63043227D01*
X157165867Y-63042888D01*
X156965650Y-63042840D01*
X154279600Y-63042800D01*
X154279600Y-63322200D01*
X154279600Y-63322200D01*
G37*
X154279600Y-63322200D02*
X161254518Y-63322200D01*
X161306470Y-63199234D01*
X161358421Y-63076269D01*
X160505061Y-63059575D01*
X160358233Y-63057225D01*
X160165468Y-63054972D01*
X159931630Y-63052840D01*
X159661582Y-63050852D01*
X159360187Y-63049031D01*
X159032307Y-63047399D01*
X158682807Y-63045980D01*
X158316550Y-63044796D01*
X157938399Y-63043871D01*
X157553217Y-63043227D01*
X157165867Y-63042888D01*
X156965650Y-63042840D01*
X154279600Y-63042800D01*
X154279600Y-63322200D01*
G36*
X171813100Y-59099320D02*
X171813075Y-59099450D01*
X171784891Y-59147143D01*
X171753034Y-59156600D01*
X171712837Y-59172948D01*
X171704000Y-59194700D01*
X171688698Y-59220085D01*
X171636908Y-59231440D01*
X171592418Y-59232800D01*
X171507627Y-59241283D01*
X171467820Y-59267339D01*
X171466215Y-59270900D01*
X171436025Y-59296526D01*
X171366350Y-59307969D01*
X171323798Y-59309000D01*
X171243653Y-59313031D01*
X171204363Y-59327001D01*
X171196000Y-59347100D01*
X171173282Y-59377347D01*
X171119800Y-59385200D01*
X171064024Y-59393183D01*
X171044387Y-59422886D01*
X171043600Y-59436000D01*
X171051504Y-59475883D01*
X171062650Y-59483792D01*
X171096698Y-59482642D01*
X171164783Y-59482810D01*
X171227750Y-59483792D01*
X171314683Y-59488936D01*
X171360286Y-59501545D01*
X171373794Y-59524218D01*
X171373800Y-59524900D01*
X171393078Y-59553079D01*
X171454604Y-59562931D01*
X171462700Y-59563000D01*
X171528452Y-59554738D01*
X171551440Y-59528369D01*
X171551600Y-59524900D01*
X171566482Y-59499849D01*
X171617137Y-59488393D01*
X171666529Y-59486800D01*
X171740307Y-59482874D01*
X171780437Y-59465849D01*
X171803803Y-59427850D01*
X171806229Y-59421646D01*
X171819110Y-59361004D01*
X171826667Y-59271960D01*
X171827541Y-59199396D01*
X171824297Y-59128173D01*
X171819109Y-59092234D01*
X171813100Y-59099320D01*
X171813100Y-59099320D01*
G37*
X171813100Y-59099320D02*
X171813075Y-59099450D01*
X171784891Y-59147143D01*
X171753034Y-59156600D01*
X171712837Y-59172948D01*
X171704000Y-59194700D01*
X171688698Y-59220085D01*
X171636908Y-59231440D01*
X171592418Y-59232800D01*
X171507627Y-59241283D01*
X171467820Y-59267339D01*
X171466215Y-59270900D01*
X171436025Y-59296526D01*
X171366350Y-59307969D01*
X171323798Y-59309000D01*
X171243653Y-59313031D01*
X171204363Y-59327001D01*
X171196000Y-59347100D01*
X171173282Y-59377347D01*
X171119800Y-59385200D01*
X171064024Y-59393183D01*
X171044387Y-59422886D01*
X171043600Y-59436000D01*
X171051504Y-59475883D01*
X171062650Y-59483792D01*
X171096698Y-59482642D01*
X171164783Y-59482810D01*
X171227750Y-59483792D01*
X171314683Y-59488936D01*
X171360286Y-59501545D01*
X171373794Y-59524218D01*
X171373800Y-59524900D01*
X171393078Y-59553079D01*
X171454604Y-59562931D01*
X171462700Y-59563000D01*
X171528452Y-59554738D01*
X171551440Y-59528369D01*
X171551600Y-59524900D01*
X171566482Y-59499849D01*
X171617137Y-59488393D01*
X171666529Y-59486800D01*
X171740307Y-59482874D01*
X171780437Y-59465849D01*
X171803803Y-59427850D01*
X171806229Y-59421646D01*
X171819110Y-59361004D01*
X171826667Y-59271960D01*
X171827541Y-59199396D01*
X171824297Y-59128173D01*
X171819109Y-59092234D01*
X171813100Y-59099320D01*
G36*
X160363878Y-53306960D02*
X160354565Y-53625408D01*
X160346703Y-53897322D01*
X160340417Y-54126947D01*
X160335836Y-54318533D01*
X160333087Y-54476326D01*
X160332296Y-54604574D01*
X160333591Y-54707525D01*
X160337099Y-54789426D01*
X160342947Y-54854525D01*
X160351262Y-54907069D01*
X160362171Y-54951307D01*
X160375802Y-54991485D01*
X160392281Y-55031851D01*
X160411737Y-55076653D01*
X160417230Y-55089394D01*
X160439347Y-55146814D01*
X160447254Y-55179690D01*
X160446539Y-55181850D01*
X160411653Y-55203171D01*
X160343960Y-55237711D01*
X160257479Y-55278995D01*
X160166230Y-55320548D01*
X160084233Y-55355895D01*
X160025507Y-55378559D01*
X160012030Y-55382542D01*
X159959231Y-55409697D01*
X159884744Y-55467632D01*
X159799146Y-55547887D01*
X159777925Y-55569740D01*
X159702416Y-55648886D01*
X159637606Y-55716744D01*
X159593392Y-55762952D01*
X159582696Y-55774085D01*
X159545792Y-55809606D01*
X159486621Y-55863941D01*
X159445220Y-55901085D01*
X159391231Y-55957046D01*
X159338852Y-56030395D01*
X159282351Y-56130526D01*
X159215992Y-56266833D01*
X159197570Y-56306830D01*
X159054800Y-56619360D01*
X159054800Y-58085493D01*
X158974681Y-58157496D01*
X158904461Y-58221689D01*
X158836904Y-58285066D01*
X158828631Y-58293000D01*
X158771302Y-58335929D01*
X158680248Y-58390708D01*
X158568904Y-58450311D01*
X158450706Y-58507707D01*
X158339092Y-58555869D01*
X158292800Y-58573291D01*
X158129078Y-58613630D01*
X157989506Y-58610265D01*
X157915780Y-58586894D01*
X157842918Y-58568179D01*
X157728846Y-58556112D01*
X157582652Y-58550218D01*
X157413424Y-58550019D01*
X157230251Y-58555039D01*
X157042219Y-58564802D01*
X156858418Y-58578830D01*
X156687935Y-58596648D01*
X156539858Y-58617779D01*
X156423275Y-58641745D01*
X156347274Y-58668071D01*
X156345020Y-58669267D01*
X156277826Y-58693505D01*
X156234179Y-58699400D01*
X156175878Y-58710768D01*
X156102075Y-58738864D01*
X156086459Y-58746451D01*
X155950020Y-58809032D01*
X155827206Y-58846648D01*
X155692113Y-58866240D01*
X155621787Y-58870955D01*
X155497939Y-58872874D01*
X155410421Y-58862643D01*
X155349999Y-58840960D01*
X155281116Y-58812989D01*
X155222264Y-58801007D01*
X155221276Y-58801000D01*
X155165918Y-58788097D01*
X155097099Y-58756427D01*
X155086664Y-58750294D01*
X154993276Y-58712884D01*
X154868369Y-58698847D01*
X154851100Y-58698594D01*
X154756758Y-58692025D01*
X154674252Y-58676142D01*
X154635200Y-58661300D01*
X154574242Y-58640775D01*
X154486203Y-58627204D01*
X154425650Y-58624100D01*
X154279600Y-58623200D01*
X154279600Y-58874416D01*
X154400250Y-58882158D01*
X154481746Y-58893693D01*
X154514257Y-58914545D01*
X154514550Y-58921650D01*
X154526104Y-58938134D01*
X154572857Y-58948223D01*
X154660954Y-58952846D01*
X154724100Y-58953400D01*
X154829077Y-58954345D01*
X154893200Y-58958739D01*
X154926400Y-58968919D01*
X154938612Y-58987223D01*
X154940000Y-59004200D01*
X154946064Y-59033557D01*
X154972281Y-59048850D01*
X155030690Y-59054458D01*
X155079700Y-59055000D01*
X155163948Y-59058420D01*
X155207322Y-59070422D01*
X155219400Y-59093100D01*
X155226781Y-59109011D01*
X155253945Y-59119901D01*
X155308427Y-59126644D01*
X155397761Y-59130115D01*
X155529482Y-59131190D01*
X155547523Y-59131200D01*
X155674691Y-59132394D01*
X155785754Y-59135655D01*
X155869581Y-59140502D01*
X155915043Y-59146453D01*
X155917338Y-59147198D01*
X155955968Y-59143663D01*
X155972842Y-59110383D01*
X155992358Y-59075965D01*
X156036834Y-59057628D01*
X156104677Y-59049934D01*
X156183418Y-59039157D01*
X156218935Y-59018293D01*
X156222700Y-59004200D01*
X156238160Y-58979373D01*
X156289983Y-58964559D01*
X156356050Y-58958422D01*
X156441072Y-58948761D01*
X156482538Y-58930808D01*
X156489400Y-58913972D01*
X156492593Y-58897823D01*
X156507606Y-58886730D01*
X156542591Y-58879638D01*
X156605702Y-58875496D01*
X156705090Y-58873250D01*
X156813250Y-58872134D01*
X156889212Y-58864764D01*
X156920057Y-58843410D01*
X156921200Y-58836117D01*
X156929904Y-58822934D01*
X156960205Y-58813371D01*
X157018392Y-58806914D01*
X157110755Y-58803054D01*
X157243580Y-58801278D01*
X157353000Y-58801000D01*
X157513001Y-58801579D01*
X157628886Y-58803712D01*
X157707333Y-58807985D01*
X157755016Y-58814989D01*
X157778612Y-58825313D01*
X157784800Y-58839100D01*
X157800103Y-58864485D01*
X157851893Y-58875840D01*
X157896383Y-58877200D01*
X157981174Y-58885683D01*
X158020981Y-58911739D01*
X158022586Y-58915300D01*
X158056531Y-58949089D01*
X158076103Y-58953400D01*
X158110288Y-58933422D01*
X158115000Y-58915300D01*
X158130303Y-58889914D01*
X158182093Y-58878559D01*
X158226583Y-58877200D01*
X158311374Y-58868716D01*
X158351181Y-58842660D01*
X158352786Y-58839100D01*
X158386949Y-58811797D01*
X158464582Y-58801223D01*
X158482503Y-58801000D01*
X158558129Y-58796080D01*
X158592752Y-58779331D01*
X158597600Y-58762900D01*
X158616878Y-58734720D01*
X158678404Y-58724868D01*
X158686500Y-58724800D01*
X158747772Y-58719117D01*
X158772495Y-58696933D01*
X158775400Y-58674000D01*
X158783997Y-58640662D01*
X158818676Y-58626000D01*
X158876203Y-58623200D01*
X158940989Y-58619072D01*
X158964832Y-58603941D01*
X158962468Y-58585314D01*
X158969299Y-58545289D01*
X158988665Y-58531796D01*
X159024037Y-58500336D01*
X159029400Y-58480782D01*
X159049564Y-58448861D01*
X159064783Y-58445400D01*
X159103995Y-58424911D01*
X159114786Y-58407300D01*
X159148731Y-58373510D01*
X159168303Y-58369200D01*
X159202488Y-58349222D01*
X159207200Y-58331100D01*
X159228376Y-58300071D01*
X159258000Y-58293000D01*
X159272025Y-58291584D01*
X159283198Y-58283883D01*
X159291844Y-58264715D01*
X159298286Y-58228899D01*
X159302848Y-58171255D01*
X159305855Y-58086601D01*
X159307629Y-57969755D01*
X159308495Y-57815538D01*
X159308777Y-57618767D01*
X159308800Y-57480200D01*
X159309053Y-57252983D01*
X159309964Y-57071604D01*
X159311767Y-56931105D01*
X159314695Y-56826525D01*
X159318979Y-56752905D01*
X159324852Y-56705285D01*
X159332548Y-56678706D01*
X159342297Y-56668207D01*
X159346900Y-56667400D01*
X159375080Y-56648122D01*
X159384932Y-56586596D01*
X159385000Y-56578500D01*
X159393262Y-56512748D01*
X159419631Y-56489760D01*
X159423100Y-56489600D01*
X159453348Y-56466881D01*
X159461200Y-56413400D01*
X159472560Y-56352904D01*
X159499300Y-56337200D01*
X159527480Y-56317922D01*
X159537332Y-56256396D01*
X159537400Y-56248300D01*
X159543083Y-56187028D01*
X159565267Y-56162305D01*
X159588200Y-56159400D01*
X159630652Y-56141439D01*
X159639000Y-56108600D01*
X159656961Y-56066148D01*
X159689800Y-56057800D01*
X159731075Y-56047163D01*
X159740600Y-56032400D01*
X159761173Y-56009865D01*
X159778700Y-56007000D01*
X159809729Y-55985824D01*
X159816800Y-55956200D01*
X159832323Y-55915022D01*
X159854103Y-55905400D01*
X159879728Y-55888570D01*
X159876786Y-55867300D01*
X159880674Y-55836504D01*
X159915683Y-55829200D01*
X159959927Y-55812621D01*
X159969200Y-55778400D01*
X159987161Y-55735948D01*
X160020000Y-55727600D01*
X160062378Y-55709714D01*
X160070800Y-55676303D01*
X160080738Y-55639767D01*
X160119814Y-55634294D01*
X160135649Y-55636765D01*
X160194317Y-55633241D01*
X160214567Y-55611862D01*
X160249173Y-55584954D01*
X160311856Y-55575200D01*
X160376233Y-55565607D01*
X160405993Y-55532160D01*
X160408360Y-55524400D01*
X160435706Y-55485554D01*
X160497266Y-55473612D01*
X160500223Y-55473600D01*
X160561748Y-55462933D01*
X160578800Y-55435500D01*
X160601519Y-55405252D01*
X160655000Y-55397400D01*
X160731200Y-55397400D01*
X160731200Y-55191822D01*
X160729951Y-55088887D01*
X160724525Y-55025882D01*
X160712406Y-54991965D01*
X160691077Y-54976291D01*
X160680400Y-54972959D01*
X160643224Y-54948288D01*
X160629997Y-54892032D01*
X160629600Y-54873737D01*
X160623017Y-54816164D01*
X160606898Y-54788284D01*
X160604200Y-54787800D01*
X160594495Y-54762986D01*
X160586953Y-54690815D01*
X160581762Y-54574690D01*
X160579114Y-54418015D01*
X160578800Y-54330600D01*
X160579656Y-54158798D01*
X160582463Y-54032538D01*
X160587586Y-53946589D01*
X160595388Y-53895718D01*
X160606233Y-53874693D01*
X160610550Y-53873412D01*
X160621710Y-53861946D01*
X160629796Y-53824116D01*
X160635075Y-53754787D01*
X160637815Y-53648827D01*
X160638283Y-53501100D01*
X160637296Y-53359062D01*
X160632291Y-52844700D01*
X160505040Y-52837060D01*
X160377788Y-52829422D01*
X160363878Y-53306960D01*
X160363878Y-53306960D01*
G37*
X160363878Y-53306960D02*
X160354565Y-53625408D01*
X160346703Y-53897322D01*
X160340417Y-54126947D01*
X160335836Y-54318533D01*
X160333087Y-54476326D01*
X160332296Y-54604574D01*
X160333591Y-54707525D01*
X160337099Y-54789426D01*
X160342947Y-54854525D01*
X160351262Y-54907069D01*
X160362171Y-54951307D01*
X160375802Y-54991485D01*
X160392281Y-55031851D01*
X160411737Y-55076653D01*
X160417230Y-55089394D01*
X160439347Y-55146814D01*
X160447254Y-55179690D01*
X160446539Y-55181850D01*
X160411653Y-55203171D01*
X160343960Y-55237711D01*
X160257479Y-55278995D01*
X160166230Y-55320548D01*
X160084233Y-55355895D01*
X160025507Y-55378559D01*
X160012030Y-55382542D01*
X159959231Y-55409697D01*
X159884744Y-55467632D01*
X159799146Y-55547887D01*
X159777925Y-55569740D01*
X159702416Y-55648886D01*
X159637606Y-55716744D01*
X159593392Y-55762952D01*
X159582696Y-55774085D01*
X159545792Y-55809606D01*
X159486621Y-55863941D01*
X159445220Y-55901085D01*
X159391231Y-55957046D01*
X159338852Y-56030395D01*
X159282351Y-56130526D01*
X159215992Y-56266833D01*
X159197570Y-56306830D01*
X159054800Y-56619360D01*
X159054800Y-58085493D01*
X158974681Y-58157496D01*
X158904461Y-58221689D01*
X158836904Y-58285066D01*
X158828631Y-58293000D01*
X158771302Y-58335929D01*
X158680248Y-58390708D01*
X158568904Y-58450311D01*
X158450706Y-58507707D01*
X158339092Y-58555869D01*
X158292800Y-58573291D01*
X158129078Y-58613630D01*
X157989506Y-58610265D01*
X157915780Y-58586894D01*
X157842918Y-58568179D01*
X157728846Y-58556112D01*
X157582652Y-58550218D01*
X157413424Y-58550019D01*
X157230251Y-58555039D01*
X157042219Y-58564802D01*
X156858418Y-58578830D01*
X156687935Y-58596648D01*
X156539858Y-58617779D01*
X156423275Y-58641745D01*
X156347274Y-58668071D01*
X156345020Y-58669267D01*
X156277826Y-58693505D01*
X156234179Y-58699400D01*
X156175878Y-58710768D01*
X156102075Y-58738864D01*
X156086459Y-58746451D01*
X155950020Y-58809032D01*
X155827206Y-58846648D01*
X155692113Y-58866240D01*
X155621787Y-58870955D01*
X155497939Y-58872874D01*
X155410421Y-58862643D01*
X155349999Y-58840960D01*
X155281116Y-58812989D01*
X155222264Y-58801007D01*
X155221276Y-58801000D01*
X155165918Y-58788097D01*
X155097099Y-58756427D01*
X155086664Y-58750294D01*
X154993276Y-58712884D01*
X154868369Y-58698847D01*
X154851100Y-58698594D01*
X154756758Y-58692025D01*
X154674252Y-58676142D01*
X154635200Y-58661300D01*
X154574242Y-58640775D01*
X154486203Y-58627204D01*
X154425650Y-58624100D01*
X154279600Y-58623200D01*
X154279600Y-58874416D01*
X154400250Y-58882158D01*
X154481746Y-58893693D01*
X154514257Y-58914545D01*
X154514550Y-58921650D01*
X154526104Y-58938134D01*
X154572857Y-58948223D01*
X154660954Y-58952846D01*
X154724100Y-58953400D01*
X154829077Y-58954345D01*
X154893200Y-58958739D01*
X154926400Y-58968919D01*
X154938612Y-58987223D01*
X154940000Y-59004200D01*
X154946064Y-59033557D01*
X154972281Y-59048850D01*
X155030690Y-59054458D01*
X155079700Y-59055000D01*
X155163948Y-59058420D01*
X155207322Y-59070422D01*
X155219400Y-59093100D01*
X155226781Y-59109011D01*
X155253945Y-59119901D01*
X155308427Y-59126644D01*
X155397761Y-59130115D01*
X155529482Y-59131190D01*
X155547523Y-59131200D01*
X155674691Y-59132394D01*
X155785754Y-59135655D01*
X155869581Y-59140502D01*
X155915043Y-59146453D01*
X155917338Y-59147198D01*
X155955968Y-59143663D01*
X155972842Y-59110383D01*
X155992358Y-59075965D01*
X156036834Y-59057628D01*
X156104677Y-59049934D01*
X156183418Y-59039157D01*
X156218935Y-59018293D01*
X156222700Y-59004200D01*
X156238160Y-58979373D01*
X156289983Y-58964559D01*
X156356050Y-58958422D01*
X156441072Y-58948761D01*
X156482538Y-58930808D01*
X156489400Y-58913972D01*
X156492593Y-58897823D01*
X156507606Y-58886730D01*
X156542591Y-58879638D01*
X156605702Y-58875496D01*
X156705090Y-58873250D01*
X156813250Y-58872134D01*
X156889212Y-58864764D01*
X156920057Y-58843410D01*
X156921200Y-58836117D01*
X156929904Y-58822934D01*
X156960205Y-58813371D01*
X157018392Y-58806914D01*
X157110755Y-58803054D01*
X157243580Y-58801278D01*
X157353000Y-58801000D01*
X157513001Y-58801579D01*
X157628886Y-58803712D01*
X157707333Y-58807985D01*
X157755016Y-58814989D01*
X157778612Y-58825313D01*
X157784800Y-58839100D01*
X157800103Y-58864485D01*
X157851893Y-58875840D01*
X157896383Y-58877200D01*
X157981174Y-58885683D01*
X158020981Y-58911739D01*
X158022586Y-58915300D01*
X158056531Y-58949089D01*
X158076103Y-58953400D01*
X158110288Y-58933422D01*
X158115000Y-58915300D01*
X158130303Y-58889914D01*
X158182093Y-58878559D01*
X158226583Y-58877200D01*
X158311374Y-58868716D01*
X158351181Y-58842660D01*
X158352786Y-58839100D01*
X158386949Y-58811797D01*
X158464582Y-58801223D01*
X158482503Y-58801000D01*
X158558129Y-58796080D01*
X158592752Y-58779331D01*
X158597600Y-58762900D01*
X158616878Y-58734720D01*
X158678404Y-58724868D01*
X158686500Y-58724800D01*
X158747772Y-58719117D01*
X158772495Y-58696933D01*
X158775400Y-58674000D01*
X158783997Y-58640662D01*
X158818676Y-58626000D01*
X158876203Y-58623200D01*
X158940989Y-58619072D01*
X158964832Y-58603941D01*
X158962468Y-58585314D01*
X158969299Y-58545289D01*
X158988665Y-58531796D01*
X159024037Y-58500336D01*
X159029400Y-58480782D01*
X159049564Y-58448861D01*
X159064783Y-58445400D01*
X159103995Y-58424911D01*
X159114786Y-58407300D01*
X159148731Y-58373510D01*
X159168303Y-58369200D01*
X159202488Y-58349222D01*
X159207200Y-58331100D01*
X159228376Y-58300071D01*
X159258000Y-58293000D01*
X159272025Y-58291584D01*
X159283198Y-58283883D01*
X159291844Y-58264715D01*
X159298286Y-58228899D01*
X159302848Y-58171255D01*
X159305855Y-58086601D01*
X159307629Y-57969755D01*
X159308495Y-57815538D01*
X159308777Y-57618767D01*
X159308800Y-57480200D01*
X159309053Y-57252983D01*
X159309964Y-57071604D01*
X159311767Y-56931105D01*
X159314695Y-56826525D01*
X159318979Y-56752905D01*
X159324852Y-56705285D01*
X159332548Y-56678706D01*
X159342297Y-56668207D01*
X159346900Y-56667400D01*
X159375080Y-56648122D01*
X159384932Y-56586596D01*
X159385000Y-56578500D01*
X159393262Y-56512748D01*
X159419631Y-56489760D01*
X159423100Y-56489600D01*
X159453348Y-56466881D01*
X159461200Y-56413400D01*
X159472560Y-56352904D01*
X159499300Y-56337200D01*
X159527480Y-56317922D01*
X159537332Y-56256396D01*
X159537400Y-56248300D01*
X159543083Y-56187028D01*
X159565267Y-56162305D01*
X159588200Y-56159400D01*
X159630652Y-56141439D01*
X159639000Y-56108600D01*
X159656961Y-56066148D01*
X159689800Y-56057800D01*
X159731075Y-56047163D01*
X159740600Y-56032400D01*
X159761173Y-56009865D01*
X159778700Y-56007000D01*
X159809729Y-55985824D01*
X159816800Y-55956200D01*
X159832323Y-55915022D01*
X159854103Y-55905400D01*
X159879728Y-55888570D01*
X159876786Y-55867300D01*
X159880674Y-55836504D01*
X159915683Y-55829200D01*
X159959927Y-55812621D01*
X159969200Y-55778400D01*
X159987161Y-55735948D01*
X160020000Y-55727600D01*
X160062378Y-55709714D01*
X160070800Y-55676303D01*
X160080738Y-55639767D01*
X160119814Y-55634294D01*
X160135649Y-55636765D01*
X160194317Y-55633241D01*
X160214567Y-55611862D01*
X160249173Y-55584954D01*
X160311856Y-55575200D01*
X160376233Y-55565607D01*
X160405993Y-55532160D01*
X160408360Y-55524400D01*
X160435706Y-55485554D01*
X160497266Y-55473612D01*
X160500223Y-55473600D01*
X160561748Y-55462933D01*
X160578800Y-55435500D01*
X160601519Y-55405252D01*
X160655000Y-55397400D01*
X160731200Y-55397400D01*
X160731200Y-55191822D01*
X160729951Y-55088887D01*
X160724525Y-55025882D01*
X160712406Y-54991965D01*
X160691077Y-54976291D01*
X160680400Y-54972959D01*
X160643224Y-54948288D01*
X160629997Y-54892032D01*
X160629600Y-54873737D01*
X160623017Y-54816164D01*
X160606898Y-54788284D01*
X160604200Y-54787800D01*
X160594495Y-54762986D01*
X160586953Y-54690815D01*
X160581762Y-54574690D01*
X160579114Y-54418015D01*
X160578800Y-54330600D01*
X160579656Y-54158798D01*
X160582463Y-54032538D01*
X160587586Y-53946589D01*
X160595388Y-53895718D01*
X160606233Y-53874693D01*
X160610550Y-53873412D01*
X160621710Y-53861946D01*
X160629796Y-53824116D01*
X160635075Y-53754787D01*
X160637815Y-53648827D01*
X160638283Y-53501100D01*
X160637296Y-53359062D01*
X160632291Y-52844700D01*
X160505040Y-52837060D01*
X160377788Y-52829422D01*
X160363878Y-53306960D01*
G36*
X166192200Y-53047900D02*
X166193146Y-53152876D01*
X166197540Y-53216999D01*
X166207720Y-53250199D01*
X166226024Y-53262411D01*
X166243000Y-53263800D01*
X166272358Y-53269863D01*
X166287651Y-53296080D01*
X166293259Y-53354489D01*
X166293800Y-53403500D01*
X166297976Y-53480004D01*
X166308747Y-53530746D01*
X166319200Y-53543200D01*
X166328289Y-53568139D01*
X166335495Y-53641174D01*
X166340694Y-53759633D01*
X166343762Y-53920842D01*
X166344600Y-54089300D01*
X166343441Y-54284710D01*
X166340044Y-54439641D01*
X166334534Y-54551418D01*
X166327036Y-54617369D01*
X166319200Y-54635400D01*
X166307434Y-54659562D01*
X166298917Y-54727228D01*
X166294366Y-54831163D01*
X166293800Y-54891777D01*
X166292992Y-55008693D01*
X166289355Y-55084464D01*
X166281073Y-55128736D01*
X166266328Y-55151153D01*
X166243304Y-55161360D01*
X166243001Y-55161440D01*
X166218609Y-55172429D01*
X166203536Y-55196701D01*
X166195585Y-55244579D01*
X166192562Y-55326385D01*
X166192200Y-55400362D01*
X166192200Y-55626000D01*
X166268400Y-55626000D01*
X166324177Y-55633983D01*
X166343814Y-55663686D01*
X166344600Y-55676800D01*
X166354954Y-55712279D01*
X166394982Y-55726220D01*
X166430538Y-55727600D01*
X166495740Y-55736436D01*
X166526278Y-55767646D01*
X166529760Y-55778400D01*
X166552833Y-55814505D01*
X166605666Y-55828335D01*
X166634323Y-55829200D01*
X166701010Y-55837024D01*
X166725245Y-55862206D01*
X166725600Y-55867300D01*
X166739316Y-55901101D01*
X166751000Y-55905400D01*
X166772637Y-55926374D01*
X166776599Y-55949850D01*
X166799413Y-55992737D01*
X166856639Y-56030421D01*
X166932021Y-56054028D01*
X166974342Y-56057800D01*
X167030391Y-56076852D01*
X167048441Y-56108600D01*
X167071349Y-56149834D01*
X167090753Y-56159400D01*
X167126552Y-56178644D01*
X167147843Y-56204334D01*
X167176726Y-56231183D01*
X167228491Y-56243589D01*
X167316633Y-56244728D01*
X167319053Y-56244651D01*
X167400993Y-56244068D01*
X167444171Y-56251535D01*
X167460433Y-56270692D01*
X167462200Y-56288617D01*
X167466212Y-56310765D01*
X167484343Y-56324948D01*
X167525740Y-56332915D01*
X167599552Y-56336415D01*
X167714924Y-56337199D01*
X167716200Y-56337200D01*
X167831805Y-56337897D01*
X167905811Y-56341214D01*
X167947412Y-56348991D01*
X167965804Y-56363066D01*
X167970180Y-56385279D01*
X167970200Y-56388000D01*
X167974997Y-56414696D01*
X167996629Y-56429991D01*
X168045959Y-56436986D01*
X168133848Y-56438785D01*
X168148000Y-56438800D01*
X168239208Y-56442156D01*
X168302231Y-56451151D01*
X168325800Y-56464175D01*
X168325800Y-56464200D01*
X168349128Y-56477473D01*
X168410922Y-56486560D01*
X168490900Y-56489600D01*
X168580250Y-56491183D01*
X168630064Y-56498235D01*
X168651569Y-56514211D01*
X168656000Y-56540400D01*
X168660818Y-56567144D01*
X168682525Y-56582441D01*
X168732007Y-56589415D01*
X168820147Y-56591188D01*
X168833003Y-56591200D01*
X168926466Y-56592929D01*
X168978207Y-56599527D01*
X168997232Y-56613106D01*
X168995386Y-56629300D01*
X168995675Y-56649874D01*
X169022372Y-56661573D01*
X169084571Y-56666625D01*
X169150961Y-56667400D01*
X169243345Y-56669237D01*
X169296955Y-56676957D01*
X169323749Y-56693872D01*
X169334441Y-56718200D01*
X169353307Y-56751118D01*
X169396522Y-56766062D01*
X169459063Y-56769000D01*
X169526198Y-56773859D01*
X169565843Y-56786120D01*
X169570400Y-56792866D01*
X169592866Y-56810078D01*
X169648562Y-56822814D01*
X169665650Y-56824616D01*
X169729404Y-56835352D01*
X169753364Y-56857398D01*
X169753437Y-56876950D01*
X169757881Y-56905914D01*
X169791916Y-56918899D01*
X169848687Y-56921400D01*
X169919751Y-56927555D01*
X169949346Y-56948013D01*
X169951400Y-56959500D01*
X169973606Y-56990064D01*
X170017278Y-56997600D01*
X170076248Y-57014587D01*
X170096441Y-57048400D01*
X170121112Y-57085576D01*
X170177368Y-57098803D01*
X170195663Y-57099200D01*
X170256884Y-57106115D01*
X170280236Y-57130912D01*
X170281600Y-57144460D01*
X170301703Y-57182249D01*
X170351450Y-57195479D01*
X170405460Y-57207833D01*
X170429767Y-57226418D01*
X170458215Y-57243369D01*
X170516553Y-57251481D01*
X170525017Y-57251600D01*
X170585396Y-57257590D01*
X170609308Y-57280815D01*
X170611800Y-57302400D01*
X170621745Y-57337412D01*
X170660567Y-57351539D01*
X170700700Y-57353200D01*
X170766452Y-57361461D01*
X170789440Y-57387830D01*
X170789600Y-57391300D01*
X170803196Y-57415259D01*
X170850269Y-57426961D01*
X170916600Y-57429400D01*
X170992776Y-57432074D01*
X171030767Y-57443426D01*
X171043057Y-57468450D01*
X171043600Y-57480200D01*
X171055575Y-57517384D01*
X171100130Y-57530475D01*
X171119800Y-57531000D01*
X171176730Y-57539858D01*
X171195765Y-57570608D01*
X171196000Y-57576699D01*
X171205382Y-57606819D01*
X171242369Y-57615304D01*
X171284900Y-57612020D01*
X171346617Y-57610220D01*
X171371487Y-57627144D01*
X171373800Y-57642521D01*
X171394990Y-57676534D01*
X171424600Y-57683400D01*
X171466598Y-57700865D01*
X171475400Y-57736917D01*
X171486582Y-57775884D01*
X171513500Y-57775814D01*
X171545220Y-57780084D01*
X171551600Y-57808479D01*
X171569557Y-57855457D01*
X171589700Y-57870385D01*
X171623490Y-57904330D01*
X171627800Y-57923902D01*
X171647778Y-57958087D01*
X171665900Y-57962800D01*
X171696465Y-57985005D01*
X171704000Y-58028677D01*
X171721296Y-58088070D01*
X171753612Y-58107529D01*
X171783520Y-58124892D01*
X171801027Y-58165557D01*
X171810792Y-58241935D01*
X171812309Y-58263901D01*
X171815829Y-58292687D01*
X171819395Y-58275360D01*
X171822674Y-58216606D01*
X171825330Y-58121110D01*
X171826198Y-58069856D01*
X171827140Y-57924767D01*
X171824567Y-57820885D01*
X171817589Y-57748682D01*
X171805319Y-57698632D01*
X171788279Y-57663456D01*
X171695646Y-57549010D01*
X171571427Y-57444092D01*
X171435544Y-57365111D01*
X171340005Y-57317715D01*
X171245527Y-57264124D01*
X171209750Y-57241251D01*
X171136308Y-57200677D01*
X171067891Y-57177494D01*
X171048847Y-57175400D01*
X170995009Y-57163255D01*
X170915126Y-57131409D01*
X170826446Y-57086741D01*
X170826014Y-57086500D01*
X170740341Y-57042145D01*
X170666670Y-57010285D01*
X170620537Y-56997613D01*
X170619675Y-56997600D01*
X170564901Y-56983213D01*
X170510640Y-56953150D01*
X170427419Y-56899749D01*
X170312204Y-56834600D01*
X170177249Y-56763736D01*
X170034808Y-56693195D01*
X169897135Y-56629010D01*
X169776482Y-56577219D01*
X169685104Y-56543855D01*
X169672000Y-56540081D01*
X169577019Y-56509106D01*
X169484280Y-56470709D01*
X169465342Y-56461363D01*
X169382062Y-56429210D01*
X169298312Y-56412943D01*
X169287542Y-56412499D01*
X169206557Y-56400699D01*
X169138600Y-56375300D01*
X169069317Y-56350302D01*
X168986041Y-56338258D01*
X168978957Y-56338100D01*
X168894743Y-56325415D01*
X168819814Y-56295790D01*
X168815215Y-56292908D01*
X168754176Y-56266470D01*
X168663903Y-56242543D01*
X168581159Y-56228690D01*
X168430916Y-56210240D01*
X168321894Y-56195248D01*
X168244801Y-56181784D01*
X168190345Y-56167916D01*
X168149234Y-56151713D01*
X168112176Y-56131244D01*
X168112118Y-56131208D01*
X168035924Y-56099698D01*
X167931975Y-56085102D01*
X167862864Y-56083294D01*
X167743624Y-56077081D01*
X167657148Y-56056358D01*
X167608864Y-56032494D01*
X167520148Y-55996428D01*
X167422357Y-55981697D01*
X167421518Y-55981694D01*
X167336297Y-55970832D01*
X167266147Y-55930774D01*
X167236820Y-55904655D01*
X167168018Y-55852098D01*
X167096983Y-55817006D01*
X167080777Y-55812605D01*
X167003082Y-55773136D01*
X166955935Y-55718099D01*
X166889430Y-55648476D01*
X166776628Y-55576746D01*
X166733560Y-55554878D01*
X166639863Y-55507320D01*
X166557011Y-55461473D01*
X166502155Y-55426851D01*
X166500222Y-55425409D01*
X166461050Y-55392258D01*
X166455048Y-55363998D01*
X166479889Y-55318985D01*
X166487522Y-55307333D01*
X166511842Y-55253498D01*
X166531978Y-55170407D01*
X166548184Y-55054678D01*
X166560716Y-54902924D01*
X166569829Y-54711760D01*
X166575777Y-54477804D01*
X166578815Y-54197668D01*
X166579235Y-54089300D01*
X166578654Y-53841736D01*
X166575292Y-53639522D01*
X166568657Y-53477258D01*
X166558261Y-53349546D01*
X166543613Y-53250987D01*
X166524223Y-53176181D01*
X166499601Y-53119729D01*
X166489734Y-53103428D01*
X166460853Y-53033384D01*
X166446538Y-52947764D01*
X166446200Y-52934493D01*
X166446200Y-52832000D01*
X166192200Y-52832000D01*
X166192200Y-53047900D01*
X166192200Y-53047900D01*
G37*
X166192200Y-53047900D02*
X166193146Y-53152876D01*
X166197540Y-53216999D01*
X166207720Y-53250199D01*
X166226024Y-53262411D01*
X166243000Y-53263800D01*
X166272358Y-53269863D01*
X166287651Y-53296080D01*
X166293259Y-53354489D01*
X166293800Y-53403500D01*
X166297976Y-53480004D01*
X166308747Y-53530746D01*
X166319200Y-53543200D01*
X166328289Y-53568139D01*
X166335495Y-53641174D01*
X166340694Y-53759633D01*
X166343762Y-53920842D01*
X166344600Y-54089300D01*
X166343441Y-54284710D01*
X166340044Y-54439641D01*
X166334534Y-54551418D01*
X166327036Y-54617369D01*
X166319200Y-54635400D01*
X166307434Y-54659562D01*
X166298917Y-54727228D01*
X166294366Y-54831163D01*
X166293800Y-54891777D01*
X166292992Y-55008693D01*
X166289355Y-55084464D01*
X166281073Y-55128736D01*
X166266328Y-55151153D01*
X166243304Y-55161360D01*
X166243001Y-55161440D01*
X166218609Y-55172429D01*
X166203536Y-55196701D01*
X166195585Y-55244579D01*
X166192562Y-55326385D01*
X166192200Y-55400362D01*
X166192200Y-55626000D01*
X166268400Y-55626000D01*
X166324177Y-55633983D01*
X166343814Y-55663686D01*
X166344600Y-55676800D01*
X166354954Y-55712279D01*
X166394982Y-55726220D01*
X166430538Y-55727600D01*
X166495740Y-55736436D01*
X166526278Y-55767646D01*
X166529760Y-55778400D01*
X166552833Y-55814505D01*
X166605666Y-55828335D01*
X166634323Y-55829200D01*
X166701010Y-55837024D01*
X166725245Y-55862206D01*
X166725600Y-55867300D01*
X166739316Y-55901101D01*
X166751000Y-55905400D01*
X166772637Y-55926374D01*
X166776599Y-55949850D01*
X166799413Y-55992737D01*
X166856639Y-56030421D01*
X166932021Y-56054028D01*
X166974342Y-56057800D01*
X167030391Y-56076852D01*
X167048441Y-56108600D01*
X167071349Y-56149834D01*
X167090753Y-56159400D01*
X167126552Y-56178644D01*
X167147843Y-56204334D01*
X167176726Y-56231183D01*
X167228491Y-56243589D01*
X167316633Y-56244728D01*
X167319053Y-56244651D01*
X167400993Y-56244068D01*
X167444171Y-56251535D01*
X167460433Y-56270692D01*
X167462200Y-56288617D01*
X167466212Y-56310765D01*
X167484343Y-56324948D01*
X167525740Y-56332915D01*
X167599552Y-56336415D01*
X167714924Y-56337199D01*
X167716200Y-56337200D01*
X167831805Y-56337897D01*
X167905811Y-56341214D01*
X167947412Y-56348991D01*
X167965804Y-56363066D01*
X167970180Y-56385279D01*
X167970200Y-56388000D01*
X167974997Y-56414696D01*
X167996629Y-56429991D01*
X168045959Y-56436986D01*
X168133848Y-56438785D01*
X168148000Y-56438800D01*
X168239208Y-56442156D01*
X168302231Y-56451151D01*
X168325800Y-56464175D01*
X168325800Y-56464200D01*
X168349128Y-56477473D01*
X168410922Y-56486560D01*
X168490900Y-56489600D01*
X168580250Y-56491183D01*
X168630064Y-56498235D01*
X168651569Y-56514211D01*
X168656000Y-56540400D01*
X168660818Y-56567144D01*
X168682525Y-56582441D01*
X168732007Y-56589415D01*
X168820147Y-56591188D01*
X168833003Y-56591200D01*
X168926466Y-56592929D01*
X168978207Y-56599527D01*
X168997232Y-56613106D01*
X168995386Y-56629300D01*
X168995675Y-56649874D01*
X169022372Y-56661573D01*
X169084571Y-56666625D01*
X169150961Y-56667400D01*
X169243345Y-56669237D01*
X169296955Y-56676957D01*
X169323749Y-56693872D01*
X169334441Y-56718200D01*
X169353307Y-56751118D01*
X169396522Y-56766062D01*
X169459063Y-56769000D01*
X169526198Y-56773859D01*
X169565843Y-56786120D01*
X169570400Y-56792866D01*
X169592866Y-56810078D01*
X169648562Y-56822814D01*
X169665650Y-56824616D01*
X169729404Y-56835352D01*
X169753364Y-56857398D01*
X169753437Y-56876950D01*
X169757881Y-56905914D01*
X169791916Y-56918899D01*
X169848687Y-56921400D01*
X169919751Y-56927555D01*
X169949346Y-56948013D01*
X169951400Y-56959500D01*
X169973606Y-56990064D01*
X170017278Y-56997600D01*
X170076248Y-57014587D01*
X170096441Y-57048400D01*
X170121112Y-57085576D01*
X170177368Y-57098803D01*
X170195663Y-57099200D01*
X170256884Y-57106115D01*
X170280236Y-57130912D01*
X170281600Y-57144460D01*
X170301703Y-57182249D01*
X170351450Y-57195479D01*
X170405460Y-57207833D01*
X170429767Y-57226418D01*
X170458215Y-57243369D01*
X170516553Y-57251481D01*
X170525017Y-57251600D01*
X170585396Y-57257590D01*
X170609308Y-57280815D01*
X170611800Y-57302400D01*
X170621745Y-57337412D01*
X170660567Y-57351539D01*
X170700700Y-57353200D01*
X170766452Y-57361461D01*
X170789440Y-57387830D01*
X170789600Y-57391300D01*
X170803196Y-57415259D01*
X170850269Y-57426961D01*
X170916600Y-57429400D01*
X170992776Y-57432074D01*
X171030767Y-57443426D01*
X171043057Y-57468450D01*
X171043600Y-57480200D01*
X171055575Y-57517384D01*
X171100130Y-57530475D01*
X171119800Y-57531000D01*
X171176730Y-57539858D01*
X171195765Y-57570608D01*
X171196000Y-57576699D01*
X171205382Y-57606819D01*
X171242369Y-57615304D01*
X171284900Y-57612020D01*
X171346617Y-57610220D01*
X171371487Y-57627144D01*
X171373800Y-57642521D01*
X171394990Y-57676534D01*
X171424600Y-57683400D01*
X171466598Y-57700865D01*
X171475400Y-57736917D01*
X171486582Y-57775884D01*
X171513500Y-57775814D01*
X171545220Y-57780084D01*
X171551600Y-57808479D01*
X171569557Y-57855457D01*
X171589700Y-57870385D01*
X171623490Y-57904330D01*
X171627800Y-57923902D01*
X171647778Y-57958087D01*
X171665900Y-57962800D01*
X171696465Y-57985005D01*
X171704000Y-58028677D01*
X171721296Y-58088070D01*
X171753612Y-58107529D01*
X171783520Y-58124892D01*
X171801027Y-58165557D01*
X171810792Y-58241935D01*
X171812309Y-58263901D01*
X171815829Y-58292687D01*
X171819395Y-58275360D01*
X171822674Y-58216606D01*
X171825330Y-58121110D01*
X171826198Y-58069856D01*
X171827140Y-57924767D01*
X171824567Y-57820885D01*
X171817589Y-57748682D01*
X171805319Y-57698632D01*
X171788279Y-57663456D01*
X171695646Y-57549010D01*
X171571427Y-57444092D01*
X171435544Y-57365111D01*
X171340005Y-57317715D01*
X171245527Y-57264124D01*
X171209750Y-57241251D01*
X171136308Y-57200677D01*
X171067891Y-57177494D01*
X171048847Y-57175400D01*
X170995009Y-57163255D01*
X170915126Y-57131409D01*
X170826446Y-57086741D01*
X170826014Y-57086500D01*
X170740341Y-57042145D01*
X170666670Y-57010285D01*
X170620537Y-56997613D01*
X170619675Y-56997600D01*
X170564901Y-56983213D01*
X170510640Y-56953150D01*
X170427419Y-56899749D01*
X170312204Y-56834600D01*
X170177249Y-56763736D01*
X170034808Y-56693195D01*
X169897135Y-56629010D01*
X169776482Y-56577219D01*
X169685104Y-56543855D01*
X169672000Y-56540081D01*
X169577019Y-56509106D01*
X169484280Y-56470709D01*
X169465342Y-56461363D01*
X169382062Y-56429210D01*
X169298312Y-56412943D01*
X169287542Y-56412499D01*
X169206557Y-56400699D01*
X169138600Y-56375300D01*
X169069317Y-56350302D01*
X168986041Y-56338258D01*
X168978957Y-56338100D01*
X168894743Y-56325415D01*
X168819814Y-56295790D01*
X168815215Y-56292908D01*
X168754176Y-56266470D01*
X168663903Y-56242543D01*
X168581159Y-56228690D01*
X168430916Y-56210240D01*
X168321894Y-56195248D01*
X168244801Y-56181784D01*
X168190345Y-56167916D01*
X168149234Y-56151713D01*
X168112176Y-56131244D01*
X168112118Y-56131208D01*
X168035924Y-56099698D01*
X167931975Y-56085102D01*
X167862864Y-56083294D01*
X167743624Y-56077081D01*
X167657148Y-56056358D01*
X167608864Y-56032494D01*
X167520148Y-55996428D01*
X167422357Y-55981697D01*
X167421518Y-55981694D01*
X167336297Y-55970832D01*
X167266147Y-55930774D01*
X167236820Y-55904655D01*
X167168018Y-55852098D01*
X167096983Y-55817006D01*
X167080777Y-55812605D01*
X167003082Y-55773136D01*
X166955935Y-55718099D01*
X166889430Y-55648476D01*
X166776628Y-55576746D01*
X166733560Y-55554878D01*
X166639863Y-55507320D01*
X166557011Y-55461473D01*
X166502155Y-55426851D01*
X166500222Y-55425409D01*
X166461050Y-55392258D01*
X166455048Y-55363998D01*
X166479889Y-55318985D01*
X166487522Y-55307333D01*
X166511842Y-55253498D01*
X166531978Y-55170407D01*
X166548184Y-55054678D01*
X166560716Y-54902924D01*
X166569829Y-54711760D01*
X166575777Y-54477804D01*
X166578815Y-54197668D01*
X166579235Y-54089300D01*
X166578654Y-53841736D01*
X166575292Y-53639522D01*
X166568657Y-53477258D01*
X166558261Y-53349546D01*
X166543613Y-53250987D01*
X166524223Y-53176181D01*
X166499601Y-53119729D01*
X166489734Y-53103428D01*
X166460853Y-53033384D01*
X166446538Y-52947764D01*
X166446200Y-52934493D01*
X166446200Y-52832000D01*
X166192200Y-52832000D01*
X166192200Y-53047900D01*
G04 #@! TO.C,R5*
D13*
X148635980Y-33640733D02*
X148159790Y-33307400D01*
X148635980Y-33069304D02*
X147635980Y-33069304D01*
X147635980Y-33450257D01*
X147683600Y-33545495D01*
X147731219Y-33593114D01*
X147826457Y-33640733D01*
X147969314Y-33640733D01*
X148064552Y-33593114D01*
X148112171Y-33545495D01*
X148159790Y-33450257D01*
X148159790Y-33069304D01*
X147635980Y-34545495D02*
X147635980Y-34069304D01*
X148112171Y-34021685D01*
X148064552Y-34069304D01*
X148016933Y-34164542D01*
X148016933Y-34402638D01*
X148064552Y-34497876D01*
X148112171Y-34545495D01*
X148207409Y-34593114D01*
X148445504Y-34593114D01*
X148540742Y-34545495D01*
X148588361Y-34497876D01*
X148635980Y-34402638D01*
X148635980Y-34164542D01*
X148588361Y-34069304D01*
X148540742Y-34021685D01*
G04 #@! TO.C,J1*
D14*
X138792313Y-70740657D02*
X138792313Y-71455521D01*
X138839970Y-71598494D01*
X138935286Y-71693809D01*
X139078259Y-71741467D01*
X139173574Y-71741467D01*
X137791503Y-71741467D02*
X138363394Y-71741467D01*
X138077449Y-71741467D02*
X138077449Y-70740657D01*
X138172764Y-70883630D01*
X138268079Y-70978945D01*
X138363394Y-71026603D01*
G04 #@! TO.C,C2*
D13*
X152791602Y-47150926D02*
X152858945Y-47150926D01*
X152993632Y-47083582D01*
X153060976Y-47016239D01*
X153128319Y-46881551D01*
X153128319Y-46746864D01*
X153094648Y-46645849D01*
X152993632Y-46477490D01*
X152892617Y-46376475D01*
X152724258Y-46275460D01*
X152623243Y-46241788D01*
X152488556Y-46241788D01*
X152353869Y-46309132D01*
X152286525Y-46376475D01*
X152219182Y-46511162D01*
X152219182Y-46578506D01*
X151949808Y-46847880D02*
X151882464Y-46847880D01*
X151781449Y-46881551D01*
X151613090Y-47049910D01*
X151579419Y-47150926D01*
X151579419Y-47218269D01*
X151613090Y-47319284D01*
X151680434Y-47386628D01*
X151815121Y-47453971D01*
X152623243Y-47453971D01*
X152185510Y-47891704D01*
G04 #@! TO.C,C3*
X153862588Y-48140687D02*
X153929931Y-48140687D01*
X154064618Y-48073343D01*
X154131962Y-48006000D01*
X154199305Y-47871312D01*
X154199305Y-47736625D01*
X154165634Y-47635610D01*
X154064618Y-47467251D01*
X153963603Y-47366236D01*
X153795244Y-47265221D01*
X153694229Y-47231549D01*
X153559542Y-47231549D01*
X153424855Y-47298893D01*
X153357511Y-47366236D01*
X153290168Y-47500923D01*
X153290168Y-47568267D01*
X152987122Y-47736625D02*
X152549389Y-48174358D01*
X153054466Y-48208030D01*
X152953450Y-48309045D01*
X152919779Y-48410061D01*
X152919779Y-48477404D01*
X152953450Y-48578419D01*
X153121809Y-48746778D01*
X153222824Y-48780450D01*
X153290168Y-48780450D01*
X153391183Y-48746778D01*
X153593214Y-48544748D01*
X153626886Y-48443732D01*
X153626886Y-48376389D01*
G04 #@! TO.C,J2*
X142827333Y-28338980D02*
X142827333Y-29053266D01*
X142874952Y-29196123D01*
X142970190Y-29291361D01*
X143113047Y-29338980D01*
X143208285Y-29338980D01*
X142398761Y-28434219D02*
X142351142Y-28386600D01*
X142255904Y-28338980D01*
X142017809Y-28338980D01*
X141922571Y-28386600D01*
X141874952Y-28434219D01*
X141827333Y-28529457D01*
X141827333Y-28624695D01*
X141874952Y-28767552D01*
X142446380Y-29338980D01*
X141827333Y-29338980D01*
G04 #@! TO.C,R1*
X150509266Y-31668980D02*
X150842599Y-31192790D01*
X151080695Y-31668980D02*
X151080695Y-30668980D01*
X150699742Y-30668980D01*
X150604504Y-30716600D01*
X150556885Y-30764219D01*
X150509266Y-30859457D01*
X150509266Y-31002314D01*
X150556885Y-31097552D01*
X150604504Y-31145171D01*
X150699742Y-31192790D01*
X151080695Y-31192790D01*
X149556885Y-31668980D02*
X150128314Y-31668980D01*
X149842599Y-31668980D02*
X149842599Y-30668980D01*
X149937838Y-30811838D01*
X150033076Y-30907076D01*
X150128314Y-30954695D01*
G04 #@! TO.C,C6*
X162629351Y-42563976D02*
X162629351Y-42631319D01*
X162696695Y-42766006D01*
X162764038Y-42833350D01*
X162898726Y-42900693D01*
X163033413Y-42900693D01*
X163134428Y-42867022D01*
X163302787Y-42766006D01*
X163403802Y-42664991D01*
X163504817Y-42496632D01*
X163538489Y-42395617D01*
X163538489Y-42260930D01*
X163471145Y-42126243D01*
X163403802Y-42058899D01*
X163269115Y-41991556D01*
X163201771Y-41991556D01*
X162663023Y-41318121D02*
X162797710Y-41452808D01*
X162831382Y-41553823D01*
X162831382Y-41621167D01*
X162797710Y-41789525D01*
X162696695Y-41957884D01*
X162427321Y-42227258D01*
X162326306Y-42260930D01*
X162258962Y-42260930D01*
X162157947Y-42227258D01*
X162023260Y-42092571D01*
X161989588Y-41991556D01*
X161989588Y-41924212D01*
X162023260Y-41823197D01*
X162191619Y-41654838D01*
X162292634Y-41621167D01*
X162359977Y-41621167D01*
X162460993Y-41654838D01*
X162595680Y-41789525D01*
X162629351Y-41890541D01*
X162629351Y-41957884D01*
X162595680Y-42058899D01*
G04 #@! TO.C,C7*
X151533976Y-50879439D02*
X151601319Y-50879439D01*
X151736006Y-50812095D01*
X151803350Y-50744752D01*
X151870693Y-50610064D01*
X151870693Y-50475377D01*
X151837022Y-50374362D01*
X151736006Y-50206003D01*
X151634991Y-50104988D01*
X151466632Y-50003973D01*
X151365617Y-49970301D01*
X151230930Y-49970301D01*
X151096243Y-50037645D01*
X151028899Y-50104988D01*
X150961556Y-50239675D01*
X150961556Y-50307019D01*
X150658510Y-50475377D02*
X150187106Y-50946782D01*
X151197258Y-51350843D01*
G04 #@! TD*
M02*
