G04 #@! TF.GenerationSoftware,KiCad,Pcbnew,(5.0.1)-4*
G04 #@! TF.CreationDate,2018-12-07T22:44:18-08:00*
G04 #@! TF.ProjectId,control_board,636F6E74726F6C5F626F6172642E6B69,rev?*
G04 #@! TF.SameCoordinates,Original*
G04 #@! TF.FileFunction,Copper,L1,Top,Signal*
G04 #@! TF.FilePolarity,Positive*
%FSLAX46Y46*%
G04 Gerber Fmt 4.6, Leading zero omitted, Abs format (unit mm)*
G04 Created by KiCad (PCBNEW (5.0.1)-4) date 12/7/2018 10:44:18 PM*
%MOMM*%
%LPD*%
G01*
G04 APERTURE LIST*
G04 #@! TA.AperFunction,ComponentPad*
%ADD10C,0.650000*%
G04 #@! TD*
G04 #@! TA.AperFunction,SMDPad,CuDef*
%ADD11R,1.000000X1.900000*%
G04 #@! TD*
G04 #@! TA.AperFunction,Conductor*
%ADD12C,0.100000*%
G04 #@! TD*
G04 #@! TA.AperFunction,SMDPad,CuDef*
%ADD13C,0.975000*%
G04 #@! TD*
G04 #@! TA.AperFunction,SMDPad,CuDef*
%ADD14C,0.550000*%
G04 #@! TD*
G04 #@! TA.AperFunction,ComponentPad*
%ADD15R,1.700000X1.700000*%
G04 #@! TD*
G04 #@! TA.AperFunction,ComponentPad*
%ADD16O,1.700000X1.700000*%
G04 #@! TD*
G04 #@! TA.AperFunction,SMDPad,CuDef*
%ADD17C,0.800000*%
G04 #@! TD*
G04 #@! TA.AperFunction,SMDPad,CuDef*
%ADD18C,0.600000*%
G04 #@! TD*
G04 #@! TA.AperFunction,ViaPad*
%ADD19C,0.508000*%
G04 #@! TD*
G04 #@! TA.AperFunction,Conductor*
%ADD20C,0.152400*%
G04 #@! TD*
G04 #@! TA.AperFunction,Conductor*
%ADD21C,0.609600*%
G04 #@! TD*
G04 #@! TA.AperFunction,Conductor*
%ADD22C,1.371600*%
G04 #@! TD*
G04 #@! TA.AperFunction,Conductor*
%ADD23C,0.254000*%
G04 #@! TD*
%ADD24C,0.254000*%
G04 APERTURE END LIST*
D10*
G04 #@! TO.P,J1,B1*
G04 #@! TO.N,GND*
X140370800Y-62198600D03*
G04 #@! TO.P,J1,B2*
G04 #@! TO.N,Net-(J1-PadB2)*
X139670800Y-62598600D03*
G04 #@! TO.P,J1,B3*
G04 #@! TO.N,Net-(J1-PadB3)*
X139670800Y-63398600D03*
G04 #@! TO.P,J1,B4*
G04 #@! TO.N,+5V*
X140370800Y-63798600D03*
G04 #@! TO.P,J1,B5*
G04 #@! TO.N,Net-(J1-PadB5)*
X139670800Y-64198600D03*
G04 #@! TO.P,J1,B6*
G04 #@! TO.N,Net-(J1-PadB6)*
X140370800Y-64598600D03*
G04 #@! TO.P,J1,B7*
G04 #@! TO.N,Net-(J1-PadB7)*
X140370800Y-65398600D03*
G04 #@! TO.P,J1,B8*
G04 #@! TO.N,Net-(J1-PadB8)*
X139670800Y-65798600D03*
G04 #@! TO.P,J1,B9*
G04 #@! TO.N,+5V*
X140370800Y-66198600D03*
G04 #@! TO.P,J1,B10*
G04 #@! TO.N,Net-(J1-PadB10)*
X139670800Y-66598600D03*
G04 #@! TO.P,J1,B11*
G04 #@! TO.N,Net-(J1-PadB11)*
X139670800Y-67398600D03*
G04 #@! TO.P,J1,B12*
G04 #@! TO.N,GND*
X140370800Y-67798600D03*
G04 #@! TD*
D11*
G04 #@! TO.P,S1,A*
G04 #@! TO.N,/Encoder_A*
X154305000Y-37008800D03*
G04 #@! TO.P,S1,B*
G04 #@! TO.N,/Encoder_B*
X149225000Y-37008800D03*
G04 #@! TO.P,S1,C*
G04 #@! TO.N,GND*
X151765000Y-40308800D03*
G04 #@! TO.P,S1,5*
G04 #@! TO.N,+5V*
X156845000Y-57328800D03*
G04 #@! TO.P,S1,2*
G04 #@! TO.N,/Green*
X151765000Y-57328800D03*
G04 #@! TO.P,S1,3*
G04 #@! TO.N,/Switch*
X146685000Y-57328800D03*
G04 #@! TO.P,S1,1*
G04 #@! TO.N,/Red*
X154305000Y-60628800D03*
G04 #@! TO.P,S1,4*
G04 #@! TO.N,/Blue*
X149225000Y-60628800D03*
G04 #@! TD*
D12*
G04 #@! TO.N,+5V*
G04 #@! TO.C,C1*
G36*
X144801006Y-46054275D02*
X144824667Y-46057785D01*
X144847871Y-46063597D01*
X144870393Y-46071655D01*
X144892017Y-46081883D01*
X144912534Y-46094180D01*
X144931747Y-46108430D01*
X144949471Y-46124494D01*
X145594706Y-46769729D01*
X145610770Y-46787453D01*
X145625020Y-46806666D01*
X145637317Y-46827183D01*
X145647545Y-46848807D01*
X145655603Y-46871329D01*
X145661415Y-46894533D01*
X145664925Y-46918194D01*
X145666099Y-46942086D01*
X145664925Y-46965978D01*
X145661415Y-46989639D01*
X145655603Y-47012843D01*
X145647545Y-47035365D01*
X145637317Y-47056989D01*
X145625020Y-47077506D01*
X145610770Y-47096719D01*
X145594706Y-47114443D01*
X145249991Y-47459158D01*
X145232267Y-47475222D01*
X145213054Y-47489472D01*
X145192537Y-47501769D01*
X145170913Y-47511997D01*
X145148391Y-47520055D01*
X145125187Y-47525867D01*
X145101526Y-47529377D01*
X145077634Y-47530551D01*
X145053742Y-47529377D01*
X145030081Y-47525867D01*
X145006877Y-47520055D01*
X144984355Y-47511997D01*
X144962731Y-47501769D01*
X144942214Y-47489472D01*
X144923001Y-47475222D01*
X144905277Y-47459158D01*
X144260042Y-46813923D01*
X144243978Y-46796199D01*
X144229728Y-46776986D01*
X144217431Y-46756469D01*
X144207203Y-46734845D01*
X144199145Y-46712323D01*
X144193333Y-46689119D01*
X144189823Y-46665458D01*
X144188649Y-46641566D01*
X144189823Y-46617674D01*
X144193333Y-46594013D01*
X144199145Y-46570809D01*
X144207203Y-46548287D01*
X144217431Y-46526663D01*
X144229728Y-46506146D01*
X144243978Y-46486933D01*
X144260042Y-46469209D01*
X144604757Y-46124494D01*
X144622481Y-46108430D01*
X144641694Y-46094180D01*
X144662211Y-46081883D01*
X144683835Y-46071655D01*
X144706357Y-46063597D01*
X144729561Y-46057785D01*
X144753222Y-46054275D01*
X144777114Y-46053101D01*
X144801006Y-46054275D01*
X144801006Y-46054275D01*
G37*
D13*
G04 #@! TD*
G04 #@! TO.P,C1,1*
G04 #@! TO.N,+5V*
X144927374Y-46791826D03*
D12*
G04 #@! TO.N,GND*
G04 #@! TO.C,C1*
G36*
X146126832Y-44728449D02*
X146150493Y-44731959D01*
X146173697Y-44737771D01*
X146196219Y-44745829D01*
X146217843Y-44756057D01*
X146238360Y-44768354D01*
X146257573Y-44782604D01*
X146275297Y-44798668D01*
X146920532Y-45443903D01*
X146936596Y-45461627D01*
X146950846Y-45480840D01*
X146963143Y-45501357D01*
X146973371Y-45522981D01*
X146981429Y-45545503D01*
X146987241Y-45568707D01*
X146990751Y-45592368D01*
X146991925Y-45616260D01*
X146990751Y-45640152D01*
X146987241Y-45663813D01*
X146981429Y-45687017D01*
X146973371Y-45709539D01*
X146963143Y-45731163D01*
X146950846Y-45751680D01*
X146936596Y-45770893D01*
X146920532Y-45788617D01*
X146575817Y-46133332D01*
X146558093Y-46149396D01*
X146538880Y-46163646D01*
X146518363Y-46175943D01*
X146496739Y-46186171D01*
X146474217Y-46194229D01*
X146451013Y-46200041D01*
X146427352Y-46203551D01*
X146403460Y-46204725D01*
X146379568Y-46203551D01*
X146355907Y-46200041D01*
X146332703Y-46194229D01*
X146310181Y-46186171D01*
X146288557Y-46175943D01*
X146268040Y-46163646D01*
X146248827Y-46149396D01*
X146231103Y-46133332D01*
X145585868Y-45488097D01*
X145569804Y-45470373D01*
X145555554Y-45451160D01*
X145543257Y-45430643D01*
X145533029Y-45409019D01*
X145524971Y-45386497D01*
X145519159Y-45363293D01*
X145515649Y-45339632D01*
X145514475Y-45315740D01*
X145515649Y-45291848D01*
X145519159Y-45268187D01*
X145524971Y-45244983D01*
X145533029Y-45222461D01*
X145543257Y-45200837D01*
X145555554Y-45180320D01*
X145569804Y-45161107D01*
X145585868Y-45143383D01*
X145930583Y-44798668D01*
X145948307Y-44782604D01*
X145967520Y-44768354D01*
X145988037Y-44756057D01*
X146009661Y-44745829D01*
X146032183Y-44737771D01*
X146055387Y-44731959D01*
X146079048Y-44728449D01*
X146102940Y-44727275D01*
X146126832Y-44728449D01*
X146126832Y-44728449D01*
G37*
D13*
G04 #@! TD*
G04 #@! TO.P,C1,2*
G04 #@! TO.N,GND*
X146253200Y-45466000D03*
D12*
G04 #@! TO.N,Net-(C4-Pad1)*
G04 #@! TO.C,C4*
G36*
X167688919Y-41352762D02*
X167712580Y-41356272D01*
X167735784Y-41362084D01*
X167758306Y-41370142D01*
X167779930Y-41380370D01*
X167800447Y-41392667D01*
X167819660Y-41406917D01*
X167837384Y-41422981D01*
X168482619Y-42068216D01*
X168498683Y-42085940D01*
X168512933Y-42105153D01*
X168525230Y-42125670D01*
X168535458Y-42147294D01*
X168543516Y-42169816D01*
X168549328Y-42193020D01*
X168552838Y-42216681D01*
X168554012Y-42240573D01*
X168552838Y-42264465D01*
X168549328Y-42288126D01*
X168543516Y-42311330D01*
X168535458Y-42333852D01*
X168525230Y-42355476D01*
X168512933Y-42375993D01*
X168498683Y-42395206D01*
X168482619Y-42412930D01*
X168137904Y-42757645D01*
X168120180Y-42773709D01*
X168100967Y-42787959D01*
X168080450Y-42800256D01*
X168058826Y-42810484D01*
X168036304Y-42818542D01*
X168013100Y-42824354D01*
X167989439Y-42827864D01*
X167965547Y-42829038D01*
X167941655Y-42827864D01*
X167917994Y-42824354D01*
X167894790Y-42818542D01*
X167872268Y-42810484D01*
X167850644Y-42800256D01*
X167830127Y-42787959D01*
X167810914Y-42773709D01*
X167793190Y-42757645D01*
X167147955Y-42112410D01*
X167131891Y-42094686D01*
X167117641Y-42075473D01*
X167105344Y-42054956D01*
X167095116Y-42033332D01*
X167087058Y-42010810D01*
X167081246Y-41987606D01*
X167077736Y-41963945D01*
X167076562Y-41940053D01*
X167077736Y-41916161D01*
X167081246Y-41892500D01*
X167087058Y-41869296D01*
X167095116Y-41846774D01*
X167105344Y-41825150D01*
X167117641Y-41804633D01*
X167131891Y-41785420D01*
X167147955Y-41767696D01*
X167492670Y-41422981D01*
X167510394Y-41406917D01*
X167529607Y-41392667D01*
X167550124Y-41380370D01*
X167571748Y-41370142D01*
X167594270Y-41362084D01*
X167617474Y-41356272D01*
X167641135Y-41352762D01*
X167665027Y-41351588D01*
X167688919Y-41352762D01*
X167688919Y-41352762D01*
G37*
D13*
G04 #@! TD*
G04 #@! TO.P,C4,1*
G04 #@! TO.N,Net-(C4-Pad1)*
X167815287Y-42090313D03*
D12*
G04 #@! TO.N,GND*
G04 #@! TO.C,C4*
G36*
X169014745Y-40026936D02*
X169038406Y-40030446D01*
X169061610Y-40036258D01*
X169084132Y-40044316D01*
X169105756Y-40054544D01*
X169126273Y-40066841D01*
X169145486Y-40081091D01*
X169163210Y-40097155D01*
X169808445Y-40742390D01*
X169824509Y-40760114D01*
X169838759Y-40779327D01*
X169851056Y-40799844D01*
X169861284Y-40821468D01*
X169869342Y-40843990D01*
X169875154Y-40867194D01*
X169878664Y-40890855D01*
X169879838Y-40914747D01*
X169878664Y-40938639D01*
X169875154Y-40962300D01*
X169869342Y-40985504D01*
X169861284Y-41008026D01*
X169851056Y-41029650D01*
X169838759Y-41050167D01*
X169824509Y-41069380D01*
X169808445Y-41087104D01*
X169463730Y-41431819D01*
X169446006Y-41447883D01*
X169426793Y-41462133D01*
X169406276Y-41474430D01*
X169384652Y-41484658D01*
X169362130Y-41492716D01*
X169338926Y-41498528D01*
X169315265Y-41502038D01*
X169291373Y-41503212D01*
X169267481Y-41502038D01*
X169243820Y-41498528D01*
X169220616Y-41492716D01*
X169198094Y-41484658D01*
X169176470Y-41474430D01*
X169155953Y-41462133D01*
X169136740Y-41447883D01*
X169119016Y-41431819D01*
X168473781Y-40786584D01*
X168457717Y-40768860D01*
X168443467Y-40749647D01*
X168431170Y-40729130D01*
X168420942Y-40707506D01*
X168412884Y-40684984D01*
X168407072Y-40661780D01*
X168403562Y-40638119D01*
X168402388Y-40614227D01*
X168403562Y-40590335D01*
X168407072Y-40566674D01*
X168412884Y-40543470D01*
X168420942Y-40520948D01*
X168431170Y-40499324D01*
X168443467Y-40478807D01*
X168457717Y-40459594D01*
X168473781Y-40441870D01*
X168818496Y-40097155D01*
X168836220Y-40081091D01*
X168855433Y-40066841D01*
X168875950Y-40054544D01*
X168897574Y-40044316D01*
X168920096Y-40036258D01*
X168943300Y-40030446D01*
X168966961Y-40026936D01*
X168990853Y-40025762D01*
X169014745Y-40026936D01*
X169014745Y-40026936D01*
G37*
D13*
G04 #@! TD*
G04 #@! TO.P,C4,2*
G04 #@! TO.N,GND*
X169141113Y-40764487D03*
D12*
G04 #@! TO.N,Net-(C5-Pad2)*
G04 #@! TO.C,C5*
G36*
X164440232Y-38124449D02*
X164463893Y-38127959D01*
X164487097Y-38133771D01*
X164509619Y-38141829D01*
X164531243Y-38152057D01*
X164551760Y-38164354D01*
X164570973Y-38178604D01*
X164588697Y-38194668D01*
X165233932Y-38839903D01*
X165249996Y-38857627D01*
X165264246Y-38876840D01*
X165276543Y-38897357D01*
X165286771Y-38918981D01*
X165294829Y-38941503D01*
X165300641Y-38964707D01*
X165304151Y-38988368D01*
X165305325Y-39012260D01*
X165304151Y-39036152D01*
X165300641Y-39059813D01*
X165294829Y-39083017D01*
X165286771Y-39105539D01*
X165276543Y-39127163D01*
X165264246Y-39147680D01*
X165249996Y-39166893D01*
X165233932Y-39184617D01*
X164889217Y-39529332D01*
X164871493Y-39545396D01*
X164852280Y-39559646D01*
X164831763Y-39571943D01*
X164810139Y-39582171D01*
X164787617Y-39590229D01*
X164764413Y-39596041D01*
X164740752Y-39599551D01*
X164716860Y-39600725D01*
X164692968Y-39599551D01*
X164669307Y-39596041D01*
X164646103Y-39590229D01*
X164623581Y-39582171D01*
X164601957Y-39571943D01*
X164581440Y-39559646D01*
X164562227Y-39545396D01*
X164544503Y-39529332D01*
X163899268Y-38884097D01*
X163883204Y-38866373D01*
X163868954Y-38847160D01*
X163856657Y-38826643D01*
X163846429Y-38805019D01*
X163838371Y-38782497D01*
X163832559Y-38759293D01*
X163829049Y-38735632D01*
X163827875Y-38711740D01*
X163829049Y-38687848D01*
X163832559Y-38664187D01*
X163838371Y-38640983D01*
X163846429Y-38618461D01*
X163856657Y-38596837D01*
X163868954Y-38576320D01*
X163883204Y-38557107D01*
X163899268Y-38539383D01*
X164243983Y-38194668D01*
X164261707Y-38178604D01*
X164280920Y-38164354D01*
X164301437Y-38152057D01*
X164323061Y-38141829D01*
X164345583Y-38133771D01*
X164368787Y-38127959D01*
X164392448Y-38124449D01*
X164416340Y-38123275D01*
X164440232Y-38124449D01*
X164440232Y-38124449D01*
G37*
D13*
G04 #@! TD*
G04 #@! TO.P,C5,2*
G04 #@! TO.N,Net-(C5-Pad2)*
X164566600Y-38862000D03*
D12*
G04 #@! TO.N,GND*
G04 #@! TO.C,C5*
G36*
X165766058Y-36798623D02*
X165789719Y-36802133D01*
X165812923Y-36807945D01*
X165835445Y-36816003D01*
X165857069Y-36826231D01*
X165877586Y-36838528D01*
X165896799Y-36852778D01*
X165914523Y-36868842D01*
X166559758Y-37514077D01*
X166575822Y-37531801D01*
X166590072Y-37551014D01*
X166602369Y-37571531D01*
X166612597Y-37593155D01*
X166620655Y-37615677D01*
X166626467Y-37638881D01*
X166629977Y-37662542D01*
X166631151Y-37686434D01*
X166629977Y-37710326D01*
X166626467Y-37733987D01*
X166620655Y-37757191D01*
X166612597Y-37779713D01*
X166602369Y-37801337D01*
X166590072Y-37821854D01*
X166575822Y-37841067D01*
X166559758Y-37858791D01*
X166215043Y-38203506D01*
X166197319Y-38219570D01*
X166178106Y-38233820D01*
X166157589Y-38246117D01*
X166135965Y-38256345D01*
X166113443Y-38264403D01*
X166090239Y-38270215D01*
X166066578Y-38273725D01*
X166042686Y-38274899D01*
X166018794Y-38273725D01*
X165995133Y-38270215D01*
X165971929Y-38264403D01*
X165949407Y-38256345D01*
X165927783Y-38246117D01*
X165907266Y-38233820D01*
X165888053Y-38219570D01*
X165870329Y-38203506D01*
X165225094Y-37558271D01*
X165209030Y-37540547D01*
X165194780Y-37521334D01*
X165182483Y-37500817D01*
X165172255Y-37479193D01*
X165164197Y-37456671D01*
X165158385Y-37433467D01*
X165154875Y-37409806D01*
X165153701Y-37385914D01*
X165154875Y-37362022D01*
X165158385Y-37338361D01*
X165164197Y-37315157D01*
X165172255Y-37292635D01*
X165182483Y-37271011D01*
X165194780Y-37250494D01*
X165209030Y-37231281D01*
X165225094Y-37213557D01*
X165569809Y-36868842D01*
X165587533Y-36852778D01*
X165606746Y-36838528D01*
X165627263Y-36826231D01*
X165648887Y-36816003D01*
X165671409Y-36807945D01*
X165694613Y-36802133D01*
X165718274Y-36798623D01*
X165742166Y-36797449D01*
X165766058Y-36798623D01*
X165766058Y-36798623D01*
G37*
D13*
G04 #@! TD*
G04 #@! TO.P,C5,1*
G04 #@! TO.N,GND*
X165892426Y-37536174D03*
D14*
G04 #@! TO.P,IC1,1*
G04 #@! TO.N,Net-(IC1-Pad1)*
X150739695Y-43833697D03*
D12*
G04 #@! TD*
G04 #@! TO.N,Net-(IC1-Pad1)*
G04 #@! TO.C,IC1*
G36*
X149979555Y-43462466D02*
X150368464Y-43073557D01*
X151499835Y-44204928D01*
X151110926Y-44593837D01*
X149979555Y-43462466D01*
X149979555Y-43462466D01*
G37*
D14*
G04 #@! TO.P,IC1,2*
G04 #@! TO.N,/Red*
X150174010Y-44399383D03*
D12*
G04 #@! TD*
G04 #@! TO.N,/Red*
G04 #@! TO.C,IC1*
G36*
X149413870Y-44028152D02*
X149802779Y-43639243D01*
X150934150Y-44770614D01*
X150545241Y-45159523D01*
X149413870Y-44028152D01*
X149413870Y-44028152D01*
G37*
D14*
G04 #@! TO.P,IC1,3*
G04 #@! TO.N,GND*
X149608324Y-44965068D03*
D12*
G04 #@! TD*
G04 #@! TO.N,GND*
G04 #@! TO.C,IC1*
G36*
X148848184Y-44593837D02*
X149237093Y-44204928D01*
X150368464Y-45336299D01*
X149979555Y-45725208D01*
X148848184Y-44593837D01*
X148848184Y-44593837D01*
G37*
D14*
G04 #@! TO.P,IC1,4*
G04 #@! TO.N,+5V*
X149042639Y-45530753D03*
D12*
G04 #@! TD*
G04 #@! TO.N,+5V*
G04 #@! TO.C,IC1*
G36*
X148282499Y-45159522D02*
X148671408Y-44770613D01*
X149802779Y-45901984D01*
X149413870Y-46290893D01*
X148282499Y-45159522D01*
X148282499Y-45159522D01*
G37*
D14*
G04 #@! TO.P,IC1,5*
G04 #@! TO.N,GND*
X148476953Y-46096439D03*
D12*
G04 #@! TD*
G04 #@! TO.N,GND*
G04 #@! TO.C,IC1*
G36*
X147716813Y-45725208D02*
X148105722Y-45336299D01*
X149237093Y-46467670D01*
X148848184Y-46856579D01*
X147716813Y-45725208D01*
X147716813Y-45725208D01*
G37*
D14*
G04 #@! TO.P,IC1,6*
G04 #@! TO.N,+5V*
X147911268Y-46662124D03*
D12*
G04 #@! TD*
G04 #@! TO.N,+5V*
G04 #@! TO.C,IC1*
G36*
X147151128Y-46290893D02*
X147540037Y-45901984D01*
X148671408Y-47033355D01*
X148282499Y-47422264D01*
X147151128Y-46290893D01*
X147151128Y-46290893D01*
G37*
D14*
G04 #@! TO.P,IC1,7*
G04 #@! TO.N,Net-(IC1-Pad7)*
X147345583Y-47227810D03*
D12*
G04 #@! TD*
G04 #@! TO.N,Net-(IC1-Pad7)*
G04 #@! TO.C,IC1*
G36*
X146585443Y-46856579D02*
X146974352Y-46467670D01*
X148105723Y-47599041D01*
X147716814Y-47987950D01*
X146585443Y-46856579D01*
X146585443Y-46856579D01*
G37*
D14*
G04 #@! TO.P,IC1,8*
G04 #@! TO.N,Net-(IC1-Pad8)*
X146779897Y-47793495D03*
D12*
G04 #@! TD*
G04 #@! TO.N,Net-(IC1-Pad8)*
G04 #@! TO.C,IC1*
G36*
X146019757Y-47422264D02*
X146408666Y-47033355D01*
X147540037Y-48164726D01*
X147151128Y-48553635D01*
X146019757Y-47422264D01*
X146019757Y-47422264D01*
G37*
D14*
G04 #@! TO.P,IC1,9*
G04 #@! TO.N,/Green*
X146779897Y-49844105D03*
D12*
G04 #@! TD*
G04 #@! TO.N,/Green*
G04 #@! TO.C,IC1*
G36*
X146408666Y-50604245D02*
X146019757Y-50215336D01*
X147151128Y-49083965D01*
X147540037Y-49472874D01*
X146408666Y-50604245D01*
X146408666Y-50604245D01*
G37*
D14*
G04 #@! TO.P,IC1,10*
G04 #@! TO.N,/Blue*
X147345583Y-50409790D03*
D12*
G04 #@! TD*
G04 #@! TO.N,/Blue*
G04 #@! TO.C,IC1*
G36*
X146974352Y-51169930D02*
X146585443Y-50781021D01*
X147716814Y-49649650D01*
X148105723Y-50038559D01*
X146974352Y-51169930D01*
X146974352Y-51169930D01*
G37*
D14*
G04 #@! TO.P,IC1,11*
G04 #@! TO.N,Net-(IC1-Pad11)*
X147911268Y-50975476D03*
D12*
G04 #@! TD*
G04 #@! TO.N,Net-(IC1-Pad11)*
G04 #@! TO.C,IC1*
G36*
X147540037Y-51735616D02*
X147151128Y-51346707D01*
X148282499Y-50215336D01*
X148671408Y-50604245D01*
X147540037Y-51735616D01*
X147540037Y-51735616D01*
G37*
D14*
G04 #@! TO.P,IC1,12*
G04 #@! TO.N,/OE*
X148476953Y-51541161D03*
D12*
G04 #@! TD*
G04 #@! TO.N,/OE*
G04 #@! TO.C,IC1*
G36*
X148105722Y-52301301D02*
X147716813Y-51912392D01*
X148848184Y-50781021D01*
X149237093Y-51169930D01*
X148105722Y-52301301D01*
X148105722Y-52301301D01*
G37*
D14*
G04 #@! TO.P,IC1,13*
G04 #@! TO.N,/Sel*
X149042639Y-52106847D03*
D12*
G04 #@! TD*
G04 #@! TO.N,/Sel*
G04 #@! TO.C,IC1*
G36*
X148671408Y-52866987D02*
X148282499Y-52478078D01*
X149413870Y-51346707D01*
X149802779Y-51735616D01*
X148671408Y-52866987D01*
X148671408Y-52866987D01*
G37*
D14*
G04 #@! TO.P,IC1,14*
G04 #@! TO.N,Net-(IC1-Pad14)*
X149608324Y-52672532D03*
D12*
G04 #@! TD*
G04 #@! TO.N,Net-(IC1-Pad14)*
G04 #@! TO.C,IC1*
G36*
X149237093Y-53432672D02*
X148848184Y-53043763D01*
X149979555Y-51912392D01*
X150368464Y-52301301D01*
X149237093Y-53432672D01*
X149237093Y-53432672D01*
G37*
D14*
G04 #@! TO.P,IC1,15*
G04 #@! TO.N,/Data*
X150174010Y-53238217D03*
D12*
G04 #@! TD*
G04 #@! TO.N,/Data*
G04 #@! TO.C,IC1*
G36*
X149802779Y-53998357D02*
X149413870Y-53609448D01*
X150545241Y-52478077D01*
X150934150Y-52866986D01*
X149802779Y-53998357D01*
X149802779Y-53998357D01*
G37*
D14*
G04 #@! TO.P,IC1,16*
G04 #@! TO.N,Net-(IC1-Pad16)*
X150739695Y-53803903D03*
D12*
G04 #@! TD*
G04 #@! TO.N,Net-(IC1-Pad16)*
G04 #@! TO.C,IC1*
G36*
X150368464Y-54564043D02*
X149979555Y-54175134D01*
X151110926Y-53043763D01*
X151499835Y-53432672D01*
X150368464Y-54564043D01*
X150368464Y-54564043D01*
G37*
D14*
G04 #@! TO.P,IC1,17*
G04 #@! TO.N,/CLK*
X152790305Y-53803903D03*
D12*
G04 #@! TD*
G04 #@! TO.N,/CLK*
G04 #@! TO.C,IC1*
G36*
X152030165Y-53432672D02*
X152419074Y-53043763D01*
X153550445Y-54175134D01*
X153161536Y-54564043D01*
X152030165Y-53432672D01*
X152030165Y-53432672D01*
G37*
D14*
G04 #@! TO.P,IC1,18*
G04 #@! TO.N,+5V*
X153355990Y-53238217D03*
D12*
G04 #@! TD*
G04 #@! TO.N,+5V*
G04 #@! TO.C,IC1*
G36*
X152595850Y-52866986D02*
X152984759Y-52478077D01*
X154116130Y-53609448D01*
X153727221Y-53998357D01*
X152595850Y-52866986D01*
X152595850Y-52866986D01*
G37*
D14*
G04 #@! TO.P,IC1,19*
G04 #@! TO.N,Net-(IC1-Pad19)*
X153921676Y-52672532D03*
D12*
G04 #@! TD*
G04 #@! TO.N,Net-(IC1-Pad19)*
G04 #@! TO.C,IC1*
G36*
X153161536Y-52301301D02*
X153550445Y-51912392D01*
X154681816Y-53043763D01*
X154292907Y-53432672D01*
X153161536Y-52301301D01*
X153161536Y-52301301D01*
G37*
D14*
G04 #@! TO.P,IC1,20*
G04 #@! TO.N,+5V*
X154487361Y-52106847D03*
D12*
G04 #@! TD*
G04 #@! TO.N,+5V*
G04 #@! TO.C,IC1*
G36*
X153727221Y-51735616D02*
X154116130Y-51346707D01*
X155247501Y-52478078D01*
X154858592Y-52866987D01*
X153727221Y-51735616D01*
X153727221Y-51735616D01*
G37*
D14*
G04 #@! TO.P,IC1,21*
G04 #@! TO.N,GND*
X155053047Y-51541161D03*
D12*
G04 #@! TD*
G04 #@! TO.N,GND*
G04 #@! TO.C,IC1*
G36*
X154292907Y-51169930D02*
X154681816Y-50781021D01*
X155813187Y-51912392D01*
X155424278Y-52301301D01*
X154292907Y-51169930D01*
X154292907Y-51169930D01*
G37*
D14*
G04 #@! TO.P,IC1,22*
G04 #@! TO.N,Net-(IC1-Pad22)*
X155618732Y-50975476D03*
D12*
G04 #@! TD*
G04 #@! TO.N,Net-(IC1-Pad22)*
G04 #@! TO.C,IC1*
G36*
X154858592Y-50604245D02*
X155247501Y-50215336D01*
X156378872Y-51346707D01*
X155989963Y-51735616D01*
X154858592Y-50604245D01*
X154858592Y-50604245D01*
G37*
D14*
G04 #@! TO.P,IC1,23*
G04 #@! TO.N,/Switch*
X156184417Y-50409790D03*
D12*
G04 #@! TD*
G04 #@! TO.N,/Switch*
G04 #@! TO.C,IC1*
G36*
X155424277Y-50038559D02*
X155813186Y-49649650D01*
X156944557Y-50781021D01*
X156555648Y-51169930D01*
X155424277Y-50038559D01*
X155424277Y-50038559D01*
G37*
D14*
G04 #@! TO.P,IC1,24*
G04 #@! TO.N,/G_latch*
X156750103Y-49844105D03*
D12*
G04 #@! TD*
G04 #@! TO.N,/G_latch*
G04 #@! TO.C,IC1*
G36*
X155989963Y-49472874D02*
X156378872Y-49083965D01*
X157510243Y-50215336D01*
X157121334Y-50604245D01*
X155989963Y-49472874D01*
X155989963Y-49472874D01*
G37*
D14*
G04 #@! TO.P,IC1,25*
G04 #@! TO.N,/R_latch*
X156750103Y-47793495D03*
D12*
G04 #@! TD*
G04 #@! TO.N,/R_latch*
G04 #@! TO.C,IC1*
G36*
X156378872Y-48553635D02*
X155989963Y-48164726D01*
X157121334Y-47033355D01*
X157510243Y-47422264D01*
X156378872Y-48553635D01*
X156378872Y-48553635D01*
G37*
D14*
G04 #@! TO.P,IC1,26*
G04 #@! TO.N,Net-(IC1-Pad26)*
X156184417Y-47227810D03*
D12*
G04 #@! TD*
G04 #@! TO.N,Net-(IC1-Pad26)*
G04 #@! TO.C,IC1*
G36*
X155813186Y-47987950D02*
X155424277Y-47599041D01*
X156555648Y-46467670D01*
X156944557Y-46856579D01*
X155813186Y-47987950D01*
X155813186Y-47987950D01*
G37*
D14*
G04 #@! TO.P,IC1,27*
G04 #@! TO.N,/SDA*
X155618732Y-46662124D03*
D12*
G04 #@! TD*
G04 #@! TO.N,/SDA*
G04 #@! TO.C,IC1*
G36*
X155247501Y-47422264D02*
X154858592Y-47033355D01*
X155989963Y-45901984D01*
X156378872Y-46290893D01*
X155247501Y-47422264D01*
X155247501Y-47422264D01*
G37*
D14*
G04 #@! TO.P,IC1,28*
G04 #@! TO.N,/SCL*
X155053047Y-46096439D03*
D12*
G04 #@! TD*
G04 #@! TO.N,/SCL*
G04 #@! TO.C,IC1*
G36*
X154681816Y-46856579D02*
X154292907Y-46467670D01*
X155424278Y-45336299D01*
X155813187Y-45725208D01*
X154681816Y-46856579D01*
X154681816Y-46856579D01*
G37*
D14*
G04 #@! TO.P,IC1,29*
G04 #@! TO.N,/Reset*
X154487361Y-45530753D03*
D12*
G04 #@! TD*
G04 #@! TO.N,/Reset*
G04 #@! TO.C,IC1*
G36*
X154116130Y-46290893D02*
X153727221Y-45901984D01*
X154858592Y-44770613D01*
X155247501Y-45159522D01*
X154116130Y-46290893D01*
X154116130Y-46290893D01*
G37*
D14*
G04 #@! TO.P,IC1,30*
G04 #@! TO.N,Net-(IC1-Pad30)*
X153921676Y-44965068D03*
D12*
G04 #@! TD*
G04 #@! TO.N,Net-(IC1-Pad30)*
G04 #@! TO.C,IC1*
G36*
X153550445Y-45725208D02*
X153161536Y-45336299D01*
X154292907Y-44204928D01*
X154681816Y-44593837D01*
X153550445Y-45725208D01*
X153550445Y-45725208D01*
G37*
D14*
G04 #@! TO.P,IC1,31*
G04 #@! TO.N,/Encoder_A*
X153355990Y-44399383D03*
D12*
G04 #@! TD*
G04 #@! TO.N,/Encoder_A*
G04 #@! TO.C,IC1*
G36*
X152984759Y-45159523D02*
X152595850Y-44770614D01*
X153727221Y-43639243D01*
X154116130Y-44028152D01*
X152984759Y-45159523D01*
X152984759Y-45159523D01*
G37*
D14*
G04 #@! TO.P,IC1,32*
G04 #@! TO.N,/Encoder_B*
X152790305Y-43833697D03*
D12*
G04 #@! TD*
G04 #@! TO.N,/Encoder_B*
G04 #@! TO.C,IC1*
G36*
X152419074Y-44593837D02*
X152030165Y-44204928D01*
X153161536Y-43073557D01*
X153550445Y-43462466D01*
X152419074Y-44593837D01*
X152419074Y-44593837D01*
G37*
D15*
G04 #@! TO.P,J2,1*
G04 #@! TO.N,Net-(J2-Pad1)*
X143764000Y-31216600D03*
D16*
G04 #@! TO.P,J2,2*
G04 #@! TO.N,+5V*
X141224000Y-31216600D03*
G04 #@! TO.P,J2,3*
G04 #@! TO.N,Net-(J2-Pad3)*
X143764000Y-33756600D03*
G04 #@! TO.P,J2,4*
G04 #@! TO.N,Net-(J2-Pad4)*
X141224000Y-33756600D03*
G04 #@! TO.P,J2,5*
G04 #@! TO.N,/Reset*
X143764000Y-36296600D03*
G04 #@! TO.P,J2,6*
G04 #@! TO.N,GND*
X141224000Y-36296600D03*
G04 #@! TD*
D15*
G04 #@! TO.P,P1,1*
G04 #@! TO.N,GND*
X136474200Y-39954200D03*
D16*
G04 #@! TO.P,P1,2*
G04 #@! TO.N,/OE*
X136474200Y-42494200D03*
G04 #@! TO.P,P1,3*
G04 #@! TO.N,/Sel*
X136474200Y-45034200D03*
G04 #@! TO.P,P1,4*
G04 #@! TO.N,/G_latch*
X136474200Y-47574200D03*
G04 #@! TO.P,P1,5*
G04 #@! TO.N,/R_latch*
X136474200Y-50114200D03*
G04 #@! TO.P,P1,6*
G04 #@! TO.N,/CLK*
X136474200Y-52654200D03*
G04 #@! TO.P,P1,7*
G04 #@! TO.N,/Data*
X136474200Y-55194200D03*
G04 #@! TO.P,P1,8*
G04 #@! TO.N,+5V*
X136474200Y-57734200D03*
G04 #@! TD*
D12*
G04 #@! TO.N,/Data*
G04 #@! TO.C,R2*
G36*
X133855542Y-35149874D02*
X133879203Y-35153384D01*
X133902407Y-35159196D01*
X133924929Y-35167254D01*
X133946553Y-35177482D01*
X133967070Y-35189779D01*
X133986283Y-35204029D01*
X134004007Y-35220093D01*
X134020071Y-35237817D01*
X134034321Y-35257030D01*
X134046618Y-35277547D01*
X134056846Y-35299171D01*
X134064904Y-35321693D01*
X134070716Y-35344897D01*
X134074226Y-35368558D01*
X134075400Y-35392450D01*
X134075400Y-35879950D01*
X134074226Y-35903842D01*
X134070716Y-35927503D01*
X134064904Y-35950707D01*
X134056846Y-35973229D01*
X134046618Y-35994853D01*
X134034321Y-36015370D01*
X134020071Y-36034583D01*
X134004007Y-36052307D01*
X133986283Y-36068371D01*
X133967070Y-36082621D01*
X133946553Y-36094918D01*
X133924929Y-36105146D01*
X133902407Y-36113204D01*
X133879203Y-36119016D01*
X133855542Y-36122526D01*
X133831650Y-36123700D01*
X132919150Y-36123700D01*
X132895258Y-36122526D01*
X132871597Y-36119016D01*
X132848393Y-36113204D01*
X132825871Y-36105146D01*
X132804247Y-36094918D01*
X132783730Y-36082621D01*
X132764517Y-36068371D01*
X132746793Y-36052307D01*
X132730729Y-36034583D01*
X132716479Y-36015370D01*
X132704182Y-35994853D01*
X132693954Y-35973229D01*
X132685896Y-35950707D01*
X132680084Y-35927503D01*
X132676574Y-35903842D01*
X132675400Y-35879950D01*
X132675400Y-35392450D01*
X132676574Y-35368558D01*
X132680084Y-35344897D01*
X132685896Y-35321693D01*
X132693954Y-35299171D01*
X132704182Y-35277547D01*
X132716479Y-35257030D01*
X132730729Y-35237817D01*
X132746793Y-35220093D01*
X132764517Y-35204029D01*
X132783730Y-35189779D01*
X132804247Y-35177482D01*
X132825871Y-35167254D01*
X132848393Y-35159196D01*
X132871597Y-35153384D01*
X132895258Y-35149874D01*
X132919150Y-35148700D01*
X133831650Y-35148700D01*
X133855542Y-35149874D01*
X133855542Y-35149874D01*
G37*
D13*
G04 #@! TD*
G04 #@! TO.P,R2,2*
G04 #@! TO.N,/Data*
X133375400Y-35636200D03*
D12*
G04 #@! TO.N,Net-(J2-Pad4)*
G04 #@! TO.C,R2*
G36*
X133855542Y-33274874D02*
X133879203Y-33278384D01*
X133902407Y-33284196D01*
X133924929Y-33292254D01*
X133946553Y-33302482D01*
X133967070Y-33314779D01*
X133986283Y-33329029D01*
X134004007Y-33345093D01*
X134020071Y-33362817D01*
X134034321Y-33382030D01*
X134046618Y-33402547D01*
X134056846Y-33424171D01*
X134064904Y-33446693D01*
X134070716Y-33469897D01*
X134074226Y-33493558D01*
X134075400Y-33517450D01*
X134075400Y-34004950D01*
X134074226Y-34028842D01*
X134070716Y-34052503D01*
X134064904Y-34075707D01*
X134056846Y-34098229D01*
X134046618Y-34119853D01*
X134034321Y-34140370D01*
X134020071Y-34159583D01*
X134004007Y-34177307D01*
X133986283Y-34193371D01*
X133967070Y-34207621D01*
X133946553Y-34219918D01*
X133924929Y-34230146D01*
X133902407Y-34238204D01*
X133879203Y-34244016D01*
X133855542Y-34247526D01*
X133831650Y-34248700D01*
X132919150Y-34248700D01*
X132895258Y-34247526D01*
X132871597Y-34244016D01*
X132848393Y-34238204D01*
X132825871Y-34230146D01*
X132804247Y-34219918D01*
X132783730Y-34207621D01*
X132764517Y-34193371D01*
X132746793Y-34177307D01*
X132730729Y-34159583D01*
X132716479Y-34140370D01*
X132704182Y-34119853D01*
X132693954Y-34098229D01*
X132685896Y-34075707D01*
X132680084Y-34052503D01*
X132676574Y-34028842D01*
X132675400Y-34004950D01*
X132675400Y-33517450D01*
X132676574Y-33493558D01*
X132680084Y-33469897D01*
X132685896Y-33446693D01*
X132693954Y-33424171D01*
X132704182Y-33402547D01*
X132716479Y-33382030D01*
X132730729Y-33362817D01*
X132746793Y-33345093D01*
X132764517Y-33329029D01*
X132783730Y-33314779D01*
X132804247Y-33302482D01*
X132825871Y-33292254D01*
X132848393Y-33284196D01*
X132871597Y-33278384D01*
X132895258Y-33274874D01*
X132919150Y-33273700D01*
X133831650Y-33273700D01*
X133855542Y-33274874D01*
X133855542Y-33274874D01*
G37*
D13*
G04 #@! TD*
G04 #@! TO.P,R2,1*
G04 #@! TO.N,Net-(J2-Pad4)*
X133375400Y-33761200D03*
D12*
G04 #@! TO.N,Net-(J2-Pad3)*
G04 #@! TO.C,R3*
G36*
X136116142Y-33270274D02*
X136139803Y-33273784D01*
X136163007Y-33279596D01*
X136185529Y-33287654D01*
X136207153Y-33297882D01*
X136227670Y-33310179D01*
X136246883Y-33324429D01*
X136264607Y-33340493D01*
X136280671Y-33358217D01*
X136294921Y-33377430D01*
X136307218Y-33397947D01*
X136317446Y-33419571D01*
X136325504Y-33442093D01*
X136331316Y-33465297D01*
X136334826Y-33488958D01*
X136336000Y-33512850D01*
X136336000Y-34000350D01*
X136334826Y-34024242D01*
X136331316Y-34047903D01*
X136325504Y-34071107D01*
X136317446Y-34093629D01*
X136307218Y-34115253D01*
X136294921Y-34135770D01*
X136280671Y-34154983D01*
X136264607Y-34172707D01*
X136246883Y-34188771D01*
X136227670Y-34203021D01*
X136207153Y-34215318D01*
X136185529Y-34225546D01*
X136163007Y-34233604D01*
X136139803Y-34239416D01*
X136116142Y-34242926D01*
X136092250Y-34244100D01*
X135179750Y-34244100D01*
X135155858Y-34242926D01*
X135132197Y-34239416D01*
X135108993Y-34233604D01*
X135086471Y-34225546D01*
X135064847Y-34215318D01*
X135044330Y-34203021D01*
X135025117Y-34188771D01*
X135007393Y-34172707D01*
X134991329Y-34154983D01*
X134977079Y-34135770D01*
X134964782Y-34115253D01*
X134954554Y-34093629D01*
X134946496Y-34071107D01*
X134940684Y-34047903D01*
X134937174Y-34024242D01*
X134936000Y-34000350D01*
X134936000Y-33512850D01*
X134937174Y-33488958D01*
X134940684Y-33465297D01*
X134946496Y-33442093D01*
X134954554Y-33419571D01*
X134964782Y-33397947D01*
X134977079Y-33377430D01*
X134991329Y-33358217D01*
X135007393Y-33340493D01*
X135025117Y-33324429D01*
X135044330Y-33310179D01*
X135064847Y-33297882D01*
X135086471Y-33287654D01*
X135108993Y-33279596D01*
X135132197Y-33273784D01*
X135155858Y-33270274D01*
X135179750Y-33269100D01*
X136092250Y-33269100D01*
X136116142Y-33270274D01*
X136116142Y-33270274D01*
G37*
D13*
G04 #@! TD*
G04 #@! TO.P,R3,1*
G04 #@! TO.N,Net-(J2-Pad3)*
X135636000Y-33756600D03*
D12*
G04 #@! TO.N,/CLK*
G04 #@! TO.C,R3*
G36*
X136116142Y-35145274D02*
X136139803Y-35148784D01*
X136163007Y-35154596D01*
X136185529Y-35162654D01*
X136207153Y-35172882D01*
X136227670Y-35185179D01*
X136246883Y-35199429D01*
X136264607Y-35215493D01*
X136280671Y-35233217D01*
X136294921Y-35252430D01*
X136307218Y-35272947D01*
X136317446Y-35294571D01*
X136325504Y-35317093D01*
X136331316Y-35340297D01*
X136334826Y-35363958D01*
X136336000Y-35387850D01*
X136336000Y-35875350D01*
X136334826Y-35899242D01*
X136331316Y-35922903D01*
X136325504Y-35946107D01*
X136317446Y-35968629D01*
X136307218Y-35990253D01*
X136294921Y-36010770D01*
X136280671Y-36029983D01*
X136264607Y-36047707D01*
X136246883Y-36063771D01*
X136227670Y-36078021D01*
X136207153Y-36090318D01*
X136185529Y-36100546D01*
X136163007Y-36108604D01*
X136139803Y-36114416D01*
X136116142Y-36117926D01*
X136092250Y-36119100D01*
X135179750Y-36119100D01*
X135155858Y-36117926D01*
X135132197Y-36114416D01*
X135108993Y-36108604D01*
X135086471Y-36100546D01*
X135064847Y-36090318D01*
X135044330Y-36078021D01*
X135025117Y-36063771D01*
X135007393Y-36047707D01*
X134991329Y-36029983D01*
X134977079Y-36010770D01*
X134964782Y-35990253D01*
X134954554Y-35968629D01*
X134946496Y-35946107D01*
X134940684Y-35922903D01*
X134937174Y-35899242D01*
X134936000Y-35875350D01*
X134936000Y-35387850D01*
X134937174Y-35363958D01*
X134940684Y-35340297D01*
X134946496Y-35317093D01*
X134954554Y-35294571D01*
X134964782Y-35272947D01*
X134977079Y-35252430D01*
X134991329Y-35233217D01*
X135007393Y-35215493D01*
X135025117Y-35199429D01*
X135044330Y-35185179D01*
X135064847Y-35172882D01*
X135086471Y-35162654D01*
X135108993Y-35154596D01*
X135132197Y-35148784D01*
X135155858Y-35145274D01*
X135179750Y-35144100D01*
X136092250Y-35144100D01*
X136116142Y-35145274D01*
X136116142Y-35145274D01*
G37*
D13*
G04 #@! TD*
G04 #@! TO.P,R3,2*
G04 #@! TO.N,/CLK*
X135636000Y-35631600D03*
D17*
G04 #@! TO.P,U1,5*
G04 #@! TO.N,/SDA*
X158467806Y-43816117D03*
D12*
G04 #@! TD*
G04 #@! TO.N,/SDA*
G04 #@! TO.C,U1*
G36*
X158697616Y-43020622D02*
X159263301Y-43586307D01*
X158237996Y-44611612D01*
X157672311Y-44045927D01*
X158697616Y-43020622D01*
X158697616Y-43020622D01*
G37*
D17*
G04 #@! TO.P,U1,6*
G04 #@! TO.N,/SCL*
X159365832Y-44714142D03*
D12*
G04 #@! TD*
G04 #@! TO.N,/SCL*
G04 #@! TO.C,U1*
G36*
X159595642Y-43918647D02*
X160161327Y-44484332D01*
X159136022Y-45509637D01*
X158570337Y-44943952D01*
X159595642Y-43918647D01*
X159595642Y-43918647D01*
G37*
D17*
G04 #@! TO.P,U1,7*
G04 #@! TO.N,Net-(IC1-Pad11)*
X160263858Y-45612168D03*
D12*
G04 #@! TD*
G04 #@! TO.N,Net-(IC1-Pad11)*
G04 #@! TO.C,U1*
G36*
X160493668Y-44816673D02*
X161059353Y-45382358D01*
X160034048Y-46407663D01*
X159468363Y-45841978D01*
X160493668Y-44816673D01*
X160493668Y-44816673D01*
G37*
D17*
G04 #@! TO.P,U1,8*
G04 #@! TO.N,+5V*
X161161883Y-46510194D03*
D12*
G04 #@! TD*
G04 #@! TO.N,+5V*
G04 #@! TO.C,U1*
G36*
X161391693Y-45714699D02*
X161957378Y-46280384D01*
X160932073Y-47305689D01*
X160366388Y-46740004D01*
X161391693Y-45714699D01*
X161391693Y-45714699D01*
G37*
D17*
G04 #@! TO.P,U1,4*
G04 #@! TO.N,GND*
X162180117Y-40103806D03*
D12*
G04 #@! TD*
G04 #@! TO.N,GND*
G04 #@! TO.C,U1*
G36*
X162409927Y-39308311D02*
X162975612Y-39873996D01*
X161950307Y-40899301D01*
X161384622Y-40333616D01*
X162409927Y-39308311D01*
X162409927Y-39308311D01*
G37*
D17*
G04 #@! TO.P,U1,3*
G04 #@! TO.N,Net-(U1-Pad3)*
X163078142Y-41001832D03*
D12*
G04 #@! TD*
G04 #@! TO.N,Net-(U1-Pad3)*
G04 #@! TO.C,U1*
G36*
X163307952Y-40206337D02*
X163873637Y-40772022D01*
X162848332Y-41797327D01*
X162282647Y-41231642D01*
X163307952Y-40206337D01*
X163307952Y-40206337D01*
G37*
D17*
G04 #@! TO.P,U1,2*
G04 #@! TO.N,Net-(C5-Pad2)*
X163976168Y-41899858D03*
D12*
G04 #@! TD*
G04 #@! TO.N,Net-(C5-Pad2)*
G04 #@! TO.C,U1*
G36*
X164205978Y-41104363D02*
X164771663Y-41670048D01*
X163746358Y-42695353D01*
X163180673Y-42129668D01*
X164205978Y-41104363D01*
X164205978Y-41104363D01*
G37*
D17*
G04 #@! TO.P,U1,1*
G04 #@! TO.N,Net-(C4-Pad1)*
X164874194Y-42797883D03*
D12*
G04 #@! TD*
G04 #@! TO.N,Net-(C4-Pad1)*
G04 #@! TO.C,U1*
G36*
X165104004Y-42002388D02*
X165669689Y-42568073D01*
X164644384Y-43593378D01*
X164078699Y-43027693D01*
X165104004Y-42002388D01*
X165104004Y-42002388D01*
G37*
D18*
G04 #@! TO.P,Y1,1*
G04 #@! TO.N,Net-(C4-Pad1)*
X166555614Y-40836782D03*
D12*
G04 #@! TD*
G04 #@! TO.N,Net-(C4-Pad1)*
G04 #@! TO.C,Y1*
G36*
X166025284Y-41791376D02*
X165601020Y-41367112D01*
X167085944Y-39882188D01*
X167510208Y-40306452D01*
X166025284Y-41791376D01*
X166025284Y-41791376D01*
G37*
D18*
G04 #@! TO.P,Y1,2*
G04 #@! TO.N,Net-(Y1-Pad2)*
X171646782Y-35745614D03*
D12*
G04 #@! TD*
G04 #@! TO.N,Net-(Y1-Pad2)*
G04 #@! TO.C,Y1*
G36*
X171116452Y-36700208D02*
X170692188Y-36275944D01*
X172177112Y-34791020D01*
X172601376Y-35215284D01*
X171116452Y-36700208D01*
X171116452Y-36700208D01*
G37*
D18*
G04 #@! TO.P,Y1,3*
G04 #@! TO.N,Net-(Y1-Pad3)*
X171010386Y-35109218D03*
D12*
G04 #@! TD*
G04 #@! TO.N,Net-(Y1-Pad3)*
G04 #@! TO.C,Y1*
G36*
X170480056Y-36063812D02*
X170055792Y-35639548D01*
X171540716Y-34154624D01*
X171964980Y-34578888D01*
X170480056Y-36063812D01*
X170480056Y-36063812D01*
G37*
D18*
G04 #@! TO.P,Y1,4*
G04 #@! TO.N,Net-(C5-Pad2)*
X165919218Y-40200386D03*
D12*
G04 #@! TD*
G04 #@! TO.N,Net-(C5-Pad2)*
G04 #@! TO.C,Y1*
G36*
X165388888Y-41154980D02*
X164964624Y-40730716D01*
X166449548Y-39245792D01*
X166873812Y-39670056D01*
X165388888Y-41154980D01*
X165388888Y-41154980D01*
G37*
D19*
G04 #@! TO.N,+5V*
X152247600Y-51816000D03*
X151231600Y-45872400D03*
X162229800Y-45440600D03*
X155600400Y-53213000D03*
X142290800Y-43307000D03*
G04 #@! TO.N,GND*
X154703457Y-49360142D03*
X147294600Y-44907200D03*
X148412200Y-43789600D03*
X161086800Y-41198800D03*
X152870622Y-46698622D03*
G04 #@! TO.N,Net-(IC1-Pad16)*
X150571200Y-49022000D03*
G04 #@! TO.N,/Red*
X151231600Y-42764575D03*
X154940000Y-58496200D03*
G04 #@! TO.N,/Green*
X147167600Y-55854600D03*
X144297400Y-53187600D03*
G04 #@! TO.N,/Blue*
X144830800Y-55880000D03*
X144830800Y-53848000D03*
G04 #@! TO.N,/OE*
X146786600Y-51689000D03*
G04 #@! TO.N,/Sel*
X147574000Y-52730400D03*
G04 #@! TO.N,/CLK*
X149377400Y-55270400D03*
G04 #@! TO.N,/Switch*
X154914600Y-57454800D03*
X156960950Y-51169950D03*
G04 #@! TO.N,/G_latch*
X142733650Y-48071150D03*
X154515717Y-47696285D03*
G04 #@! TO.N,/R_latch*
X157784800Y-46761400D03*
X144957800Y-48818800D03*
G04 #@! TD*
D20*
G04 #@! TO.N,+5V*
X156845000Y-57328800D02*
X155779200Y-57328800D01*
X155779200Y-57328800D02*
X154965400Y-56515000D01*
X154965400Y-56515000D02*
X154965400Y-54847627D01*
X152247600Y-52129827D02*
X152247600Y-51816000D01*
X153355990Y-53238217D02*
X152247600Y-52129827D01*
X150977601Y-46126399D02*
X151231600Y-45872400D01*
X150936851Y-46167149D02*
X150977601Y-46126399D01*
X149679035Y-46167149D02*
X150936851Y-46167149D01*
X149042639Y-45530753D02*
X149679035Y-46167149D01*
X149679035Y-46607421D02*
X149679035Y-46167149D01*
X161161883Y-46510194D02*
X161161883Y-46508517D01*
X161161883Y-46508517D02*
X162229800Y-45440600D01*
D21*
X141153001Y-64121182D02*
X140830419Y-63798600D01*
X140728458Y-66198600D02*
X141153001Y-65774057D01*
X140370800Y-66198600D02*
X140728458Y-66198600D01*
X141153001Y-65774057D02*
X141153001Y-64121182D01*
D22*
X142234001Y-60816263D02*
X142234001Y-64369599D01*
X136474200Y-57734200D02*
X139151938Y-57734200D01*
X139151938Y-57734200D02*
X142234001Y-60816263D01*
X142234001Y-64369599D02*
X141655800Y-64947800D01*
D21*
X141663002Y-63798600D02*
X142234001Y-64369599D01*
X140370800Y-63798600D02*
X141663002Y-63798600D01*
X141401418Y-64369599D02*
X142234001Y-64369599D01*
X140830419Y-63798600D02*
X141401418Y-64369599D01*
X140370800Y-63798600D02*
X140830419Y-63798600D01*
X142234001Y-64795018D02*
X142234001Y-64369599D01*
X140830419Y-66198600D02*
X142234001Y-64795018D01*
X140370800Y-66198600D02*
X140830419Y-66198600D01*
D20*
X156845000Y-57328800D02*
X156845000Y-62103000D01*
X154578401Y-64369599D02*
X142234001Y-64369599D01*
X156845000Y-62103000D02*
X154578401Y-64369599D01*
D22*
X133324600Y-57734200D02*
X136474200Y-57734200D01*
X130683000Y-55092600D02*
X133324600Y-57734200D01*
X130683000Y-32791400D02*
X130683000Y-55092600D01*
X141224000Y-31216600D02*
X132257800Y-31216600D01*
X132257800Y-31216600D02*
X130683000Y-32791400D01*
D20*
X154487361Y-52106847D02*
X155593514Y-53213000D01*
X155593514Y-53213000D02*
X155600400Y-53213000D01*
X154473773Y-54339627D02*
X154457400Y-54339627D01*
X155600400Y-53213000D02*
X154473773Y-54339627D01*
X154965400Y-54847627D02*
X154457400Y-54339627D01*
X154457400Y-54339627D02*
X153355990Y-53238217D01*
X161544000Y-46892311D02*
X161161883Y-46510194D01*
X155600400Y-53213000D02*
X161544000Y-47269400D01*
X161544000Y-47269400D02*
X161544000Y-46892311D01*
X148987936Y-47298520D02*
X149679035Y-46607421D01*
X148547664Y-47298520D02*
X148987936Y-47298520D01*
X147911268Y-46662124D02*
X148547664Y-47298520D01*
X145493059Y-47357511D02*
X144927374Y-46791826D01*
X145674943Y-47357511D02*
X145493059Y-47357511D01*
X147006726Y-46025728D02*
X145674943Y-47357511D01*
X147274872Y-46025728D02*
X147006726Y-46025728D01*
X147911268Y-46662124D02*
X147274872Y-46025728D01*
X142290800Y-44155252D02*
X144927374Y-46791826D01*
X142290800Y-43307000D02*
X142290800Y-44155252D01*
G04 #@! TO.N,GND*
X154416651Y-49646948D02*
X154703457Y-49360142D01*
X155053047Y-51541161D02*
X154416651Y-50904765D01*
X154416651Y-50904765D02*
X154416651Y-49646948D01*
X148476953Y-46096439D02*
X147294600Y-44914086D01*
X147294600Y-44914086D02*
X147294600Y-44907200D01*
X149608324Y-44965068D02*
X148432856Y-43789600D01*
X148432856Y-43789600D02*
X148412200Y-43789600D01*
X162180117Y-40103806D02*
X161086800Y-41197123D01*
X161086800Y-41197123D02*
X161086800Y-41198800D01*
X169120739Y-40764487D02*
X169141113Y-40764487D01*
X165892426Y-37536174D02*
X169120739Y-40764487D01*
X165326741Y-36970489D02*
X163867311Y-36970489D01*
X165892426Y-37536174D02*
X165326741Y-36970489D01*
X163867311Y-36970489D02*
X161696400Y-39141400D01*
X161696400Y-39620089D02*
X162180117Y-40103806D01*
X161696400Y-39141400D02*
X161696400Y-39620089D01*
X148412200Y-43789600D02*
X148412200Y-41706800D01*
X149810200Y-40308800D02*
X151765000Y-40308800D01*
X148412200Y-41706800D02*
X149810200Y-40308800D01*
X146812000Y-44907200D02*
X146253200Y-45466000D01*
X147294600Y-44907200D02*
X146812000Y-44907200D01*
X145432119Y-41706800D02*
X148412200Y-41706800D01*
X141224000Y-37498681D02*
X145432119Y-41706800D01*
X141224000Y-36296600D02*
X141224000Y-37498681D01*
X154703457Y-49360142D02*
X152870622Y-47527307D01*
X152870622Y-47527307D02*
X152870622Y-46698622D01*
G04 #@! TO.N,Net-(C4-Pad1)*
X165457557Y-41934839D02*
X166555614Y-40836782D01*
X164874194Y-42797883D02*
X165457557Y-42214520D01*
X165457557Y-42214520D02*
X165457557Y-41934839D01*
X167809145Y-42090313D02*
X167815287Y-42090313D01*
X166555614Y-40836782D02*
X167809145Y-42090313D01*
G04 #@! TO.N,Net-(C5-Pad2)*
X163976168Y-41899858D02*
X164626426Y-41249600D01*
X164870004Y-41249600D02*
X165919218Y-40200386D01*
X164626426Y-41249600D02*
X164870004Y-41249600D01*
X165904986Y-40200386D02*
X165919218Y-40200386D01*
X164566600Y-38862000D02*
X165904986Y-40200386D01*
G04 #@! TO.N,Net-(IC1-Pad11)*
X147911268Y-50975476D02*
X147906524Y-50975476D01*
X160263858Y-45612168D02*
X157093781Y-48782245D01*
X156284177Y-48782245D02*
X153679132Y-46177200D01*
X157093781Y-48782245D02*
X156284177Y-48782245D01*
X152709544Y-46177200D02*
X150093344Y-48793400D01*
X153679132Y-46177200D02*
X152709544Y-46177200D01*
X150104499Y-48782245D02*
X150093344Y-48793400D01*
X150093344Y-48793400D02*
X147911268Y-50975476D01*
G04 #@! TO.N,Net-(IC1-Pad16)*
X150825199Y-49275999D02*
X150571200Y-49022000D01*
X151376091Y-49826891D02*
X150825199Y-49275999D01*
X151376091Y-53167507D02*
X151376091Y-49826891D01*
X150739695Y-53803903D02*
X151376091Y-53167507D01*
G04 #@! TO.N,Net-(J2-Pad3)*
X142685399Y-32677999D02*
X136028801Y-32677999D01*
X143764000Y-33756600D02*
X142685399Y-32677999D01*
X135636000Y-33070800D02*
X135636000Y-33756600D01*
X136028801Y-32677999D02*
X135636000Y-33070800D01*
G04 #@! TO.N,Net-(J2-Pad4)*
X133375400Y-34348700D02*
X133697700Y-34671000D01*
X133375400Y-33761200D02*
X133375400Y-34348700D01*
X140309600Y-34671000D02*
X141224000Y-33756600D01*
X133697700Y-34671000D02*
X140309600Y-34671000D01*
G04 #@! TO.N,/Red*
X150354141Y-42764575D02*
X151231600Y-42764575D01*
X149537614Y-43581102D02*
X150354141Y-42764575D01*
X150174010Y-44399383D02*
X149537614Y-43762987D01*
X149537614Y-43762987D02*
X149537614Y-43581102D01*
X154305000Y-59131200D02*
X154305000Y-60628800D01*
X154940000Y-58496200D02*
X154305000Y-59131200D01*
G04 #@! TO.N,/Green*
X151765000Y-57328800D02*
X148641800Y-57328800D01*
X148641800Y-57328800D02*
X147167600Y-55854600D01*
X144297400Y-52326602D02*
X146779897Y-49844105D01*
X144297400Y-53187600D02*
X144297400Y-52326602D01*
G04 #@! TO.N,/Blue*
X144830800Y-57336082D02*
X144830800Y-55880000D01*
X149225000Y-60628800D02*
X148123518Y-60628800D01*
X148123518Y-60628800D02*
X144830800Y-57336082D01*
X144830800Y-52924573D02*
X147345583Y-50409790D01*
X144830800Y-53848000D02*
X144830800Y-52924573D01*
G04 #@! TO.N,/OE*
X147275157Y-52177557D02*
X147840557Y-52177557D01*
X147840557Y-52177557D02*
X148476953Y-51541161D01*
X146786600Y-51689000D02*
X147275157Y-52177557D01*
G04 #@! TO.N,/Sel*
X147701000Y-52857400D02*
X147574000Y-52730400D01*
X149042639Y-52106847D02*
X148292086Y-52857400D01*
X148292086Y-52857400D02*
X147701000Y-52857400D01*
G04 #@! TO.N,/Data*
X148218027Y-55194200D02*
X136474200Y-55194200D01*
X150174010Y-53238217D02*
X148218027Y-55194200D01*
X133375400Y-52095400D02*
X133375400Y-35636200D01*
X136474200Y-55194200D02*
X133375400Y-52095400D01*
G04 #@! TO.N,/CLK*
X149402800Y-55295800D02*
X149377400Y-55270400D01*
X152790305Y-53803903D02*
X151298408Y-55295800D01*
X151298408Y-55295800D02*
X149402800Y-55295800D01*
X134836000Y-35631600D02*
X134493000Y-35974600D01*
X135636000Y-35631600D02*
X134836000Y-35631600D01*
X134493000Y-50673000D02*
X136474200Y-52654200D01*
X134493000Y-35974600D02*
X134493000Y-50673000D01*
G04 #@! TO.N,/Switch*
X153861999Y-58507401D02*
X154914600Y-57454800D01*
X148516001Y-58507401D02*
X153861999Y-58507401D01*
X146685000Y-57328800D02*
X147337400Y-57328800D01*
X147337400Y-57328800D02*
X148516001Y-58507401D01*
X156944577Y-51169950D02*
X156184417Y-50409790D01*
X156960950Y-51169950D02*
X156944577Y-51169950D01*
G04 #@! TO.N,/G_latch*
X156750103Y-49844105D02*
X155783539Y-48877541D01*
X142236700Y-47574200D02*
X136474200Y-47574200D01*
X142733650Y-48071150D02*
X142236700Y-47574200D01*
X155783539Y-48877541D02*
X154515717Y-47696285D01*
X154515717Y-47696285D02*
X154559000Y-47653002D01*
G04 #@! TO.N,/R_latch*
X156750103Y-47793495D02*
X156752705Y-47793495D01*
X156752705Y-47793495D02*
X157784800Y-46761400D01*
X143662400Y-50114200D02*
X136474200Y-50114200D01*
X144957800Y-48818800D02*
X143662400Y-50114200D01*
G04 #@! TO.N,/SDA*
X155621799Y-46662124D02*
X155618732Y-46662124D01*
X158467806Y-43816117D02*
X155621799Y-46662124D01*
G04 #@! TO.N,/SCL*
X159949195Y-44130779D02*
X159365832Y-44714142D01*
X159949195Y-43948896D02*
X159949195Y-44130779D01*
X158792311Y-42792012D02*
X159949195Y-43948896D01*
X158357474Y-42792012D02*
X158792311Y-42792012D01*
X155053047Y-46096439D02*
X158357474Y-42792012D01*
G04 #@! TO.N,/Reset*
X155123757Y-44894357D02*
X154487361Y-45530753D01*
X155752800Y-44265314D02*
X155123757Y-44894357D01*
X155752800Y-36595118D02*
X155752800Y-44265314D01*
X154604283Y-35446601D02*
X155752800Y-36595118D01*
X144613999Y-35446601D02*
X154604283Y-35446601D01*
X143764000Y-36296600D02*
X144613999Y-35446601D01*
G04 #@! TO.N,/Encoder_A*
X154305000Y-43450373D02*
X154305000Y-37008800D01*
X153355990Y-44399383D02*
X154305000Y-43450373D01*
G04 #@! TO.N,/Encoder_B*
X149877400Y-37008800D02*
X149225000Y-37008800D01*
X150326482Y-37008800D02*
X149877400Y-37008800D01*
X152525140Y-39207458D02*
X150326482Y-37008800D01*
X152525140Y-43568532D02*
X152525140Y-39207458D01*
X152790305Y-43833697D02*
X152525140Y-43568532D01*
G04 #@! TD*
D23*
G04 #@! TO.N,+5V*
X173559001Y-25831000D02*
X129971000Y-25831000D01*
X173559001Y-26072300D02*
X129971000Y-26072300D01*
X173559001Y-26313600D02*
X129971000Y-26313600D01*
X173559001Y-26554900D02*
X129971000Y-26554900D01*
X173559001Y-26796200D02*
X129971000Y-26796200D01*
X173559001Y-27037500D02*
X129971000Y-27037500D01*
X173559001Y-27278800D02*
X129971000Y-27278800D01*
X173559001Y-27520100D02*
X129971000Y-27520100D01*
X173559001Y-27761400D02*
X129971000Y-27761400D01*
X173559001Y-28002700D02*
X129971000Y-28002700D01*
X173559001Y-28244000D02*
X129971000Y-28244000D01*
X173559001Y-28485300D02*
X129971000Y-28485300D01*
X173559001Y-28726600D02*
X129971000Y-28726600D01*
X173559001Y-28967900D02*
X129971000Y-28967900D01*
X173559001Y-29209200D02*
X129971000Y-29209200D01*
X173559001Y-29450500D02*
X129971000Y-29450500D01*
X173559001Y-29691800D02*
X129971000Y-29691800D01*
X140530701Y-29933100D02*
X129971000Y-29933100D01*
X141351000Y-29933100D02*
X141097000Y-29933100D01*
X173559001Y-29933100D02*
X141917300Y-29933100D01*
X140203224Y-30174400D02*
X129971000Y-30174400D01*
X141351000Y-30174400D02*
X141097000Y-30174400D01*
X142584199Y-30174400D02*
X142244777Y-30174400D01*
X173559001Y-30174400D02*
X144943802Y-30174400D01*
X139983319Y-30415700D02*
X129971000Y-30415700D01*
X141351000Y-30415700D02*
X141097000Y-30415700D01*
X142525536Y-30415700D02*
X142464682Y-30415700D01*
X173559001Y-30415700D02*
X145002464Y-30415700D01*
X139866484Y-30657000D02*
X129971000Y-30657000D01*
X141351000Y-30657000D02*
X141097000Y-30657000D01*
X173559001Y-30657000D02*
X145002464Y-30657000D01*
X139802889Y-30898300D02*
X129971000Y-30898300D01*
X141351000Y-30898300D02*
X141097000Y-30898300D01*
X173559001Y-30898300D02*
X145002464Y-30898300D01*
X141371000Y-31139600D02*
X129971000Y-31139600D01*
X173559001Y-31139600D02*
X145002464Y-31139600D01*
X139884161Y-31380900D02*
X129971000Y-31380900D01*
X173559001Y-31380900D02*
X145002464Y-31380900D01*
X139802699Y-31622200D02*
X129971000Y-31622200D01*
X173559001Y-31622200D02*
X145002464Y-31622200D01*
X139902642Y-31863500D02*
X129971000Y-31863500D01*
X173559001Y-31863500D02*
X145002464Y-31863500D01*
X140062878Y-32104800D02*
X129971000Y-32104800D01*
X173559001Y-32104800D02*
X144994865Y-32104800D01*
X135702585Y-32346100D02*
X129971000Y-32346100D01*
X173559001Y-32346100D02*
X144881481Y-32346100D01*
X135472822Y-32587400D02*
X129971000Y-32587400D01*
X143332072Y-32587400D02*
X143241378Y-32587400D01*
X173559001Y-32587400D02*
X144195929Y-32587400D01*
X135247897Y-32828700D02*
X129971000Y-32828700D01*
X173559001Y-32828700D02*
X144591040Y-32828700D01*
X132472717Y-33070000D02*
X129971000Y-33070000D01*
X134729906Y-33070000D02*
X134278084Y-33070000D01*
X173559001Y-33070000D02*
X144785739Y-33070000D01*
X132327942Y-33311300D02*
X129971000Y-33311300D01*
X134587627Y-33311300D02*
X134422859Y-33311300D01*
X142597460Y-33311300D02*
X142390541Y-33311300D01*
X173559001Y-33311300D02*
X144930541Y-33311300D01*
X132286936Y-33552600D02*
X129971000Y-33552600D01*
X134547536Y-33552600D02*
X134463864Y-33552600D01*
X142549463Y-33552600D02*
X142438538Y-33552600D01*
X173559001Y-33552600D02*
X144978538Y-33552600D01*
X132286936Y-33793900D02*
X129971000Y-33793900D01*
X134547536Y-33793900D02*
X134463864Y-33793900D01*
X142516303Y-33793900D02*
X142471696Y-33793900D01*
X171401258Y-33793900D02*
X145011696Y-33793900D01*
X173559001Y-33793900D02*
X171680175Y-33793900D01*
X132292953Y-34035200D02*
X129971000Y-34035200D01*
X134554467Y-34035200D02*
X134457847Y-34035200D01*
X142564300Y-34035200D02*
X142423699Y-34035200D01*
X171110768Y-34035200D02*
X144963699Y-34035200D01*
X173559001Y-34035200D02*
X171970664Y-34035200D01*
X132354846Y-34276500D02*
X129971000Y-34276500D01*
X142630875Y-34276500D02*
X142357124Y-34276500D01*
X170869468Y-34276500D02*
X144897124Y-34276500D01*
X173559001Y-34276500D02*
X172211964Y-34276500D01*
X132570593Y-34517800D02*
X129971000Y-34517800D01*
X142792107Y-34517800D02*
X142195892Y-34517800D01*
X170628168Y-34517800D02*
X144735892Y-34517800D01*
X173559001Y-34517800D02*
X172453264Y-34517800D01*
X133139222Y-34759100D02*
X129971000Y-34759100D01*
X143048607Y-34759100D02*
X141939392Y-34759100D01*
X170386868Y-34759100D02*
X144479392Y-34759100D01*
X173559001Y-34759100D02*
X172694564Y-34759100D01*
X132435362Y-35000400D02*
X129971000Y-35000400D01*
X144513673Y-35000400D02*
X140639372Y-35000400D01*
X170145568Y-35000400D02*
X154704610Y-35000400D01*
X173559001Y-35000400D02*
X172916021Y-35000400D01*
X132316922Y-35241700D02*
X129971000Y-35241700D01*
X140587030Y-35241700D02*
X136695394Y-35241700D01*
X143127030Y-35241700D02*
X141860971Y-35241700D01*
X169904268Y-35241700D02*
X155045961Y-35241700D01*
X173559001Y-35241700D02*
X172984585Y-35241700D01*
X132286936Y-35483000D02*
X129971000Y-35483000D01*
X140287120Y-35483000D02*
X136724464Y-35483000D01*
X142827120Y-35483000D02*
X142160881Y-35483000D01*
X169702170Y-35483000D02*
X155287261Y-35483000D01*
X173559001Y-35483000D02*
X172880719Y-35483000D01*
X132286936Y-35724300D02*
X129971000Y-35724300D01*
X140125889Y-35724300D02*
X136724464Y-35724300D01*
X142665889Y-35724300D02*
X142322112Y-35724300D01*
X169684186Y-35724300D02*
X155528561Y-35724300D01*
X173559001Y-35724300D02*
X172641732Y-35724300D01*
X132303972Y-35965600D02*
X129971000Y-35965600D01*
X140034724Y-35965600D02*
X136706512Y-35965600D01*
X142574724Y-35965600D02*
X142413277Y-35965600D01*
X148355075Y-35965600D02*
X144953276Y-35965600D01*
X169832472Y-35965600D02*
X155769861Y-35965600D01*
X173559001Y-35965600D02*
X172400432Y-35965600D01*
X132391863Y-36206900D02*
X129971000Y-36206900D01*
X139986727Y-36206900D02*
X136616463Y-36206900D01*
X142526727Y-36206900D02*
X142461274Y-36206900D01*
X148336536Y-36206900D02*
X145001274Y-36206900D01*
X170073772Y-36206900D02*
X156011161Y-36206900D01*
X173559001Y-36206900D02*
X172159132Y-36206900D01*
X132653505Y-36448200D02*
X129971000Y-36448200D01*
X139999039Y-36448200D02*
X136351009Y-36448200D01*
X142539039Y-36448200D02*
X142448960Y-36448200D01*
X148336536Y-36448200D02*
X144988960Y-36448200D01*
X165545017Y-36448200D02*
X156189734Y-36448200D01*
X170349060Y-36448200D02*
X165939316Y-36448200D01*
X173559001Y-36448200D02*
X171917832Y-36448200D01*
X132918201Y-36689500D02*
X129971000Y-36689500D01*
X134035800Y-36689500D02*
X133832600Y-36689500D01*
X140047036Y-36689500D02*
X134950200Y-36689500D01*
X142587036Y-36689500D02*
X142400963Y-36689500D01*
X148336536Y-36689500D02*
X144940963Y-36689500D01*
X163501722Y-36689500D02*
X156210000Y-36689500D01*
X170556372Y-36689500D02*
X166284553Y-36689500D01*
X173559001Y-36689500D02*
X171676532Y-36689500D01*
X132918201Y-36930800D02*
X129971000Y-36930800D01*
X134035800Y-36930800D02*
X133832600Y-36930800D01*
X140167248Y-36930800D02*
X134950200Y-36930800D01*
X142707248Y-36930800D02*
X142280751Y-36930800D01*
X148336536Y-36930800D02*
X144820751Y-36930800D01*
X163260422Y-36930800D02*
X156210000Y-36930800D01*
X170797672Y-36930800D02*
X166525853Y-36930800D01*
X173559001Y-36930800D02*
X171435232Y-36930800D01*
X132918201Y-37172100D02*
X129971000Y-37172100D01*
X134035800Y-37172100D02*
X133832600Y-37172100D01*
X140328480Y-37172100D02*
X134950200Y-37172100D01*
X142868480Y-37172100D02*
X142119519Y-37172100D01*
X148336536Y-37172100D02*
X144659519Y-37172100D01*
X163019122Y-37172100D02*
X156210000Y-37172100D01*
X173559001Y-37172100D02*
X166767153Y-37172100D01*
X132918201Y-37413400D02*
X129971000Y-37413400D01*
X134035800Y-37413400D02*
X133832600Y-37413400D01*
X140679669Y-37413400D02*
X134950200Y-37413400D01*
X143219669Y-37413400D02*
X141785298Y-37413400D01*
X148336536Y-37413400D02*
X144308330Y-37413400D01*
X162777822Y-37413400D02*
X156210000Y-37413400D01*
X173559001Y-37413400D02*
X166950714Y-37413400D01*
X132918201Y-37654700D02*
X129971000Y-37654700D01*
X134035800Y-37654700D02*
X133832600Y-37654700D01*
X140788877Y-37654700D02*
X134950200Y-37654700D01*
X148336536Y-37654700D02*
X142026598Y-37654700D01*
X150325803Y-37654700D02*
X150113464Y-37654700D01*
X162536522Y-37654700D02*
X156210000Y-37654700D01*
X173559001Y-37654700D02*
X167013303Y-37654700D01*
X132918201Y-37896000D02*
X129971000Y-37896000D01*
X134035800Y-37896000D02*
X133832600Y-37896000D01*
X140974740Y-37896000D02*
X134950200Y-37896000D01*
X148336536Y-37896000D02*
X142267898Y-37896000D01*
X150567103Y-37896000D02*
X150113464Y-37896000D01*
X162295222Y-37896000D02*
X156210000Y-37896000D01*
X173559001Y-37896000D02*
X166977930Y-37896000D01*
X132918201Y-38137300D02*
X129971000Y-38137300D01*
X134035800Y-38137300D02*
X133832600Y-38137300D01*
X141216040Y-38137300D02*
X134950200Y-38137300D01*
X148386044Y-38137300D02*
X142509198Y-38137300D01*
X150808403Y-38137300D02*
X150063955Y-38137300D01*
X162053922Y-38137300D02*
X156210000Y-38137300D01*
X173559001Y-38137300D02*
X167140131Y-38137300D01*
X132918201Y-38378600D02*
X129971000Y-38378600D01*
X134035800Y-38378600D02*
X133832600Y-38378600D01*
X141457340Y-38378600D02*
X134950200Y-38378600D01*
X151049703Y-38378600D02*
X142750498Y-38378600D01*
X161812622Y-38378600D02*
X156210000Y-38378600D01*
X173559001Y-38378600D02*
X167381431Y-38378600D01*
X132918201Y-38619900D02*
X129971000Y-38619900D01*
X134035800Y-38619900D02*
X133832600Y-38619900D01*
X141698640Y-38619900D02*
X134950200Y-38619900D01*
X151291003Y-38619900D02*
X142991798Y-38619900D01*
X161571322Y-38619900D02*
X156210000Y-38619900D01*
X173559001Y-38619900D02*
X167622731Y-38619900D01*
X132918201Y-38861200D02*
X129971000Y-38861200D01*
X134035800Y-38861200D02*
X133832600Y-38861200D01*
X135328343Y-38861200D02*
X134950200Y-38861200D01*
X141939940Y-38861200D02*
X137620058Y-38861200D01*
X151532303Y-38861200D02*
X143233098Y-38861200D01*
X161333754Y-38861200D02*
X156210000Y-38861200D01*
X173559001Y-38861200D02*
X167864031Y-38861200D01*
X132918201Y-39102500D02*
X129971000Y-39102500D01*
X134035800Y-39102500D02*
X133832600Y-39102500D01*
X135236075Y-39102500D02*
X134950200Y-39102500D01*
X142181240Y-39102500D02*
X137712326Y-39102500D01*
X150978029Y-39102500D02*
X143474398Y-39102500D01*
X161237981Y-39102500D02*
X156210000Y-39102500D01*
X173559001Y-39102500D02*
X168105331Y-39102500D01*
X132918201Y-39343800D02*
X129971000Y-39343800D01*
X134035800Y-39343800D02*
X133832600Y-39343800D01*
X135235736Y-39343800D02*
X134950200Y-39343800D01*
X142422540Y-39343800D02*
X137712664Y-39343800D01*
X150879520Y-39343800D02*
X143715698Y-39343800D01*
X161239200Y-39343800D02*
X156210000Y-39343800D01*
X173559001Y-39343800D02*
X168346631Y-39343800D01*
X132918201Y-39585100D02*
X129971000Y-39585100D01*
X134035800Y-39585100D02*
X133832600Y-39585100D01*
X135235736Y-39585100D02*
X134950200Y-39585100D01*
X142663840Y-39585100D02*
X137712664Y-39585100D01*
X150876536Y-39585100D02*
X143956998Y-39585100D01*
X161237203Y-39585100D02*
X156210000Y-39585100D01*
X173559001Y-39585100D02*
X168587931Y-39585100D01*
X132918201Y-39826400D02*
X129971000Y-39826400D01*
X134035800Y-39826400D02*
X133832600Y-39826400D01*
X135235736Y-39826400D02*
X134950200Y-39826400D01*
X142905140Y-39826400D02*
X137712664Y-39826400D01*
X150876536Y-39826400D02*
X144198298Y-39826400D01*
X161284383Y-39826400D02*
X156210000Y-39826400D01*
X173559001Y-39826400D02*
X169441827Y-39826400D01*
X132918201Y-40067700D02*
X129971000Y-40067700D01*
X134035800Y-40067700D02*
X133832600Y-40067700D01*
X135235736Y-40067700D02*
X134950200Y-40067700D01*
X143146440Y-40067700D02*
X137712664Y-40067700D01*
X149404722Y-40067700D02*
X144439598Y-40067700D01*
X161104077Y-40067700D02*
X156210000Y-40067700D01*
X173559001Y-40067700D02*
X169683127Y-40067700D01*
X132918201Y-40309000D02*
X129971000Y-40309000D01*
X134035800Y-40309000D02*
X133832600Y-40309000D01*
X135235736Y-40309000D02*
X134950200Y-40309000D01*
X143387740Y-40309000D02*
X137712664Y-40309000D01*
X149163422Y-40309000D02*
X144680898Y-40309000D01*
X161001055Y-40309000D02*
X156210000Y-40309000D01*
X168018673Y-40309000D02*
X167898165Y-40309000D01*
X173559001Y-40309000D02*
X169924427Y-40309000D01*
X132918201Y-40550300D02*
X129971000Y-40550300D01*
X134035800Y-40550300D02*
X133832600Y-40550300D01*
X135235736Y-40550300D02*
X134950200Y-40550300D01*
X143629040Y-40550300D02*
X137712664Y-40550300D01*
X148922122Y-40550300D02*
X144922198Y-40550300D01*
X161071180Y-40550300D02*
X156210000Y-40550300D01*
X168026640Y-40550300D02*
X167805499Y-40550300D01*
X173559001Y-40550300D02*
X170138320Y-40550300D01*
X132918201Y-40791600D02*
X129971000Y-40791600D01*
X134035800Y-40791600D02*
X133832600Y-40791600D01*
X135235736Y-40791600D02*
X134950200Y-40791600D01*
X143870340Y-40791600D02*
X137712664Y-40791600D01*
X148680822Y-40791600D02*
X145163498Y-40791600D01*
X160595975Y-40791600D02*
X156210000Y-40791600D01*
X168049205Y-40791600D02*
X167574432Y-40791600D01*
X173559001Y-40791600D02*
X170243807Y-40791600D01*
X132918201Y-41032900D02*
X129971000Y-41032900D01*
X134035800Y-41032900D02*
X133832600Y-41032900D01*
X135318787Y-41032900D02*
X134950200Y-41032900D01*
X144111640Y-41032900D02*
X137629612Y-41032900D01*
X148439522Y-41032900D02*
X145404798Y-41032900D01*
X160468200Y-41032900D02*
X156210000Y-41032900D01*
X168180138Y-41032900D02*
X167939370Y-41032900D01*
X173559001Y-41032900D02*
X170244800Y-41032900D01*
X132918201Y-41274200D02*
X129971000Y-41274200D01*
X134035800Y-41274200D02*
X133832600Y-41274200D01*
X136297661Y-41274200D02*
X134950200Y-41274200D01*
X144352940Y-41274200D02*
X136650740Y-41274200D01*
X160451800Y-41274200D02*
X156210000Y-41274200D01*
X161882112Y-41274200D02*
X161721800Y-41274200D01*
X168412025Y-41274200D02*
X168237975Y-41274200D01*
X173559001Y-41274200D02*
X170141656Y-41274200D01*
X132918201Y-41515500D02*
X129971000Y-41515500D01*
X134035800Y-41515500D02*
X133832600Y-41515500D01*
X135723188Y-41515500D02*
X134950200Y-41515500D01*
X144594240Y-41515500D02*
X137225213Y-41515500D01*
X160530662Y-41515500D02*
X156210000Y-41515500D01*
X162017133Y-41515500D02*
X161642937Y-41515500D01*
X168653325Y-41515500D02*
X168479275Y-41515500D01*
X173559001Y-41515500D02*
X169929421Y-41515500D01*
X132918201Y-41756800D02*
X129971000Y-41756800D01*
X134035800Y-41756800D02*
X133832600Y-41756800D01*
X135486405Y-41756800D02*
X134950200Y-41756800D01*
X144835540Y-41756800D02*
X137461996Y-41756800D01*
X160774596Y-41756800D02*
X156210000Y-41756800D01*
X162258433Y-41756800D02*
X161399003Y-41756800D01*
X166724549Y-41756800D02*
X166609232Y-41756800D01*
X168919601Y-41756800D02*
X168720575Y-41756800D01*
X173559001Y-41756800D02*
X169663144Y-41756800D01*
X132918201Y-41998100D02*
X129971000Y-41998100D01*
X134035800Y-41998100D02*
X133832600Y-41998100D01*
X135325174Y-41998100D02*
X134950200Y-41998100D01*
X145076840Y-41998100D02*
X137623227Y-41998100D01*
X162499733Y-41998100D02*
X156210000Y-41998100D01*
X166699644Y-41998100D02*
X166367932Y-41998100D01*
X173559001Y-41998100D02*
X168893995Y-41998100D01*
X132918201Y-42239400D02*
X129971000Y-42239400D01*
X134035800Y-42239400D02*
X133832600Y-42239400D01*
X135269767Y-42239400D02*
X134950200Y-42239400D01*
X147955001Y-42239400D02*
X137678634Y-42239400D01*
X162814035Y-42239400D02*
X156210000Y-42239400D01*
X166774581Y-42239400D02*
X165918764Y-42239400D01*
X173559001Y-42239400D02*
X168942243Y-42239400D01*
X132918201Y-42480700D02*
X129971000Y-42480700D01*
X134035800Y-42480700D02*
X133832600Y-42480700D01*
X135221770Y-42480700D02*
X134950200Y-42480700D01*
X147955001Y-42480700D02*
X137726631Y-42480700D01*
X158015617Y-42480700D02*
X156210000Y-42480700D01*
X162982333Y-42480700D02*
X159134169Y-42480700D01*
X166966873Y-42480700D02*
X166040774Y-42480700D01*
X173559001Y-42480700D02*
X168894712Y-42480700D01*
X132918201Y-42722000D02*
X129971000Y-42722000D01*
X134035800Y-42722000D02*
X133832600Y-42722000D01*
X135264396Y-42722000D02*
X134950200Y-42722000D01*
X147955001Y-42722000D02*
X137684003Y-42722000D01*
X157780908Y-42722000D02*
X156210000Y-42722000D01*
X163223633Y-42722000D02*
X159368878Y-42722000D01*
X167208173Y-42722000D02*
X166025063Y-42722000D01*
X173559001Y-42722000D02*
X168722921Y-42722000D01*
X132918201Y-42963300D02*
X129971000Y-42963300D01*
X134035800Y-42963300D02*
X133832600Y-42963300D01*
X135312393Y-42963300D02*
X134950200Y-42963300D01*
X147955001Y-42963300D02*
X137636006Y-42963300D01*
X157539608Y-42963300D02*
X156210000Y-42963300D01*
X163464933Y-42963300D02*
X159610178Y-42963300D01*
X167449473Y-42963300D02*
X165823834Y-42963300D01*
X173559001Y-42963300D02*
X168481621Y-42963300D01*
X132918201Y-43204600D02*
X129971000Y-43204600D01*
X134035800Y-43204600D02*
X133832600Y-43204600D01*
X135468363Y-43204600D02*
X134950200Y-43204600D01*
X147955001Y-43204600D02*
X137480036Y-43204600D01*
X157298308Y-43204600D02*
X156210000Y-43204600D01*
X163738679Y-43204600D02*
X159851478Y-43204600D01*
X167900683Y-43204600D02*
X165582534Y-43204600D01*
X173559001Y-43204600D02*
X168030410Y-43204600D01*
X132918201Y-43445900D02*
X129971000Y-43445900D01*
X134035800Y-43445900D02*
X133832600Y-43445900D01*
X135682779Y-43445900D02*
X134950200Y-43445900D01*
X147867247Y-43445900D02*
X137265620Y-43445900D01*
X157057008Y-43445900D02*
X156210000Y-43445900D01*
X163947534Y-43445900D02*
X160092778Y-43445900D01*
X173559001Y-43445900D02*
X165341234Y-43445900D01*
X132918201Y-43687200D02*
X129971000Y-43687200D01*
X134035800Y-43687200D02*
X133832600Y-43687200D01*
X136161921Y-43687200D02*
X134950200Y-43687200D01*
X147777200Y-43687200D02*
X136786478Y-43687200D01*
X156815708Y-43687200D02*
X156210000Y-43687200D01*
X164188834Y-43687200D02*
X160324206Y-43687200D01*
X173559001Y-43687200D02*
X165099934Y-43687200D01*
X132918201Y-43928500D02*
X129971000Y-43928500D01*
X134035800Y-43928500D02*
X133832600Y-43928500D01*
X135913257Y-43928500D02*
X134950200Y-43928500D01*
X147782415Y-43928500D02*
X137035144Y-43928500D01*
X156574408Y-43928500D02*
X156210000Y-43928500D01*
X164460147Y-43928500D02*
X160411296Y-43928500D01*
X173559001Y-43928500D02*
X164828620Y-43928500D01*
X132918201Y-44169800D02*
X129971000Y-44169800D01*
X134035800Y-44169800D02*
X133832600Y-44169800D01*
X135571264Y-44169800D02*
X134950200Y-44169800D01*
X147894375Y-44169800D02*
X137377137Y-44169800D01*
X156333108Y-44169800D02*
X156210000Y-44169800D01*
X173559001Y-44169800D02*
X160407590Y-44169800D01*
X132918201Y-44411100D02*
X129971000Y-44411100D01*
X134035800Y-44411100D02*
X133832600Y-44411100D01*
X135410032Y-44411100D02*
X134950200Y-44411100D01*
X145824837Y-44411100D02*
X137538369Y-44411100D01*
X146892675Y-44411100D02*
X146381044Y-44411100D01*
X148229997Y-44411100D02*
X147696525Y-44411100D01*
X173559001Y-44411100D02*
X160535225Y-44411100D01*
X132918201Y-44652400D02*
X129971000Y-44652400D01*
X134035800Y-44652400D02*
X133832600Y-44652400D01*
X135295029Y-44652400D02*
X134950200Y-44652400D01*
X145527479Y-44652400D02*
X137653372Y-44652400D01*
X147891595Y-44652400D02*
X147876377Y-44652400D01*
X148343891Y-44652400D02*
X147891595Y-44652400D01*
X151928265Y-44652400D02*
X151601735Y-44652400D01*
X173559001Y-44652400D02*
X160878767Y-44652400D01*
X132918201Y-44893700D02*
X129971000Y-44893700D01*
X134035800Y-44893700D02*
X133832600Y-44893700D01*
X135247032Y-44893700D02*
X134950200Y-44893700D01*
X145294476Y-44893700D02*
X137701369Y-44893700D01*
X148585191Y-44893700D02*
X148225981Y-44893700D01*
X152182068Y-44893700D02*
X151347931Y-44893700D01*
X173559001Y-44893700D02*
X161120067Y-44893700D01*
X132918201Y-45135000D02*
X129971000Y-45135000D01*
X134035800Y-45135000D02*
X133832600Y-45135000D01*
X135239134Y-45135000D02*
X134950200Y-45135000D01*
X145161963Y-45135000D02*
X137709265Y-45135000D01*
X148826491Y-45135000D02*
X148467281Y-45135000D01*
X152410864Y-45135000D02*
X151119136Y-45135000D01*
X173559001Y-45135000D02*
X161651512Y-45135000D01*
X132918201Y-45376300D02*
X129971000Y-45376300D01*
X134035800Y-45376300D02*
X133832600Y-45376300D01*
X135287131Y-45376300D02*
X134950200Y-45376300D01*
X144507973Y-45376300D02*
X137661268Y-45376300D01*
X145138057Y-45376300D02*
X145046258Y-45376300D01*
X149081275Y-45376300D02*
X148708581Y-45376300D01*
X152652164Y-45376300D02*
X150877836Y-45376300D01*
X173559001Y-45376300D02*
X161921492Y-45376300D01*
X132918201Y-45617600D02*
X129971000Y-45617600D01*
X134035800Y-45617600D02*
X133832600Y-45617600D01*
X135383505Y-45617600D02*
X134950200Y-45617600D01*
X144213625Y-45617600D02*
X137564894Y-45617600D01*
X149309091Y-45617600D02*
X148936395Y-45617600D01*
X152893465Y-45617600D02*
X150636535Y-45617600D01*
X173559001Y-45617600D02*
X161874871Y-45617600D01*
X132918201Y-45858900D02*
X129971000Y-45858900D01*
X134035800Y-45858900D02*
X133832600Y-45858900D01*
X135544736Y-45858900D02*
X134950200Y-45858900D01*
X144185442Y-45858900D02*
X137403663Y-45858900D01*
X149550391Y-45858900D02*
X149191181Y-45858900D01*
X152372356Y-45858900D02*
X150437779Y-45858900D01*
X161992783Y-45858900D02*
X161633571Y-45858900D01*
X173559001Y-45858900D02*
X162433920Y-45858900D01*
X132918201Y-46100200D02*
X129971000Y-46100200D01*
X134035800Y-46100200D02*
X133832600Y-46100200D01*
X135853841Y-46100200D02*
X134950200Y-46100200D01*
X143731025Y-46100200D02*
X137094558Y-46100200D01*
X144415353Y-46100200D02*
X144056143Y-46100200D01*
X149791691Y-46100200D02*
X149432481Y-46100200D01*
X152139966Y-46100200D02*
X150407994Y-46100200D01*
X161751483Y-46100200D02*
X161392271Y-46100200D01*
X173559001Y-46100200D02*
X162570063Y-46100200D01*
X132918201Y-46341500D02*
X129971000Y-46341500D01*
X134035800Y-46341500D02*
X133832600Y-46341500D01*
X143524658Y-46341500D02*
X134950200Y-46341500D01*
X144656653Y-46341500D02*
X144297443Y-46341500D01*
X150032991Y-46341500D02*
X149673781Y-46341500D01*
X151898666Y-46341500D02*
X150261288Y-46341500D01*
X161510183Y-46341500D02*
X161122688Y-46341500D01*
X173559001Y-46341500D02*
X162592378Y-46341500D01*
X132918201Y-46582800D02*
X129971000Y-46582800D01*
X134035800Y-46582800D02*
X133832600Y-46582800D01*
X135742195Y-46582800D02*
X134950200Y-46582800D01*
X143452685Y-46582800D02*
X137206206Y-46582800D01*
X144897953Y-46582800D02*
X144538743Y-46582800D01*
X148025033Y-46582800D02*
X147782703Y-46582800D01*
X151657366Y-46582800D02*
X149855281Y-46582800D01*
X161414094Y-46582800D02*
X160909671Y-46582800D01*
X173559001Y-46582800D02*
X162519432Y-46582800D01*
X132918201Y-46824100D02*
X129971000Y-46824100D01*
X134035800Y-46824100D02*
X133832600Y-46824100D01*
X135494891Y-46824100D02*
X134950200Y-46824100D01*
X143475973Y-46824100D02*
X137453511Y-46824100D01*
X145102991Y-46824100D02*
X144715495Y-46824100D01*
X148252849Y-46824100D02*
X147880154Y-46824100D01*
X151416066Y-46824100D02*
X149778688Y-46824100D01*
X159731388Y-46824100D02*
X159698504Y-46824100D01*
X161027583Y-46824100D02*
X160668371Y-46824100D01*
X161655394Y-46824100D02*
X161296184Y-46824100D01*
X173559001Y-46824100D02*
X162311688Y-46824100D01*
X132918201Y-47065400D02*
X129971000Y-47065400D01*
X134035800Y-47065400D02*
X133832600Y-47065400D01*
X135333660Y-47065400D02*
X134950200Y-47065400D01*
X143613493Y-47065400D02*
X137614742Y-47065400D01*
X144833405Y-47065400D02*
X144474195Y-47065400D01*
X148494149Y-47065400D02*
X148134939Y-47065400D01*
X151174766Y-47065400D02*
X149306408Y-47065400D01*
X159813851Y-47065400D02*
X159457204Y-47065400D01*
X160786283Y-47065400D02*
X160427071Y-47065400D01*
X173559001Y-47065400D02*
X161537484Y-47065400D01*
X132918201Y-47306700D02*
X129971000Y-47306700D01*
X134035800Y-47306700D02*
X133832600Y-47306700D01*
X135272294Y-47306700D02*
X134950200Y-47306700D01*
X143854793Y-47306700D02*
X142615778Y-47306700D01*
X144592105Y-47306700D02*
X144232895Y-47306700D01*
X148735449Y-47306700D02*
X148376239Y-47306700D01*
X150933466Y-47306700D02*
X149245503Y-47306700D01*
X152413422Y-47306700D02*
X152226623Y-47306700D01*
X160544983Y-47306700D02*
X159215904Y-47306700D01*
X173559001Y-47306700D02*
X161691683Y-47306700D01*
X132918201Y-47548000D02*
X129971000Y-47548000D01*
X134035800Y-47548000D02*
X133832600Y-47548000D01*
X135224296Y-47548000D02*
X134950200Y-47548000D01*
X144350805Y-47548000D02*
X143108525Y-47548000D01*
X150692166Y-47548000D02*
X148617539Y-47548000D01*
X152408581Y-47548000D02*
X151985323Y-47548000D01*
X160402274Y-47548000D02*
X158974604Y-47548000D01*
X173559001Y-47548000D02*
X161587788Y-47548000D01*
X132918201Y-47789300D02*
X129971000Y-47789300D01*
X134035800Y-47789300D02*
X133832600Y-47789300D01*
X135261870Y-47789300D02*
X134950200Y-47789300D01*
X144337393Y-47789300D02*
X143304223Y-47789300D01*
X145745240Y-47789300D02*
X145669306Y-47789300D01*
X145837421Y-47789300D02*
X145817876Y-47789300D01*
X150450866Y-47789300D02*
X148723910Y-47789300D01*
X152495810Y-47789300D02*
X151744023Y-47789300D01*
X160517658Y-47789300D02*
X158733304Y-47789300D01*
X173559001Y-47789300D02*
X161346488Y-47789300D01*
X132918201Y-48030600D02*
X129971000Y-48030600D01*
X134035800Y-48030600D02*
X133832600Y-48030600D01*
X135309867Y-48030600D02*
X134950200Y-48030600D01*
X144578693Y-48030600D02*
X143368650Y-48030600D01*
X146078721Y-48030600D02*
X145576575Y-48030600D01*
X150209566Y-48030600D02*
X148473180Y-48030600D01*
X152727336Y-48030600D02*
X151502723Y-48030600D01*
X173559001Y-48030600D02*
X158492004Y-48030600D01*
X132918201Y-48271900D02*
X129971000Y-48271900D01*
X134035800Y-48271900D02*
X133832600Y-48271900D01*
X135459878Y-48271900D02*
X134950200Y-48271900D01*
X142129484Y-48271900D02*
X137488521Y-48271900D01*
X144618800Y-48271900D02*
X143337815Y-48271900D01*
X146320021Y-48271900D02*
X145296802Y-48271900D01*
X149968266Y-48271900D02*
X147977635Y-48271900D01*
X152968636Y-48271900D02*
X151261423Y-48271900D01*
X173559001Y-48271900D02*
X158250704Y-48271900D01*
X132918201Y-48513200D02*
X129971000Y-48513200D01*
X134035800Y-48513200D02*
X133832600Y-48513200D01*
X135663772Y-48513200D02*
X134950200Y-48513200D01*
X142277675Y-48513200D02*
X137284627Y-48513200D01*
X144397065Y-48513200D02*
X143189625Y-48513200D01*
X146561321Y-48513200D02*
X145518536Y-48513200D01*
X149726966Y-48513200D02*
X147740935Y-48513200D01*
X153209936Y-48513200D02*
X151020123Y-48513200D01*
X173559001Y-48513200D02*
X158009404Y-48513200D01*
X132918201Y-48754500D02*
X129971000Y-48754500D01*
X134035800Y-48754500D02*
X133832600Y-48754500D01*
X136098074Y-48754500D02*
X134950200Y-48754500D01*
X144322800Y-48754500D02*
X136850325Y-48754500D01*
X146802621Y-48754500D02*
X145592800Y-48754500D01*
X149485666Y-48754500D02*
X147499635Y-48754500D01*
X153451236Y-48754500D02*
X151147717Y-48754500D01*
X173559001Y-48754500D02*
X157768104Y-48754500D01*
X132918201Y-48995800D02*
X129971000Y-48995800D01*
X134035800Y-48995800D02*
X133832600Y-48995800D01*
X135932264Y-48995800D02*
X134950200Y-48995800D01*
X144134222Y-48995800D02*
X137016137Y-48995800D01*
X146689921Y-48995800D02*
X145571803Y-48995800D01*
X149244366Y-48995800D02*
X147612335Y-48995800D01*
X153692536Y-48995800D02*
X151206200Y-48995800D01*
X173559001Y-48995800D02*
X157526804Y-48995800D01*
X132918201Y-49237100D02*
X129971000Y-49237100D01*
X134035800Y-49237100D02*
X133832600Y-49237100D01*
X135579750Y-49237100D02*
X134950200Y-49237100D01*
X143892922Y-49237100D02*
X137368651Y-49237100D01*
X146448621Y-49237100D02*
X145437525Y-49237100D01*
X149003066Y-49237100D02*
X147840723Y-49237100D01*
X153933836Y-49237100D02*
X151432879Y-49237100D01*
X173559001Y-49237100D02*
X157150600Y-49237100D01*
X132918201Y-49478400D02*
X129971000Y-49478400D01*
X134035800Y-49478400D02*
X133832600Y-49478400D01*
X135418518Y-49478400D02*
X134950200Y-49478400D01*
X143651622Y-49478400D02*
X137529883Y-49478400D01*
X146207321Y-49478400D02*
X144944778Y-49478400D01*
X148761766Y-49478400D02*
X148094936Y-49478400D01*
X153984021Y-49478400D02*
X151677476Y-49478400D01*
X173559001Y-49478400D02*
X157322679Y-49478400D01*
X132918201Y-49719700D02*
X129971000Y-49719700D01*
X134035800Y-49719700D02*
X133832600Y-49719700D01*
X135297555Y-49719700D02*
X134950200Y-49719700D01*
X145966021Y-49719700D02*
X144703478Y-49719700D01*
X148520466Y-49719700D02*
X148336236Y-49719700D01*
X153959452Y-49719700D02*
X151820927Y-49719700D01*
X173559001Y-49719700D02*
X157563979Y-49719700D01*
X132918201Y-49961000D02*
X129971000Y-49961000D01*
X134035800Y-49961000D02*
X133832600Y-49961000D01*
X135249558Y-49961000D02*
X134950200Y-49961000D01*
X145731474Y-49961000D02*
X144462178Y-49961000D01*
X153959452Y-49961000D02*
X151833291Y-49961000D01*
X173559001Y-49961000D02*
X157798527Y-49961000D01*
X132918201Y-50202300D02*
X129971000Y-50202300D01*
X134035800Y-50202300D02*
X133832600Y-50202300D01*
X135236608Y-50202300D02*
X134950200Y-50202300D01*
X145633887Y-50202300D02*
X144220878Y-50202300D01*
X153959452Y-50202300D02*
X151833291Y-50202300D01*
X173559001Y-50202300D02*
X157896114Y-50202300D01*
X132918201Y-50443600D02*
X129971000Y-50443600D01*
X134035800Y-50443600D02*
X133832600Y-50443600D01*
X135284605Y-50443600D02*
X134950200Y-50443600D01*
X145533824Y-50443600D02*
X143992172Y-50443600D01*
X153959452Y-50443600D02*
X151833291Y-50443600D01*
X173559001Y-50443600D02*
X157815946Y-50443600D01*
X132918201Y-50684900D02*
X129971000Y-50684900D01*
X134029210Y-50684900D02*
X133832600Y-50684900D01*
X135375019Y-50684900D02*
X135151479Y-50684900D01*
X145292524Y-50684900D02*
X137573380Y-50684900D01*
X153959452Y-50684900D02*
X151833291Y-50684900D01*
X173559001Y-50684900D02*
X157590051Y-50684900D01*
X132918201Y-50926200D02*
X129971000Y-50926200D01*
X134112313Y-50926200D02*
X133832600Y-50926200D01*
X135536250Y-50926200D02*
X135392779Y-50926200D01*
X145051224Y-50926200D02*
X137412149Y-50926200D01*
X153674719Y-50926200D02*
X151833291Y-50926200D01*
X173559001Y-50926200D02*
X157547305Y-50926200D01*
X132918201Y-51167500D02*
X129971000Y-51167500D01*
X134340921Y-51167500D02*
X133832600Y-51167500D01*
X135834834Y-51167500D02*
X135634079Y-51167500D01*
X144809924Y-51167500D02*
X137113565Y-51167500D01*
X153727619Y-51167500D02*
X151833291Y-51167500D01*
X173559001Y-51167500D02*
X157595950Y-51167500D01*
X132918201Y-51408800D02*
X129971000Y-51408800D01*
X134582221Y-51408800D02*
X133832600Y-51408800D01*
X144568624Y-51408800D02*
X135875379Y-51408800D01*
X153175274Y-51408800D02*
X151833291Y-51408800D01*
X153968919Y-51408800D02*
X153609709Y-51408800D01*
X173559001Y-51408800D02*
X157549333Y-51408800D01*
X132918201Y-51650100D02*
X129971000Y-51650100D01*
X134823521Y-51650100D02*
X133832600Y-51650100D01*
X144327324Y-51650100D02*
X137187199Y-51650100D01*
X153092221Y-51650100D02*
X151833291Y-51650100D01*
X154210219Y-51650100D02*
X153851009Y-51650100D01*
X173559001Y-51650100D02*
X157378825Y-51650100D01*
X132918201Y-51891400D02*
X129971000Y-51891400D01*
X135064821Y-51891400D02*
X133832600Y-51891400D01*
X144086024Y-51891400D02*
X137445024Y-51891400D01*
X152741789Y-51891400D02*
X151833291Y-51891400D01*
X154451519Y-51891400D02*
X154092309Y-51891400D01*
X173559001Y-51891400D02*
X156383551Y-51891400D01*
X132916662Y-52132700D02*
X129971000Y-52132700D01*
X135306121Y-52132700D02*
X134059279Y-52132700D01*
X143877092Y-52132700D02*
X137606256Y-52132700D01*
X146332275Y-52132700D02*
X146269251Y-52132700D01*
X152543348Y-52132700D02*
X151833291Y-52132700D01*
X154692819Y-52132700D02*
X154320125Y-52132700D01*
X173559001Y-52132700D02*
X156124206Y-52132700D01*
X133011684Y-52374000D02*
X129971000Y-52374000D01*
X135274820Y-52374000D02*
X134300579Y-52374000D01*
X143840201Y-52374000D02*
X137673581Y-52374000D01*
X146825021Y-52374000D02*
X146027951Y-52374000D01*
X152671378Y-52374000D02*
X151833291Y-52374000D01*
X154934119Y-52374000D02*
X154574909Y-52374000D01*
X173559001Y-52374000D02*
X155900951Y-52374000D01*
X133248721Y-52615300D02*
X129971000Y-52615300D01*
X135226822Y-52615300D02*
X134541879Y-52615300D01*
X143840201Y-52615300D02*
X137721579Y-52615300D01*
X146939000Y-52615300D02*
X145786651Y-52615300D01*
X152012783Y-52615300D02*
X151833291Y-52615300D01*
X152912678Y-52615300D02*
X152553468Y-52615300D01*
X155175419Y-52615300D02*
X154816209Y-52615300D01*
X173559001Y-52615300D02*
X155877980Y-52615300D01*
X133490021Y-52856600D02*
X129971000Y-52856600D01*
X135259343Y-52856600D02*
X134783179Y-52856600D01*
X143747186Y-52856600D02*
X137689056Y-52856600D01*
X146939000Y-52856600D02*
X145545351Y-52856600D01*
X151960850Y-52856600D02*
X151833291Y-52856600D01*
X153153978Y-52856600D02*
X152794768Y-52856600D01*
X155416719Y-52856600D02*
X155057509Y-52856600D01*
X173559001Y-52856600D02*
X155767004Y-52856600D01*
X133731321Y-53097900D02*
X129971000Y-53097900D01*
X135307341Y-53097900D02*
X135024479Y-53097900D01*
X143662400Y-53097900D02*
X137641058Y-53097900D01*
X147043475Y-53097900D02*
X145304051Y-53097900D01*
X153408763Y-53097900D02*
X153036068Y-53097900D01*
X173559001Y-53097900D02*
X155298809Y-53097900D01*
X133972621Y-53339200D02*
X129971000Y-53339200D01*
X135451392Y-53339200D02*
X135265779Y-53339200D01*
X143672875Y-53339200D02*
X137497007Y-53339200D01*
X147384438Y-53339200D02*
X145288000Y-53339200D01*
X148594249Y-53339200D02*
X147763561Y-53339200D01*
X153636578Y-53339200D02*
X153263883Y-53339200D01*
X173559001Y-53339200D02*
X155284404Y-53339200D01*
X134213921Y-53580500D02*
X129971000Y-53580500D01*
X135644765Y-53580500D02*
X135507079Y-53580500D01*
X143792275Y-53580500D02*
X137303634Y-53580500D01*
X148835549Y-53580500D02*
X145407317Y-53580500D01*
X153877878Y-53580500D02*
X153518668Y-53580500D01*
X173559001Y-53580500D02*
X154751130Y-53580500D01*
X134455221Y-53821800D02*
X129971000Y-53821800D01*
X136034227Y-53821800D02*
X135748379Y-53821800D01*
X144169159Y-53821800D02*
X136914172Y-53821800D01*
X148943849Y-53821800D02*
X145465800Y-53821800D01*
X154119178Y-53821800D02*
X153759968Y-53821800D01*
X173559001Y-53821800D02*
X154715489Y-53821800D01*
X134696521Y-54063100D02*
X129971000Y-54063100D01*
X144232578Y-54063100D02*
X136997130Y-54063100D01*
X148702549Y-54063100D02*
X145429021Y-54063100D01*
X173559001Y-54063100D02*
X154001268Y-54063100D01*
X134937821Y-54304400D02*
X129971000Y-54304400D01*
X144389175Y-54304400D02*
X137358261Y-54304400D01*
X148461249Y-54304400D02*
X145272425Y-54304400D01*
X173559001Y-54304400D02*
X154168632Y-54304400D01*
X135179121Y-54545700D02*
X129971000Y-54545700D01*
X148219949Y-54545700D02*
X137521397Y-54545700D01*
X173559001Y-54545700D02*
X154065152Y-54545700D01*
X135300082Y-54787000D02*
X129971000Y-54787000D01*
X152835121Y-54787000D02*
X152453786Y-54787000D01*
X173559001Y-54787000D02*
X153487951Y-54787000D01*
X135252084Y-55028300D02*
X129971000Y-55028300D01*
X173559001Y-55028300D02*
X152212486Y-55028300D01*
X135234081Y-55269600D02*
X129971000Y-55269600D01*
X173559001Y-55269600D02*
X151971186Y-55269600D01*
X135282079Y-55510900D02*
X129971000Y-55510900D01*
X148789699Y-55510900D02*
X148556284Y-55510900D01*
X173559001Y-55510900D02*
X151729886Y-55510900D01*
X135366533Y-55752200D02*
X129971000Y-55752200D01*
X144196418Y-55752200D02*
X137581866Y-55752200D01*
X148961175Y-55752200D02*
X147802600Y-55752200D01*
X156198411Y-55752200D02*
X151347459Y-55752200D01*
X157122350Y-55752200D02*
X156567650Y-55752200D01*
X173559001Y-55752200D02*
X157491590Y-55752200D01*
X135527764Y-55993500D02*
X129971000Y-55993500D01*
X144195800Y-55993500D02*
X137420635Y-55993500D01*
X151249094Y-55993500D02*
X147953078Y-55993500D01*
X155832275Y-55993500D02*
X152280907Y-55993500D01*
X156972000Y-55993500D02*
X156718000Y-55993500D01*
X173559001Y-55993500D02*
X157857726Y-55993500D01*
X135815828Y-56234800D02*
X129971000Y-56234800D01*
X144290444Y-56234800D02*
X137132571Y-56234800D01*
X150905180Y-56234800D02*
X148194378Y-56234800D01*
X155717328Y-56234800D02*
X152624821Y-56234800D01*
X156972000Y-56234800D02*
X156718000Y-56234800D01*
X173559001Y-56234800D02*
X157972673Y-56234800D01*
X135726815Y-56476100D02*
X129971000Y-56476100D01*
X144373601Y-56476100D02*
X137221586Y-56476100D01*
X150876536Y-56476100D02*
X148435678Y-56476100D01*
X155710000Y-56476100D02*
X152653464Y-56476100D01*
X156972000Y-56476100D02*
X156718000Y-56476100D01*
X173559001Y-56476100D02*
X157980000Y-56476100D01*
X135430276Y-56717400D02*
X129971000Y-56717400D01*
X144373601Y-56717400D02*
X137518125Y-56717400D01*
X150876536Y-56717400D02*
X148676978Y-56717400D01*
X155710000Y-56717400D02*
X152653464Y-56717400D01*
X156972000Y-56717400D02*
X156718000Y-56717400D01*
X173559001Y-56717400D02*
X157980000Y-56717400D01*
X135210371Y-56958700D02*
X129971000Y-56958700D01*
X144373601Y-56958700D02*
X137738030Y-56958700D01*
X154512675Y-56958700D02*
X152653464Y-56958700D01*
X155710000Y-56958700D02*
X155316525Y-56958700D01*
X156972000Y-56958700D02*
X156718000Y-56958700D01*
X173559001Y-56958700D02*
X157980000Y-56958700D01*
X135106164Y-57200000D02*
X129971000Y-57200000D01*
X144373601Y-57200000D02*
X137842237Y-57200000D01*
X154332823Y-57200000D02*
X152653464Y-57200000D01*
X155866950Y-57200000D02*
X155496378Y-57200000D01*
X156972000Y-57200000D02*
X156718000Y-57200000D01*
X173559001Y-57200000D02*
X157823050Y-57200000D01*
X135066493Y-57441300D02*
X129971000Y-57441300D01*
X144385571Y-57441300D02*
X137881906Y-57441300D01*
X154279600Y-57441300D02*
X152653464Y-57441300D01*
X173559001Y-57441300D02*
X155549600Y-57441300D01*
X144526462Y-57682600D02*
X129971000Y-57682600D01*
X154040222Y-57682600D02*
X152653464Y-57682600D01*
X155710000Y-57682600D02*
X155507560Y-57682600D01*
X156972000Y-57682600D02*
X156718000Y-57682600D01*
X173559001Y-57682600D02*
X157980000Y-57682600D01*
X135120957Y-57923900D02*
X129971000Y-57923900D01*
X136601200Y-57923900D02*
X136347200Y-57923900D01*
X144772040Y-57923900D02*
X137827444Y-57923900D01*
X153798922Y-57923900D02*
X152653464Y-57923900D01*
X155710000Y-57923900D02*
X155343525Y-57923900D01*
X156972000Y-57923900D02*
X156718000Y-57923900D01*
X173559001Y-57923900D02*
X157980000Y-57923900D01*
X135063419Y-58165200D02*
X129971000Y-58165200D01*
X136601200Y-58165200D02*
X136347200Y-58165200D01*
X145013340Y-58165200D02*
X137884980Y-58165200D01*
X155710000Y-58165200D02*
X155490215Y-58165200D01*
X156972000Y-58165200D02*
X156718000Y-58165200D01*
X173559001Y-58165200D02*
X157980000Y-58165200D01*
X135163362Y-58406500D02*
X129971000Y-58406500D01*
X136601200Y-58406500D02*
X136347200Y-58406500D01*
X145254640Y-58406500D02*
X137785037Y-58406500D01*
X147768522Y-58406500D02*
X147548062Y-58406500D01*
X155710576Y-58406500D02*
X155575000Y-58406500D01*
X156972000Y-58406500D02*
X156718000Y-58406500D01*
X173559001Y-58406500D02*
X157979423Y-58406500D01*
X135336225Y-58647800D02*
X129971000Y-58647800D01*
X136601200Y-58647800D02*
X136347200Y-58647800D01*
X145495940Y-58647800D02*
X137612174Y-58647800D01*
X148009822Y-58647800D02*
X147282852Y-58647800D01*
X155815974Y-58647800D02*
X155564524Y-58647800D01*
X156972000Y-58647800D02*
X156718000Y-58647800D01*
X173559001Y-58647800D02*
X157874025Y-58647800D01*
X135556130Y-58889100D02*
X129971000Y-58889100D01*
X136601200Y-58889100D02*
X136347200Y-58889100D01*
X145737240Y-58889100D02*
X137392269Y-58889100D01*
X148264315Y-58889100D02*
X147030396Y-58889100D01*
X156159058Y-58889100D02*
X155445125Y-58889100D01*
X157106050Y-58889100D02*
X156583950Y-58889100D01*
X173559001Y-58889100D02*
X157530941Y-58889100D01*
X136020878Y-59130400D02*
X129971000Y-59130400D01*
X136744814Y-59130400D02*
X136203585Y-59130400D01*
X145978540Y-59130400D02*
X136927521Y-59130400D01*
X153839003Y-59130400D02*
X147271696Y-59130400D01*
X173559001Y-59130400D02*
X155068240Y-59130400D01*
X146219840Y-59371700D02*
X129971000Y-59371700D01*
X148498826Y-59371700D02*
X147512996Y-59371700D01*
X153578826Y-59371700D02*
X149951175Y-59371700D01*
X173559001Y-59371700D02*
X155031175Y-59371700D01*
X146461140Y-59613000D02*
X129971000Y-59613000D01*
X148349625Y-59613000D02*
X147754296Y-59613000D01*
X153429625Y-59613000D02*
X150100376Y-59613000D01*
X173559001Y-59613000D02*
X155180376Y-59613000D01*
X135643022Y-59854300D02*
X129971000Y-59854300D01*
X138643022Y-59854300D02*
X137598578Y-59854300D01*
X146702440Y-59854300D02*
X140598578Y-59854300D01*
X148336536Y-59854300D02*
X147995596Y-59854300D01*
X153416536Y-59854300D02*
X150113464Y-59854300D01*
X173559001Y-59854300D02*
X155193464Y-59854300D01*
X135464042Y-60095600D02*
X129971000Y-60095600D01*
X138464042Y-60095600D02*
X137777559Y-60095600D01*
X146943740Y-60095600D02*
X140777559Y-60095600D01*
X148336536Y-60095600D02*
X148236896Y-60095600D01*
X153416536Y-60095600D02*
X150113464Y-60095600D01*
X173559001Y-60095600D02*
X155193464Y-60095600D01*
X135398081Y-60336900D02*
X129971000Y-60336900D01*
X138398081Y-60336900D02*
X137843519Y-60336900D01*
X147185040Y-60336900D02*
X140843519Y-60336900D01*
X153416536Y-60336900D02*
X150113464Y-60336900D01*
X173559001Y-60336900D02*
X155193464Y-60336900D01*
X135417080Y-60578200D02*
X129971000Y-60578200D01*
X138417080Y-60578200D02*
X137824519Y-60578200D01*
X147426340Y-60578200D02*
X141366141Y-60578200D01*
X153416536Y-60578200D02*
X150113464Y-60578200D01*
X173559001Y-60578200D02*
X155193464Y-60578200D01*
X135529802Y-60819500D02*
X129971000Y-60819500D01*
X138529802Y-60819500D02*
X137711797Y-60819500D01*
X147667640Y-60819500D02*
X141661378Y-60819500D01*
X153416536Y-60819500D02*
X150113464Y-60819500D01*
X173559001Y-60819500D02*
X155193464Y-60819500D01*
X135830936Y-61060800D02*
X129971000Y-61060800D01*
X138830936Y-61060800D02*
X137410663Y-61060800D01*
X147951798Y-61060800D02*
X141785745Y-61060800D01*
X153416536Y-61060800D02*
X150113464Y-61060800D01*
X173559001Y-61060800D02*
X155193464Y-61060800D01*
X140214800Y-61302100D02*
X129971000Y-61302100D01*
X148336536Y-61302100D02*
X141826800Y-61302100D01*
X153416536Y-61302100D02*
X150113464Y-61302100D01*
X173559001Y-61302100D02*
X155193464Y-61302100D01*
X140107726Y-61543400D02*
X129971000Y-61543400D01*
X148336536Y-61543400D02*
X141826331Y-61543400D01*
X153416536Y-61543400D02*
X150113464Y-61543400D01*
X173559001Y-61543400D02*
X155193464Y-61543400D01*
X139786265Y-61784700D02*
X129971000Y-61784700D01*
X148404352Y-61784700D02*
X141765738Y-61784700D01*
X153484352Y-61784700D02*
X150045647Y-61784700D01*
X173559001Y-61784700D02*
X155125647Y-61784700D01*
X139244965Y-62026000D02*
X129971000Y-62026000D01*
X173559001Y-62026000D02*
X141621544Y-62026000D01*
X139043860Y-62267300D02*
X129971000Y-62267300D01*
X173559001Y-62267300D02*
X141249534Y-62267300D01*
X138964800Y-62508600D02*
X129971000Y-62508600D01*
X173559001Y-62508600D02*
X141006562Y-62508600D01*
X138969301Y-62749900D02*
X129971000Y-62749900D01*
X173559001Y-62749900D02*
X140817935Y-62749900D01*
X139069251Y-62991200D02*
X129971000Y-62991200D01*
X173559001Y-62991200D02*
X140842603Y-62991200D01*
X138975433Y-63232500D02*
X129971000Y-63232500D01*
X173559001Y-63232500D02*
X140757295Y-63232500D01*
X138964800Y-63473800D02*
X129971000Y-63473800D01*
X140875205Y-63473800D02*
X140515995Y-63473800D01*
X173559001Y-63473800D02*
X141289827Y-63473800D01*
X139037729Y-63715100D02*
X129971000Y-63715100D01*
X140633905Y-63715100D02*
X140303870Y-63715100D01*
X173559001Y-63715100D02*
X141327169Y-63715100D01*
X139006954Y-63956400D02*
X129971000Y-63956400D01*
X173559001Y-63956400D02*
X141327126Y-63956400D01*
X138964800Y-64197700D02*
X129971000Y-64197700D01*
X173559001Y-64197700D02*
X141251993Y-64197700D01*
X139006208Y-64439000D02*
X129971000Y-64439000D01*
X173559001Y-64439000D02*
X141111124Y-64439000D01*
X139154065Y-64680300D02*
X129971000Y-64680300D01*
X173559001Y-64680300D02*
X141076800Y-64680300D01*
X139740421Y-64921600D02*
X129971000Y-64921600D01*
X173559001Y-64921600D02*
X141001178Y-64921600D01*
X139360649Y-65162900D02*
X129971000Y-65162900D01*
X173559001Y-65162900D02*
X141037339Y-65162900D01*
X139069997Y-65404200D02*
X129971000Y-65404200D01*
X173559001Y-65404200D02*
X141076800Y-65404200D01*
X138970048Y-65645500D02*
X129971000Y-65645500D01*
X173559001Y-65645500D02*
X141103508Y-65645500D01*
X138964800Y-65886800D02*
X129971000Y-65886800D01*
X173559001Y-65886800D02*
X141295212Y-65886800D01*
X139043114Y-66128100D02*
X129971000Y-66128100D01*
X140508190Y-66128100D02*
X140298485Y-66128100D01*
X173559001Y-66128100D02*
X141328354Y-66128100D01*
X139001569Y-66369400D02*
X129971000Y-66369400D01*
X140721205Y-66369400D02*
X140340032Y-66369400D01*
X173559001Y-66369400D02*
X141323078Y-66369400D01*
X138964800Y-66610700D02*
X129971000Y-66610700D01*
X140962505Y-66610700D02*
X140603295Y-66610700D01*
X173559001Y-66610700D02*
X141247945Y-66610700D01*
X139011592Y-66852000D02*
X129971000Y-66852000D01*
X173559001Y-66852000D02*
X140844595Y-66852000D01*
X139033091Y-67093300D02*
X129971000Y-67093300D01*
X173559001Y-67093300D02*
X140754329Y-67093300D01*
X138964800Y-67334600D02*
X129971000Y-67334600D01*
X173559001Y-67334600D02*
X140905235Y-67334600D01*
X138980071Y-67575900D02*
X129971000Y-67575900D01*
X173559001Y-67575900D02*
X141042724Y-67575900D01*
X139090965Y-67817200D02*
X129971000Y-67817200D01*
X173559001Y-67817200D02*
X141076800Y-67817200D01*
X139419072Y-68058500D02*
X129971000Y-68058500D01*
X173559001Y-68058500D02*
X141549846Y-68058500D01*
X139873565Y-68299800D02*
X129971000Y-68299800D01*
X173559001Y-68299800D02*
X141715322Y-68299800D01*
X140264800Y-68541100D02*
X129971000Y-68541100D01*
X173559001Y-68541100D02*
X141776800Y-68541100D01*
X140278643Y-68782400D02*
X129971000Y-68782400D01*
X173559001Y-68782400D02*
X141762956Y-68782400D01*
X135675809Y-69023700D02*
X129971000Y-69023700D01*
X138675809Y-69023700D02*
X137565792Y-69023700D01*
X173559001Y-69023700D02*
X141663006Y-69023700D01*
X135476717Y-69265000D02*
X129971000Y-69265000D01*
X138476717Y-69265000D02*
X137764884Y-69265000D01*
X173559001Y-69265000D02*
X141387491Y-69265000D01*
X135399716Y-69506300D02*
X129971000Y-69506300D01*
X138399716Y-69506300D02*
X137841885Y-69506300D01*
X173559001Y-69506300D02*
X140841885Y-69506300D01*
X135410993Y-69747600D02*
X129971000Y-69747600D01*
X138410993Y-69747600D02*
X137830606Y-69747600D01*
X173559001Y-69747600D02*
X140830606Y-69747600D01*
X135509356Y-69988900D02*
X129971000Y-69988900D01*
X138509356Y-69988900D02*
X137732243Y-69988900D01*
X173559001Y-69988900D02*
X140732243Y-69988900D01*
X135760666Y-70230200D02*
X129971000Y-70230200D01*
X138760666Y-70230200D02*
X137480933Y-70230200D01*
X173559001Y-70230200D02*
X140480933Y-70230200D01*
X173559001Y-70471500D02*
X129971000Y-70471500D01*
X173559001Y-70712800D02*
X129971000Y-70712800D01*
X173559001Y-70954100D02*
X129971000Y-70954100D01*
X173559001Y-71195400D02*
X129971000Y-71195400D01*
X173559001Y-71436700D02*
X129971000Y-71436700D01*
X173559001Y-71678000D02*
X129971000Y-71678000D01*
X173559001Y-25831000D02*
X173559001Y-25831000D01*
X173317701Y-71806600D02*
X173317701Y-25831000D01*
X173076401Y-71806600D02*
X173076401Y-25831000D01*
X172835101Y-34899637D02*
X172835101Y-25831000D01*
X172835101Y-71806600D02*
X172835101Y-35530931D01*
X172593801Y-34658337D02*
X172593801Y-25831000D01*
X172593801Y-71806600D02*
X172593801Y-35772231D01*
X172352501Y-34449987D02*
X172352501Y-25831000D01*
X172352501Y-71806600D02*
X172352501Y-36013531D01*
X172111201Y-34175737D02*
X172111201Y-25831000D01*
X172111201Y-71806600D02*
X172111201Y-36254831D01*
X171869901Y-33934437D02*
X171869901Y-25831000D01*
X171869901Y-71806600D02*
X171869901Y-36496131D01*
X171628601Y-33783642D02*
X171628601Y-25831000D01*
X171628601Y-71806600D02*
X171628601Y-36737431D01*
X171387301Y-33798907D02*
X171387301Y-25831000D01*
X171387301Y-71806600D02*
X171387301Y-36977458D01*
X171146001Y-33999967D02*
X171146001Y-25831000D01*
X171146001Y-71806600D02*
X171146001Y-37082795D01*
X170904701Y-34241267D02*
X170904701Y-25831000D01*
X170904701Y-71806600D02*
X170904701Y-37016945D01*
X170663401Y-34482567D02*
X170663401Y-25831000D01*
X170663401Y-71806600D02*
X170663401Y-36796529D01*
X170422101Y-34723867D02*
X170422101Y-25831000D01*
X170422101Y-71806600D02*
X170422101Y-36555229D01*
X170180801Y-34965167D02*
X170180801Y-25831000D01*
X170180801Y-40613878D02*
X170180801Y-36313929D01*
X170180801Y-71806600D02*
X170180801Y-41215617D01*
X169939501Y-35206467D02*
X169939501Y-25831000D01*
X169939501Y-40324074D02*
X169939501Y-36072629D01*
X169939501Y-71806600D02*
X169939501Y-41505420D01*
X169698201Y-35488938D02*
X169698201Y-25831000D01*
X169698201Y-40082774D02*
X169698201Y-35790157D01*
X169698201Y-71806600D02*
X169698201Y-41733376D01*
X169456901Y-35639548D02*
X169456901Y-25831000D01*
X169456901Y-39841474D02*
X169456901Y-35639548D01*
X169456901Y-71806600D02*
X169456901Y-41858751D01*
X169215601Y-35639548D02*
X169215601Y-25831000D01*
X169215601Y-39682003D02*
X169215601Y-35639548D01*
X169215601Y-71806600D02*
X169215601Y-41876604D01*
X168974301Y-35639548D02*
X168974301Y-25831000D01*
X168974301Y-39640590D02*
X168974301Y-35639548D01*
X168974301Y-71806600D02*
X168974301Y-41793348D01*
X168733001Y-35639548D02*
X168733001Y-25831000D01*
X168733001Y-39696055D02*
X168733001Y-35639548D01*
X168733001Y-41769226D02*
X168733001Y-41595176D01*
X168733001Y-71806600D02*
X168733001Y-42711920D01*
X168491701Y-35639548D02*
X168491701Y-25831000D01*
X168491701Y-39488870D02*
X168491701Y-35639548D01*
X168491701Y-41527926D02*
X168491701Y-41353876D01*
X168491701Y-71806600D02*
X168491701Y-42953220D01*
X168250401Y-35639548D02*
X168250401Y-25831000D01*
X168250401Y-39247570D02*
X168250401Y-35639548D01*
X168250401Y-41286626D02*
X168250401Y-41112576D01*
X168250401Y-71806600D02*
X168250401Y-43140703D01*
X168009101Y-35639548D02*
X168009101Y-25831000D01*
X168009101Y-39006270D02*
X168009101Y-35639548D01*
X168009101Y-41079494D02*
X168009101Y-40299427D01*
X168009101Y-71806600D02*
X168009101Y-43208839D01*
X167767801Y-35639548D02*
X167767801Y-25831000D01*
X167767801Y-38764970D02*
X167767801Y-35639548D01*
X167767801Y-40983567D02*
X167767801Y-40598231D01*
X167767801Y-71806600D02*
X167767801Y-43178168D01*
X167526501Y-35639548D02*
X167526501Y-25831000D01*
X167526501Y-38523670D02*
X167526501Y-35639548D01*
X167526501Y-40990678D02*
X167526501Y-40839531D01*
X167526501Y-71806600D02*
X167526501Y-43037674D01*
X167285201Y-35639548D02*
X167285201Y-25831000D01*
X167285201Y-38282370D02*
X167285201Y-35639548D01*
X167285201Y-71806600D02*
X167285201Y-42799028D01*
X167043901Y-35639548D02*
X167043901Y-25831000D01*
X167043901Y-38041070D02*
X167043901Y-35639548D01*
X167043901Y-71806600D02*
X167043901Y-42557728D01*
X166802601Y-35639548D02*
X166802601Y-25831000D01*
X166802601Y-37207548D02*
X166802601Y-35639548D01*
X166802601Y-71806600D02*
X166802601Y-42281334D01*
X166561301Y-35639548D02*
X166561301Y-25831000D01*
X166561301Y-36966248D02*
X166561301Y-35639548D01*
X166561301Y-71806600D02*
X166561301Y-41804731D01*
X166320001Y-35639548D02*
X166320001Y-25831000D01*
X166320001Y-36724948D02*
X166320001Y-35639548D01*
X166320001Y-71806600D02*
X166320001Y-42046031D01*
X166078701Y-35639548D02*
X166078701Y-25831000D01*
X166078701Y-36520317D02*
X166078701Y-35639548D01*
X166078701Y-71806600D02*
X166078701Y-42169215D01*
X165837401Y-35639548D02*
X165837401Y-25831000D01*
X165837401Y-36427929D02*
X165837401Y-35639548D01*
X165837401Y-71806600D02*
X165837401Y-42949733D01*
X165596101Y-35639548D02*
X165596101Y-25831000D01*
X165596101Y-36438038D02*
X165596101Y-35639548D01*
X165596101Y-71806600D02*
X165596101Y-43191033D01*
X165354801Y-35639548D02*
X165354801Y-25831000D01*
X165354801Y-36509914D02*
X165354801Y-35639548D01*
X165354801Y-71806600D02*
X165354801Y-43432333D01*
X165113501Y-35639548D02*
X165113501Y-25831000D01*
X165113501Y-36513289D02*
X165113501Y-35639548D01*
X165113501Y-71806600D02*
X165113501Y-43673633D01*
X164872201Y-35639548D02*
X164872201Y-25831000D01*
X164872201Y-36513289D02*
X164872201Y-35639548D01*
X164872201Y-71806600D02*
X164872201Y-43899381D01*
X164630901Y-35639548D02*
X164630901Y-25831000D01*
X164630901Y-36513289D02*
X164630901Y-35639548D01*
X164630901Y-71806600D02*
X164630901Y-43979160D01*
X164389601Y-35639548D02*
X164389601Y-25831000D01*
X164389601Y-36513289D02*
X164389601Y-35639548D01*
X164389601Y-71806600D02*
X164389601Y-43881362D01*
X164148301Y-35639548D02*
X164148301Y-25831000D01*
X164148301Y-36513289D02*
X164148301Y-35639548D01*
X164148301Y-71806600D02*
X164148301Y-43646667D01*
X163907001Y-35639548D02*
X163907001Y-25831000D01*
X163907001Y-36512227D02*
X163907001Y-35639548D01*
X163907001Y-71806600D02*
X163907001Y-43405367D01*
X163665701Y-35639548D02*
X163665701Y-25831000D01*
X163665701Y-36555330D02*
X163665701Y-35639548D01*
X163665701Y-71806600D02*
X163665701Y-43067773D01*
X163424401Y-35639548D02*
X163424401Y-25831000D01*
X163424401Y-36766820D02*
X163424401Y-35639548D01*
X163424401Y-71806600D02*
X163424401Y-42922768D01*
X163183101Y-35639548D02*
X163183101Y-25831000D01*
X163183101Y-37008120D02*
X163183101Y-35639548D01*
X163183101Y-71806600D02*
X163183101Y-42681468D01*
X162941801Y-35639548D02*
X162941801Y-25831000D01*
X162941801Y-37249420D02*
X162941801Y-35639548D01*
X162941801Y-71806600D02*
X162941801Y-42440168D01*
X162700501Y-35639548D02*
X162700501Y-25831000D01*
X162700501Y-37490720D02*
X162700501Y-35639548D01*
X162700501Y-71806600D02*
X162700501Y-42156385D01*
X162459201Y-35639548D02*
X162459201Y-25831000D01*
X162459201Y-37732020D02*
X162459201Y-35639548D01*
X162459201Y-45884182D02*
X162459201Y-41957568D01*
X162459201Y-71806600D02*
X162459201Y-46676587D01*
X162217901Y-35639548D02*
X162217901Y-25831000D01*
X162217901Y-37973320D02*
X162217901Y-35639548D01*
X162217901Y-45750585D02*
X162217901Y-41716268D01*
X162217901Y-71806600D02*
X162217901Y-46917887D01*
X161976601Y-35639548D02*
X161976601Y-25831000D01*
X161976601Y-38214620D02*
X161976601Y-35639548D01*
X161976601Y-45875081D02*
X161976601Y-41459394D01*
X161976601Y-71806600D02*
X161976601Y-47039994D01*
X161735301Y-35639548D02*
X161735301Y-25831000D01*
X161735301Y-38455920D02*
X161735301Y-35639548D01*
X161735301Y-45169707D02*
X161735301Y-41213863D01*
X161735301Y-46116381D02*
X161735301Y-45757171D01*
X161735301Y-71806600D02*
X161735301Y-46904007D01*
X161494001Y-35639548D02*
X161494001Y-25831000D01*
X161494001Y-38697220D02*
X161494001Y-35639548D01*
X161494001Y-45079699D02*
X161494001Y-41689624D01*
X161494001Y-46357681D02*
X161494001Y-45998471D01*
X161494001Y-47021917D02*
X161494001Y-46662707D01*
X161494001Y-71806600D02*
X161494001Y-47641787D01*
X161252701Y-35639548D02*
X161252701Y-25831000D01*
X161252701Y-39028496D02*
X161252701Y-35639548D01*
X161252701Y-39916165D02*
X161252701Y-39732992D01*
X161252701Y-45026334D02*
X161252701Y-41817401D01*
X161252701Y-46510194D02*
X161252701Y-46239771D01*
X161252701Y-46780617D02*
X161252701Y-46510194D01*
X161252701Y-71806600D02*
X161252701Y-47860200D01*
X161011401Y-35639548D02*
X161011401Y-25831000D01*
X161011401Y-40256983D02*
X161011401Y-35639548D01*
X161011401Y-40563800D02*
X161011401Y-40410248D01*
X161011401Y-44785034D02*
X161011401Y-41833800D01*
X161011401Y-46510194D02*
X161011401Y-46452787D01*
X161011401Y-46840281D02*
X161011401Y-46510194D01*
X161011401Y-71806600D02*
X161011401Y-47940689D01*
X160770101Y-35639548D02*
X160770101Y-25831000D01*
X160770101Y-40642662D02*
X160770101Y-35639548D01*
X160770101Y-44543734D02*
X160770101Y-41754937D01*
X160770101Y-47081581D02*
X160770101Y-46722371D01*
X160770101Y-71806600D02*
X160770101Y-47925917D01*
X160528801Y-35639548D02*
X160528801Y-25831000D01*
X160528801Y-40886594D02*
X160528801Y-35639548D01*
X160528801Y-44378807D02*
X160528801Y-41511005D01*
X160528801Y-47322881D02*
X160528801Y-46963671D01*
X160528801Y-71806600D02*
X160528801Y-47800442D01*
X160287501Y-35639548D02*
X160287501Y-25831000D01*
X160287501Y-41072491D02*
X160287501Y-35639548D01*
X160287501Y-43632269D02*
X160287501Y-41072491D01*
X160287501Y-47449409D02*
X160287501Y-47204971D01*
X160287501Y-71806600D02*
X160287501Y-47449409D01*
X160046201Y-35639548D02*
X160046201Y-25831000D01*
X160046201Y-41072491D02*
X160046201Y-35639548D01*
X160046201Y-43399324D02*
X160046201Y-41072491D01*
X160046201Y-47449409D02*
X160046201Y-47269803D01*
X160046201Y-71806600D02*
X160046201Y-47449409D01*
X159804901Y-35639548D02*
X159804901Y-25831000D01*
X159804901Y-41072491D02*
X159804901Y-35639548D01*
X159804901Y-43158024D02*
X159804901Y-41072491D01*
X159804901Y-47449409D02*
X159804901Y-47043790D01*
X159804901Y-71806600D02*
X159804901Y-47449409D01*
X159563601Y-35639548D02*
X159563601Y-25831000D01*
X159563601Y-41072491D02*
X159563601Y-35639548D01*
X159563601Y-42916724D02*
X159563601Y-41072491D01*
X159563601Y-47449409D02*
X159563601Y-46959004D01*
X159563601Y-71806600D02*
X159563601Y-47449409D01*
X159322301Y-35639548D02*
X159322301Y-25831000D01*
X159322301Y-41072491D02*
X159322301Y-35639548D01*
X159322301Y-42675424D02*
X159322301Y-41072491D01*
X159322301Y-47449409D02*
X159322301Y-47200304D01*
X159322301Y-71806600D02*
X159322301Y-47449409D01*
X159081001Y-35639548D02*
X159081001Y-25831000D01*
X159081001Y-41072491D02*
X159081001Y-35639548D01*
X159081001Y-42435039D02*
X159081001Y-41072491D01*
X159081001Y-47449409D02*
X159081001Y-47441604D01*
X159081001Y-71806600D02*
X159081001Y-47449409D01*
X158839701Y-35639548D02*
X158839701Y-25831000D01*
X158839701Y-41072491D02*
X158839701Y-35639548D01*
X158839701Y-42335282D02*
X158839701Y-41072491D01*
X158839701Y-71806600D02*
X158839701Y-47682903D01*
X158598401Y-35639548D02*
X158598401Y-25831000D01*
X158598401Y-41072491D02*
X158598401Y-35639548D01*
X158598401Y-42334812D02*
X158598401Y-41072491D01*
X158598401Y-71806600D02*
X158598401Y-47924203D01*
X158357101Y-35639548D02*
X158357101Y-25831000D01*
X158357101Y-41072491D02*
X158357101Y-35639548D01*
X158357101Y-42325929D02*
X158357101Y-41072491D01*
X158357101Y-71806600D02*
X158357101Y-48165503D01*
X158115801Y-35639548D02*
X158115801Y-25831000D01*
X158115801Y-41072491D02*
X158115801Y-35639548D01*
X158115801Y-42403622D02*
X158115801Y-41072491D01*
X158115801Y-71806600D02*
X158115801Y-48406803D01*
X157874501Y-35639548D02*
X157874501Y-25831000D01*
X157874501Y-41072491D02*
X157874501Y-35639548D01*
X157874501Y-42628407D02*
X157874501Y-41072491D01*
X157874501Y-50093644D02*
X157874501Y-48648103D01*
X157874501Y-56010276D02*
X157874501Y-50337029D01*
X157874501Y-57509051D02*
X157874501Y-57148549D01*
X157874501Y-71806600D02*
X157874501Y-58647325D01*
X157633201Y-35639548D02*
X157633201Y-25831000D01*
X157633201Y-41072491D02*
X157633201Y-35639548D01*
X157633201Y-42869707D02*
X157633201Y-41072491D01*
X157633201Y-49788922D02*
X157633201Y-48889403D01*
X157633201Y-55810858D02*
X157633201Y-50641750D01*
X157633201Y-57455800D02*
X157633201Y-57201800D01*
X157633201Y-71806600D02*
X157633201Y-58846743D01*
X157391901Y-35639548D02*
X157391901Y-25831000D01*
X157391901Y-41072491D02*
X157391901Y-35639548D01*
X157391901Y-43111007D02*
X157391901Y-41072491D01*
X157391901Y-49547622D02*
X157391901Y-49132918D01*
X157391901Y-55743800D02*
X157391901Y-51637024D01*
X157391901Y-57455800D02*
X157391901Y-57201800D01*
X157391901Y-71806600D02*
X157391901Y-58913800D01*
X157150601Y-35639548D02*
X157150601Y-25831000D01*
X157150601Y-41072491D02*
X157150601Y-35639548D01*
X157150601Y-43352307D02*
X157150601Y-41072491D01*
X157150601Y-49306322D02*
X157150601Y-49237100D01*
X157150601Y-55743800D02*
X157150601Y-51778713D01*
X157150601Y-57455800D02*
X157150601Y-57201800D01*
X157150601Y-71806600D02*
X157150601Y-58913800D01*
X156909301Y-35639548D02*
X156909301Y-25831000D01*
X156909301Y-41072491D02*
X156909301Y-35639548D01*
X156909301Y-43593607D02*
X156909301Y-41072491D01*
X156909301Y-55902550D02*
X156909301Y-51804950D01*
X156909301Y-57455800D02*
X156909301Y-55902550D01*
X156909301Y-71806600D02*
X156909301Y-57455800D01*
X156668001Y-35639548D02*
X156668001Y-25831000D01*
X156668001Y-41072491D02*
X156668001Y-35639548D01*
X156668001Y-43834907D02*
X156668001Y-41072491D01*
X156668001Y-55852551D02*
X156668001Y-51735925D01*
X156668001Y-57455800D02*
X156668001Y-57201800D01*
X156668001Y-71806600D02*
X156668001Y-58805049D01*
X156426701Y-35639548D02*
X156426701Y-25831000D01*
X156426701Y-41072491D02*
X156426701Y-35639548D01*
X156426701Y-44076207D02*
X156426701Y-41072491D01*
X156426701Y-55743800D02*
X156426701Y-51848250D01*
X156426701Y-57455800D02*
X156426701Y-57201800D01*
X156426701Y-71806600D02*
X156426701Y-58913800D01*
X156185401Y-35639548D02*
X156185401Y-25831000D01*
X156185401Y-36426420D02*
X156185401Y-35639548D01*
X156185401Y-55757588D02*
X156185401Y-52063254D01*
X156185401Y-57455800D02*
X156185401Y-57201800D01*
X156185401Y-71806600D02*
X156185401Y-58900011D01*
X155944101Y-35639548D02*
X155944101Y-25831000D01*
X155944101Y-36139840D02*
X155944101Y-35639548D01*
X155944101Y-55881673D02*
X155944101Y-52330850D01*
X155944101Y-57455800D02*
X155944101Y-57201800D01*
X155944101Y-71806600D02*
X155944101Y-58775926D01*
X155702801Y-35639548D02*
X155702801Y-25831000D01*
X155702801Y-35898540D02*
X155702801Y-35639548D01*
X155702801Y-56252491D02*
X155702801Y-52919489D01*
X155702801Y-57614550D02*
X155702801Y-56252491D01*
X155702801Y-71806600D02*
X155702801Y-57614550D01*
X155461501Y-35639548D02*
X155461501Y-25831000D01*
X155461501Y-35657240D02*
X155461501Y-35639548D01*
X155461501Y-56252491D02*
X155461501Y-52901381D01*
X155461501Y-57115802D02*
X155461501Y-56252491D01*
X155461501Y-58119676D02*
X155461501Y-57793799D01*
X155461501Y-71806600D02*
X155461501Y-58872724D01*
X155220201Y-35415941D02*
X155220201Y-25831000D01*
X155220201Y-53019293D02*
X155220201Y-52660081D01*
X155220201Y-56252491D02*
X155220201Y-53403403D01*
X155220201Y-56894066D02*
X155220201Y-56252491D01*
X155220201Y-71806600D02*
X155220201Y-59067456D01*
X154978901Y-35174641D02*
X154978901Y-25831000D01*
X154978901Y-52777993D02*
X154978901Y-52418781D01*
X154978901Y-56252491D02*
X154978901Y-53501986D01*
X154978901Y-56819800D02*
X154978901Y-56252491D01*
X154978901Y-59336773D02*
X154978901Y-59131200D01*
X154978901Y-71806600D02*
X154978901Y-61920828D01*
X154737601Y-35006963D02*
X154737601Y-25831000D01*
X154737601Y-52536693D02*
X154737601Y-52177481D01*
X154737601Y-56252491D02*
X154737601Y-53768419D01*
X154737601Y-56840796D02*
X154737601Y-56252491D01*
X154737601Y-71806600D02*
X154737601Y-61967264D01*
X154496301Y-34989401D02*
X154496301Y-25831000D01*
X154496301Y-52295393D02*
X154496301Y-51922696D01*
X154496301Y-56252491D02*
X154496301Y-54050859D01*
X154496301Y-56975074D02*
X154496301Y-56252491D01*
X154496301Y-71806600D02*
X154496301Y-61967264D01*
X154255001Y-34989401D02*
X154255001Y-25831000D01*
X154255001Y-52054093D02*
X154255001Y-51694881D01*
X154255001Y-56252491D02*
X154255001Y-53957622D01*
X154255001Y-57467821D02*
X154255001Y-56252491D01*
X154255001Y-71806600D02*
X154255001Y-61967264D01*
X154013701Y-34989401D02*
X154013701Y-25831000D01*
X154013701Y-49427067D02*
X154013701Y-49316964D01*
X154013701Y-51812793D02*
X154013701Y-51453581D01*
X154013701Y-54075534D02*
X154013701Y-53716322D01*
X154013701Y-56252491D02*
X154013701Y-54567012D01*
X154013701Y-57709121D02*
X154013701Y-56252491D01*
X154013701Y-71806600D02*
X154013701Y-61967264D01*
X153772401Y-34989401D02*
X153772401Y-25831000D01*
X153772401Y-50801765D02*
X153772401Y-49075664D01*
X153772401Y-51571493D02*
X153772401Y-51212281D01*
X153772401Y-53834234D02*
X153772401Y-53475022D01*
X153772401Y-56252491D02*
X153772401Y-54633356D01*
X153772401Y-57950421D02*
X153772401Y-56252491D01*
X153772401Y-59296820D02*
X153772401Y-58964601D01*
X153772401Y-71806600D02*
X153772401Y-61960779D01*
X153531101Y-34989401D02*
X153531101Y-25831000D01*
X153531101Y-51330193D02*
X153531101Y-48834364D01*
X153531101Y-53592934D02*
X153531101Y-53220238D01*
X153531101Y-56252491D02*
X153531101Y-54743850D01*
X153531101Y-58050201D02*
X153531101Y-56252491D01*
X153531101Y-59403588D02*
X153531101Y-58964601D01*
X153531101Y-71806600D02*
X153531101Y-61854011D01*
X153289801Y-34989401D02*
X153289801Y-25831000D01*
X153289801Y-51275010D02*
X153289801Y-48593064D01*
X153289801Y-51294205D02*
X153289801Y-51275011D01*
X153289801Y-53365118D02*
X153289801Y-52992422D01*
X153289801Y-56252491D02*
X153289801Y-54926994D01*
X153289801Y-58050201D02*
X153289801Y-56252491D01*
X153289801Y-71806600D02*
X153289801Y-58964601D01*
X153048501Y-34989401D02*
X153048501Y-25831000D01*
X153048501Y-51843078D02*
X153048501Y-48351764D01*
X153048501Y-53110334D02*
X153048501Y-52751122D01*
X153048501Y-56252491D02*
X153048501Y-54930023D01*
X153048501Y-58050201D02*
X153048501Y-56252491D01*
X153048501Y-71806600D02*
X153048501Y-58964601D01*
X152807201Y-34989401D02*
X152807201Y-25831000D01*
X152807201Y-45720000D02*
X152807201Y-45499106D01*
X152807201Y-51864305D02*
X152807201Y-48110464D01*
X152807201Y-52869034D02*
X152807201Y-52509822D01*
X152807201Y-56252491D02*
X152807201Y-54759080D01*
X152807201Y-58050201D02*
X152807201Y-56252491D01*
X152807201Y-71806600D02*
X152807201Y-58964601D01*
X152565901Y-34989401D02*
X152565901Y-25831000D01*
X152565901Y-45739615D02*
X152565901Y-45290037D01*
X152565901Y-51998910D02*
X152565901Y-47873568D01*
X152565901Y-52627734D02*
X152565901Y-52268522D01*
X152565901Y-56143348D02*
X152565901Y-54674886D01*
X152565901Y-71806600D02*
X152565901Y-58964601D01*
X152324601Y-34989401D02*
X152324601Y-25831000D01*
X152324601Y-45915565D02*
X152324601Y-45048737D01*
X152324601Y-52021463D02*
X152324601Y-47208722D01*
X152324601Y-52425575D02*
X152324601Y-52021463D01*
X152324601Y-56002192D02*
X152324601Y-54916186D01*
X152324601Y-71806600D02*
X152324601Y-58964601D01*
X152083301Y-34989401D02*
X152083301Y-25831000D01*
X152083301Y-46156865D02*
X152083301Y-44807436D01*
X152083301Y-52021463D02*
X152083301Y-47450022D01*
X152083301Y-52481510D02*
X152083301Y-52021463D01*
X152083301Y-55990336D02*
X152083301Y-55157486D01*
X152083301Y-71806600D02*
X152083301Y-58964601D01*
X151842001Y-34989401D02*
X151842001Y-25831000D01*
X151842001Y-46398165D02*
X151842001Y-44566136D01*
X151842001Y-49825650D02*
X151842001Y-47691322D01*
X151842001Y-52021463D02*
X151842001Y-49828133D01*
X151842001Y-53071464D02*
X151842001Y-52021463D01*
X151842001Y-55990336D02*
X151842001Y-55398786D01*
X151842001Y-71806600D02*
X151842001Y-58964601D01*
X151600701Y-34989401D02*
X151600701Y-25831000D01*
X151600701Y-38970336D02*
X151600701Y-38929597D01*
X151600701Y-46639465D02*
X151600701Y-44653434D01*
X151600701Y-49404923D02*
X151600701Y-47932622D01*
X151600701Y-55990336D02*
X151600701Y-55643685D01*
X151600701Y-71806600D02*
X151600701Y-58964601D01*
X151359401Y-34989401D02*
X151359401Y-25831000D01*
X151359401Y-38970336D02*
X151359401Y-38688297D01*
X151359401Y-46880765D02*
X151359401Y-44886037D01*
X151359401Y-49163623D02*
X151359401Y-48173922D01*
X151359401Y-55990336D02*
X151359401Y-55749825D01*
X151359401Y-71806600D02*
X151359401Y-58964601D01*
X151118101Y-34989401D02*
X151118101Y-25831000D01*
X151118101Y-38999555D02*
X151118101Y-38446997D01*
X151118101Y-47122065D02*
X151118101Y-45136035D01*
X151118101Y-48683002D02*
X151118101Y-48415222D01*
X151118101Y-56019555D02*
X151118101Y-55753000D01*
X151118101Y-71806600D02*
X151118101Y-58964601D01*
X150876801Y-34989401D02*
X150876801Y-25831000D01*
X150876801Y-39357467D02*
X150876801Y-38205697D01*
X150876801Y-47363365D02*
X150876801Y-45377335D01*
X150876801Y-56377467D02*
X150876801Y-55753000D01*
X150876801Y-71806600D02*
X150876801Y-58964601D01*
X150635501Y-34989401D02*
X150635501Y-25831000D01*
X150635501Y-39851600D02*
X150635501Y-37964397D01*
X150635501Y-47604665D02*
X150635501Y-45618634D01*
X150635501Y-56871600D02*
X150635501Y-55753000D01*
X150635501Y-71806600D02*
X150635501Y-58964601D01*
X150394201Y-34989401D02*
X150394201Y-25831000D01*
X150394201Y-39851600D02*
X150394201Y-37723097D01*
X150394201Y-47845965D02*
X150394201Y-46133500D01*
X150394201Y-56871600D02*
X150394201Y-55753000D01*
X150394201Y-71806600D02*
X150394201Y-58964601D01*
X150152901Y-34989401D02*
X150152901Y-25831000D01*
X150152901Y-39851600D02*
X150152901Y-37481797D01*
X150152901Y-48087265D02*
X150152901Y-46343395D01*
X150152901Y-56871600D02*
X150152901Y-55753000D01*
X150152901Y-71806600D02*
X150152901Y-58964601D01*
X149911601Y-34989401D02*
X149911601Y-25831000D01*
X149911601Y-39851600D02*
X149911601Y-38292343D01*
X149911601Y-48328565D02*
X149911601Y-46220109D01*
X149911601Y-56871600D02*
X149911601Y-55753000D01*
X149911601Y-59345258D02*
X149911601Y-58964601D01*
X149911601Y-71806600D02*
X149911601Y-61912343D01*
X149670301Y-34989401D02*
X149670301Y-25831000D01*
X149670301Y-39870470D02*
X149670301Y-38347264D01*
X149670301Y-46338021D02*
X149670301Y-45978809D01*
X149670301Y-48569865D02*
X149670301Y-46871995D01*
X149670301Y-56871600D02*
X149670301Y-55836396D01*
X149670301Y-59290336D02*
X149670301Y-58964601D01*
X149670301Y-71806600D02*
X149670301Y-61967264D01*
X149429001Y-34989401D02*
X149429001Y-25831000D01*
X149429001Y-40043421D02*
X149429001Y-38347264D01*
X149429001Y-46096721D02*
X149429001Y-45737509D01*
X149429001Y-48811165D02*
X149429001Y-46925892D01*
X149429001Y-56871600D02*
X149429001Y-55905400D01*
X149429001Y-59290336D02*
X149429001Y-58964601D01*
X149429001Y-71806600D02*
X149429001Y-61967264D01*
X149187701Y-34989401D02*
X149187701Y-25831000D01*
X149187701Y-40284721D02*
X149187701Y-38347264D01*
X149187701Y-45855421D02*
X149187701Y-45482726D01*
X149187701Y-49052465D02*
X149187701Y-47415087D01*
X149187701Y-56871600D02*
X149187701Y-55879142D01*
X149187701Y-59290336D02*
X149187701Y-58964601D01*
X149187701Y-71806600D02*
X149187701Y-61967264D01*
X148946401Y-34989401D02*
X148946401Y-25831000D01*
X148946401Y-40526021D02*
X148946401Y-38347264D01*
X148946401Y-45627606D02*
X148946401Y-45254909D01*
X148946401Y-49293765D02*
X148946401Y-47474766D01*
X148946401Y-53819248D02*
X148946401Y-53691352D01*
X148946401Y-56871600D02*
X148946401Y-55737426D01*
X148946401Y-59290336D02*
X148946401Y-58964601D01*
X148946401Y-71806600D02*
X148946401Y-61967264D01*
X148705101Y-34989401D02*
X148705101Y-25831000D01*
X148705101Y-40767321D02*
X148705101Y-38343305D01*
X148705101Y-45372821D02*
X148705101Y-45013609D01*
X148705101Y-47635563D02*
X148705101Y-47276351D01*
X148705101Y-49535065D02*
X148705101Y-47897687D01*
X148705101Y-54060548D02*
X148705101Y-53450052D01*
X148705101Y-56745523D02*
X148705101Y-55353704D01*
X148705101Y-59294294D02*
X148705101Y-58964601D01*
X148705101Y-71806600D02*
X148705101Y-61963305D01*
X148463801Y-34989401D02*
X148463801Y-25831000D01*
X148463801Y-41008621D02*
X148463801Y-38242497D01*
X148463801Y-45131521D02*
X148463801Y-44772309D01*
X148463801Y-47394263D02*
X148463801Y-47035051D01*
X148463801Y-49776365D02*
X148463801Y-48034486D01*
X148463801Y-54301848D02*
X148463801Y-53289401D01*
X148463801Y-56504223D02*
X148463801Y-55579850D01*
X148463801Y-59395102D02*
X148463801Y-58963174D01*
X148463801Y-71806600D02*
X148463801Y-61862497D01*
X148222501Y-34989401D02*
X148222501Y-25831000D01*
X148222501Y-41249600D02*
X148222501Y-35903801D01*
X148222501Y-44890221D02*
X148222501Y-44398343D01*
X148222501Y-47152963D02*
X148222501Y-46793751D01*
X148222501Y-49605965D02*
X148222501Y-48057263D01*
X148222501Y-54543148D02*
X148222501Y-53314600D01*
X148222501Y-56262923D02*
X148222501Y-55659468D01*
X148222501Y-60081205D02*
X148222501Y-58861160D01*
X148222501Y-71806600D02*
X148222501Y-61086000D01*
X147981201Y-34989401D02*
X147981201Y-25831000D01*
X147981201Y-41249600D02*
X147981201Y-35903801D01*
X147981201Y-44718111D02*
X147981201Y-44256626D01*
X147981201Y-46911663D02*
X147981201Y-46538968D01*
X147981201Y-49368083D02*
X147981201Y-48269518D01*
X147981201Y-54737000D02*
X147981201Y-53314600D01*
X147981201Y-56021623D02*
X147981201Y-55651400D01*
X147981201Y-59839905D02*
X147981201Y-58619179D01*
X147981201Y-71806600D02*
X147981201Y-61066648D01*
X147739901Y-34989401D02*
X147739901Y-25831000D01*
X147739901Y-41249600D02*
X147739901Y-35903801D01*
X147739901Y-44454476D02*
X147739901Y-42164000D01*
X147739901Y-46683847D02*
X147739901Y-46625602D01*
X147739901Y-49123366D02*
X147739901Y-48514234D01*
X147739901Y-54737000D02*
X147739901Y-53349001D01*
X147739901Y-59598605D02*
X147739901Y-58377879D01*
X147739901Y-71806600D02*
X147739901Y-60891761D01*
X147498601Y-34989401D02*
X147498601Y-25831000D01*
X147498601Y-41249600D02*
X147498601Y-35903801D01*
X147498601Y-44304382D02*
X147498601Y-42164000D01*
X147498601Y-48882066D02*
X147498601Y-48755534D01*
X147498601Y-54737000D02*
X147498601Y-53365400D01*
X147498601Y-59357305D02*
X147498601Y-58495246D01*
X147498601Y-71806600D02*
X147498601Y-60650461D01*
X147257301Y-34989401D02*
X147257301Y-25831000D01*
X147257301Y-41249600D02*
X147257301Y-35903801D01*
X147257301Y-44272200D02*
X147257301Y-42164000D01*
X147257301Y-54737000D02*
X147257301Y-53286537D01*
X147257301Y-59116005D02*
X147257301Y-58652883D01*
X147257301Y-71806600D02*
X147257301Y-60409161D01*
X147016001Y-34989401D02*
X147016001Y-25831000D01*
X147016001Y-41249600D02*
X147016001Y-35903801D01*
X147016001Y-44335280D02*
X147016001Y-42164000D01*
X147016001Y-54737000D02*
X147016001Y-53042605D01*
X147016001Y-58874705D02*
X147016001Y-58667264D01*
X147016001Y-71806600D02*
X147016001Y-60167861D01*
X146774701Y-34989401D02*
X146774701Y-25831000D01*
X146774701Y-41249600D02*
X146774701Y-35903801D01*
X146774701Y-44448462D02*
X146774701Y-42164000D01*
X146774701Y-48911020D02*
X146774701Y-48726580D01*
X146774701Y-54737000D02*
X146774701Y-52324000D01*
X146774701Y-71806600D02*
X146774701Y-59926561D01*
X146533401Y-34989401D02*
X146533401Y-25831000D01*
X146533401Y-41249600D02*
X146533401Y-35903801D01*
X146533401Y-44512903D02*
X146533401Y-42164000D01*
X146533401Y-49152320D02*
X146533401Y-48485280D01*
X146533401Y-54737000D02*
X146533401Y-52271440D01*
X146533401Y-71806600D02*
X146533401Y-59685261D01*
X146292101Y-34989401D02*
X146292101Y-25831000D01*
X146292101Y-41249600D02*
X146292101Y-35903801D01*
X146292101Y-44376438D02*
X146292101Y-42164000D01*
X146292101Y-49393620D02*
X146292101Y-48243980D01*
X146292101Y-54737000D02*
X146292101Y-52109850D01*
X146292101Y-71806600D02*
X146292101Y-59443961D01*
X146050801Y-34989401D02*
X146050801Y-25831000D01*
X146050801Y-41249600D02*
X146050801Y-35903801D01*
X146050801Y-44349181D02*
X146050801Y-42164000D01*
X146050801Y-49634920D02*
X146050801Y-48002680D01*
X146050801Y-54737000D02*
X146050801Y-52351150D01*
X146050801Y-71806600D02*
X146050801Y-59202661D01*
X145809501Y-34989401D02*
X145809501Y-25831000D01*
X145809501Y-41249600D02*
X145809501Y-35903801D01*
X145809501Y-44421346D02*
X145809501Y-42164000D01*
X145809501Y-49876220D02*
X145809501Y-47797676D01*
X145809501Y-54737000D02*
X145809501Y-52592450D01*
X145809501Y-71806600D02*
X145809501Y-58961361D01*
X145568201Y-34989401D02*
X145568201Y-25831000D01*
X145568201Y-41196304D02*
X145568201Y-35903801D01*
X145568201Y-44611678D02*
X145568201Y-42164000D01*
X145568201Y-48633104D02*
X145568201Y-48038974D01*
X145568201Y-50409222D02*
X145568201Y-49004497D01*
X145568201Y-54737000D02*
X145568201Y-52833750D01*
X145568201Y-71806600D02*
X145568201Y-58720061D01*
X145326901Y-34989401D02*
X145326901Y-25831000D01*
X145326901Y-40955004D02*
X145326901Y-35903801D01*
X145326901Y-44852978D02*
X145326901Y-42152027D01*
X145326901Y-48289876D02*
X145326901Y-48215585D01*
X145326901Y-50650522D02*
X145326901Y-49347724D01*
X145326901Y-53446076D02*
X145326901Y-53075050D01*
X145326901Y-54737000D02*
X145326901Y-54249924D01*
X145326901Y-71806600D02*
X145326901Y-58478761D01*
X145085601Y-34989401D02*
X145085601Y-25831000D01*
X145085601Y-40713704D02*
X145085601Y-35903801D01*
X145085601Y-45392597D02*
X145085601Y-42011137D01*
X145085601Y-46841490D02*
X145085601Y-46742163D01*
X145085601Y-50891822D02*
X145085601Y-49453182D01*
X145085601Y-54737000D02*
X145085601Y-54429777D01*
X145085601Y-71806600D02*
X145085601Y-58237461D01*
X144844301Y-30062258D02*
X144844301Y-25831000D01*
X144844301Y-33157645D02*
X144844301Y-32370943D01*
X144844301Y-34989401D02*
X144844301Y-34355556D01*
X144844301Y-40472404D02*
X144844301Y-36895556D01*
X144844301Y-45317136D02*
X144844301Y-41765560D01*
X144844301Y-47054504D02*
X144844301Y-46529148D01*
X144844301Y-51133122D02*
X144844301Y-49578878D01*
X144844301Y-54737000D02*
X144844301Y-54483000D01*
X144844301Y-71806600D02*
X144844301Y-57996161D01*
X144603001Y-29978136D02*
X144603001Y-25831000D01*
X144603001Y-32836693D02*
X144603001Y-32455064D01*
X144603001Y-34982631D02*
X144603001Y-34676508D01*
X144603001Y-40231104D02*
X144603001Y-37216508D01*
X144603001Y-45336937D02*
X144603001Y-41524260D01*
X144603001Y-46647058D02*
X144603001Y-46287848D01*
X144603001Y-47295804D02*
X144603001Y-46936594D01*
X144603001Y-48278443D02*
X144603001Y-48054908D01*
X144603001Y-51374422D02*
X144603001Y-49820178D01*
X144603001Y-54737000D02*
X144603001Y-54440961D01*
X144603001Y-71806600D02*
X144603001Y-57754861D01*
X144361701Y-29978136D02*
X144361701Y-25831000D01*
X144361701Y-32675461D02*
X144361701Y-32455064D01*
X144361701Y-35065311D02*
X144361701Y-34837740D01*
X144361701Y-39989804D02*
X144361701Y-37377740D01*
X144361701Y-45469524D02*
X144361701Y-41282960D01*
X144361701Y-46405758D02*
X144361701Y-46046548D01*
X144361701Y-47537104D02*
X144361701Y-47177894D01*
X144361701Y-48598575D02*
X144361701Y-47813608D01*
X144361701Y-51615722D02*
X144361701Y-50061478D01*
X144361701Y-54737000D02*
X144361701Y-54276926D01*
X144361701Y-71806600D02*
X144361701Y-56308926D01*
X144120401Y-29978136D02*
X144120401Y-25831000D01*
X144120401Y-32572377D02*
X144120401Y-32455064D01*
X144120401Y-35112377D02*
X144120401Y-34940824D01*
X144120401Y-39748504D02*
X144120401Y-37480824D01*
X144120401Y-46164458D02*
X144120401Y-41041660D01*
X144120401Y-49009620D02*
X144120401Y-47383498D01*
X144120401Y-51857022D02*
X144120401Y-50302778D01*
X144120401Y-54737000D02*
X144120401Y-53801603D01*
X144120401Y-71806600D02*
X144120401Y-55651400D01*
X143879101Y-29978136D02*
X143879101Y-25831000D01*
X143879101Y-32525600D02*
X143879101Y-32455064D01*
X143879101Y-35065600D02*
X143879101Y-34987600D01*
X143879101Y-39507204D02*
X143879101Y-37527600D01*
X143879101Y-46049894D02*
X143879101Y-40800360D01*
X143879101Y-49250920D02*
X143879101Y-47331008D01*
X143879101Y-52129693D02*
X143879101Y-50519276D01*
X143879101Y-54737000D02*
X143879101Y-53667326D01*
X143879101Y-71806600D02*
X143879101Y-55651400D01*
X143637801Y-29978136D02*
X143637801Y-25831000D01*
X143637801Y-32526586D02*
X143637801Y-32455064D01*
X143637801Y-35066586D02*
X143637801Y-34986613D01*
X143637801Y-39265904D02*
X143637801Y-37526613D01*
X143637801Y-46193424D02*
X143637801Y-40559060D01*
X143637801Y-49492220D02*
X143637801Y-47089708D01*
X143637801Y-54737000D02*
X143637801Y-50575463D01*
X143637801Y-71806600D02*
X143637801Y-55651400D01*
X143396501Y-29978136D02*
X143396501Y-25831000D01*
X143396501Y-32574584D02*
X143396501Y-32455064D01*
X143396501Y-35114584D02*
X143396501Y-34938615D01*
X143396501Y-39024604D02*
X143396501Y-37478615D01*
X143396501Y-46767875D02*
X143396501Y-40317760D01*
X143396501Y-49657000D02*
X143396501Y-46767875D01*
X143396501Y-54737000D02*
X143396501Y-50571400D01*
X143396501Y-71806600D02*
X143396501Y-55651400D01*
X143155201Y-29978136D02*
X143155201Y-25831000D01*
X143155201Y-32501223D02*
X143155201Y-32455064D01*
X143155201Y-35222876D02*
X143155201Y-34830323D01*
X143155201Y-38783304D02*
X143155201Y-37370323D01*
X143155201Y-46767875D02*
X143155201Y-40076460D01*
X143155201Y-47594676D02*
X143155201Y-46767875D01*
X143155201Y-49657000D02*
X143155201Y-48547624D01*
X143155201Y-54737000D02*
X143155201Y-50571400D01*
X143155201Y-71806600D02*
X143155201Y-55651400D01*
X142913901Y-29978155D02*
X142913901Y-25831000D01*
X142913901Y-35384107D02*
X142913901Y-34669092D01*
X142913901Y-38542004D02*
X142913901Y-37209092D01*
X142913901Y-46767875D02*
X142913901Y-39835160D01*
X142913901Y-47458494D02*
X142913901Y-46767875D01*
X142913901Y-49657000D02*
X142913901Y-48683807D01*
X142913901Y-54737000D02*
X142913901Y-50571400D01*
X142913901Y-71806600D02*
X142913901Y-55651400D01*
X142672601Y-30069672D02*
X142672601Y-25831000D01*
X142672601Y-35714253D02*
X142672601Y-34338946D01*
X142672601Y-38300704D02*
X142672601Y-36878946D01*
X142672601Y-46767875D02*
X142672601Y-39593860D01*
X142672601Y-47363523D02*
X142672601Y-46767875D01*
X142672601Y-49657000D02*
X142672601Y-48706150D01*
X142672601Y-54737000D02*
X142672601Y-50571400D01*
X142672601Y-71806600D02*
X142672601Y-55651400D01*
X142431301Y-30379072D02*
X142431301Y-25831000D01*
X142431301Y-33516218D02*
X142431301Y-33135199D01*
X142431301Y-36056218D02*
X142431301Y-33996983D01*
X142431301Y-38059404D02*
X142431301Y-36536983D01*
X142431301Y-46767875D02*
X142431301Y-39352560D01*
X142431301Y-47154359D02*
X142431301Y-46767875D01*
X142431301Y-49657000D02*
X142431301Y-48633231D01*
X142431301Y-54737000D02*
X142431301Y-50571400D01*
X142431301Y-71806600D02*
X142431301Y-55651400D01*
X142190001Y-30114296D02*
X142190001Y-25831000D01*
X142190001Y-35526583D02*
X142190001Y-34526618D01*
X142190001Y-37818104D02*
X142190001Y-37066618D01*
X142190001Y-46767875D02*
X142190001Y-39111260D01*
X142190001Y-47117000D02*
X142190001Y-46767875D01*
X142190001Y-49657000D02*
X142190001Y-48417999D01*
X142190001Y-54737000D02*
X142190001Y-50571400D01*
X142190001Y-71806600D02*
X142190001Y-55651400D01*
X141948701Y-29947847D02*
X141948701Y-25831000D01*
X141948701Y-35300320D02*
X141948701Y-34752881D01*
X141948701Y-37576804D02*
X141948701Y-37292881D01*
X141948701Y-46767875D02*
X141948701Y-38869960D01*
X141948701Y-47117000D02*
X141948701Y-46767875D01*
X141948701Y-49657000D02*
X141948701Y-48031400D01*
X141948701Y-54737000D02*
X141948701Y-50571400D01*
X141948701Y-71806600D02*
X141948701Y-55651400D01*
X141707401Y-29834526D02*
X141707401Y-25831000D01*
X141707401Y-35139089D02*
X141707401Y-34914112D01*
X141707401Y-46767875D02*
X141707401Y-38628660D01*
X141707401Y-47117000D02*
X141707401Y-46767875D01*
X141707401Y-49657000D02*
X141707401Y-48031400D01*
X141707401Y-54737000D02*
X141707401Y-50571400D01*
X141707401Y-60888380D02*
X141707401Y-55651400D01*
X141707401Y-68280678D02*
X141707401Y-61908821D01*
X141707401Y-71806600D02*
X141707401Y-68916523D01*
X141466101Y-29835366D02*
X141466101Y-25831000D01*
X141466101Y-35089641D02*
X141466101Y-34963560D01*
X141466101Y-46767875D02*
X141466101Y-38387360D01*
X141466101Y-47117000D02*
X141466101Y-46767875D01*
X141466101Y-49657000D02*
X141466101Y-48031400D01*
X141466101Y-54737000D02*
X141466101Y-50571400D01*
X141466101Y-60635439D02*
X141466101Y-55651400D01*
X141466101Y-67974755D02*
X141466101Y-62161762D01*
X141466101Y-71806600D02*
X141466101Y-69222445D01*
X141224801Y-31363600D02*
X141224801Y-25831000D01*
X141224801Y-35065600D02*
X141224801Y-34987600D01*
X141224801Y-46767875D02*
X141224801Y-38146060D01*
X141224801Y-47117000D02*
X141224801Y-46767875D01*
X141224801Y-49657000D02*
X141224801Y-48031400D01*
X141224801Y-54737000D02*
X141224801Y-50571400D01*
X141224801Y-60524735D02*
X141224801Y-55651400D01*
X141224801Y-63330426D02*
X141224801Y-62272466D01*
X141224801Y-65730426D02*
X141224801Y-64266775D01*
X141224801Y-67864812D02*
X141224801Y-66666775D01*
X141224801Y-71806600D02*
X141224801Y-69332389D01*
X140983501Y-29836208D02*
X140983501Y-25831000D01*
X140983501Y-31343600D02*
X140983501Y-31089600D01*
X140983501Y-35089322D02*
X140983501Y-34963877D01*
X140983501Y-46767875D02*
X140983501Y-37904760D01*
X140983501Y-47117000D02*
X140983501Y-46767875D01*
X140983501Y-49657000D02*
X140983501Y-48031400D01*
X140983501Y-54737000D02*
X140983501Y-50571400D01*
X140983501Y-60500881D02*
X140983501Y-55651400D01*
X140983501Y-63365504D02*
X140983501Y-62564277D01*
X140983501Y-65032924D02*
X140983501Y-64964277D01*
X140983501Y-67432924D02*
X140983501Y-66631696D01*
X140983501Y-71806600D02*
X140983501Y-69354600D01*
X140742201Y-29833773D02*
X140742201Y-25831000D01*
X140742201Y-31343600D02*
X140742201Y-31089600D01*
X140742201Y-35138017D02*
X140742201Y-34915182D01*
X140742201Y-46767875D02*
X140742201Y-37455182D01*
X140742201Y-47117000D02*
X140742201Y-46767875D01*
X140742201Y-49657000D02*
X140742201Y-48031400D01*
X140742201Y-54737000D02*
X140742201Y-50571400D01*
X140742201Y-60023203D02*
X140742201Y-55651400D01*
X140742201Y-62908782D02*
X140742201Y-62808930D01*
X140742201Y-63606804D02*
X140742201Y-63247594D01*
X140742201Y-66749606D02*
X140742201Y-66390396D01*
X140742201Y-67188271D02*
X140742201Y-67098324D01*
X140742201Y-71806600D02*
X140742201Y-69973998D01*
X140500901Y-29947094D02*
X140500901Y-25831000D01*
X140500901Y-31343600D02*
X140500901Y-31089600D01*
X140500901Y-35299249D02*
X140500901Y-35093047D01*
X140500901Y-46767875D02*
X140500901Y-37293950D01*
X140500901Y-47117000D02*
X140500901Y-46767875D01*
X140500901Y-49657000D02*
X140500901Y-48031400D01*
X140500901Y-54737000D02*
X140500901Y-50571400D01*
X140500901Y-59780342D02*
X140500901Y-55651400D01*
X140500901Y-63876389D02*
X140500901Y-63488894D01*
X140500901Y-66508306D02*
X140500901Y-66120811D01*
X140500901Y-71806600D02*
X140500901Y-70216858D01*
X140259601Y-30112537D02*
X140259601Y-25831000D01*
X140259601Y-31343600D02*
X140259601Y-31089600D01*
X140259601Y-35524184D02*
X140259601Y-35128200D01*
X140259601Y-46767875D02*
X140259601Y-37069015D01*
X140259601Y-47117000D02*
X140259601Y-46767875D01*
X140259601Y-49657000D02*
X140259601Y-48031400D01*
X140259601Y-54737000D02*
X140259601Y-50571400D01*
X140259601Y-59686766D02*
X140259601Y-55651400D01*
X140259601Y-68886766D02*
X140259601Y-68504600D01*
X140259601Y-71806600D02*
X140259601Y-70310435D01*
X140018301Y-30377313D02*
X140018301Y-25831000D01*
X140018301Y-31343600D02*
X140018301Y-31089600D01*
X140018301Y-32220799D02*
X140018301Y-32055885D01*
X140018301Y-36048163D02*
X140018301Y-35128200D01*
X140018301Y-46767875D02*
X140018301Y-36545036D01*
X140018301Y-47117000D02*
X140018301Y-46767875D01*
X140018301Y-49657000D02*
X140018301Y-48031400D01*
X140018301Y-54737000D02*
X140018301Y-50571400D01*
X140018301Y-59667600D02*
X140018301Y-55651400D01*
X140018301Y-61580440D02*
X140018301Y-61129600D01*
X140018301Y-68867600D02*
X140018301Y-68416759D01*
X140018301Y-71806600D02*
X140018301Y-70329600D01*
X139777001Y-30859710D02*
X139777001Y-25831000D01*
X139777001Y-32220799D02*
X139777001Y-30859710D01*
X139777001Y-46767875D02*
X139777001Y-35128200D01*
X139777001Y-47117000D02*
X139777001Y-46767875D01*
X139777001Y-49657000D02*
X139777001Y-48031400D01*
X139777001Y-54737000D02*
X139777001Y-50571400D01*
X139777001Y-59667600D02*
X139777001Y-55651400D01*
X139777001Y-61793964D02*
X139777001Y-61129600D01*
X139777001Y-68867600D02*
X139777001Y-68203236D01*
X139777001Y-71806600D02*
X139777001Y-70329600D01*
X139535701Y-30859710D02*
X139535701Y-25831000D01*
X139535701Y-32220799D02*
X139535701Y-30859710D01*
X139535701Y-46767875D02*
X139535701Y-35128200D01*
X139535701Y-47117000D02*
X139535701Y-46767875D01*
X139535701Y-49657000D02*
X139535701Y-48031400D01*
X139535701Y-54737000D02*
X139535701Y-50571400D01*
X139535701Y-59667600D02*
X139535701Y-55651400D01*
X139535701Y-61892600D02*
X139535701Y-61129600D01*
X139535701Y-65092600D02*
X139535701Y-64904600D01*
X139535701Y-68867600D02*
X139535701Y-68104600D01*
X139535701Y-71806600D02*
X139535701Y-70329600D01*
X139294401Y-30859710D02*
X139294401Y-25831000D01*
X139294401Y-32220799D02*
X139294401Y-30859710D01*
X139294401Y-46767875D02*
X139294401Y-35128200D01*
X139294401Y-47117000D02*
X139294401Y-46767875D01*
X139294401Y-49657000D02*
X139294401Y-48031400D01*
X139294401Y-54737000D02*
X139294401Y-50571400D01*
X139294401Y-59667600D02*
X139294401Y-55651400D01*
X139294401Y-61990340D02*
X139294401Y-61129600D01*
X139294401Y-65190340D02*
X139294401Y-64806859D01*
X139294401Y-68867600D02*
X139294401Y-68006859D01*
X139294401Y-71806600D02*
X139294401Y-70329600D01*
X139053101Y-30859710D02*
X139053101Y-25831000D01*
X139053101Y-32220799D02*
X139053101Y-30859710D01*
X139053101Y-46767875D02*
X139053101Y-35128200D01*
X139053101Y-47117000D02*
X139053101Y-46767875D01*
X139053101Y-49657000D02*
X139053101Y-48031400D01*
X139053101Y-54737000D02*
X139053101Y-50571400D01*
X139053101Y-59672623D02*
X139053101Y-55651400D01*
X139053101Y-62244990D02*
X139053101Y-61124576D01*
X139053101Y-63044990D02*
X139053101Y-62952209D01*
X139053101Y-63844990D02*
X139053101Y-63752209D01*
X139053101Y-65444990D02*
X139053101Y-64552209D01*
X139053101Y-66244990D02*
X139053101Y-66152209D01*
X139053101Y-67044990D02*
X139053101Y-66952209D01*
X139053101Y-68872623D02*
X139053101Y-67752209D01*
X139053101Y-71806600D02*
X139053101Y-70324576D01*
X138811801Y-30859710D02*
X138811801Y-25831000D01*
X138811801Y-32220799D02*
X138811801Y-30859710D01*
X138811801Y-46767875D02*
X138811801Y-35128200D01*
X138811801Y-47117000D02*
X138811801Y-46767875D01*
X138811801Y-49657000D02*
X138811801Y-48031400D01*
X138811801Y-54737000D02*
X138811801Y-50571400D01*
X138811801Y-59744326D02*
X138811801Y-55651400D01*
X138811801Y-68944326D02*
X138811801Y-61052873D01*
X138811801Y-71806600D02*
X138811801Y-70252873D01*
X138570501Y-30859710D02*
X138570501Y-25831000D01*
X138570501Y-32220799D02*
X138570501Y-30859710D01*
X138570501Y-46767875D02*
X138570501Y-35128200D01*
X138570501Y-47117000D02*
X138570501Y-46767875D01*
X138570501Y-49657000D02*
X138570501Y-48031400D01*
X138570501Y-54737000D02*
X138570501Y-50571400D01*
X138570501Y-59926821D02*
X138570501Y-55651400D01*
X138570501Y-69126821D02*
X138570501Y-60870379D01*
X138570501Y-71806600D02*
X138570501Y-70070379D01*
X138329201Y-30859710D02*
X138329201Y-25831000D01*
X138329201Y-32220799D02*
X138329201Y-30859710D01*
X138329201Y-46767875D02*
X138329201Y-35128200D01*
X138329201Y-47117000D02*
X138329201Y-46767875D01*
X138329201Y-49657000D02*
X138329201Y-48031400D01*
X138329201Y-54737000D02*
X138329201Y-50571400D01*
X138329201Y-60314517D02*
X138329201Y-55651400D01*
X138329201Y-71806600D02*
X138329201Y-60314517D01*
X138087901Y-30859710D02*
X138087901Y-25831000D01*
X138087901Y-32220799D02*
X138087901Y-30859710D01*
X138087901Y-46767875D02*
X138087901Y-35128200D01*
X138087901Y-47117000D02*
X138087901Y-46767875D01*
X138087901Y-49657000D02*
X138087901Y-48031400D01*
X138087901Y-54737000D02*
X138087901Y-50571400D01*
X138087901Y-60314517D02*
X138087901Y-55651400D01*
X138087901Y-71806600D02*
X138087901Y-60314517D01*
X137846601Y-30859710D02*
X137846601Y-25831000D01*
X137846601Y-32220799D02*
X137846601Y-30859710D01*
X137846601Y-46767875D02*
X137846601Y-35128200D01*
X137846601Y-47117000D02*
X137846601Y-46767875D01*
X137846601Y-49657000D02*
X137846601Y-48031400D01*
X137846601Y-54737000D02*
X137846601Y-50571400D01*
X137846601Y-57210538D02*
X137846601Y-55651400D01*
X137846601Y-57960201D02*
X137846601Y-57508200D01*
X137846601Y-60314517D02*
X137846601Y-58257863D01*
X137846601Y-71806600D02*
X137846601Y-60314517D01*
X137605301Y-30859710D02*
X137605301Y-25831000D01*
X137605301Y-32220799D02*
X137605301Y-30859710D01*
X137605301Y-38839115D02*
X137605301Y-35128200D01*
X137605301Y-41971273D02*
X137605301Y-41069286D01*
X137605301Y-44511273D02*
X137605301Y-43017128D01*
X137605301Y-46767875D02*
X137605301Y-45557128D01*
X137605301Y-47051272D02*
X137605301Y-46767875D01*
X137605301Y-49591273D02*
X137605301Y-48097128D01*
X137605301Y-52131273D02*
X137605301Y-50637128D01*
X137605301Y-54671273D02*
X137605301Y-53177128D01*
X137605301Y-56813059D02*
X137605301Y-55717128D01*
X137605301Y-57861200D02*
X137605301Y-57607200D01*
X137605301Y-59861023D02*
X137605301Y-58655342D01*
X137605301Y-69061023D02*
X137605301Y-60936177D01*
X137605301Y-71806600D02*
X137605301Y-70136177D01*
X137364001Y-30859710D02*
X137364001Y-25831000D01*
X137364001Y-32220799D02*
X137364001Y-30859710D01*
X137364001Y-38723653D02*
X137364001Y-35128200D01*
X137364001Y-41610142D02*
X137364001Y-41184748D01*
X137364001Y-44150142D02*
X137364001Y-43378259D01*
X137364001Y-46690142D02*
X137364001Y-45918259D01*
X137364001Y-49230142D02*
X137364001Y-48458259D01*
X137364001Y-51770142D02*
X137364001Y-50998259D01*
X137364001Y-54310142D02*
X137364001Y-53538259D01*
X137364001Y-56548282D02*
X137364001Y-56078259D01*
X137364001Y-57861200D02*
X137364001Y-57607200D01*
X137364001Y-59717072D02*
X137364001Y-58920119D01*
X137364001Y-68917072D02*
X137364001Y-61080129D01*
X137364001Y-71806600D02*
X137364001Y-70280129D01*
X137122701Y-30859710D02*
X137122701Y-25831000D01*
X137122701Y-32220799D02*
X137122701Y-30859710D01*
X137122701Y-38715736D02*
X137122701Y-35128200D01*
X137122701Y-41447005D02*
X137122701Y-41192664D01*
X137122701Y-43987005D02*
X137122701Y-43541396D01*
X137122701Y-46527005D02*
X137122701Y-46081396D01*
X137122701Y-49067005D02*
X137122701Y-48621396D01*
X137122701Y-51607005D02*
X137122701Y-51161396D01*
X137122701Y-54147005D02*
X137122701Y-53701396D01*
X137122701Y-56429662D02*
X137122701Y-56241396D01*
X137122701Y-57861200D02*
X137122701Y-57607200D01*
X137122701Y-59667600D02*
X137122701Y-59038739D01*
X137122701Y-68867600D02*
X137122701Y-61129600D01*
X137122701Y-71806600D02*
X137122701Y-70329600D01*
X136881401Y-30859710D02*
X136881401Y-25831000D01*
X136881401Y-32220799D02*
X136881401Y-30859710D01*
X136881401Y-38715736D02*
X136881401Y-35128200D01*
X136881401Y-41320082D02*
X136881401Y-41192664D01*
X136881401Y-43860082D02*
X136881401Y-43668319D01*
X136881401Y-46400082D02*
X136881401Y-46208319D01*
X136881401Y-48940082D02*
X136881401Y-48748319D01*
X136881401Y-51480082D02*
X136881401Y-51288319D01*
X136881401Y-54020082D02*
X136881401Y-53828319D01*
X136881401Y-57861200D02*
X136881401Y-57607200D01*
X136881401Y-59667600D02*
X136881401Y-59152060D01*
X136881401Y-68867600D02*
X136881401Y-61129600D01*
X136881401Y-71806600D02*
X136881401Y-70329600D01*
X136640101Y-30859710D02*
X136640101Y-25831000D01*
X136640101Y-32220799D02*
X136640101Y-30859710D01*
X136640101Y-38715736D02*
X136640101Y-36171524D01*
X136640101Y-41272084D02*
X136640101Y-41192664D01*
X136640101Y-43812084D02*
X136640101Y-43716317D01*
X136640101Y-46352084D02*
X136640101Y-46256317D01*
X136640101Y-48892084D02*
X136640101Y-48796317D01*
X136640101Y-51432084D02*
X136640101Y-51336317D01*
X136640101Y-53972084D02*
X136640101Y-53876317D01*
X136640101Y-57861200D02*
X136640101Y-57607200D01*
X136640101Y-59667600D02*
X136640101Y-59075437D01*
X136640101Y-68867600D02*
X136640101Y-61129600D01*
X136640101Y-71806600D02*
X136640101Y-70329600D01*
X136398801Y-30859710D02*
X136398801Y-25831000D01*
X136398801Y-32220799D02*
X136398801Y-30859710D01*
X136398801Y-38715736D02*
X136398801Y-36416267D01*
X136398801Y-41263200D02*
X136398801Y-41192664D01*
X136398801Y-43803200D02*
X136398801Y-43725200D01*
X136398801Y-46343200D02*
X136398801Y-46265200D01*
X136398801Y-48883200D02*
X136398801Y-48805200D01*
X136398801Y-51423200D02*
X136398801Y-51345200D01*
X136398801Y-53963200D02*
X136398801Y-53885200D01*
X136398801Y-57861200D02*
X136398801Y-57587200D01*
X136398801Y-59667600D02*
X136398801Y-57861200D01*
X136398801Y-68867600D02*
X136398801Y-61129600D01*
X136398801Y-71806600D02*
X136398801Y-70329600D01*
X136157501Y-30859710D02*
X136157501Y-25831000D01*
X136157501Y-32220799D02*
X136157501Y-30859710D01*
X136157501Y-38715736D02*
X136157501Y-36494585D01*
X136157501Y-41302079D02*
X136157501Y-41192664D01*
X136157501Y-43842079D02*
X136157501Y-43686320D01*
X136157501Y-46382079D02*
X136157501Y-46226320D01*
X136157501Y-48922079D02*
X136157501Y-48766320D01*
X136157501Y-51462079D02*
X136157501Y-51306320D01*
X136157501Y-54002079D02*
X136157501Y-53846320D01*
X136157501Y-57861200D02*
X136157501Y-57607200D01*
X136157501Y-59667600D02*
X136157501Y-59154590D01*
X136157501Y-68867600D02*
X136157501Y-61129600D01*
X136157501Y-71806600D02*
X136157501Y-70329600D01*
X135916201Y-30859710D02*
X135916201Y-25831000D01*
X135916201Y-32234239D02*
X135916201Y-30859710D01*
X135916201Y-38715736D02*
X135916201Y-36507564D01*
X135916201Y-41386532D02*
X135916201Y-41192664D01*
X135916201Y-43926532D02*
X135916201Y-43601867D01*
X135916201Y-46466532D02*
X135916201Y-46141867D01*
X135916201Y-49006532D02*
X135916201Y-48681867D01*
X135916201Y-51449623D02*
X135916201Y-51221867D01*
X135916201Y-53989623D02*
X135916201Y-53761867D01*
X135916201Y-56387159D02*
X135916201Y-56301867D01*
X135916201Y-57861200D02*
X135916201Y-57607200D01*
X135916201Y-59701082D02*
X135916201Y-59081240D01*
X135916201Y-68901082D02*
X135916201Y-61096117D01*
X135916201Y-71806600D02*
X135916201Y-70296117D01*
X135674901Y-30859710D02*
X135674901Y-25831000D01*
X135674901Y-32384709D02*
X135674901Y-30859710D01*
X135674901Y-38715736D02*
X135674901Y-36507564D01*
X135674901Y-41547764D02*
X135674901Y-41192664D01*
X135674901Y-44087764D02*
X135674901Y-43440635D01*
X135674901Y-46627764D02*
X135674901Y-45980635D01*
X135674901Y-49167764D02*
X135674901Y-48520635D01*
X135674901Y-51208323D02*
X135674901Y-51060635D01*
X135674901Y-53748323D02*
X135674901Y-53600635D01*
X135674901Y-56500479D02*
X135674901Y-56140635D01*
X135674901Y-57861200D02*
X135674901Y-57607200D01*
X135674901Y-59824306D02*
X135674901Y-58967920D01*
X135674901Y-69024306D02*
X135674901Y-60972892D01*
X135674901Y-71806600D02*
X135674901Y-70172892D01*
X135433601Y-30859710D02*
X135433601Y-25831000D01*
X135433601Y-32626621D02*
X135433601Y-30859710D01*
X135433601Y-38773329D02*
X135433601Y-36507564D01*
X135433601Y-41835826D02*
X135433601Y-41135070D01*
X135433601Y-44375826D02*
X135433601Y-43152573D01*
X135433601Y-46915826D02*
X135433601Y-45692573D01*
X135433601Y-49455826D02*
X135433601Y-48232573D01*
X135433601Y-50967023D02*
X135433601Y-50772573D01*
X135433601Y-53507023D02*
X135433601Y-53312573D01*
X135433601Y-56713750D02*
X135433601Y-55852573D01*
X135433601Y-57861200D02*
X135433601Y-57607200D01*
X135433601Y-60169090D02*
X135433601Y-58754649D01*
X135433601Y-69369090D02*
X135433601Y-60628110D01*
X135433601Y-71806600D02*
X135433601Y-69828109D01*
X135192301Y-30859710D02*
X135192301Y-25831000D01*
X135192301Y-32880636D02*
X135192301Y-30859710D01*
X135192301Y-39104200D02*
X135192301Y-36507564D01*
X135192301Y-42494200D02*
X135192301Y-39104200D01*
X135192301Y-45034200D02*
X135192301Y-42494200D01*
X135192301Y-47574200D02*
X135192301Y-45034200D01*
X135192301Y-50725723D02*
X135192301Y-47574200D01*
X135192301Y-53265723D02*
X135192301Y-52018879D01*
X135192301Y-56992032D02*
X135192301Y-54558879D01*
X135192301Y-57861200D02*
X135192301Y-57607200D01*
X135192301Y-60314517D02*
X135192301Y-58476367D01*
X135192301Y-69514517D02*
X135192301Y-60314517D01*
X135192301Y-71806600D02*
X135192301Y-69514517D01*
X134951001Y-30859710D02*
X134951001Y-25831000D01*
X134951001Y-32926136D02*
X134951001Y-30859710D01*
X134951001Y-39104200D02*
X134951001Y-36462063D01*
X134951001Y-42494200D02*
X134951001Y-39104200D01*
X134951001Y-45034200D02*
X134951001Y-42494200D01*
X134951001Y-47574200D02*
X134951001Y-45034200D01*
X134951001Y-50484423D02*
X134951001Y-47574200D01*
X134951001Y-53024423D02*
X134951001Y-51777579D01*
X134951001Y-58091090D02*
X134951001Y-54317579D01*
X134951001Y-60314517D02*
X134951001Y-58091090D01*
X134951001Y-69514517D02*
X134951001Y-60314517D01*
X134951001Y-71806600D02*
X134951001Y-69514517D01*
X134709701Y-30859710D02*
X134709701Y-25831000D01*
X134709701Y-33100237D02*
X134709701Y-30859710D01*
X134709701Y-52783123D02*
X134709701Y-51536279D01*
X134709701Y-58091090D02*
X134709701Y-54076279D01*
X134709701Y-60314517D02*
X134709701Y-58091090D01*
X134709701Y-69514517D02*
X134709701Y-60314517D01*
X134709701Y-71806600D02*
X134709701Y-69514517D01*
X134468401Y-30859710D02*
X134468401Y-25831000D01*
X134468401Y-34213800D02*
X134468401Y-30859710D01*
X134468401Y-52541823D02*
X134468401Y-51294979D01*
X134468401Y-58091090D02*
X134468401Y-53834979D01*
X134468401Y-60314517D02*
X134468401Y-58091090D01*
X134468401Y-69514517D02*
X134468401Y-60314517D01*
X134468401Y-71806600D02*
X134468401Y-69514517D01*
X134227101Y-30859710D02*
X134227101Y-25831000D01*
X134227101Y-33035935D02*
X134227101Y-30859710D01*
X134227101Y-52300523D02*
X134227101Y-51053679D01*
X134227101Y-58091090D02*
X134227101Y-53593679D01*
X134227101Y-60314517D02*
X134227101Y-58091090D01*
X134227101Y-69514517D02*
X134227101Y-60314517D01*
X134227101Y-71806600D02*
X134227101Y-69514517D01*
X133985801Y-30859710D02*
X133985801Y-25831000D01*
X133985801Y-32915899D02*
X133985801Y-30859710D01*
X133985801Y-52059223D02*
X133985801Y-36481502D01*
X133985801Y-58091090D02*
X133985801Y-53352379D01*
X133985801Y-60314517D02*
X133985801Y-58091090D01*
X133985801Y-69514517D02*
X133985801Y-60314517D01*
X133985801Y-71806600D02*
X133985801Y-69514517D01*
X133744501Y-30859710D02*
X133744501Y-25831000D01*
X133744501Y-32885236D02*
X133744501Y-30859710D01*
X133744501Y-58091090D02*
X133744501Y-53111079D01*
X133744501Y-60314517D02*
X133744501Y-58091090D01*
X133744501Y-69514517D02*
X133744501Y-60314517D01*
X133744501Y-71806600D02*
X133744501Y-69514517D01*
X133503201Y-30859710D02*
X133503201Y-25831000D01*
X133503201Y-32885236D02*
X133503201Y-30859710D01*
X133503201Y-58091090D02*
X133503201Y-52869779D01*
X133503201Y-60314517D02*
X133503201Y-58091090D01*
X133503201Y-69514517D02*
X133503201Y-60314517D01*
X133503201Y-71806600D02*
X133503201Y-69514517D01*
X133261901Y-30859710D02*
X133261901Y-25831000D01*
X133261901Y-32885236D02*
X133261901Y-30859710D01*
X133261901Y-58091090D02*
X133261901Y-52628479D01*
X133261901Y-60314517D02*
X133261901Y-58091090D01*
X133261901Y-69514517D02*
X133261901Y-60314517D01*
X133261901Y-71806600D02*
X133261901Y-69514517D01*
X133020601Y-30859710D02*
X133020601Y-25831000D01*
X133020601Y-32885236D02*
X133020601Y-30859710D01*
X133020601Y-34760236D02*
X133020601Y-34640643D01*
X133020601Y-58091090D02*
X133020601Y-52387344D01*
X133020601Y-60314517D02*
X133020601Y-58091090D01*
X133020601Y-69514517D02*
X133020601Y-60314517D01*
X133020601Y-71806600D02*
X133020601Y-69514517D01*
X132779301Y-30859710D02*
X132779301Y-25831000D01*
X132779301Y-32913053D02*
X132779301Y-30859710D01*
X132779301Y-34788053D02*
X132779301Y-34609346D01*
X132779301Y-58091090D02*
X132779301Y-36484346D01*
X132779301Y-60314517D02*
X132779301Y-58091090D01*
X132779301Y-69514517D02*
X132779301Y-60314517D01*
X132779301Y-71806600D02*
X132779301Y-69514517D01*
X132538001Y-30859710D02*
X132538001Y-25831000D01*
X132538001Y-33026377D02*
X132538001Y-30859710D01*
X132538001Y-34901377D02*
X132538001Y-34496022D01*
X132538001Y-58091090D02*
X132538001Y-36371022D01*
X132538001Y-60314517D02*
X132538001Y-58091090D01*
X132538001Y-69514517D02*
X132538001Y-60314517D01*
X132538001Y-71806600D02*
X132538001Y-69514517D01*
X132296701Y-30859710D02*
X132296701Y-25831000D01*
X132296701Y-33468357D02*
X132296701Y-30859710D01*
X132296701Y-35343357D02*
X132296701Y-34054042D01*
X132296701Y-58091090D02*
X132296701Y-35929042D01*
X132296701Y-60314517D02*
X132296701Y-58091090D01*
X132296701Y-69514517D02*
X132296701Y-60314517D01*
X132296701Y-71806600D02*
X132296701Y-69514517D01*
X132055401Y-30859710D02*
X132055401Y-25831000D01*
X132055401Y-33517450D02*
X132055401Y-30859710D01*
X132055401Y-58091090D02*
X132055401Y-33517450D01*
X132055401Y-60314517D02*
X132055401Y-58091090D01*
X132055401Y-69514517D02*
X132055401Y-60314517D01*
X132055401Y-71806600D02*
X132055401Y-69514517D01*
X131814101Y-30859710D02*
X131814101Y-25831000D01*
X131814101Y-33517450D02*
X131814101Y-30859710D01*
X131814101Y-58091090D02*
X131814101Y-33517450D01*
X131814101Y-60314517D02*
X131814101Y-58091090D01*
X131814101Y-69514517D02*
X131814101Y-60314517D01*
X131814101Y-71806600D02*
X131814101Y-69514517D01*
X131572801Y-30859710D02*
X131572801Y-25831000D01*
X131572801Y-33517450D02*
X131572801Y-30859710D01*
X131572801Y-58091090D02*
X131572801Y-33517450D01*
X131572801Y-60314517D02*
X131572801Y-58091090D01*
X131572801Y-69514517D02*
X131572801Y-60314517D01*
X131572801Y-71806600D02*
X131572801Y-69514517D01*
X131331501Y-30859710D02*
X131331501Y-25831000D01*
X131331501Y-33517450D02*
X131331501Y-30859710D01*
X131331501Y-58091090D02*
X131331501Y-33517450D01*
X131331501Y-60314517D02*
X131331501Y-58091090D01*
X131331501Y-69514517D02*
X131331501Y-60314517D01*
X131331501Y-71806600D02*
X131331501Y-69514517D01*
X131090201Y-30859710D02*
X131090201Y-25831000D01*
X131090201Y-33517450D02*
X131090201Y-30859710D01*
X131090201Y-58091090D02*
X131090201Y-33517450D01*
X131090201Y-60314517D02*
X131090201Y-58091090D01*
X131090201Y-69514517D02*
X131090201Y-60314517D01*
X131090201Y-71806600D02*
X131090201Y-69514517D01*
X130848901Y-30859710D02*
X130848901Y-25831000D01*
X130848901Y-33517450D02*
X130848901Y-30859710D01*
X130848901Y-58091090D02*
X130848901Y-33517450D01*
X130848901Y-60314517D02*
X130848901Y-58091090D01*
X130848901Y-69514517D02*
X130848901Y-60314517D01*
X130848901Y-71806600D02*
X130848901Y-69514517D01*
X130607601Y-30859710D02*
X130607601Y-25831000D01*
X130607601Y-33517450D02*
X130607601Y-30859710D01*
X130607601Y-58091090D02*
X130607601Y-33517450D01*
X130607601Y-60314517D02*
X130607601Y-58091090D01*
X130607601Y-69514517D02*
X130607601Y-60314517D01*
X130607601Y-71806600D02*
X130607601Y-69514517D01*
X130366301Y-30859710D02*
X130366301Y-25831000D01*
X130366301Y-33517450D02*
X130366301Y-30859710D01*
X130366301Y-58091090D02*
X130366301Y-33517450D01*
X130366301Y-60314517D02*
X130366301Y-58091090D01*
X130366301Y-69514517D02*
X130366301Y-60314517D01*
X130366301Y-71806600D02*
X130366301Y-69514517D01*
X130125001Y-30859710D02*
X130125001Y-25831000D01*
X130125001Y-33517450D02*
X130125001Y-30859710D01*
X130125001Y-58091090D02*
X130125001Y-33517450D01*
X130125001Y-60314517D02*
X130125001Y-58091090D01*
X130125001Y-69514517D02*
X130125001Y-60314517D01*
X130125001Y-71806600D02*
X130125001Y-69514517D01*
D24*
X173559000Y-71806600D02*
X129971000Y-71806600D01*
X129971000Y-69514517D01*
X135398081Y-69514517D01*
X135398081Y-69682683D01*
X135420917Y-69797488D01*
X135420917Y-69797489D01*
X135437719Y-69838051D01*
X135485272Y-69952856D01*
X135485275Y-69952859D01*
X135550303Y-70050181D01*
X135669217Y-70169095D01*
X135766541Y-70234125D01*
X135766544Y-70234128D01*
X135921912Y-70298483D01*
X136036716Y-70321319D01*
X136036724Y-70321319D01*
X136078355Y-70329600D01*
X137163245Y-70329600D01*
X137204876Y-70321319D01*
X137204883Y-70321319D01*
X137319688Y-70298483D01*
X137319689Y-70298483D01*
X137365276Y-70279600D01*
X137475056Y-70234128D01*
X137475059Y-70234125D01*
X137572383Y-70169095D01*
X137691297Y-70050181D01*
X137756325Y-69952859D01*
X137756328Y-69952856D01*
X137820683Y-69797488D01*
X137843519Y-69682684D01*
X137843519Y-69514516D01*
X137820683Y-69399712D01*
X137756328Y-69244344D01*
X137756325Y-69244341D01*
X137691295Y-69147017D01*
X137572381Y-69028103D01*
X137475059Y-68963075D01*
X137475056Y-68963072D01*
X137365195Y-68917566D01*
X137319689Y-68898717D01*
X137319688Y-68898717D01*
X137204883Y-68875881D01*
X137204876Y-68875881D01*
X137163245Y-68867600D01*
X136078355Y-68867600D01*
X136036724Y-68875881D01*
X136036716Y-68875881D01*
X135921912Y-68898717D01*
X135766544Y-68963072D01*
X135766541Y-68963075D01*
X135669219Y-69028103D01*
X135550305Y-69147017D01*
X135485275Y-69244341D01*
X135485272Y-69244344D01*
X135461231Y-69302385D01*
X135420918Y-69399710D01*
X135420917Y-69399712D01*
X135398081Y-69514517D01*
X129971000Y-69514517D01*
X129971000Y-60314517D01*
X135398081Y-60314517D01*
X135398081Y-60482683D01*
X135420917Y-60597488D01*
X135420917Y-60597489D01*
X135433886Y-60628799D01*
X135485272Y-60752856D01*
X135485275Y-60752859D01*
X135550303Y-60850181D01*
X135669217Y-60969095D01*
X135766541Y-61034125D01*
X135766544Y-61034128D01*
X135921912Y-61098483D01*
X136036716Y-61121319D01*
X136036724Y-61121319D01*
X136078355Y-61129600D01*
X137163245Y-61129600D01*
X137204876Y-61121319D01*
X137204883Y-61121319D01*
X137319688Y-61098483D01*
X137319689Y-61098483D01*
X137374252Y-61075882D01*
X137475056Y-61034128D01*
X137475059Y-61034125D01*
X137572383Y-60969095D01*
X137691297Y-60850181D01*
X137756325Y-60752859D01*
X137756328Y-60752856D01*
X137820683Y-60597488D01*
X137843519Y-60482684D01*
X137843519Y-60314517D01*
X138398081Y-60314517D01*
X138398081Y-60482683D01*
X138420917Y-60597488D01*
X138420917Y-60597489D01*
X138433886Y-60628799D01*
X138485272Y-60752856D01*
X138485275Y-60752859D01*
X138550303Y-60850181D01*
X138669217Y-60969095D01*
X138766541Y-61034125D01*
X138766544Y-61034128D01*
X138921912Y-61098483D01*
X139036716Y-61121319D01*
X139036724Y-61121319D01*
X139078355Y-61129600D01*
X140163245Y-61129600D01*
X140204876Y-61121319D01*
X140204883Y-61121319D01*
X140243132Y-61113711D01*
X140223081Y-61214516D01*
X140223081Y-61214525D01*
X140214800Y-61256156D01*
X140214800Y-61499048D01*
X139970883Y-61600082D01*
X139772282Y-61798683D01*
X139733380Y-61892600D01*
X139530368Y-61892600D01*
X139270883Y-62000082D01*
X139072282Y-62198683D01*
X138964800Y-62458168D01*
X138964800Y-62739032D01*
X139072282Y-62998517D01*
X139072365Y-62998600D01*
X139072282Y-62998683D01*
X138964800Y-63258168D01*
X138964800Y-63539032D01*
X139072282Y-63798517D01*
X139072365Y-63798600D01*
X139072282Y-63798683D01*
X138964800Y-64058168D01*
X138964800Y-64339032D01*
X139072282Y-64598517D01*
X139270883Y-64797118D01*
X139530368Y-64904600D01*
X139733380Y-64904600D01*
X139772282Y-64998517D01*
X139772365Y-64998600D01*
X139772282Y-64998683D01*
X139733380Y-65092600D01*
X139530368Y-65092600D01*
X139270883Y-65200082D01*
X139072282Y-65398683D01*
X138964800Y-65658168D01*
X138964800Y-65939032D01*
X139072282Y-66198517D01*
X139072365Y-66198600D01*
X139072282Y-66198683D01*
X138964800Y-66458168D01*
X138964800Y-66739032D01*
X139072282Y-66998517D01*
X139072365Y-66998600D01*
X139072282Y-66998683D01*
X138964800Y-67258168D01*
X138964800Y-67539032D01*
X139072282Y-67798517D01*
X139270883Y-67997118D01*
X139530368Y-68104600D01*
X139733380Y-68104600D01*
X139772282Y-68198517D01*
X139970883Y-68397118D01*
X140230368Y-68504600D01*
X140264800Y-68504600D01*
X140264800Y-68748978D01*
X140328302Y-68902284D01*
X140319689Y-68898717D01*
X140319688Y-68898717D01*
X140204883Y-68875881D01*
X140204876Y-68875881D01*
X140163245Y-68867600D01*
X139078355Y-68867600D01*
X139036724Y-68875881D01*
X139036716Y-68875881D01*
X138921912Y-68898717D01*
X138766544Y-68963072D01*
X138766541Y-68963075D01*
X138669219Y-69028103D01*
X138550305Y-69147017D01*
X138485275Y-69244341D01*
X138485272Y-69244344D01*
X138461231Y-69302385D01*
X138420918Y-69399710D01*
X138420917Y-69399712D01*
X138398081Y-69514517D01*
X138398081Y-69682683D01*
X138420917Y-69797488D01*
X138420917Y-69797489D01*
X138437719Y-69838051D01*
X138485272Y-69952856D01*
X138485275Y-69952859D01*
X138550303Y-70050181D01*
X138669217Y-70169095D01*
X138766541Y-70234125D01*
X138766544Y-70234128D01*
X138921912Y-70298483D01*
X139036716Y-70321319D01*
X139036724Y-70321319D01*
X139078355Y-70329600D01*
X140163245Y-70329600D01*
X140204876Y-70321319D01*
X140204883Y-70321319D01*
X140319688Y-70298483D01*
X140319689Y-70298483D01*
X140365276Y-70279600D01*
X140475056Y-70234128D01*
X140475059Y-70234125D01*
X140572383Y-70169095D01*
X140691297Y-70050181D01*
X140756325Y-69952859D01*
X140756328Y-69952856D01*
X140820683Y-69797488D01*
X140843519Y-69682684D01*
X140843519Y-69514516D01*
X140820683Y-69399712D01*
X140787826Y-69320388D01*
X140870422Y-69354600D01*
X141171178Y-69354600D01*
X141449040Y-69239506D01*
X141661706Y-69026840D01*
X141776800Y-68748978D01*
X141776800Y-68448222D01*
X141661706Y-68170360D01*
X141449040Y-67957694D01*
X141171178Y-67842600D01*
X141076800Y-67842600D01*
X141076800Y-67658168D01*
X140969318Y-67398683D01*
X140770717Y-67200082D01*
X140624394Y-67139473D01*
X140648062Y-67137317D01*
X140838521Y-67058427D01*
X140853870Y-66861275D01*
X140370800Y-66378205D01*
X140356658Y-66392348D01*
X140344501Y-66380191D01*
X140269318Y-66198683D01*
X140269235Y-66198600D01*
X140269318Y-66198517D01*
X140308220Y-66104600D01*
X140484690Y-66104600D01*
X140564548Y-66184458D01*
X140550405Y-66198600D01*
X141033475Y-66681670D01*
X141230627Y-66666321D01*
X141344166Y-66301676D01*
X141309517Y-65921338D01*
X141230627Y-65730879D01*
X141033478Y-65715530D01*
X141150966Y-65598042D01*
X141076800Y-65523876D01*
X141076800Y-65258168D01*
X140969318Y-64998683D01*
X140969235Y-64998600D01*
X140969318Y-64998517D01*
X141076800Y-64739032D01*
X141076800Y-64473324D01*
X141150966Y-64399158D01*
X141033478Y-64281670D01*
X141230627Y-64266321D01*
X141344166Y-63901676D01*
X141309517Y-63521338D01*
X141230627Y-63330879D01*
X141033475Y-63315530D01*
X140550405Y-63798600D01*
X140564548Y-63812743D01*
X140484690Y-63892600D01*
X140308220Y-63892600D01*
X140269318Y-63798683D01*
X140269235Y-63798600D01*
X140269318Y-63798517D01*
X140344501Y-63617009D01*
X140356658Y-63604853D01*
X140370800Y-63618995D01*
X140853870Y-63135925D01*
X140838521Y-62938773D01*
X140604584Y-62865932D01*
X140770717Y-62797118D01*
X140969318Y-62598517D01*
X141076800Y-62339032D01*
X141076800Y-62296319D01*
X141104884Y-62296319D01*
X141248389Y-62267774D01*
X141248390Y-62267774D01*
X141312745Y-62241117D01*
X141403756Y-62203419D01*
X141403757Y-62203418D01*
X141525416Y-62122128D01*
X141644330Y-62003214D01*
X141725618Y-61881557D01*
X141789974Y-61726190D01*
X141789974Y-61726189D01*
X141818518Y-61582684D01*
X141818518Y-61582681D01*
X141826800Y-61541045D01*
X141826800Y-61256156D01*
X141818518Y-61214519D01*
X141818518Y-61214516D01*
X141789974Y-61071010D01*
X141725618Y-60915643D01*
X141644328Y-60793984D01*
X141525414Y-60675070D01*
X141403757Y-60593782D01*
X141403756Y-60593781D01*
X141312745Y-60556083D01*
X141248390Y-60529426D01*
X141248389Y-60529426D01*
X141104884Y-60500881D01*
X140936715Y-60500882D01*
X140936714Y-60500882D01*
X140835911Y-60520933D01*
X140843519Y-60482684D01*
X140843519Y-60314516D01*
X140820683Y-60199712D01*
X140756328Y-60044344D01*
X140756325Y-60044341D01*
X140691295Y-59947017D01*
X140572381Y-59828103D01*
X140475059Y-59763075D01*
X140475056Y-59763072D01*
X140365195Y-59717566D01*
X140319689Y-59698717D01*
X140319688Y-59698717D01*
X140204883Y-59675881D01*
X140204876Y-59675881D01*
X140163245Y-59667600D01*
X139078355Y-59667600D01*
X139036724Y-59675881D01*
X139036716Y-59675881D01*
X138921912Y-59698717D01*
X138766544Y-59763072D01*
X138766541Y-59763075D01*
X138669219Y-59828103D01*
X138550305Y-59947017D01*
X138485275Y-60044341D01*
X138485272Y-60044344D01*
X138461231Y-60102385D01*
X138420918Y-60199710D01*
X138420917Y-60199712D01*
X138398081Y-60314517D01*
X137843519Y-60314517D01*
X137843519Y-60314516D01*
X137820683Y-60199712D01*
X137756328Y-60044344D01*
X137756325Y-60044341D01*
X137691295Y-59947017D01*
X137572381Y-59828103D01*
X137475059Y-59763075D01*
X137475056Y-59763072D01*
X137365195Y-59717566D01*
X137319689Y-59698717D01*
X137319688Y-59698717D01*
X137204883Y-59675881D01*
X137204876Y-59675881D01*
X137163245Y-59667600D01*
X136078355Y-59667600D01*
X136036724Y-59675881D01*
X136036716Y-59675881D01*
X135921912Y-59698717D01*
X135766544Y-59763072D01*
X135766541Y-59763075D01*
X135669219Y-59828103D01*
X135550305Y-59947017D01*
X135485275Y-60044341D01*
X135485272Y-60044344D01*
X135461231Y-60102385D01*
X135420918Y-60199710D01*
X135420917Y-60199712D01*
X135398081Y-60314517D01*
X129971000Y-60314517D01*
X129971000Y-58091090D01*
X135032724Y-58091090D01*
X135202555Y-58501124D01*
X135592842Y-58929383D01*
X136117308Y-59175686D01*
X136347200Y-59055019D01*
X136347200Y-57861200D01*
X136601200Y-57861200D01*
X136601200Y-59055019D01*
X136831092Y-59175686D01*
X137355558Y-58929383D01*
X137745845Y-58501124D01*
X137915676Y-58091090D01*
X137794355Y-57861200D01*
X136601200Y-57861200D01*
X136347200Y-57861200D01*
X135154045Y-57861200D01*
X135032724Y-58091090D01*
X129971000Y-58091090D01*
X129971000Y-33517450D01*
X132286936Y-33517450D01*
X132286936Y-34004950D01*
X132335060Y-34246888D01*
X132472107Y-34451993D01*
X132677212Y-34589040D01*
X132919150Y-34637164D01*
X133018276Y-34637164D01*
X133045778Y-34678323D01*
X133083952Y-34703830D01*
X133140358Y-34760236D01*
X132919150Y-34760236D01*
X132677212Y-34808360D01*
X132472107Y-34945407D01*
X132335060Y-35150512D01*
X132286936Y-35392450D01*
X132286936Y-35879950D01*
X132335060Y-36121888D01*
X132472107Y-36326993D01*
X132677212Y-36464040D01*
X132918201Y-36511975D01*
X132918200Y-52050370D01*
X132909243Y-52095400D01*
X132930724Y-52203391D01*
X132944727Y-52273790D01*
X133045777Y-52425023D01*
X133083954Y-52450532D01*
X135327716Y-54694295D01*
X135314624Y-54713888D01*
X135219084Y-55194200D01*
X135314624Y-55674512D01*
X135586699Y-56081701D01*
X135991163Y-56351955D01*
X135592842Y-56539017D01*
X135202555Y-56967276D01*
X135032724Y-57377310D01*
X135154045Y-57607200D01*
X136347200Y-57607200D01*
X136347200Y-57587200D01*
X136601200Y-57587200D01*
X136601200Y-57607200D01*
X137794355Y-57607200D01*
X137915676Y-57377310D01*
X137745845Y-56967276D01*
X137355558Y-56539017D01*
X136957237Y-56351955D01*
X137361701Y-56081701D01*
X137633776Y-55674512D01*
X137638373Y-55651400D01*
X144238170Y-55651400D01*
X144195800Y-55753691D01*
X144195800Y-56006309D01*
X144292473Y-56239698D01*
X144373601Y-56320826D01*
X144373600Y-57291052D01*
X144364643Y-57336082D01*
X144388456Y-57455800D01*
X144400127Y-57514472D01*
X144501177Y-57665705D01*
X144539354Y-57691214D01*
X147768386Y-60920246D01*
X147793895Y-60958423D01*
X147945127Y-61059473D01*
X148078488Y-61086000D01*
X148078492Y-61086000D01*
X148123517Y-61094956D01*
X148168542Y-61086000D01*
X148336536Y-61086000D01*
X148336536Y-61578800D01*
X148366106Y-61727459D01*
X148450314Y-61853486D01*
X148576341Y-61937694D01*
X148725000Y-61967264D01*
X149725000Y-61967264D01*
X149873659Y-61937694D01*
X149999686Y-61853486D01*
X150083894Y-61727459D01*
X150113464Y-61578800D01*
X150113464Y-59678800D01*
X150083894Y-59530141D01*
X149999686Y-59404114D01*
X149873659Y-59319906D01*
X149725000Y-59290336D01*
X148725000Y-59290336D01*
X148576341Y-59319906D01*
X148450314Y-59404114D01*
X148366106Y-59530141D01*
X148336536Y-59678800D01*
X148336536Y-60171600D01*
X148312896Y-60171600D01*
X146808560Y-58667264D01*
X147185000Y-58667264D01*
X147333659Y-58637694D01*
X147459686Y-58553486D01*
X147543894Y-58427459D01*
X147573464Y-58278800D01*
X147573464Y-58211442D01*
X148160869Y-58798847D01*
X148186378Y-58837024D01*
X148337610Y-58938074D01*
X148470971Y-58964601D01*
X148516001Y-58973558D01*
X148561031Y-58964601D01*
X153816969Y-58964601D01*
X153861999Y-58973558D01*
X153870538Y-58971860D01*
X153838843Y-59131200D01*
X153847800Y-59176230D01*
X153847800Y-59290336D01*
X153805000Y-59290336D01*
X153656341Y-59319906D01*
X153530314Y-59404114D01*
X153446106Y-59530141D01*
X153416536Y-59678800D01*
X153416536Y-61578800D01*
X153446106Y-61727459D01*
X153530314Y-61853486D01*
X153656341Y-61937694D01*
X153805000Y-61967264D01*
X154805000Y-61967264D01*
X154953659Y-61937694D01*
X155079686Y-61853486D01*
X155163894Y-61727459D01*
X155193464Y-61578800D01*
X155193464Y-59678800D01*
X155163894Y-59530141D01*
X155079686Y-59404114D01*
X154953659Y-59319906D01*
X154805000Y-59290336D01*
X154792442Y-59290336D01*
X154951578Y-59131200D01*
X155066309Y-59131200D01*
X155299698Y-59034527D01*
X155478327Y-58855898D01*
X155575000Y-58622509D01*
X155575000Y-58369891D01*
X155478327Y-58136502D01*
X155304625Y-57962800D01*
X155452927Y-57814498D01*
X155535748Y-57614550D01*
X155710000Y-57614550D01*
X155710000Y-58405109D01*
X155806673Y-58638498D01*
X155985301Y-58817127D01*
X156218690Y-58913800D01*
X156559250Y-58913800D01*
X156718000Y-58755050D01*
X156718000Y-57455800D01*
X156972000Y-57455800D01*
X156972000Y-58755050D01*
X157130750Y-58913800D01*
X157471310Y-58913800D01*
X157704699Y-58817127D01*
X157883327Y-58638498D01*
X157980000Y-58405109D01*
X157980000Y-57614550D01*
X157821250Y-57455800D01*
X156972000Y-57455800D01*
X156718000Y-57455800D01*
X155868750Y-57455800D01*
X155710000Y-57614550D01*
X155535748Y-57614550D01*
X155549600Y-57581109D01*
X155549600Y-57328491D01*
X155452927Y-57095102D01*
X155274298Y-56916473D01*
X155040909Y-56819800D01*
X154788291Y-56819800D01*
X154554902Y-56916473D01*
X154376273Y-57095102D01*
X154279600Y-57328491D01*
X154279600Y-57443222D01*
X153672621Y-58050201D01*
X152653464Y-58050201D01*
X152653464Y-56378800D01*
X152628340Y-56252491D01*
X155710000Y-56252491D01*
X155710000Y-57043050D01*
X155868750Y-57201800D01*
X156718000Y-57201800D01*
X156718000Y-55902550D01*
X156972000Y-55902550D01*
X156972000Y-57201800D01*
X157821250Y-57201800D01*
X157980000Y-57043050D01*
X157980000Y-56252491D01*
X157883327Y-56019102D01*
X157704699Y-55840473D01*
X157471310Y-55743800D01*
X157130750Y-55743800D01*
X156972000Y-55902550D01*
X156718000Y-55902550D01*
X156559250Y-55743800D01*
X156218690Y-55743800D01*
X155985301Y-55840473D01*
X155806673Y-56019102D01*
X155710000Y-56252491D01*
X152628340Y-56252491D01*
X152623894Y-56230141D01*
X152539686Y-56104114D01*
X152413659Y-56019906D01*
X152265000Y-55990336D01*
X151265000Y-55990336D01*
X151116341Y-56019906D01*
X150990314Y-56104114D01*
X150906106Y-56230141D01*
X150876536Y-56378800D01*
X150876536Y-56871600D01*
X148831178Y-56871600D01*
X147802600Y-55843022D01*
X147802600Y-55728291D01*
X147770751Y-55651400D01*
X148172997Y-55651400D01*
X148218027Y-55660357D01*
X148263057Y-55651400D01*
X148396418Y-55624873D01*
X148547650Y-55523823D01*
X148573159Y-55485646D01*
X148742400Y-55316405D01*
X148742400Y-55396709D01*
X148839073Y-55630098D01*
X149017702Y-55808727D01*
X149251091Y-55905400D01*
X149503709Y-55905400D01*
X149737098Y-55808727D01*
X149792825Y-55753000D01*
X151253378Y-55753000D01*
X151298408Y-55761957D01*
X151343438Y-55753000D01*
X151476799Y-55726473D01*
X151628031Y-55625423D01*
X151653540Y-55587246D01*
X152644454Y-54596333D01*
X152886850Y-54838729D01*
X153012877Y-54922937D01*
X153161536Y-54952507D01*
X153310195Y-54922937D01*
X153436222Y-54838729D01*
X153641595Y-54633356D01*
X153853530Y-54633357D01*
X154086919Y-54536684D01*
X154168632Y-54454971D01*
X154168632Y-54230465D01*
X153355990Y-53417822D01*
X153349248Y-53424565D01*
X153169642Y-53244959D01*
X153176385Y-53238217D01*
X152363742Y-52425575D01*
X152139236Y-52425575D01*
X152057523Y-52507288D01*
X151960850Y-52740677D01*
X151960851Y-52952614D01*
X151833291Y-53080174D01*
X151833291Y-52021463D01*
X152543348Y-52021463D01*
X152543348Y-52245969D01*
X153355990Y-53058612D01*
X153362732Y-53051869D01*
X153542338Y-53231475D01*
X153535595Y-53238217D01*
X154348238Y-54050859D01*
X154572744Y-54050859D01*
X154654457Y-53969146D01*
X154751130Y-53735757D01*
X154751129Y-53523822D01*
X154772965Y-53501986D01*
X154984901Y-53501987D01*
X155218290Y-53405314D01*
X155300003Y-53323601D01*
X155300003Y-53099095D01*
X154487361Y-52286452D01*
X154480619Y-52293194D01*
X154301014Y-52113589D01*
X154307756Y-52106847D01*
X153495113Y-51294205D01*
X153270607Y-51294205D01*
X153367522Y-51197289D01*
X153188894Y-51375918D01*
X153092221Y-51609307D01*
X153092222Y-51821243D01*
X153070387Y-51843078D01*
X152858450Y-51843077D01*
X152625061Y-51939750D01*
X152543348Y-52021463D01*
X151833291Y-52021463D01*
X151833291Y-49871921D01*
X151842248Y-49826891D01*
X151806764Y-49648500D01*
X151731221Y-49535442D01*
X151705714Y-49497268D01*
X151667540Y-49471761D01*
X151206200Y-49010422D01*
X151206200Y-48895691D01*
X151109527Y-48662302D01*
X150990274Y-48543049D01*
X152403649Y-47129674D01*
X152413422Y-47139447D01*
X152413422Y-47482277D01*
X152404465Y-47527307D01*
X152413422Y-47572336D01*
X152439949Y-47705697D01*
X152540999Y-47856930D01*
X152579176Y-47882439D01*
X154057802Y-49361066D01*
X153985978Y-49468558D01*
X153950494Y-49646948D01*
X153959452Y-49691983D01*
X153959451Y-50724287D01*
X153756432Y-50808380D01*
X153674719Y-50890093D01*
X153674719Y-51114599D01*
X154487361Y-51927242D01*
X154494104Y-51920499D01*
X154673709Y-52100104D01*
X154666966Y-52106847D01*
X155479609Y-52919489D01*
X155704115Y-52919489D01*
X155785828Y-52837776D01*
X155882501Y-52604387D01*
X155882500Y-52392451D01*
X156087873Y-52187078D01*
X156158679Y-52081108D01*
X156264649Y-52010302D01*
X156583963Y-51690988D01*
X156601252Y-51708277D01*
X156834641Y-51804950D01*
X157087259Y-51804950D01*
X157320648Y-51708277D01*
X157499277Y-51529648D01*
X157595950Y-51296259D01*
X157595950Y-51043641D01*
X157499277Y-50810252D01*
X157481988Y-50792963D01*
X157784929Y-50490022D01*
X157869137Y-50363995D01*
X157898707Y-50215336D01*
X157869137Y-50066677D01*
X157784929Y-49940650D01*
X157092408Y-49248129D01*
X157093781Y-49248402D01*
X157138811Y-49239445D01*
X157272172Y-49212918D01*
X157423404Y-49111868D01*
X157448913Y-49073691D01*
X159073195Y-47449409D01*
X160402274Y-47449409D01*
X160402274Y-47673915D01*
X160572375Y-47844017D01*
X160805764Y-47940689D01*
X161058383Y-47940689D01*
X161291772Y-47844016D01*
X161691683Y-47444105D01*
X161691683Y-47219599D01*
X161161883Y-46689799D01*
X160402274Y-47449409D01*
X159073195Y-47449409D01*
X159731388Y-46791217D01*
X159731388Y-46866313D01*
X159828060Y-47099702D01*
X159998162Y-47269803D01*
X160222668Y-47269803D01*
X160982278Y-46510194D01*
X161341488Y-46510194D01*
X161871288Y-47039994D01*
X162095794Y-47039994D01*
X162495705Y-46640083D01*
X162592378Y-46406694D01*
X162592378Y-46154075D01*
X162495706Y-45920686D01*
X162325604Y-45750585D01*
X162101098Y-45750585D01*
X161341488Y-46510194D01*
X160982278Y-46510194D01*
X160968136Y-46496052D01*
X161147741Y-46316447D01*
X161161883Y-46330589D01*
X161921492Y-45570979D01*
X161921492Y-45346473D01*
X161926167Y-45351148D01*
X161751391Y-45176371D01*
X161518002Y-45079699D01*
X161306066Y-45079699D01*
X160768354Y-44541987D01*
X160642327Y-44457779D01*
X160540480Y-44437520D01*
X160520221Y-44335673D01*
X160436013Y-44209646D01*
X160405695Y-44179328D01*
X160415352Y-44130779D01*
X160406395Y-44085749D01*
X160406395Y-43993925D01*
X160415352Y-43948895D01*
X160379868Y-43770505D01*
X160304325Y-43657447D01*
X160278818Y-43619273D01*
X160240644Y-43593766D01*
X159147443Y-42500566D01*
X159121934Y-42462389D01*
X158970702Y-42361339D01*
X158837341Y-42334812D01*
X158792311Y-42325855D01*
X158747281Y-42334812D01*
X158402498Y-42334812D01*
X158357473Y-42325856D01*
X158312448Y-42334812D01*
X158312444Y-42334812D01*
X158179083Y-42361339D01*
X158027851Y-42462389D01*
X158002342Y-42500566D01*
X156214330Y-44288578D01*
X156218957Y-44265315D01*
X156210000Y-44220285D01*
X156210000Y-41072491D01*
X160451800Y-41072491D01*
X160451800Y-41325109D01*
X160548473Y-41558498D01*
X160727102Y-41737127D01*
X160960491Y-41833800D01*
X161213109Y-41833800D01*
X161446498Y-41737127D01*
X161625127Y-41558498D01*
X161721800Y-41325109D01*
X161721800Y-41208701D01*
X161724113Y-41206388D01*
X161801648Y-41258195D01*
X161903494Y-41278453D01*
X161923753Y-41380301D01*
X162007961Y-41506328D01*
X162573646Y-42072013D01*
X162699673Y-42156221D01*
X162801520Y-42176480D01*
X162821779Y-42278327D01*
X162905987Y-42404354D01*
X163471672Y-42970039D01*
X163597699Y-43054247D01*
X163699547Y-43074506D01*
X163719805Y-43176352D01*
X163804013Y-43302379D01*
X164369698Y-43868064D01*
X164495725Y-43952272D01*
X164644384Y-43981842D01*
X164793043Y-43952272D01*
X164919070Y-43868064D01*
X165944375Y-42842759D01*
X166028583Y-42716732D01*
X166058153Y-42568073D01*
X166028583Y-42419414D01*
X165944375Y-42293387D01*
X165914057Y-42263069D01*
X165914757Y-42259550D01*
X165914757Y-42259549D01*
X165923714Y-42214520D01*
X165914757Y-42169490D01*
X165914757Y-42157855D01*
X166025284Y-42179840D01*
X166173943Y-42150270D01*
X166299970Y-42066062D01*
X166719143Y-41646889D01*
X166749899Y-41677645D01*
X166736222Y-41698115D01*
X166688098Y-41940053D01*
X166736222Y-42181991D01*
X166873269Y-42387096D01*
X167518504Y-43032331D01*
X167723609Y-43169378D01*
X167965547Y-43217502D01*
X168207485Y-43169378D01*
X168412590Y-43032331D01*
X168757305Y-42687616D01*
X168894352Y-42482511D01*
X168942476Y-42240573D01*
X168894352Y-41998635D01*
X168757305Y-41793530D01*
X168112070Y-41148295D01*
X167906965Y-41011248D01*
X167665027Y-40963124D01*
X167423089Y-41011248D01*
X167395256Y-41029846D01*
X167365721Y-41000311D01*
X167784894Y-40581138D01*
X167869102Y-40455111D01*
X167898672Y-40306452D01*
X167869508Y-40159835D01*
X168070025Y-40360351D01*
X168062048Y-40372289D01*
X168013924Y-40614227D01*
X168062048Y-40856165D01*
X168199095Y-41061270D01*
X168844330Y-41706505D01*
X169049435Y-41843552D01*
X169291373Y-41891676D01*
X169533311Y-41843552D01*
X169738416Y-41706505D01*
X170083131Y-41361790D01*
X170220178Y-41156685D01*
X170268302Y-40914747D01*
X170220178Y-40672809D01*
X170083131Y-40467704D01*
X169437896Y-39822469D01*
X169232791Y-39685422D01*
X168990853Y-39637298D01*
X168748915Y-39685422D01*
X168712551Y-39709720D01*
X166955354Y-37952523D01*
X166971491Y-37928372D01*
X167019615Y-37686434D01*
X166971491Y-37444496D01*
X166834444Y-37239391D01*
X166189209Y-36594156D01*
X165984104Y-36457109D01*
X165742166Y-36408985D01*
X165500228Y-36457109D01*
X165405969Y-36520091D01*
X165371771Y-36513289D01*
X165326741Y-36504332D01*
X165281711Y-36513289D01*
X163912341Y-36513289D01*
X163867311Y-36504332D01*
X163822281Y-36513289D01*
X163688920Y-36539816D01*
X163537688Y-36640866D01*
X163512181Y-36679040D01*
X161404954Y-38786268D01*
X161366777Y-38811777D01*
X161271962Y-38953678D01*
X161265727Y-38963010D01*
X161230243Y-39141400D01*
X161239200Y-39186431D01*
X161239201Y-39575055D01*
X161230243Y-39620089D01*
X161265727Y-39798479D01*
X161307648Y-39861218D01*
X161109936Y-40058930D01*
X161025728Y-40184957D01*
X160996158Y-40333616D01*
X161025728Y-40482275D01*
X161077535Y-40559810D01*
X161073545Y-40563800D01*
X160960491Y-40563800D01*
X160727102Y-40660473D01*
X160548473Y-40839102D01*
X160451800Y-41072491D01*
X156210000Y-41072491D01*
X156210000Y-36640147D01*
X156218957Y-36595117D01*
X156183473Y-36416727D01*
X156107930Y-36303669D01*
X156082423Y-36265495D01*
X156044249Y-36239988D01*
X155443809Y-35639548D01*
X169667328Y-35639548D01*
X169696898Y-35788207D01*
X169781106Y-35914234D01*
X170205370Y-36338498D01*
X170331397Y-36422706D01*
X170332979Y-36423021D01*
X170333294Y-36424603D01*
X170417502Y-36550630D01*
X170841766Y-36974894D01*
X170967793Y-37059102D01*
X171116452Y-37088672D01*
X171265111Y-37059102D01*
X171391138Y-36974894D01*
X172876062Y-35489970D01*
X172960270Y-35363943D01*
X172989840Y-35215284D01*
X172960270Y-35066625D01*
X172876062Y-34940598D01*
X172451798Y-34516334D01*
X172325771Y-34432126D01*
X172324189Y-34431811D01*
X172323874Y-34430229D01*
X172239666Y-34304202D01*
X171815402Y-33879938D01*
X171689375Y-33795730D01*
X171540716Y-33766160D01*
X171392057Y-33795730D01*
X171266030Y-33879938D01*
X169781106Y-35364862D01*
X169696898Y-35490889D01*
X169667328Y-35639548D01*
X155443809Y-35639548D01*
X154959415Y-35155155D01*
X154933906Y-35116978D01*
X154782674Y-35015928D01*
X154649313Y-34989401D01*
X154604283Y-34980444D01*
X154559253Y-34989401D01*
X144659028Y-34989401D01*
X144613998Y-34980444D01*
X144435608Y-35015928D01*
X144284376Y-35116978D01*
X144262750Y-35149344D01*
X144244312Y-35137024D01*
X143885239Y-35065600D01*
X143642761Y-35065600D01*
X143283688Y-35137024D01*
X142876499Y-35409099D01*
X142604424Y-35816288D01*
X142508884Y-36296600D01*
X142604424Y-36776912D01*
X142876499Y-37184101D01*
X143283688Y-37456176D01*
X143642761Y-37527600D01*
X143885239Y-37527600D01*
X144244312Y-37456176D01*
X144651501Y-37184101D01*
X144923576Y-36776912D01*
X145019116Y-36296600D01*
X144940983Y-35903801D01*
X148370342Y-35903801D01*
X148366106Y-35910141D01*
X148336536Y-36058800D01*
X148336536Y-37958800D01*
X148366106Y-38107459D01*
X148450314Y-38233486D01*
X148576341Y-38317694D01*
X148725000Y-38347264D01*
X149725000Y-38347264D01*
X149873659Y-38317694D01*
X149999686Y-38233486D01*
X150083894Y-38107459D01*
X150113464Y-37958800D01*
X150113464Y-37466000D01*
X150137104Y-37466000D01*
X151641439Y-38970336D01*
X151265000Y-38970336D01*
X151116341Y-38999906D01*
X150990314Y-39084114D01*
X150906106Y-39210141D01*
X150876536Y-39358800D01*
X150876536Y-39851600D01*
X149855230Y-39851600D01*
X149810200Y-39842643D01*
X149765170Y-39851600D01*
X149631809Y-39878127D01*
X149480577Y-39979177D01*
X149455068Y-40017354D01*
X148222822Y-41249600D01*
X145621498Y-41249600D01*
X141778501Y-37406604D01*
X142111501Y-37184101D01*
X142383576Y-36776912D01*
X142479116Y-36296600D01*
X142383576Y-35816288D01*
X142111501Y-35409099D01*
X141704312Y-35137024D01*
X141345239Y-35065600D01*
X141102761Y-35065600D01*
X140743688Y-35137024D01*
X140336499Y-35409099D01*
X140064424Y-35816288D01*
X139968884Y-36296600D01*
X140064424Y-36776912D01*
X140336499Y-37184101D01*
X140743688Y-37456176D01*
X140765437Y-37460502D01*
X140757843Y-37498681D01*
X140793327Y-37677071D01*
X140793328Y-37677072D01*
X140894378Y-37828304D01*
X140932552Y-37853811D01*
X145076989Y-41998249D01*
X145102496Y-42036423D01*
X145140670Y-42061930D01*
X145253728Y-42137473D01*
X145432119Y-42172957D01*
X145477149Y-42164000D01*
X147955001Y-42164000D01*
X147955000Y-43348775D01*
X147873873Y-43429902D01*
X147777200Y-43663291D01*
X147777200Y-43915909D01*
X147873873Y-44149298D01*
X148052502Y-44327927D01*
X148168161Y-44375834D01*
X148142547Y-44401448D01*
X148168161Y-44375835D01*
X148229997Y-44401448D01*
X148229997Y-44538505D01*
X149042639Y-45351148D01*
X149049381Y-45344406D01*
X149228986Y-45524011D01*
X149222244Y-45530753D01*
X150034887Y-46343395D01*
X150259393Y-46343395D01*
X150341106Y-46261682D01*
X150437779Y-46028293D01*
X150437778Y-45816357D01*
X150643150Y-45610985D01*
X150713955Y-45505016D01*
X150819927Y-45434209D01*
X151208836Y-45045300D01*
X151279643Y-44939328D01*
X151385612Y-44868523D01*
X151765000Y-44489135D01*
X152144388Y-44868523D01*
X152250357Y-44939328D01*
X152321164Y-45045300D01*
X152710073Y-45434209D01*
X152816045Y-45505016D01*
X152886850Y-45610985D01*
X152995865Y-45720000D01*
X152754574Y-45720000D01*
X152709544Y-45711043D01*
X152664514Y-45720000D01*
X152531153Y-45746527D01*
X152379921Y-45847577D01*
X152354412Y-45885754D01*
X148418815Y-49821351D01*
X148380409Y-49763873D01*
X147991500Y-49374964D01*
X147885528Y-49304157D01*
X147814723Y-49198188D01*
X147435335Y-48818800D01*
X147814723Y-48439412D01*
X147885528Y-48333443D01*
X147991500Y-48262636D01*
X148196873Y-48057263D01*
X148408808Y-48057264D01*
X148642197Y-47960591D01*
X148723910Y-47878878D01*
X148723910Y-47654372D01*
X147911268Y-46841729D01*
X147904526Y-46848472D01*
X147724920Y-46668866D01*
X147731663Y-46662124D01*
X147717521Y-46647982D01*
X147897126Y-46468377D01*
X147911268Y-46482519D01*
X147918010Y-46475777D01*
X148097615Y-46655382D01*
X148090873Y-46662124D01*
X148903516Y-47474766D01*
X149128022Y-47474766D01*
X149209735Y-47393053D01*
X149306408Y-47159664D01*
X149306407Y-46947728D01*
X149328243Y-46925892D01*
X149540179Y-46925893D01*
X149773568Y-46829220D01*
X149855281Y-46747507D01*
X149855281Y-46523001D01*
X149042639Y-45710358D01*
X149035896Y-45717101D01*
X148856291Y-45537496D01*
X148863034Y-45530753D01*
X148050391Y-44718111D01*
X147903596Y-44718111D01*
X147880835Y-44663161D01*
X147922800Y-44621195D01*
X147880834Y-44663161D01*
X147832927Y-44547502D01*
X147654298Y-44368873D01*
X147420909Y-44272200D01*
X147168291Y-44272200D01*
X146934902Y-44368873D01*
X146854315Y-44449460D01*
X146812000Y-44441043D01*
X146766970Y-44450000D01*
X146633609Y-44476527D01*
X146555032Y-44529031D01*
X146549983Y-44523982D01*
X146344878Y-44386935D01*
X146102940Y-44338811D01*
X145861002Y-44386935D01*
X145655897Y-44523982D01*
X145311182Y-44868697D01*
X145174135Y-45073802D01*
X145126011Y-45315740D01*
X145147680Y-45424677D01*
X145136812Y-45413809D01*
X144903423Y-45317136D01*
X144650804Y-45317137D01*
X144417415Y-45413810D01*
X144185442Y-45645783D01*
X144185442Y-45870289D01*
X144927374Y-46612221D01*
X144941517Y-46598079D01*
X145121122Y-46777684D01*
X145106979Y-46791826D01*
X145121122Y-46805969D01*
X144941517Y-46985574D01*
X144927374Y-46971431D01*
X144335702Y-47563103D01*
X144335702Y-47787609D01*
X144717936Y-48169843D01*
X144791561Y-48200340D01*
X144598102Y-48280473D01*
X144419473Y-48459102D01*
X144322800Y-48692491D01*
X144322800Y-48807221D01*
X143473022Y-49657000D01*
X137638373Y-49657000D01*
X137633776Y-49633888D01*
X137361701Y-49226699D01*
X136954512Y-48954624D01*
X136595439Y-48883200D01*
X136352961Y-48883200D01*
X135993888Y-48954624D01*
X135586699Y-49226699D01*
X135314624Y-49633888D01*
X135219084Y-50114200D01*
X135314624Y-50594512D01*
X135586699Y-51001701D01*
X135993888Y-51273776D01*
X136352961Y-51345200D01*
X136595439Y-51345200D01*
X136954512Y-51273776D01*
X137361701Y-51001701D01*
X137633776Y-50594512D01*
X137638373Y-50571400D01*
X143617370Y-50571400D01*
X143662400Y-50580357D01*
X143707430Y-50571400D01*
X143840791Y-50544873D01*
X143992023Y-50443823D01*
X144017532Y-50405646D01*
X144969379Y-49453800D01*
X145084109Y-49453800D01*
X145317498Y-49357127D01*
X145496127Y-49178498D01*
X145592800Y-48945109D01*
X145592800Y-48692491D01*
X145496127Y-48459102D01*
X145317498Y-48280473D01*
X145243872Y-48249976D01*
X145437333Y-48169842D01*
X145669306Y-47937869D01*
X145669306Y-47713366D01*
X145781558Y-47825618D01*
X145827649Y-47779528D01*
X146866921Y-48818800D01*
X145745071Y-49940650D01*
X145660863Y-50066677D01*
X145631293Y-50215336D01*
X145652993Y-50324430D01*
X144005952Y-51971472D01*
X143967778Y-51996979D01*
X143942271Y-52035153D01*
X143942270Y-52035154D01*
X143866727Y-52148212D01*
X143831243Y-52326602D01*
X143840201Y-52371636D01*
X143840201Y-52746774D01*
X143759073Y-52827902D01*
X143662400Y-53061291D01*
X143662400Y-53313909D01*
X143759073Y-53547298D01*
X143937702Y-53725927D01*
X144171091Y-53822600D01*
X144195800Y-53822600D01*
X144195800Y-53974309D01*
X144292473Y-54207698D01*
X144471102Y-54386327D01*
X144704491Y-54483000D01*
X144957109Y-54483000D01*
X145190498Y-54386327D01*
X145369127Y-54207698D01*
X145465800Y-53974309D01*
X145465800Y-53721691D01*
X145369127Y-53488302D01*
X145288000Y-53407175D01*
X145288000Y-53113951D01*
X146300763Y-52101188D01*
X146426902Y-52227327D01*
X146660291Y-52324000D01*
X146775021Y-52324000D01*
X146920027Y-52469005D01*
X146945534Y-52507180D01*
X146971857Y-52524768D01*
X146939000Y-52604091D01*
X146939000Y-52856709D01*
X147035673Y-53090098D01*
X147214302Y-53268727D01*
X147447691Y-53365400D01*
X147700309Y-53365400D01*
X147822951Y-53314600D01*
X148247056Y-53314600D01*
X148292086Y-53323557D01*
X148337116Y-53314600D01*
X148470477Y-53288073D01*
X148527668Y-53249859D01*
X148573498Y-53318449D01*
X148962407Y-53707358D01*
X149019885Y-53745764D01*
X148028649Y-54737000D01*
X137638373Y-54737000D01*
X137633776Y-54713888D01*
X137361701Y-54306699D01*
X136954512Y-54034624D01*
X136595439Y-53963200D01*
X136352961Y-53963200D01*
X135993888Y-54034624D01*
X135974295Y-54047716D01*
X133832600Y-51906022D01*
X133832600Y-36511975D01*
X134035800Y-36471556D01*
X134035801Y-50627965D01*
X134026843Y-50673000D01*
X134062327Y-50851390D01*
X134137870Y-50964448D01*
X134163378Y-51002623D01*
X134201552Y-51028130D01*
X135327716Y-52154295D01*
X135314624Y-52173888D01*
X135219084Y-52654200D01*
X135314624Y-53134512D01*
X135586699Y-53541701D01*
X135993888Y-53813776D01*
X136352961Y-53885200D01*
X136595439Y-53885200D01*
X136954512Y-53813776D01*
X137361701Y-53541701D01*
X137633776Y-53134512D01*
X137729316Y-52654200D01*
X137633776Y-52173888D01*
X137361701Y-51766699D01*
X136954512Y-51494624D01*
X136595439Y-51423200D01*
X136352961Y-51423200D01*
X135993888Y-51494624D01*
X135974295Y-51507716D01*
X134950200Y-50483622D01*
X134950200Y-47574200D01*
X135219084Y-47574200D01*
X135314624Y-48054512D01*
X135586699Y-48461701D01*
X135993888Y-48733776D01*
X136352961Y-48805200D01*
X136595439Y-48805200D01*
X136954512Y-48733776D01*
X137361701Y-48461701D01*
X137633776Y-48054512D01*
X137638373Y-48031400D01*
X142047322Y-48031400D01*
X142098650Y-48082728D01*
X142098650Y-48197459D01*
X142195323Y-48430848D01*
X142373952Y-48609477D01*
X142607341Y-48706150D01*
X142859959Y-48706150D01*
X143093348Y-48609477D01*
X143271977Y-48430848D01*
X143368650Y-48197459D01*
X143368650Y-47944841D01*
X143271977Y-47711452D01*
X143093348Y-47532823D01*
X142859959Y-47436150D01*
X142745228Y-47436150D01*
X142591832Y-47282754D01*
X142566323Y-47244577D01*
X142415091Y-47143527D01*
X142281730Y-47117000D01*
X142236700Y-47108043D01*
X142191670Y-47117000D01*
X137638373Y-47117000D01*
X137633776Y-47093888D01*
X137415942Y-46767875D01*
X143452684Y-46767875D01*
X143549357Y-47001264D01*
X143931591Y-47383498D01*
X144156097Y-47383498D01*
X144747769Y-46791826D01*
X144005837Y-46049894D01*
X143781331Y-46049894D01*
X143549358Y-46281867D01*
X143452685Y-46515256D01*
X143452684Y-46767875D01*
X137415942Y-46767875D01*
X137361701Y-46686699D01*
X136954512Y-46414624D01*
X136595439Y-46343200D01*
X136352961Y-46343200D01*
X135993888Y-46414624D01*
X135586699Y-46686699D01*
X135314624Y-47093888D01*
X135219084Y-47574200D01*
X134950200Y-47574200D01*
X134950200Y-45034200D01*
X135219084Y-45034200D01*
X135314624Y-45514512D01*
X135586699Y-45921701D01*
X135993888Y-46193776D01*
X136352961Y-46265200D01*
X136595439Y-46265200D01*
X136954512Y-46193776D01*
X137361701Y-45921701D01*
X137633776Y-45514512D01*
X137729316Y-45034200D01*
X137633776Y-44553888D01*
X137361701Y-44146699D01*
X136954512Y-43874624D01*
X136595439Y-43803200D01*
X136352961Y-43803200D01*
X135993888Y-43874624D01*
X135586699Y-44146699D01*
X135314624Y-44553888D01*
X135219084Y-45034200D01*
X134950200Y-45034200D01*
X134950200Y-42494200D01*
X135219084Y-42494200D01*
X135314624Y-42974512D01*
X135586699Y-43381701D01*
X135993888Y-43653776D01*
X136352961Y-43725200D01*
X136595439Y-43725200D01*
X136954512Y-43653776D01*
X137361701Y-43381701D01*
X137633776Y-42974512D01*
X137729316Y-42494200D01*
X137633776Y-42013888D01*
X137361701Y-41606699D01*
X136954512Y-41334624D01*
X136595439Y-41263200D01*
X136352961Y-41263200D01*
X135993888Y-41334624D01*
X135586699Y-41606699D01*
X135314624Y-42013888D01*
X135219084Y-42494200D01*
X134950200Y-42494200D01*
X134950200Y-39104200D01*
X135235736Y-39104200D01*
X135235736Y-40804200D01*
X135265306Y-40952859D01*
X135349514Y-41078886D01*
X135475541Y-41163094D01*
X135624200Y-41192664D01*
X137324200Y-41192664D01*
X137472859Y-41163094D01*
X137598886Y-41078886D01*
X137683094Y-40952859D01*
X137712664Y-40804200D01*
X137712664Y-39104200D01*
X137683094Y-38955541D01*
X137598886Y-38829514D01*
X137472859Y-38745306D01*
X137324200Y-38715736D01*
X135624200Y-38715736D01*
X135475541Y-38745306D01*
X135349514Y-38829514D01*
X135265306Y-38955541D01*
X135235736Y-39104200D01*
X134950200Y-39104200D01*
X134950200Y-36461904D01*
X135179750Y-36507564D01*
X136092250Y-36507564D01*
X136334188Y-36459440D01*
X136539293Y-36322393D01*
X136676340Y-36117288D01*
X136724464Y-35875350D01*
X136724464Y-35387850D01*
X136676340Y-35145912D01*
X136664505Y-35128200D01*
X140264570Y-35128200D01*
X140309600Y-35137157D01*
X140354630Y-35128200D01*
X140487991Y-35101673D01*
X140639223Y-35000623D01*
X140664732Y-34962446D01*
X140724094Y-34903084D01*
X140743688Y-34916176D01*
X141102761Y-34987600D01*
X141345239Y-34987600D01*
X141704312Y-34916176D01*
X142111501Y-34644101D01*
X142383576Y-34236912D01*
X142479116Y-33756600D01*
X142383576Y-33276288D01*
X142289303Y-33135199D01*
X142496021Y-33135199D01*
X142617516Y-33256694D01*
X142604424Y-33276288D01*
X142508884Y-33756600D01*
X142604424Y-34236912D01*
X142876499Y-34644101D01*
X143283688Y-34916176D01*
X143642761Y-34987600D01*
X143885239Y-34987600D01*
X144244312Y-34916176D01*
X144651501Y-34644101D01*
X144923576Y-34236912D01*
X145019116Y-33756600D01*
X144923576Y-33276288D01*
X144651501Y-32869099D01*
X144244312Y-32597024D01*
X143885239Y-32525600D01*
X143642761Y-32525600D01*
X143283688Y-32597024D01*
X143264094Y-32610116D01*
X143109042Y-32455064D01*
X144614000Y-32455064D01*
X144762659Y-32425494D01*
X144888686Y-32341286D01*
X144972894Y-32215259D01*
X145002464Y-32066600D01*
X145002464Y-30366600D01*
X144972894Y-30217941D01*
X144888686Y-30091914D01*
X144762659Y-30007706D01*
X144614000Y-29978136D01*
X142914000Y-29978136D01*
X142765341Y-30007706D01*
X142639314Y-30091914D01*
X142555106Y-30217941D01*
X142525536Y-30366600D01*
X142525536Y-30521844D01*
X142495645Y-30449676D01*
X142105358Y-30021417D01*
X141580892Y-29775114D01*
X141351000Y-29895781D01*
X141351000Y-31089600D01*
X141371000Y-31089600D01*
X141371000Y-31343600D01*
X141351000Y-31343600D01*
X141351000Y-31363600D01*
X141097000Y-31363600D01*
X141097000Y-31343600D01*
X139903845Y-31343600D01*
X139782524Y-31573490D01*
X139952355Y-31983524D01*
X140168592Y-32220799D01*
X136073831Y-32220799D01*
X136028801Y-32211842D01*
X135983771Y-32220799D01*
X135850410Y-32247326D01*
X135699178Y-32348376D01*
X135673669Y-32386553D01*
X135344554Y-32715668D01*
X135306377Y-32741177D01*
X135213194Y-32880636D01*
X135179750Y-32880636D01*
X134937812Y-32928760D01*
X134732707Y-33065807D01*
X134595660Y-33270912D01*
X134547536Y-33512850D01*
X134547536Y-34000350D01*
X134589993Y-34213800D01*
X134422322Y-34213800D01*
X134463864Y-34004950D01*
X134463864Y-33517450D01*
X134415740Y-33275512D01*
X134278693Y-33070407D01*
X134073588Y-32933360D01*
X133831650Y-32885236D01*
X132919150Y-32885236D01*
X132677212Y-32933360D01*
X132472107Y-33070407D01*
X132335060Y-33275512D01*
X132286936Y-33517450D01*
X129971000Y-33517450D01*
X129971000Y-30859710D01*
X139782524Y-30859710D01*
X139903845Y-31089600D01*
X141097000Y-31089600D01*
X141097000Y-29895781D01*
X140867108Y-29775114D01*
X140342642Y-30021417D01*
X139952355Y-30449676D01*
X139782524Y-30859710D01*
X129971000Y-30859710D01*
X129971000Y-25831000D01*
X173559001Y-25831000D01*
X173559000Y-71806600D01*
G04 #@! TD*
M02*
